M48
; DRILL file {KiCad 7.0.5} date Wed Mar  6 22:54:04 2024
; FORMAT={3:3/ absolute / metric / keep zeros}
; #@! TF.CreationDate,2024-03-06T22:54:04+09:00
; #@! TF.GenerationSoftware,Kicad,Pcbnew,7.0.5
; #@! TF.FileFunction,MixedPlating,1,2
FMAT,2
METRIC
; #@! TA.AperFunction,Plated,PTH,ViaDrill
T1C0.400
; #@! TA.AperFunction,Plated,PTH,ComponentDrill
T2C0.950
; #@! TA.AperFunction,Plated,PTH,ComponentDrill
T3C1.000
; #@! TA.AperFunction,Plated,PTH,ComponentDrill
T4C4.500
; #@! TA.AperFunction,NonPlated,NPTH,ComponentDrill
T5C3.200
%
G90
G05
T1
X158750Y-078740
X158750Y-080010
X158750Y-081280
X166370Y-069850
X167640Y-068580
X168910Y-067310
T2
X186771Y-061080
X186771Y-063580
X186771Y-066080
X186771Y-068580
X186771Y-139760
X186771Y-142260
X186771Y-144760
X186771Y-147260
T3
X102951Y-059825
X102951Y-062365
X102951Y-085225
X102951Y-087765
X102951Y-136025
X102951Y-138565
X102981Y-110625
X102981Y-113165
X105491Y-059825
X105491Y-062365
X105491Y-085225
X105491Y-087765
X105491Y-136025
X105491Y-138565
X105521Y-110625
X105521Y-113165
X108031Y-059825
X108031Y-062365
X108031Y-085225
X108031Y-087765
X108031Y-136025
X108031Y-138565
X108061Y-110625
X108061Y-113165
X110571Y-059825
X110571Y-062365
X110571Y-085225
X110571Y-087765
X110571Y-136025
X110571Y-138565
X110601Y-110625
X110601Y-113165
X113111Y-059825
X113111Y-062365
X113111Y-085225
X113111Y-087765
X113111Y-136025
X113111Y-138565
X113141Y-110625
X113141Y-113165
X115651Y-059825
X115651Y-062365
X115651Y-085225
X115651Y-087765
X115651Y-136025
X115651Y-138565
X115681Y-110625
X115681Y-113165
X118191Y-059825
X118191Y-062365
X118191Y-085225
X118191Y-087765
X118191Y-136025
X118191Y-138565
X118221Y-110625
X118221Y-113165
X120731Y-059825
X120731Y-062365
X120731Y-085225
X120731Y-087765
X120731Y-136025
X120731Y-138565
X120761Y-110625
X120761Y-113165
X123271Y-059825
X123271Y-062365
X123271Y-085225
X123271Y-087765
X123271Y-136025
X123271Y-138565
X123301Y-110625
X123301Y-113165
X125811Y-059825
X125811Y-062365
X125811Y-085225
X125811Y-087765
X125811Y-136025
X125811Y-138565
X125841Y-110625
X125841Y-113165
X128351Y-059825
X128351Y-062365
X128351Y-085225
X128351Y-087765
X128351Y-136025
X128351Y-138565
X128381Y-110625
X128381Y-113165
X130891Y-059825
X130891Y-062365
X130891Y-085225
X130891Y-087765
X130891Y-136025
X130891Y-138565
X130921Y-110625
X130921Y-113165
X133431Y-059825
X133431Y-062365
X133431Y-085225
X133431Y-087765
X133431Y-136025
X133431Y-138565
X133461Y-110625
X133461Y-113165
X135971Y-059825
X135971Y-062365
X135971Y-085225
X135971Y-087765
X135971Y-136025
X135971Y-138565
X136001Y-110625
X136001Y-113165
X138511Y-059825
X138511Y-062365
X138511Y-085225
X138511Y-087765
X138511Y-136025
X138511Y-138565
X138541Y-110625
X138541Y-113165
X139781Y-071427
X139781Y-076427
X139781Y-096827
X139781Y-101827
X139781Y-122227
X139781Y-127227
X141051Y-059825
X141051Y-062365
X141051Y-085225
X141051Y-087765
X141051Y-136025
X141051Y-138565
X141081Y-110625
X141081Y-113165
X143591Y-059825
X143591Y-062365
X143591Y-085225
X143591Y-087765
X143591Y-136025
X143591Y-138565
X143621Y-110625
X143621Y-113165
X146131Y-059825
X146131Y-062365
X146131Y-085225
X146131Y-087765
X146131Y-136025
X146131Y-138565
X146161Y-110625
X146161Y-113165
X148671Y-059825
X148671Y-062365
X148671Y-085225
X148671Y-087765
X148671Y-136025
X148671Y-138565
X148701Y-110625
X148701Y-113165
X151211Y-059825
X151211Y-062365
X151211Y-085225
X151211Y-087765
X151211Y-136025
X151211Y-138565
X151241Y-110625
X151241Y-113165
X153751Y-059825
X153751Y-062365
X153751Y-085225
X153751Y-087765
X153751Y-136025
X153751Y-138565
X153781Y-110625
X153781Y-113165
X156291Y-059825
X156291Y-062365
X156291Y-085225
X156291Y-087765
X156291Y-136025
X156291Y-138565
X156321Y-110625
X156321Y-113165
X158831Y-059825
X158831Y-062365
X158831Y-085225
X158831Y-087765
X158831Y-136025
X158831Y-138565
X158861Y-110625
X158861Y-113165
X161371Y-059825
X161371Y-062365
X161371Y-085225
X161371Y-087765
X161371Y-136025
X161371Y-138565
X161401Y-110625
X161401Y-113165
X163911Y-059825
X163911Y-062365
X163911Y-085225
X163911Y-087765
X163911Y-136025
X163911Y-138565
X163941Y-110625
X163941Y-113165
T4
X100621Y-071120
X100621Y-096520
X100621Y-121920
X100621Y-147320
X107821Y-071120
X107821Y-096520
X107821Y-121920
X107821Y-147320
X136181Y-148725
X143381Y-148725
T5
X129621Y-074930
X129621Y-125730
X171531Y-074930
X171531Y-125730
T0
M30
