%TF.GenerationSoftware,KiCad,Pcbnew,7.0.5*%
%TF.CreationDate,2024-03-06T21:45:59+09:00*%
%TF.ProjectId,blackMD_mother,626c6163-6b4d-4445-9f6d-6f746865722e,rev?*%
%TF.SameCoordinates,PX587e21bPY928d170*%
%TF.FileFunction,Legend,Top*%
%TF.FilePolarity,Positive*%
%FSLAX46Y46*%
G04 Gerber Fmt 4.6, Leading zero omitted, Abs format (unit mm)*
G04 Created by KiCad (PCBNEW 7.0.5) date 2024-03-06 21:45:59*
%MOMM*%
%LPD*%
G01*
G04 APERTURE LIST*
%ADD10C,0.250000*%
%ADD11C,0.150000*%
%ADD12C,0.750000*%
%ADD13C,0.120000*%
%TA.AperFunction,Profile*%
%ADD14C,0.100000*%
%TD*%
G04 APERTURE END LIST*
D10*
X84746377Y92277762D02*
X84651139Y92325381D01*
X84651139Y92325381D02*
X84508282Y92325381D01*
X84508282Y92325381D02*
X84365425Y92277762D01*
X84365425Y92277762D02*
X84270187Y92182524D01*
X84270187Y92182524D02*
X84222568Y92087286D01*
X84222568Y92087286D02*
X84174949Y91896810D01*
X84174949Y91896810D02*
X84174949Y91753953D01*
X84174949Y91753953D02*
X84222568Y91563477D01*
X84222568Y91563477D02*
X84270187Y91468239D01*
X84270187Y91468239D02*
X84365425Y91373000D01*
X84365425Y91373000D02*
X84508282Y91325381D01*
X84508282Y91325381D02*
X84603520Y91325381D01*
X84603520Y91325381D02*
X84746377Y91373000D01*
X84746377Y91373000D02*
X84793996Y91420620D01*
X84793996Y91420620D02*
X84793996Y91753953D01*
X84793996Y91753953D02*
X84603520Y91753953D01*
X85222568Y91325381D02*
X85222568Y92325381D01*
X85222568Y92325381D02*
X85793996Y91325381D01*
X85793996Y91325381D02*
X85793996Y92325381D01*
X86270187Y91325381D02*
X86270187Y92325381D01*
X86270187Y92325381D02*
X86508282Y92325381D01*
X86508282Y92325381D02*
X86651139Y92277762D01*
X86651139Y92277762D02*
X86746377Y92182524D01*
X86746377Y92182524D02*
X86793996Y92087286D01*
X86793996Y92087286D02*
X86841615Y91896810D01*
X86841615Y91896810D02*
X86841615Y91753953D01*
X86841615Y91753953D02*
X86793996Y91563477D01*
X86793996Y91563477D02*
X86746377Y91468239D01*
X86746377Y91468239D02*
X86651139Y91373000D01*
X86651139Y91373000D02*
X86508282Y91325381D01*
X86508282Y91325381D02*
X86270187Y91325381D01*
X84174949Y89763000D02*
X84317806Y89715381D01*
X84317806Y89715381D02*
X84555901Y89715381D01*
X84555901Y89715381D02*
X84651139Y89763000D01*
X84651139Y89763000D02*
X84698758Y89810620D01*
X84698758Y89810620D02*
X84746377Y89905858D01*
X84746377Y89905858D02*
X84746377Y90001096D01*
X84746377Y90001096D02*
X84698758Y90096334D01*
X84698758Y90096334D02*
X84651139Y90143953D01*
X84651139Y90143953D02*
X84555901Y90191572D01*
X84555901Y90191572D02*
X84365425Y90239191D01*
X84365425Y90239191D02*
X84270187Y90286810D01*
X84270187Y90286810D02*
X84222568Y90334429D01*
X84222568Y90334429D02*
X84174949Y90429667D01*
X84174949Y90429667D02*
X84174949Y90524905D01*
X84174949Y90524905D02*
X84222568Y90620143D01*
X84222568Y90620143D02*
X84270187Y90667762D01*
X84270187Y90667762D02*
X84365425Y90715381D01*
X84365425Y90715381D02*
X84603520Y90715381D01*
X84603520Y90715381D02*
X84746377Y90667762D01*
X85174949Y89715381D02*
X85174949Y90715381D01*
X85174949Y90715381D02*
X85413044Y90715381D01*
X85413044Y90715381D02*
X85555901Y90667762D01*
X85555901Y90667762D02*
X85651139Y90572524D01*
X85651139Y90572524D02*
X85698758Y90477286D01*
X85698758Y90477286D02*
X85746377Y90286810D01*
X85746377Y90286810D02*
X85746377Y90143953D01*
X85746377Y90143953D02*
X85698758Y89953477D01*
X85698758Y89953477D02*
X85651139Y89858239D01*
X85651139Y89858239D02*
X85555901Y89763000D01*
X85555901Y89763000D02*
X85413044Y89715381D01*
X85413044Y89715381D02*
X85174949Y89715381D01*
X86127330Y90001096D02*
X86603520Y90001096D01*
X86032092Y89715381D02*
X86365425Y90715381D01*
X86365425Y90715381D02*
X86698758Y89715381D01*
X84174949Y88153000D02*
X84317806Y88105381D01*
X84317806Y88105381D02*
X84555901Y88105381D01*
X84555901Y88105381D02*
X84651139Y88153000D01*
X84651139Y88153000D02*
X84698758Y88200620D01*
X84698758Y88200620D02*
X84746377Y88295858D01*
X84746377Y88295858D02*
X84746377Y88391096D01*
X84746377Y88391096D02*
X84698758Y88486334D01*
X84698758Y88486334D02*
X84651139Y88533953D01*
X84651139Y88533953D02*
X84555901Y88581572D01*
X84555901Y88581572D02*
X84365425Y88629191D01*
X84365425Y88629191D02*
X84270187Y88676810D01*
X84270187Y88676810D02*
X84222568Y88724429D01*
X84222568Y88724429D02*
X84174949Y88819667D01*
X84174949Y88819667D02*
X84174949Y88914905D01*
X84174949Y88914905D02*
X84222568Y89010143D01*
X84222568Y89010143D02*
X84270187Y89057762D01*
X84270187Y89057762D02*
X84365425Y89105381D01*
X84365425Y89105381D02*
X84603520Y89105381D01*
X84603520Y89105381D02*
X84746377Y89057762D01*
X85746377Y88200620D02*
X85698758Y88153000D01*
X85698758Y88153000D02*
X85555901Y88105381D01*
X85555901Y88105381D02*
X85460663Y88105381D01*
X85460663Y88105381D02*
X85317806Y88153000D01*
X85317806Y88153000D02*
X85222568Y88248239D01*
X85222568Y88248239D02*
X85174949Y88343477D01*
X85174949Y88343477D02*
X85127330Y88533953D01*
X85127330Y88533953D02*
X85127330Y88676810D01*
X85127330Y88676810D02*
X85174949Y88867286D01*
X85174949Y88867286D02*
X85222568Y88962524D01*
X85222568Y88962524D02*
X85317806Y89057762D01*
X85317806Y89057762D02*
X85460663Y89105381D01*
X85460663Y89105381D02*
X85555901Y89105381D01*
X85555901Y89105381D02*
X85698758Y89057762D01*
X85698758Y89057762D02*
X85746377Y89010143D01*
X86651139Y88105381D02*
X86174949Y88105381D01*
X86174949Y88105381D02*
X86174949Y89105381D01*
X84222568Y86876334D02*
X84984473Y86876334D01*
X84603520Y86495381D02*
X84603520Y87257286D01*
X85936853Y87495381D02*
X85460663Y87495381D01*
X85460663Y87495381D02*
X85413044Y87019191D01*
X85413044Y87019191D02*
X85460663Y87066810D01*
X85460663Y87066810D02*
X85555901Y87114429D01*
X85555901Y87114429D02*
X85793996Y87114429D01*
X85793996Y87114429D02*
X85889234Y87066810D01*
X85889234Y87066810D02*
X85936853Y87019191D01*
X85936853Y87019191D02*
X85984472Y86923953D01*
X85984472Y86923953D02*
X85984472Y86685858D01*
X85984472Y86685858D02*
X85936853Y86590620D01*
X85936853Y86590620D02*
X85889234Y86543000D01*
X85889234Y86543000D02*
X85793996Y86495381D01*
X85793996Y86495381D02*
X85555901Y86495381D01*
X85555901Y86495381D02*
X85460663Y86543000D01*
X85460663Y86543000D02*
X85413044Y86590620D01*
X86270187Y87495381D02*
X86603520Y86495381D01*
X86603520Y86495381D02*
X86936853Y87495381D01*
X84746377Y13537762D02*
X84651139Y13585381D01*
X84651139Y13585381D02*
X84508282Y13585381D01*
X84508282Y13585381D02*
X84365425Y13537762D01*
X84365425Y13537762D02*
X84270187Y13442524D01*
X84270187Y13442524D02*
X84222568Y13347286D01*
X84222568Y13347286D02*
X84174949Y13156810D01*
X84174949Y13156810D02*
X84174949Y13013953D01*
X84174949Y13013953D02*
X84222568Y12823477D01*
X84222568Y12823477D02*
X84270187Y12728239D01*
X84270187Y12728239D02*
X84365425Y12633000D01*
X84365425Y12633000D02*
X84508282Y12585381D01*
X84508282Y12585381D02*
X84603520Y12585381D01*
X84603520Y12585381D02*
X84746377Y12633000D01*
X84746377Y12633000D02*
X84793996Y12680620D01*
X84793996Y12680620D02*
X84793996Y13013953D01*
X84793996Y13013953D02*
X84603520Y13013953D01*
X85222568Y12585381D02*
X85222568Y13585381D01*
X85222568Y13585381D02*
X85793996Y12585381D01*
X85793996Y12585381D02*
X85793996Y13585381D01*
X86270187Y12585381D02*
X86270187Y13585381D01*
X86270187Y13585381D02*
X86508282Y13585381D01*
X86508282Y13585381D02*
X86651139Y13537762D01*
X86651139Y13537762D02*
X86746377Y13442524D01*
X86746377Y13442524D02*
X86793996Y13347286D01*
X86793996Y13347286D02*
X86841615Y13156810D01*
X86841615Y13156810D02*
X86841615Y13013953D01*
X86841615Y13013953D02*
X86793996Y12823477D01*
X86793996Y12823477D02*
X86746377Y12728239D01*
X86746377Y12728239D02*
X86651139Y12633000D01*
X86651139Y12633000D02*
X86508282Y12585381D01*
X86508282Y12585381D02*
X86270187Y12585381D01*
X84174949Y11023000D02*
X84317806Y10975381D01*
X84317806Y10975381D02*
X84555901Y10975381D01*
X84555901Y10975381D02*
X84651139Y11023000D01*
X84651139Y11023000D02*
X84698758Y11070620D01*
X84698758Y11070620D02*
X84746377Y11165858D01*
X84746377Y11165858D02*
X84746377Y11261096D01*
X84746377Y11261096D02*
X84698758Y11356334D01*
X84698758Y11356334D02*
X84651139Y11403953D01*
X84651139Y11403953D02*
X84555901Y11451572D01*
X84555901Y11451572D02*
X84365425Y11499191D01*
X84365425Y11499191D02*
X84270187Y11546810D01*
X84270187Y11546810D02*
X84222568Y11594429D01*
X84222568Y11594429D02*
X84174949Y11689667D01*
X84174949Y11689667D02*
X84174949Y11784905D01*
X84174949Y11784905D02*
X84222568Y11880143D01*
X84222568Y11880143D02*
X84270187Y11927762D01*
X84270187Y11927762D02*
X84365425Y11975381D01*
X84365425Y11975381D02*
X84603520Y11975381D01*
X84603520Y11975381D02*
X84746377Y11927762D01*
X85174949Y10975381D02*
X85174949Y11975381D01*
X85174949Y11975381D02*
X85413044Y11975381D01*
X85413044Y11975381D02*
X85555901Y11927762D01*
X85555901Y11927762D02*
X85651139Y11832524D01*
X85651139Y11832524D02*
X85698758Y11737286D01*
X85698758Y11737286D02*
X85746377Y11546810D01*
X85746377Y11546810D02*
X85746377Y11403953D01*
X85746377Y11403953D02*
X85698758Y11213477D01*
X85698758Y11213477D02*
X85651139Y11118239D01*
X85651139Y11118239D02*
X85555901Y11023000D01*
X85555901Y11023000D02*
X85413044Y10975381D01*
X85413044Y10975381D02*
X85174949Y10975381D01*
X86127330Y11261096D02*
X86603520Y11261096D01*
X86032092Y10975381D02*
X86365425Y11975381D01*
X86365425Y11975381D02*
X86698758Y10975381D01*
X84174949Y9413000D02*
X84317806Y9365381D01*
X84317806Y9365381D02*
X84555901Y9365381D01*
X84555901Y9365381D02*
X84651139Y9413000D01*
X84651139Y9413000D02*
X84698758Y9460620D01*
X84698758Y9460620D02*
X84746377Y9555858D01*
X84746377Y9555858D02*
X84746377Y9651096D01*
X84746377Y9651096D02*
X84698758Y9746334D01*
X84698758Y9746334D02*
X84651139Y9793953D01*
X84651139Y9793953D02*
X84555901Y9841572D01*
X84555901Y9841572D02*
X84365425Y9889191D01*
X84365425Y9889191D02*
X84270187Y9936810D01*
X84270187Y9936810D02*
X84222568Y9984429D01*
X84222568Y9984429D02*
X84174949Y10079667D01*
X84174949Y10079667D02*
X84174949Y10174905D01*
X84174949Y10174905D02*
X84222568Y10270143D01*
X84222568Y10270143D02*
X84270187Y10317762D01*
X84270187Y10317762D02*
X84365425Y10365381D01*
X84365425Y10365381D02*
X84603520Y10365381D01*
X84603520Y10365381D02*
X84746377Y10317762D01*
X85746377Y9460620D02*
X85698758Y9413000D01*
X85698758Y9413000D02*
X85555901Y9365381D01*
X85555901Y9365381D02*
X85460663Y9365381D01*
X85460663Y9365381D02*
X85317806Y9413000D01*
X85317806Y9413000D02*
X85222568Y9508239D01*
X85222568Y9508239D02*
X85174949Y9603477D01*
X85174949Y9603477D02*
X85127330Y9793953D01*
X85127330Y9793953D02*
X85127330Y9936810D01*
X85127330Y9936810D02*
X85174949Y10127286D01*
X85174949Y10127286D02*
X85222568Y10222524D01*
X85222568Y10222524D02*
X85317806Y10317762D01*
X85317806Y10317762D02*
X85460663Y10365381D01*
X85460663Y10365381D02*
X85555901Y10365381D01*
X85555901Y10365381D02*
X85698758Y10317762D01*
X85698758Y10317762D02*
X85746377Y10270143D01*
X86651139Y9365381D02*
X86174949Y9365381D01*
X86174949Y9365381D02*
X86174949Y10365381D01*
X84222568Y8136334D02*
X84984473Y8136334D01*
X84603520Y7755381D02*
X84603520Y8517286D01*
X85936853Y8755381D02*
X85460663Y8755381D01*
X85460663Y8755381D02*
X85413044Y8279191D01*
X85413044Y8279191D02*
X85460663Y8326810D01*
X85460663Y8326810D02*
X85555901Y8374429D01*
X85555901Y8374429D02*
X85793996Y8374429D01*
X85793996Y8374429D02*
X85889234Y8326810D01*
X85889234Y8326810D02*
X85936853Y8279191D01*
X85936853Y8279191D02*
X85984472Y8183953D01*
X85984472Y8183953D02*
X85984472Y7945858D01*
X85984472Y7945858D02*
X85936853Y7850620D01*
X85936853Y7850620D02*
X85889234Y7803000D01*
X85889234Y7803000D02*
X85793996Y7755381D01*
X85793996Y7755381D02*
X85555901Y7755381D01*
X85555901Y7755381D02*
X85460663Y7803000D01*
X85460663Y7803000D02*
X85413044Y7850620D01*
X86270187Y8755381D02*
X86603520Y7755381D01*
X86603520Y7755381D02*
X86936853Y8755381D01*
D11*
X82550000Y35105323D02*
X32300000Y35105323D01*
X32300000Y26215323D01*
X550000Y26215323D01*
X550000Y46855323D01*
X82550000Y46855323D01*
X82550000Y35105323D01*
X82550000Y60505323D02*
X32300000Y60505323D01*
X32300000Y51615323D01*
X550000Y51615323D01*
X550000Y72255323D01*
X82550000Y72255323D01*
X82550000Y60505323D01*
X82550000Y85905323D02*
X32300000Y85905323D01*
X32300000Y77015323D01*
X550000Y77015323D01*
X550000Y97655323D01*
X82550000Y97655323D01*
X82550000Y85905323D01*
X82550000Y10025323D02*
X32300000Y10025323D01*
X32300000Y1135323D01*
X550000Y1135323D01*
X550000Y21775323D01*
X82550000Y21775323D01*
X82550000Y10025323D01*
D12*
X90778248Y32814850D02*
X90635391Y32957707D01*
X90635391Y32957707D02*
X90492534Y33243421D01*
X90492534Y33243421D02*
X90492534Y33957707D01*
X90492534Y33957707D02*
X90635391Y34243421D01*
X90635391Y34243421D02*
X90778248Y34386279D01*
X90778248Y34386279D02*
X91063962Y34529136D01*
X91063962Y34529136D02*
X91349677Y34529136D01*
X91349677Y34529136D02*
X91778248Y34386279D01*
X91778248Y34386279D02*
X93492534Y32671993D01*
X93492534Y32671993D02*
X93492534Y34529136D01*
X90492534Y36386279D02*
X90492534Y36671993D01*
X90492534Y36671993D02*
X90635391Y36957707D01*
X90635391Y36957707D02*
X90778248Y37100564D01*
X90778248Y37100564D02*
X91063962Y37243422D01*
X91063962Y37243422D02*
X91635391Y37386279D01*
X91635391Y37386279D02*
X92349677Y37386279D01*
X92349677Y37386279D02*
X92921105Y37243422D01*
X92921105Y37243422D02*
X93206819Y37100564D01*
X93206819Y37100564D02*
X93349677Y36957707D01*
X93349677Y36957707D02*
X93492534Y36671993D01*
X93492534Y36671993D02*
X93492534Y36386279D01*
X93492534Y36386279D02*
X93349677Y36100564D01*
X93349677Y36100564D02*
X93206819Y35957707D01*
X93206819Y35957707D02*
X92921105Y35814850D01*
X92921105Y35814850D02*
X92349677Y35671993D01*
X92349677Y35671993D02*
X91635391Y35671993D01*
X91635391Y35671993D02*
X91063962Y35814850D01*
X91063962Y35814850D02*
X90778248Y35957707D01*
X90778248Y35957707D02*
X90635391Y36100564D01*
X90635391Y36100564D02*
X90492534Y36386279D01*
X90778248Y38529136D02*
X90635391Y38671993D01*
X90635391Y38671993D02*
X90492534Y38957707D01*
X90492534Y38957707D02*
X90492534Y39671993D01*
X90492534Y39671993D02*
X90635391Y39957707D01*
X90635391Y39957707D02*
X90778248Y40100565D01*
X90778248Y40100565D02*
X91063962Y40243422D01*
X91063962Y40243422D02*
X91349677Y40243422D01*
X91349677Y40243422D02*
X91778248Y40100565D01*
X91778248Y40100565D02*
X93492534Y38386279D01*
X93492534Y38386279D02*
X93492534Y40243422D01*
X91492534Y42814850D02*
X93492534Y42814850D01*
X90349677Y42100565D02*
X92492534Y41386279D01*
X92492534Y41386279D02*
X92492534Y43243422D01*
D11*
X52849265Y75060181D02*
X52277837Y75060181D01*
X52563551Y75060181D02*
X52563551Y76060181D01*
X52563551Y76060181D02*
X52468313Y75917324D01*
X52468313Y75917324D02*
X52373075Y75822086D01*
X52373075Y75822086D02*
X52277837Y75774467D01*
X53468313Y76060181D02*
X53563551Y76060181D01*
X53563551Y76060181D02*
X53658789Y76012562D01*
X53658789Y76012562D02*
X53706408Y75964943D01*
X53706408Y75964943D02*
X53754027Y75869705D01*
X53754027Y75869705D02*
X53801646Y75679229D01*
X53801646Y75679229D02*
X53801646Y75441134D01*
X53801646Y75441134D02*
X53754027Y75250658D01*
X53754027Y75250658D02*
X53706408Y75155420D01*
X53706408Y75155420D02*
X53658789Y75107800D01*
X53658789Y75107800D02*
X53563551Y75060181D01*
X53563551Y75060181D02*
X53468313Y75060181D01*
X53468313Y75060181D02*
X53373075Y75107800D01*
X53373075Y75107800D02*
X53325456Y75155420D01*
X53325456Y75155420D02*
X53277837Y75250658D01*
X53277837Y75250658D02*
X53230218Y75441134D01*
X53230218Y75441134D02*
X53230218Y75679229D01*
X53230218Y75679229D02*
X53277837Y75869705D01*
X53277837Y75869705D02*
X53325456Y75964943D01*
X53325456Y75964943D02*
X53373075Y76012562D01*
X53373075Y76012562D02*
X53468313Y76060181D01*
X54420694Y76060181D02*
X54515932Y76060181D01*
X54515932Y76060181D02*
X54611170Y76012562D01*
X54611170Y76012562D02*
X54658789Y75964943D01*
X54658789Y75964943D02*
X54706408Y75869705D01*
X54706408Y75869705D02*
X54754027Y75679229D01*
X54754027Y75679229D02*
X54754027Y75441134D01*
X54754027Y75441134D02*
X54706408Y75250658D01*
X54706408Y75250658D02*
X54658789Y75155420D01*
X54658789Y75155420D02*
X54611170Y75107800D01*
X54611170Y75107800D02*
X54515932Y75060181D01*
X54515932Y75060181D02*
X54420694Y75060181D01*
X54420694Y75060181D02*
X54325456Y75107800D01*
X54325456Y75107800D02*
X54277837Y75155420D01*
X54277837Y75155420D02*
X54230218Y75250658D01*
X54230218Y75250658D02*
X54182599Y75441134D01*
X54182599Y75441134D02*
X54182599Y75679229D01*
X54182599Y75679229D02*
X54230218Y75869705D01*
X54230218Y75869705D02*
X54277837Y75964943D01*
X54277837Y75964943D02*
X54325456Y76012562D01*
X54325456Y76012562D02*
X54420694Y76060181D01*
X55373075Y76060181D02*
X55468313Y76060181D01*
X55468313Y76060181D02*
X55563551Y76012562D01*
X55563551Y76012562D02*
X55611170Y75964943D01*
X55611170Y75964943D02*
X55658789Y75869705D01*
X55658789Y75869705D02*
X55706408Y75679229D01*
X55706408Y75679229D02*
X55706408Y75441134D01*
X55706408Y75441134D02*
X55658789Y75250658D01*
X55658789Y75250658D02*
X55611170Y75155420D01*
X55611170Y75155420D02*
X55563551Y75107800D01*
X55563551Y75107800D02*
X55468313Y75060181D01*
X55468313Y75060181D02*
X55373075Y75060181D01*
X55373075Y75060181D02*
X55277837Y75107800D01*
X55277837Y75107800D02*
X55230218Y75155420D01*
X55230218Y75155420D02*
X55182599Y75250658D01*
X55182599Y75250658D02*
X55134980Y75441134D01*
X55134980Y75441134D02*
X55134980Y75679229D01*
X55134980Y75679229D02*
X55182599Y75869705D01*
X55182599Y75869705D02*
X55230218Y75964943D01*
X55230218Y75964943D02*
X55277837Y76012562D01*
X55277837Y76012562D02*
X55373075Y76060181D01*
X56563551Y75726848D02*
X56563551Y75060181D01*
X56134980Y75726848D02*
X56134980Y75203039D01*
X56134980Y75203039D02*
X56182599Y75107800D01*
X56182599Y75107800D02*
X56277837Y75060181D01*
X56277837Y75060181D02*
X56420694Y75060181D01*
X56420694Y75060181D02*
X56515932Y75107800D01*
X56515932Y75107800D02*
X56563551Y75155420D01*
X57373075Y75583991D02*
X57039742Y75583991D01*
X57039742Y75060181D02*
X57039742Y76060181D01*
X57039742Y76060181D02*
X57515932Y76060181D01*
X52849265Y49660181D02*
X52277837Y49660181D01*
X52563551Y49660181D02*
X52563551Y50660181D01*
X52563551Y50660181D02*
X52468313Y50517324D01*
X52468313Y50517324D02*
X52373075Y50422086D01*
X52373075Y50422086D02*
X52277837Y50374467D01*
X53468313Y50660181D02*
X53563551Y50660181D01*
X53563551Y50660181D02*
X53658789Y50612562D01*
X53658789Y50612562D02*
X53706408Y50564943D01*
X53706408Y50564943D02*
X53754027Y50469705D01*
X53754027Y50469705D02*
X53801646Y50279229D01*
X53801646Y50279229D02*
X53801646Y50041134D01*
X53801646Y50041134D02*
X53754027Y49850658D01*
X53754027Y49850658D02*
X53706408Y49755420D01*
X53706408Y49755420D02*
X53658789Y49707800D01*
X53658789Y49707800D02*
X53563551Y49660181D01*
X53563551Y49660181D02*
X53468313Y49660181D01*
X53468313Y49660181D02*
X53373075Y49707800D01*
X53373075Y49707800D02*
X53325456Y49755420D01*
X53325456Y49755420D02*
X53277837Y49850658D01*
X53277837Y49850658D02*
X53230218Y50041134D01*
X53230218Y50041134D02*
X53230218Y50279229D01*
X53230218Y50279229D02*
X53277837Y50469705D01*
X53277837Y50469705D02*
X53325456Y50564943D01*
X53325456Y50564943D02*
X53373075Y50612562D01*
X53373075Y50612562D02*
X53468313Y50660181D01*
X54420694Y50660181D02*
X54515932Y50660181D01*
X54515932Y50660181D02*
X54611170Y50612562D01*
X54611170Y50612562D02*
X54658789Y50564943D01*
X54658789Y50564943D02*
X54706408Y50469705D01*
X54706408Y50469705D02*
X54754027Y50279229D01*
X54754027Y50279229D02*
X54754027Y50041134D01*
X54754027Y50041134D02*
X54706408Y49850658D01*
X54706408Y49850658D02*
X54658789Y49755420D01*
X54658789Y49755420D02*
X54611170Y49707800D01*
X54611170Y49707800D02*
X54515932Y49660181D01*
X54515932Y49660181D02*
X54420694Y49660181D01*
X54420694Y49660181D02*
X54325456Y49707800D01*
X54325456Y49707800D02*
X54277837Y49755420D01*
X54277837Y49755420D02*
X54230218Y49850658D01*
X54230218Y49850658D02*
X54182599Y50041134D01*
X54182599Y50041134D02*
X54182599Y50279229D01*
X54182599Y50279229D02*
X54230218Y50469705D01*
X54230218Y50469705D02*
X54277837Y50564943D01*
X54277837Y50564943D02*
X54325456Y50612562D01*
X54325456Y50612562D02*
X54420694Y50660181D01*
X55373075Y50660181D02*
X55468313Y50660181D01*
X55468313Y50660181D02*
X55563551Y50612562D01*
X55563551Y50612562D02*
X55611170Y50564943D01*
X55611170Y50564943D02*
X55658789Y50469705D01*
X55658789Y50469705D02*
X55706408Y50279229D01*
X55706408Y50279229D02*
X55706408Y50041134D01*
X55706408Y50041134D02*
X55658789Y49850658D01*
X55658789Y49850658D02*
X55611170Y49755420D01*
X55611170Y49755420D02*
X55563551Y49707800D01*
X55563551Y49707800D02*
X55468313Y49660181D01*
X55468313Y49660181D02*
X55373075Y49660181D01*
X55373075Y49660181D02*
X55277837Y49707800D01*
X55277837Y49707800D02*
X55230218Y49755420D01*
X55230218Y49755420D02*
X55182599Y49850658D01*
X55182599Y49850658D02*
X55134980Y50041134D01*
X55134980Y50041134D02*
X55134980Y50279229D01*
X55134980Y50279229D02*
X55182599Y50469705D01*
X55182599Y50469705D02*
X55230218Y50564943D01*
X55230218Y50564943D02*
X55277837Y50612562D01*
X55277837Y50612562D02*
X55373075Y50660181D01*
X56563551Y50326848D02*
X56563551Y49660181D01*
X56134980Y50326848D02*
X56134980Y49803039D01*
X56134980Y49803039D02*
X56182599Y49707800D01*
X56182599Y49707800D02*
X56277837Y49660181D01*
X56277837Y49660181D02*
X56420694Y49660181D01*
X56420694Y49660181D02*
X56515932Y49707800D01*
X56515932Y49707800D02*
X56563551Y49755420D01*
X57373075Y50183991D02*
X57039742Y50183991D01*
X57039742Y49660181D02*
X57039742Y50660181D01*
X57039742Y50660181D02*
X57515932Y50660181D01*
X52849265Y24260181D02*
X52277837Y24260181D01*
X52563551Y24260181D02*
X52563551Y25260181D01*
X52563551Y25260181D02*
X52468313Y25117324D01*
X52468313Y25117324D02*
X52373075Y25022086D01*
X52373075Y25022086D02*
X52277837Y24974467D01*
X53468313Y25260181D02*
X53563551Y25260181D01*
X53563551Y25260181D02*
X53658789Y25212562D01*
X53658789Y25212562D02*
X53706408Y25164943D01*
X53706408Y25164943D02*
X53754027Y25069705D01*
X53754027Y25069705D02*
X53801646Y24879229D01*
X53801646Y24879229D02*
X53801646Y24641134D01*
X53801646Y24641134D02*
X53754027Y24450658D01*
X53754027Y24450658D02*
X53706408Y24355420D01*
X53706408Y24355420D02*
X53658789Y24307800D01*
X53658789Y24307800D02*
X53563551Y24260181D01*
X53563551Y24260181D02*
X53468313Y24260181D01*
X53468313Y24260181D02*
X53373075Y24307800D01*
X53373075Y24307800D02*
X53325456Y24355420D01*
X53325456Y24355420D02*
X53277837Y24450658D01*
X53277837Y24450658D02*
X53230218Y24641134D01*
X53230218Y24641134D02*
X53230218Y24879229D01*
X53230218Y24879229D02*
X53277837Y25069705D01*
X53277837Y25069705D02*
X53325456Y25164943D01*
X53325456Y25164943D02*
X53373075Y25212562D01*
X53373075Y25212562D02*
X53468313Y25260181D01*
X54420694Y25260181D02*
X54515932Y25260181D01*
X54515932Y25260181D02*
X54611170Y25212562D01*
X54611170Y25212562D02*
X54658789Y25164943D01*
X54658789Y25164943D02*
X54706408Y25069705D01*
X54706408Y25069705D02*
X54754027Y24879229D01*
X54754027Y24879229D02*
X54754027Y24641134D01*
X54754027Y24641134D02*
X54706408Y24450658D01*
X54706408Y24450658D02*
X54658789Y24355420D01*
X54658789Y24355420D02*
X54611170Y24307800D01*
X54611170Y24307800D02*
X54515932Y24260181D01*
X54515932Y24260181D02*
X54420694Y24260181D01*
X54420694Y24260181D02*
X54325456Y24307800D01*
X54325456Y24307800D02*
X54277837Y24355420D01*
X54277837Y24355420D02*
X54230218Y24450658D01*
X54230218Y24450658D02*
X54182599Y24641134D01*
X54182599Y24641134D02*
X54182599Y24879229D01*
X54182599Y24879229D02*
X54230218Y25069705D01*
X54230218Y25069705D02*
X54277837Y25164943D01*
X54277837Y25164943D02*
X54325456Y25212562D01*
X54325456Y25212562D02*
X54420694Y25260181D01*
X55373075Y25260181D02*
X55468313Y25260181D01*
X55468313Y25260181D02*
X55563551Y25212562D01*
X55563551Y25212562D02*
X55611170Y25164943D01*
X55611170Y25164943D02*
X55658789Y25069705D01*
X55658789Y25069705D02*
X55706408Y24879229D01*
X55706408Y24879229D02*
X55706408Y24641134D01*
X55706408Y24641134D02*
X55658789Y24450658D01*
X55658789Y24450658D02*
X55611170Y24355420D01*
X55611170Y24355420D02*
X55563551Y24307800D01*
X55563551Y24307800D02*
X55468313Y24260181D01*
X55468313Y24260181D02*
X55373075Y24260181D01*
X55373075Y24260181D02*
X55277837Y24307800D01*
X55277837Y24307800D02*
X55230218Y24355420D01*
X55230218Y24355420D02*
X55182599Y24450658D01*
X55182599Y24450658D02*
X55134980Y24641134D01*
X55134980Y24641134D02*
X55134980Y24879229D01*
X55134980Y24879229D02*
X55182599Y25069705D01*
X55182599Y25069705D02*
X55230218Y25164943D01*
X55230218Y25164943D02*
X55277837Y25212562D01*
X55277837Y25212562D02*
X55373075Y25260181D01*
X56563551Y24926848D02*
X56563551Y24260181D01*
X56134980Y24926848D02*
X56134980Y24403039D01*
X56134980Y24403039D02*
X56182599Y24307800D01*
X56182599Y24307800D02*
X56277837Y24260181D01*
X56277837Y24260181D02*
X56420694Y24260181D01*
X56420694Y24260181D02*
X56515932Y24307800D01*
X56515932Y24307800D02*
X56563551Y24355420D01*
X57373075Y24783991D02*
X57039742Y24783991D01*
X57039742Y24260181D02*
X57039742Y25260181D01*
X57039742Y25260181D02*
X57515932Y25260181D01*
%TO.C,I2C_IN*%
X88492276Y17325181D02*
X88492276Y18325181D01*
X88920847Y18229943D02*
X88968466Y18277562D01*
X88968466Y18277562D02*
X89063704Y18325181D01*
X89063704Y18325181D02*
X89301799Y18325181D01*
X89301799Y18325181D02*
X89397037Y18277562D01*
X89397037Y18277562D02*
X89444656Y18229943D01*
X89444656Y18229943D02*
X89492275Y18134705D01*
X89492275Y18134705D02*
X89492275Y18039467D01*
X89492275Y18039467D02*
X89444656Y17896610D01*
X89444656Y17896610D02*
X88873228Y17325181D01*
X88873228Y17325181D02*
X89492275Y17325181D01*
X90492275Y17420420D02*
X90444656Y17372800D01*
X90444656Y17372800D02*
X90301799Y17325181D01*
X90301799Y17325181D02*
X90206561Y17325181D01*
X90206561Y17325181D02*
X90063704Y17372800D01*
X90063704Y17372800D02*
X89968466Y17468039D01*
X89968466Y17468039D02*
X89920847Y17563277D01*
X89920847Y17563277D02*
X89873228Y17753753D01*
X89873228Y17753753D02*
X89873228Y17896610D01*
X89873228Y17896610D02*
X89920847Y18087086D01*
X89920847Y18087086D02*
X89968466Y18182324D01*
X89968466Y18182324D02*
X90063704Y18277562D01*
X90063704Y18277562D02*
X90206561Y18325181D01*
X90206561Y18325181D02*
X90301799Y18325181D01*
X90301799Y18325181D02*
X90444656Y18277562D01*
X90444656Y18277562D02*
X90492275Y18229943D01*
X90682752Y17229943D02*
X91444656Y17229943D01*
X91682752Y17325181D02*
X91682752Y18325181D01*
X92158942Y17325181D02*
X92158942Y18325181D01*
X92158942Y18325181D02*
X92730370Y17325181D01*
X92730370Y17325181D02*
X92730370Y18325181D01*
%TO.C,REF\u002A\u002A*%
X77406666Y31685181D02*
X77073333Y32161372D01*
X76835238Y31685181D02*
X76835238Y32685181D01*
X76835238Y32685181D02*
X77216190Y32685181D01*
X77216190Y32685181D02*
X77311428Y32637562D01*
X77311428Y32637562D02*
X77359047Y32589943D01*
X77359047Y32589943D02*
X77406666Y32494705D01*
X77406666Y32494705D02*
X77406666Y32351848D01*
X77406666Y32351848D02*
X77359047Y32256610D01*
X77359047Y32256610D02*
X77311428Y32208991D01*
X77311428Y32208991D02*
X77216190Y32161372D01*
X77216190Y32161372D02*
X76835238Y32161372D01*
X77835238Y32208991D02*
X78168571Y32208991D01*
X78311428Y31685181D02*
X77835238Y31685181D01*
X77835238Y31685181D02*
X77835238Y32685181D01*
X77835238Y32685181D02*
X78311428Y32685181D01*
X79073333Y32208991D02*
X78740000Y32208991D01*
X78740000Y31685181D02*
X78740000Y32685181D01*
X78740000Y32685181D02*
X79216190Y32685181D01*
X79740000Y32685181D02*
X79740000Y32447086D01*
X79501905Y32542324D02*
X79740000Y32447086D01*
X79740000Y32447086D02*
X79978095Y32542324D01*
X79597143Y32256610D02*
X79740000Y32447086D01*
X79740000Y32447086D02*
X79882857Y32256610D01*
X80501905Y32685181D02*
X80501905Y32447086D01*
X80263810Y32542324D02*
X80501905Y32447086D01*
X80501905Y32447086D02*
X80740000Y32542324D01*
X80359048Y32256610D02*
X80501905Y32447086D01*
X80501905Y32447086D02*
X80644762Y32256610D01*
X77406666Y82485181D02*
X77073333Y82961372D01*
X76835238Y82485181D02*
X76835238Y83485181D01*
X76835238Y83485181D02*
X77216190Y83485181D01*
X77216190Y83485181D02*
X77311428Y83437562D01*
X77311428Y83437562D02*
X77359047Y83389943D01*
X77359047Y83389943D02*
X77406666Y83294705D01*
X77406666Y83294705D02*
X77406666Y83151848D01*
X77406666Y83151848D02*
X77359047Y83056610D01*
X77359047Y83056610D02*
X77311428Y83008991D01*
X77311428Y83008991D02*
X77216190Y82961372D01*
X77216190Y82961372D02*
X76835238Y82961372D01*
X77835238Y83008991D02*
X78168571Y83008991D01*
X78311428Y82485181D02*
X77835238Y82485181D01*
X77835238Y82485181D02*
X77835238Y83485181D01*
X77835238Y83485181D02*
X78311428Y83485181D01*
X79073333Y83008991D02*
X78740000Y83008991D01*
X78740000Y82485181D02*
X78740000Y83485181D01*
X78740000Y83485181D02*
X79216190Y83485181D01*
X79740000Y83485181D02*
X79740000Y83247086D01*
X79501905Y83342324D02*
X79740000Y83247086D01*
X79740000Y83247086D02*
X79978095Y83342324D01*
X79597143Y83056610D02*
X79740000Y83247086D01*
X79740000Y83247086D02*
X79882857Y83056610D01*
X80501905Y83485181D02*
X80501905Y83247086D01*
X80263810Y83342324D02*
X80501905Y83247086D01*
X80501905Y83247086D02*
X80740000Y83342324D01*
X80359048Y83056610D02*
X80501905Y83247086D01*
X80501905Y83247086D02*
X80644762Y83056610D01*
%TO.C,I2C_OUT*%
X87825609Y96065181D02*
X87825609Y97065181D01*
X88254180Y96969943D02*
X88301799Y97017562D01*
X88301799Y97017562D02*
X88397037Y97065181D01*
X88397037Y97065181D02*
X88635132Y97065181D01*
X88635132Y97065181D02*
X88730370Y97017562D01*
X88730370Y97017562D02*
X88777989Y96969943D01*
X88777989Y96969943D02*
X88825608Y96874705D01*
X88825608Y96874705D02*
X88825608Y96779467D01*
X88825608Y96779467D02*
X88777989Y96636610D01*
X88777989Y96636610D02*
X88206561Y96065181D01*
X88206561Y96065181D02*
X88825608Y96065181D01*
X89825608Y96160420D02*
X89777989Y96112800D01*
X89777989Y96112800D02*
X89635132Y96065181D01*
X89635132Y96065181D02*
X89539894Y96065181D01*
X89539894Y96065181D02*
X89397037Y96112800D01*
X89397037Y96112800D02*
X89301799Y96208039D01*
X89301799Y96208039D02*
X89254180Y96303277D01*
X89254180Y96303277D02*
X89206561Y96493753D01*
X89206561Y96493753D02*
X89206561Y96636610D01*
X89206561Y96636610D02*
X89254180Y96827086D01*
X89254180Y96827086D02*
X89301799Y96922324D01*
X89301799Y96922324D02*
X89397037Y97017562D01*
X89397037Y97017562D02*
X89539894Y97065181D01*
X89539894Y97065181D02*
X89635132Y97065181D01*
X89635132Y97065181D02*
X89777989Y97017562D01*
X89777989Y97017562D02*
X89825608Y96969943D01*
X90016085Y95969943D02*
X90777989Y95969943D01*
X91206561Y97065181D02*
X91397037Y97065181D01*
X91397037Y97065181D02*
X91492275Y97017562D01*
X91492275Y97017562D02*
X91587513Y96922324D01*
X91587513Y96922324D02*
X91635132Y96731848D01*
X91635132Y96731848D02*
X91635132Y96398515D01*
X91635132Y96398515D02*
X91587513Y96208039D01*
X91587513Y96208039D02*
X91492275Y96112800D01*
X91492275Y96112800D02*
X91397037Y96065181D01*
X91397037Y96065181D02*
X91206561Y96065181D01*
X91206561Y96065181D02*
X91111323Y96112800D01*
X91111323Y96112800D02*
X91016085Y96208039D01*
X91016085Y96208039D02*
X90968466Y96398515D01*
X90968466Y96398515D02*
X90968466Y96731848D01*
X90968466Y96731848D02*
X91016085Y96922324D01*
X91016085Y96922324D02*
X91111323Y97017562D01*
X91111323Y97017562D02*
X91206561Y97065181D01*
X92063704Y97065181D02*
X92063704Y96255658D01*
X92063704Y96255658D02*
X92111323Y96160420D01*
X92111323Y96160420D02*
X92158942Y96112800D01*
X92158942Y96112800D02*
X92254180Y96065181D01*
X92254180Y96065181D02*
X92444656Y96065181D01*
X92444656Y96065181D02*
X92539894Y96112800D01*
X92539894Y96112800D02*
X92587513Y96160420D01*
X92587513Y96160420D02*
X92635132Y96255658D01*
X92635132Y96255658D02*
X92635132Y97065181D01*
X92968466Y97065181D02*
X93539894Y97065181D01*
X93254180Y96065181D02*
X93254180Y97065181D01*
%TO.C,Motor2_OUT*%
X19800952Y28755181D02*
X19800952Y29755181D01*
X19800952Y29755181D02*
X20134285Y29040896D01*
X20134285Y29040896D02*
X20467618Y29755181D01*
X20467618Y29755181D02*
X20467618Y28755181D01*
X21086666Y28755181D02*
X20991428Y28802800D01*
X20991428Y28802800D02*
X20943809Y28850420D01*
X20943809Y28850420D02*
X20896190Y28945658D01*
X20896190Y28945658D02*
X20896190Y29231372D01*
X20896190Y29231372D02*
X20943809Y29326610D01*
X20943809Y29326610D02*
X20991428Y29374229D01*
X20991428Y29374229D02*
X21086666Y29421848D01*
X21086666Y29421848D02*
X21229523Y29421848D01*
X21229523Y29421848D02*
X21324761Y29374229D01*
X21324761Y29374229D02*
X21372380Y29326610D01*
X21372380Y29326610D02*
X21419999Y29231372D01*
X21419999Y29231372D02*
X21419999Y28945658D01*
X21419999Y28945658D02*
X21372380Y28850420D01*
X21372380Y28850420D02*
X21324761Y28802800D01*
X21324761Y28802800D02*
X21229523Y28755181D01*
X21229523Y28755181D02*
X21086666Y28755181D01*
X21705714Y29421848D02*
X22086666Y29421848D01*
X21848571Y29755181D02*
X21848571Y28898039D01*
X21848571Y28898039D02*
X21896190Y28802800D01*
X21896190Y28802800D02*
X21991428Y28755181D01*
X21991428Y28755181D02*
X22086666Y28755181D01*
X22562857Y28755181D02*
X22467619Y28802800D01*
X22467619Y28802800D02*
X22420000Y28850420D01*
X22420000Y28850420D02*
X22372381Y28945658D01*
X22372381Y28945658D02*
X22372381Y29231372D01*
X22372381Y29231372D02*
X22420000Y29326610D01*
X22420000Y29326610D02*
X22467619Y29374229D01*
X22467619Y29374229D02*
X22562857Y29421848D01*
X22562857Y29421848D02*
X22705714Y29421848D01*
X22705714Y29421848D02*
X22800952Y29374229D01*
X22800952Y29374229D02*
X22848571Y29326610D01*
X22848571Y29326610D02*
X22896190Y29231372D01*
X22896190Y29231372D02*
X22896190Y28945658D01*
X22896190Y28945658D02*
X22848571Y28850420D01*
X22848571Y28850420D02*
X22800952Y28802800D01*
X22800952Y28802800D02*
X22705714Y28755181D01*
X22705714Y28755181D02*
X22562857Y28755181D01*
X23324762Y28755181D02*
X23324762Y29421848D01*
X23324762Y29231372D02*
X23372381Y29326610D01*
X23372381Y29326610D02*
X23420000Y29374229D01*
X23420000Y29374229D02*
X23515238Y29421848D01*
X23515238Y29421848D02*
X23610476Y29421848D01*
X23896191Y29659943D02*
X23943810Y29707562D01*
X23943810Y29707562D02*
X24039048Y29755181D01*
X24039048Y29755181D02*
X24277143Y29755181D01*
X24277143Y29755181D02*
X24372381Y29707562D01*
X24372381Y29707562D02*
X24420000Y29659943D01*
X24420000Y29659943D02*
X24467619Y29564705D01*
X24467619Y29564705D02*
X24467619Y29469467D01*
X24467619Y29469467D02*
X24420000Y29326610D01*
X24420000Y29326610D02*
X23848572Y28755181D01*
X23848572Y28755181D02*
X24467619Y28755181D01*
X24658096Y28659943D02*
X25420000Y28659943D01*
X25848572Y29755181D02*
X26039048Y29755181D01*
X26039048Y29755181D02*
X26134286Y29707562D01*
X26134286Y29707562D02*
X26229524Y29612324D01*
X26229524Y29612324D02*
X26277143Y29421848D01*
X26277143Y29421848D02*
X26277143Y29088515D01*
X26277143Y29088515D02*
X26229524Y28898039D01*
X26229524Y28898039D02*
X26134286Y28802800D01*
X26134286Y28802800D02*
X26039048Y28755181D01*
X26039048Y28755181D02*
X25848572Y28755181D01*
X25848572Y28755181D02*
X25753334Y28802800D01*
X25753334Y28802800D02*
X25658096Y28898039D01*
X25658096Y28898039D02*
X25610477Y29088515D01*
X25610477Y29088515D02*
X25610477Y29421848D01*
X25610477Y29421848D02*
X25658096Y29612324D01*
X25658096Y29612324D02*
X25753334Y29707562D01*
X25753334Y29707562D02*
X25848572Y29755181D01*
X26705715Y29755181D02*
X26705715Y28945658D01*
X26705715Y28945658D02*
X26753334Y28850420D01*
X26753334Y28850420D02*
X26800953Y28802800D01*
X26800953Y28802800D02*
X26896191Y28755181D01*
X26896191Y28755181D02*
X27086667Y28755181D01*
X27086667Y28755181D02*
X27181905Y28802800D01*
X27181905Y28802800D02*
X27229524Y28850420D01*
X27229524Y28850420D02*
X27277143Y28945658D01*
X27277143Y28945658D02*
X27277143Y29755181D01*
X27610477Y29755181D02*
X28181905Y29755181D01*
X27896191Y28755181D02*
X27896191Y29755181D01*
%TO.C,Motor2_MD*%
X73738095Y36240504D02*
X73738095Y37240504D01*
X73738095Y37240504D02*
X74071428Y36526219D01*
X74071428Y36526219D02*
X74404761Y37240504D01*
X74404761Y37240504D02*
X74404761Y36240504D01*
X75023809Y36240504D02*
X74928571Y36288123D01*
X74928571Y36288123D02*
X74880952Y36335743D01*
X74880952Y36335743D02*
X74833333Y36430981D01*
X74833333Y36430981D02*
X74833333Y36716695D01*
X74833333Y36716695D02*
X74880952Y36811933D01*
X74880952Y36811933D02*
X74928571Y36859552D01*
X74928571Y36859552D02*
X75023809Y36907171D01*
X75023809Y36907171D02*
X75166666Y36907171D01*
X75166666Y36907171D02*
X75261904Y36859552D01*
X75261904Y36859552D02*
X75309523Y36811933D01*
X75309523Y36811933D02*
X75357142Y36716695D01*
X75357142Y36716695D02*
X75357142Y36430981D01*
X75357142Y36430981D02*
X75309523Y36335743D01*
X75309523Y36335743D02*
X75261904Y36288123D01*
X75261904Y36288123D02*
X75166666Y36240504D01*
X75166666Y36240504D02*
X75023809Y36240504D01*
X75642857Y36907171D02*
X76023809Y36907171D01*
X75785714Y37240504D02*
X75785714Y36383362D01*
X75785714Y36383362D02*
X75833333Y36288123D01*
X75833333Y36288123D02*
X75928571Y36240504D01*
X75928571Y36240504D02*
X76023809Y36240504D01*
X76500000Y36240504D02*
X76404762Y36288123D01*
X76404762Y36288123D02*
X76357143Y36335743D01*
X76357143Y36335743D02*
X76309524Y36430981D01*
X76309524Y36430981D02*
X76309524Y36716695D01*
X76309524Y36716695D02*
X76357143Y36811933D01*
X76357143Y36811933D02*
X76404762Y36859552D01*
X76404762Y36859552D02*
X76500000Y36907171D01*
X76500000Y36907171D02*
X76642857Y36907171D01*
X76642857Y36907171D02*
X76738095Y36859552D01*
X76738095Y36859552D02*
X76785714Y36811933D01*
X76785714Y36811933D02*
X76833333Y36716695D01*
X76833333Y36716695D02*
X76833333Y36430981D01*
X76833333Y36430981D02*
X76785714Y36335743D01*
X76785714Y36335743D02*
X76738095Y36288123D01*
X76738095Y36288123D02*
X76642857Y36240504D01*
X76642857Y36240504D02*
X76500000Y36240504D01*
X77261905Y36240504D02*
X77261905Y36907171D01*
X77261905Y36716695D02*
X77309524Y36811933D01*
X77309524Y36811933D02*
X77357143Y36859552D01*
X77357143Y36859552D02*
X77452381Y36907171D01*
X77452381Y36907171D02*
X77547619Y36907171D01*
X77833334Y37145266D02*
X77880953Y37192885D01*
X77880953Y37192885D02*
X77976191Y37240504D01*
X77976191Y37240504D02*
X78214286Y37240504D01*
X78214286Y37240504D02*
X78309524Y37192885D01*
X78309524Y37192885D02*
X78357143Y37145266D01*
X78357143Y37145266D02*
X78404762Y37050028D01*
X78404762Y37050028D02*
X78404762Y36954790D01*
X78404762Y36954790D02*
X78357143Y36811933D01*
X78357143Y36811933D02*
X77785715Y36240504D01*
X77785715Y36240504D02*
X78404762Y36240504D01*
X78595239Y36145266D02*
X79357143Y36145266D01*
X79595239Y36240504D02*
X79595239Y37240504D01*
X79595239Y37240504D02*
X79928572Y36526219D01*
X79928572Y36526219D02*
X80261905Y37240504D01*
X80261905Y37240504D02*
X80261905Y36240504D01*
X80738096Y36240504D02*
X80738096Y37240504D01*
X80738096Y37240504D02*
X80976191Y37240504D01*
X80976191Y37240504D02*
X81119048Y37192885D01*
X81119048Y37192885D02*
X81214286Y37097647D01*
X81214286Y37097647D02*
X81261905Y37002409D01*
X81261905Y37002409D02*
X81309524Y36811933D01*
X81309524Y36811933D02*
X81309524Y36669076D01*
X81309524Y36669076D02*
X81261905Y36478600D01*
X81261905Y36478600D02*
X81214286Y36383362D01*
X81214286Y36383362D02*
X81119048Y36288123D01*
X81119048Y36288123D02*
X80976191Y36240504D01*
X80976191Y36240504D02*
X80738096Y36240504D01*
%TO.C,Motor4_OUT*%
X19800952Y79555181D02*
X19800952Y80555181D01*
X19800952Y80555181D02*
X20134285Y79840896D01*
X20134285Y79840896D02*
X20467618Y80555181D01*
X20467618Y80555181D02*
X20467618Y79555181D01*
X21086666Y79555181D02*
X20991428Y79602800D01*
X20991428Y79602800D02*
X20943809Y79650420D01*
X20943809Y79650420D02*
X20896190Y79745658D01*
X20896190Y79745658D02*
X20896190Y80031372D01*
X20896190Y80031372D02*
X20943809Y80126610D01*
X20943809Y80126610D02*
X20991428Y80174229D01*
X20991428Y80174229D02*
X21086666Y80221848D01*
X21086666Y80221848D02*
X21229523Y80221848D01*
X21229523Y80221848D02*
X21324761Y80174229D01*
X21324761Y80174229D02*
X21372380Y80126610D01*
X21372380Y80126610D02*
X21419999Y80031372D01*
X21419999Y80031372D02*
X21419999Y79745658D01*
X21419999Y79745658D02*
X21372380Y79650420D01*
X21372380Y79650420D02*
X21324761Y79602800D01*
X21324761Y79602800D02*
X21229523Y79555181D01*
X21229523Y79555181D02*
X21086666Y79555181D01*
X21705714Y80221848D02*
X22086666Y80221848D01*
X21848571Y80555181D02*
X21848571Y79698039D01*
X21848571Y79698039D02*
X21896190Y79602800D01*
X21896190Y79602800D02*
X21991428Y79555181D01*
X21991428Y79555181D02*
X22086666Y79555181D01*
X22562857Y79555181D02*
X22467619Y79602800D01*
X22467619Y79602800D02*
X22420000Y79650420D01*
X22420000Y79650420D02*
X22372381Y79745658D01*
X22372381Y79745658D02*
X22372381Y80031372D01*
X22372381Y80031372D02*
X22420000Y80126610D01*
X22420000Y80126610D02*
X22467619Y80174229D01*
X22467619Y80174229D02*
X22562857Y80221848D01*
X22562857Y80221848D02*
X22705714Y80221848D01*
X22705714Y80221848D02*
X22800952Y80174229D01*
X22800952Y80174229D02*
X22848571Y80126610D01*
X22848571Y80126610D02*
X22896190Y80031372D01*
X22896190Y80031372D02*
X22896190Y79745658D01*
X22896190Y79745658D02*
X22848571Y79650420D01*
X22848571Y79650420D02*
X22800952Y79602800D01*
X22800952Y79602800D02*
X22705714Y79555181D01*
X22705714Y79555181D02*
X22562857Y79555181D01*
X23324762Y79555181D02*
X23324762Y80221848D01*
X23324762Y80031372D02*
X23372381Y80126610D01*
X23372381Y80126610D02*
X23420000Y80174229D01*
X23420000Y80174229D02*
X23515238Y80221848D01*
X23515238Y80221848D02*
X23610476Y80221848D01*
X24372381Y80221848D02*
X24372381Y79555181D01*
X24134286Y80602800D02*
X23896191Y79888515D01*
X23896191Y79888515D02*
X24515238Y79888515D01*
X24658096Y79459943D02*
X25420000Y79459943D01*
X25848572Y80555181D02*
X26039048Y80555181D01*
X26039048Y80555181D02*
X26134286Y80507562D01*
X26134286Y80507562D02*
X26229524Y80412324D01*
X26229524Y80412324D02*
X26277143Y80221848D01*
X26277143Y80221848D02*
X26277143Y79888515D01*
X26277143Y79888515D02*
X26229524Y79698039D01*
X26229524Y79698039D02*
X26134286Y79602800D01*
X26134286Y79602800D02*
X26039048Y79555181D01*
X26039048Y79555181D02*
X25848572Y79555181D01*
X25848572Y79555181D02*
X25753334Y79602800D01*
X25753334Y79602800D02*
X25658096Y79698039D01*
X25658096Y79698039D02*
X25610477Y79888515D01*
X25610477Y79888515D02*
X25610477Y80221848D01*
X25610477Y80221848D02*
X25658096Y80412324D01*
X25658096Y80412324D02*
X25753334Y80507562D01*
X25753334Y80507562D02*
X25848572Y80555181D01*
X26705715Y80555181D02*
X26705715Y79745658D01*
X26705715Y79745658D02*
X26753334Y79650420D01*
X26753334Y79650420D02*
X26800953Y79602800D01*
X26800953Y79602800D02*
X26896191Y79555181D01*
X26896191Y79555181D02*
X27086667Y79555181D01*
X27086667Y79555181D02*
X27181905Y79602800D01*
X27181905Y79602800D02*
X27229524Y79650420D01*
X27229524Y79650420D02*
X27277143Y79745658D01*
X27277143Y79745658D02*
X27277143Y80555181D01*
X27610477Y80555181D02*
X28181905Y80555181D01*
X27896191Y79555181D02*
X27896191Y80555181D01*
%TO.C,Power_IN*%
X55300952Y680504D02*
X55300952Y1680504D01*
X55300952Y1680504D02*
X55681904Y1680504D01*
X55681904Y1680504D02*
X55777142Y1632885D01*
X55777142Y1632885D02*
X55824761Y1585266D01*
X55824761Y1585266D02*
X55872380Y1490028D01*
X55872380Y1490028D02*
X55872380Y1347171D01*
X55872380Y1347171D02*
X55824761Y1251933D01*
X55824761Y1251933D02*
X55777142Y1204314D01*
X55777142Y1204314D02*
X55681904Y1156695D01*
X55681904Y1156695D02*
X55300952Y1156695D01*
X56443809Y680504D02*
X56348571Y728123D01*
X56348571Y728123D02*
X56300952Y775743D01*
X56300952Y775743D02*
X56253333Y870981D01*
X56253333Y870981D02*
X56253333Y1156695D01*
X56253333Y1156695D02*
X56300952Y1251933D01*
X56300952Y1251933D02*
X56348571Y1299552D01*
X56348571Y1299552D02*
X56443809Y1347171D01*
X56443809Y1347171D02*
X56586666Y1347171D01*
X56586666Y1347171D02*
X56681904Y1299552D01*
X56681904Y1299552D02*
X56729523Y1251933D01*
X56729523Y1251933D02*
X56777142Y1156695D01*
X56777142Y1156695D02*
X56777142Y870981D01*
X56777142Y870981D02*
X56729523Y775743D01*
X56729523Y775743D02*
X56681904Y728123D01*
X56681904Y728123D02*
X56586666Y680504D01*
X56586666Y680504D02*
X56443809Y680504D01*
X57110476Y1347171D02*
X57300952Y680504D01*
X57300952Y680504D02*
X57491428Y1156695D01*
X57491428Y1156695D02*
X57681904Y680504D01*
X57681904Y680504D02*
X57872380Y1347171D01*
X58634285Y728123D02*
X58539047Y680504D01*
X58539047Y680504D02*
X58348571Y680504D01*
X58348571Y680504D02*
X58253333Y728123D01*
X58253333Y728123D02*
X58205714Y823362D01*
X58205714Y823362D02*
X58205714Y1204314D01*
X58205714Y1204314D02*
X58253333Y1299552D01*
X58253333Y1299552D02*
X58348571Y1347171D01*
X58348571Y1347171D02*
X58539047Y1347171D01*
X58539047Y1347171D02*
X58634285Y1299552D01*
X58634285Y1299552D02*
X58681904Y1204314D01*
X58681904Y1204314D02*
X58681904Y1109076D01*
X58681904Y1109076D02*
X58205714Y1013838D01*
X59110476Y680504D02*
X59110476Y1347171D01*
X59110476Y1156695D02*
X59158095Y1251933D01*
X59158095Y1251933D02*
X59205714Y1299552D01*
X59205714Y1299552D02*
X59300952Y1347171D01*
X59300952Y1347171D02*
X59396190Y1347171D01*
X59491429Y585266D02*
X60253333Y585266D01*
X60491429Y680504D02*
X60491429Y1680504D01*
X60967619Y680504D02*
X60967619Y1680504D01*
X60967619Y1680504D02*
X61539047Y680504D01*
X61539047Y680504D02*
X61539047Y1680504D01*
%TO.C,Motor3_OUT*%
X19800952Y54155181D02*
X19800952Y55155181D01*
X19800952Y55155181D02*
X20134285Y54440896D01*
X20134285Y54440896D02*
X20467618Y55155181D01*
X20467618Y55155181D02*
X20467618Y54155181D01*
X21086666Y54155181D02*
X20991428Y54202800D01*
X20991428Y54202800D02*
X20943809Y54250420D01*
X20943809Y54250420D02*
X20896190Y54345658D01*
X20896190Y54345658D02*
X20896190Y54631372D01*
X20896190Y54631372D02*
X20943809Y54726610D01*
X20943809Y54726610D02*
X20991428Y54774229D01*
X20991428Y54774229D02*
X21086666Y54821848D01*
X21086666Y54821848D02*
X21229523Y54821848D01*
X21229523Y54821848D02*
X21324761Y54774229D01*
X21324761Y54774229D02*
X21372380Y54726610D01*
X21372380Y54726610D02*
X21419999Y54631372D01*
X21419999Y54631372D02*
X21419999Y54345658D01*
X21419999Y54345658D02*
X21372380Y54250420D01*
X21372380Y54250420D02*
X21324761Y54202800D01*
X21324761Y54202800D02*
X21229523Y54155181D01*
X21229523Y54155181D02*
X21086666Y54155181D01*
X21705714Y54821848D02*
X22086666Y54821848D01*
X21848571Y55155181D02*
X21848571Y54298039D01*
X21848571Y54298039D02*
X21896190Y54202800D01*
X21896190Y54202800D02*
X21991428Y54155181D01*
X21991428Y54155181D02*
X22086666Y54155181D01*
X22562857Y54155181D02*
X22467619Y54202800D01*
X22467619Y54202800D02*
X22420000Y54250420D01*
X22420000Y54250420D02*
X22372381Y54345658D01*
X22372381Y54345658D02*
X22372381Y54631372D01*
X22372381Y54631372D02*
X22420000Y54726610D01*
X22420000Y54726610D02*
X22467619Y54774229D01*
X22467619Y54774229D02*
X22562857Y54821848D01*
X22562857Y54821848D02*
X22705714Y54821848D01*
X22705714Y54821848D02*
X22800952Y54774229D01*
X22800952Y54774229D02*
X22848571Y54726610D01*
X22848571Y54726610D02*
X22896190Y54631372D01*
X22896190Y54631372D02*
X22896190Y54345658D01*
X22896190Y54345658D02*
X22848571Y54250420D01*
X22848571Y54250420D02*
X22800952Y54202800D01*
X22800952Y54202800D02*
X22705714Y54155181D01*
X22705714Y54155181D02*
X22562857Y54155181D01*
X23324762Y54155181D02*
X23324762Y54821848D01*
X23324762Y54631372D02*
X23372381Y54726610D01*
X23372381Y54726610D02*
X23420000Y54774229D01*
X23420000Y54774229D02*
X23515238Y54821848D01*
X23515238Y54821848D02*
X23610476Y54821848D01*
X23848572Y55155181D02*
X24467619Y55155181D01*
X24467619Y55155181D02*
X24134286Y54774229D01*
X24134286Y54774229D02*
X24277143Y54774229D01*
X24277143Y54774229D02*
X24372381Y54726610D01*
X24372381Y54726610D02*
X24420000Y54678991D01*
X24420000Y54678991D02*
X24467619Y54583753D01*
X24467619Y54583753D02*
X24467619Y54345658D01*
X24467619Y54345658D02*
X24420000Y54250420D01*
X24420000Y54250420D02*
X24372381Y54202800D01*
X24372381Y54202800D02*
X24277143Y54155181D01*
X24277143Y54155181D02*
X23991429Y54155181D01*
X23991429Y54155181D02*
X23896191Y54202800D01*
X23896191Y54202800D02*
X23848572Y54250420D01*
X24658096Y54059943D02*
X25420000Y54059943D01*
X25848572Y55155181D02*
X26039048Y55155181D01*
X26039048Y55155181D02*
X26134286Y55107562D01*
X26134286Y55107562D02*
X26229524Y55012324D01*
X26229524Y55012324D02*
X26277143Y54821848D01*
X26277143Y54821848D02*
X26277143Y54488515D01*
X26277143Y54488515D02*
X26229524Y54298039D01*
X26229524Y54298039D02*
X26134286Y54202800D01*
X26134286Y54202800D02*
X26039048Y54155181D01*
X26039048Y54155181D02*
X25848572Y54155181D01*
X25848572Y54155181D02*
X25753334Y54202800D01*
X25753334Y54202800D02*
X25658096Y54298039D01*
X25658096Y54298039D02*
X25610477Y54488515D01*
X25610477Y54488515D02*
X25610477Y54821848D01*
X25610477Y54821848D02*
X25658096Y55012324D01*
X25658096Y55012324D02*
X25753334Y55107562D01*
X25753334Y55107562D02*
X25848572Y55155181D01*
X26705715Y55155181D02*
X26705715Y54345658D01*
X26705715Y54345658D02*
X26753334Y54250420D01*
X26753334Y54250420D02*
X26800953Y54202800D01*
X26800953Y54202800D02*
X26896191Y54155181D01*
X26896191Y54155181D02*
X27086667Y54155181D01*
X27086667Y54155181D02*
X27181905Y54202800D01*
X27181905Y54202800D02*
X27229524Y54250420D01*
X27229524Y54250420D02*
X27277143Y54345658D01*
X27277143Y54345658D02*
X27277143Y55155181D01*
X27610477Y55155181D02*
X28181905Y55155181D01*
X27896191Y54155181D02*
X27896191Y55155181D01*
%TO.C,Motor4_MD*%
X73708095Y87040504D02*
X73708095Y88040504D01*
X73708095Y88040504D02*
X74041428Y87326219D01*
X74041428Y87326219D02*
X74374761Y88040504D01*
X74374761Y88040504D02*
X74374761Y87040504D01*
X74993809Y87040504D02*
X74898571Y87088123D01*
X74898571Y87088123D02*
X74850952Y87135743D01*
X74850952Y87135743D02*
X74803333Y87230981D01*
X74803333Y87230981D02*
X74803333Y87516695D01*
X74803333Y87516695D02*
X74850952Y87611933D01*
X74850952Y87611933D02*
X74898571Y87659552D01*
X74898571Y87659552D02*
X74993809Y87707171D01*
X74993809Y87707171D02*
X75136666Y87707171D01*
X75136666Y87707171D02*
X75231904Y87659552D01*
X75231904Y87659552D02*
X75279523Y87611933D01*
X75279523Y87611933D02*
X75327142Y87516695D01*
X75327142Y87516695D02*
X75327142Y87230981D01*
X75327142Y87230981D02*
X75279523Y87135743D01*
X75279523Y87135743D02*
X75231904Y87088123D01*
X75231904Y87088123D02*
X75136666Y87040504D01*
X75136666Y87040504D02*
X74993809Y87040504D01*
X75612857Y87707171D02*
X75993809Y87707171D01*
X75755714Y88040504D02*
X75755714Y87183362D01*
X75755714Y87183362D02*
X75803333Y87088123D01*
X75803333Y87088123D02*
X75898571Y87040504D01*
X75898571Y87040504D02*
X75993809Y87040504D01*
X76470000Y87040504D02*
X76374762Y87088123D01*
X76374762Y87088123D02*
X76327143Y87135743D01*
X76327143Y87135743D02*
X76279524Y87230981D01*
X76279524Y87230981D02*
X76279524Y87516695D01*
X76279524Y87516695D02*
X76327143Y87611933D01*
X76327143Y87611933D02*
X76374762Y87659552D01*
X76374762Y87659552D02*
X76470000Y87707171D01*
X76470000Y87707171D02*
X76612857Y87707171D01*
X76612857Y87707171D02*
X76708095Y87659552D01*
X76708095Y87659552D02*
X76755714Y87611933D01*
X76755714Y87611933D02*
X76803333Y87516695D01*
X76803333Y87516695D02*
X76803333Y87230981D01*
X76803333Y87230981D02*
X76755714Y87135743D01*
X76755714Y87135743D02*
X76708095Y87088123D01*
X76708095Y87088123D02*
X76612857Y87040504D01*
X76612857Y87040504D02*
X76470000Y87040504D01*
X77231905Y87040504D02*
X77231905Y87707171D01*
X77231905Y87516695D02*
X77279524Y87611933D01*
X77279524Y87611933D02*
X77327143Y87659552D01*
X77327143Y87659552D02*
X77422381Y87707171D01*
X77422381Y87707171D02*
X77517619Y87707171D01*
X78279524Y87707171D02*
X78279524Y87040504D01*
X78041429Y88088123D02*
X77803334Y87373838D01*
X77803334Y87373838D02*
X78422381Y87373838D01*
X78565239Y86945266D02*
X79327143Y86945266D01*
X79565239Y87040504D02*
X79565239Y88040504D01*
X79565239Y88040504D02*
X79898572Y87326219D01*
X79898572Y87326219D02*
X80231905Y88040504D01*
X80231905Y88040504D02*
X80231905Y87040504D01*
X80708096Y87040504D02*
X80708096Y88040504D01*
X80708096Y88040504D02*
X80946191Y88040504D01*
X80946191Y88040504D02*
X81089048Y87992885D01*
X81089048Y87992885D02*
X81184286Y87897647D01*
X81184286Y87897647D02*
X81231905Y87802409D01*
X81231905Y87802409D02*
X81279524Y87611933D01*
X81279524Y87611933D02*
X81279524Y87469076D01*
X81279524Y87469076D02*
X81231905Y87278600D01*
X81231905Y87278600D02*
X81184286Y87183362D01*
X81184286Y87183362D02*
X81089048Y87088123D01*
X81089048Y87088123D02*
X80946191Y87040504D01*
X80946191Y87040504D02*
X80708096Y87040504D01*
%TO.C,C2*%
X53092010Y58060420D02*
X53044391Y58012800D01*
X53044391Y58012800D02*
X52901534Y57965181D01*
X52901534Y57965181D02*
X52806296Y57965181D01*
X52806296Y57965181D02*
X52663439Y58012800D01*
X52663439Y58012800D02*
X52568201Y58108039D01*
X52568201Y58108039D02*
X52520582Y58203277D01*
X52520582Y58203277D02*
X52472963Y58393753D01*
X52472963Y58393753D02*
X52472963Y58536610D01*
X52472963Y58536610D02*
X52520582Y58727086D01*
X52520582Y58727086D02*
X52568201Y58822324D01*
X52568201Y58822324D02*
X52663439Y58917562D01*
X52663439Y58917562D02*
X52806296Y58965181D01*
X52806296Y58965181D02*
X52901534Y58965181D01*
X52901534Y58965181D02*
X53044391Y58917562D01*
X53044391Y58917562D02*
X53092010Y58869943D01*
X53472963Y58869943D02*
X53520582Y58917562D01*
X53520582Y58917562D02*
X53615820Y58965181D01*
X53615820Y58965181D02*
X53853915Y58965181D01*
X53853915Y58965181D02*
X53949153Y58917562D01*
X53949153Y58917562D02*
X53996772Y58869943D01*
X53996772Y58869943D02*
X54044391Y58774705D01*
X54044391Y58774705D02*
X54044391Y58679467D01*
X54044391Y58679467D02*
X53996772Y58536610D01*
X53996772Y58536610D02*
X53425344Y57965181D01*
X53425344Y57965181D02*
X54044391Y57965181D01*
%TO.C,C3*%
X53092010Y83460420D02*
X53044391Y83412800D01*
X53044391Y83412800D02*
X52901534Y83365181D01*
X52901534Y83365181D02*
X52806296Y83365181D01*
X52806296Y83365181D02*
X52663439Y83412800D01*
X52663439Y83412800D02*
X52568201Y83508039D01*
X52568201Y83508039D02*
X52520582Y83603277D01*
X52520582Y83603277D02*
X52472963Y83793753D01*
X52472963Y83793753D02*
X52472963Y83936610D01*
X52472963Y83936610D02*
X52520582Y84127086D01*
X52520582Y84127086D02*
X52568201Y84222324D01*
X52568201Y84222324D02*
X52663439Y84317562D01*
X52663439Y84317562D02*
X52806296Y84365181D01*
X52806296Y84365181D02*
X52901534Y84365181D01*
X52901534Y84365181D02*
X53044391Y84317562D01*
X53044391Y84317562D02*
X53092010Y84269943D01*
X53425344Y84365181D02*
X54044391Y84365181D01*
X54044391Y84365181D02*
X53711058Y83984229D01*
X53711058Y83984229D02*
X53853915Y83984229D01*
X53853915Y83984229D02*
X53949153Y83936610D01*
X53949153Y83936610D02*
X53996772Y83888991D01*
X53996772Y83888991D02*
X54044391Y83793753D01*
X54044391Y83793753D02*
X54044391Y83555658D01*
X54044391Y83555658D02*
X53996772Y83460420D01*
X53996772Y83460420D02*
X53949153Y83412800D01*
X53949153Y83412800D02*
X53853915Y83365181D01*
X53853915Y83365181D02*
X53568201Y83365181D01*
X53568201Y83365181D02*
X53472963Y83412800D01*
X53472963Y83412800D02*
X53425344Y83460420D01*
%TO.C,Motor3_MD*%
X73708095Y61640504D02*
X73708095Y62640504D01*
X73708095Y62640504D02*
X74041428Y61926219D01*
X74041428Y61926219D02*
X74374761Y62640504D01*
X74374761Y62640504D02*
X74374761Y61640504D01*
X74993809Y61640504D02*
X74898571Y61688123D01*
X74898571Y61688123D02*
X74850952Y61735743D01*
X74850952Y61735743D02*
X74803333Y61830981D01*
X74803333Y61830981D02*
X74803333Y62116695D01*
X74803333Y62116695D02*
X74850952Y62211933D01*
X74850952Y62211933D02*
X74898571Y62259552D01*
X74898571Y62259552D02*
X74993809Y62307171D01*
X74993809Y62307171D02*
X75136666Y62307171D01*
X75136666Y62307171D02*
X75231904Y62259552D01*
X75231904Y62259552D02*
X75279523Y62211933D01*
X75279523Y62211933D02*
X75327142Y62116695D01*
X75327142Y62116695D02*
X75327142Y61830981D01*
X75327142Y61830981D02*
X75279523Y61735743D01*
X75279523Y61735743D02*
X75231904Y61688123D01*
X75231904Y61688123D02*
X75136666Y61640504D01*
X75136666Y61640504D02*
X74993809Y61640504D01*
X75612857Y62307171D02*
X75993809Y62307171D01*
X75755714Y62640504D02*
X75755714Y61783362D01*
X75755714Y61783362D02*
X75803333Y61688123D01*
X75803333Y61688123D02*
X75898571Y61640504D01*
X75898571Y61640504D02*
X75993809Y61640504D01*
X76470000Y61640504D02*
X76374762Y61688123D01*
X76374762Y61688123D02*
X76327143Y61735743D01*
X76327143Y61735743D02*
X76279524Y61830981D01*
X76279524Y61830981D02*
X76279524Y62116695D01*
X76279524Y62116695D02*
X76327143Y62211933D01*
X76327143Y62211933D02*
X76374762Y62259552D01*
X76374762Y62259552D02*
X76470000Y62307171D01*
X76470000Y62307171D02*
X76612857Y62307171D01*
X76612857Y62307171D02*
X76708095Y62259552D01*
X76708095Y62259552D02*
X76755714Y62211933D01*
X76755714Y62211933D02*
X76803333Y62116695D01*
X76803333Y62116695D02*
X76803333Y61830981D01*
X76803333Y61830981D02*
X76755714Y61735743D01*
X76755714Y61735743D02*
X76708095Y61688123D01*
X76708095Y61688123D02*
X76612857Y61640504D01*
X76612857Y61640504D02*
X76470000Y61640504D01*
X77231905Y61640504D02*
X77231905Y62307171D01*
X77231905Y62116695D02*
X77279524Y62211933D01*
X77279524Y62211933D02*
X77327143Y62259552D01*
X77327143Y62259552D02*
X77422381Y62307171D01*
X77422381Y62307171D02*
X77517619Y62307171D01*
X77755715Y62640504D02*
X78374762Y62640504D01*
X78374762Y62640504D02*
X78041429Y62259552D01*
X78041429Y62259552D02*
X78184286Y62259552D01*
X78184286Y62259552D02*
X78279524Y62211933D01*
X78279524Y62211933D02*
X78327143Y62164314D01*
X78327143Y62164314D02*
X78374762Y62069076D01*
X78374762Y62069076D02*
X78374762Y61830981D01*
X78374762Y61830981D02*
X78327143Y61735743D01*
X78327143Y61735743D02*
X78279524Y61688123D01*
X78279524Y61688123D02*
X78184286Y61640504D01*
X78184286Y61640504D02*
X77898572Y61640504D01*
X77898572Y61640504D02*
X77803334Y61688123D01*
X77803334Y61688123D02*
X77755715Y61735743D01*
X78565239Y61545266D02*
X79327143Y61545266D01*
X79565239Y61640504D02*
X79565239Y62640504D01*
X79565239Y62640504D02*
X79898572Y61926219D01*
X79898572Y61926219D02*
X80231905Y62640504D01*
X80231905Y62640504D02*
X80231905Y61640504D01*
X80708096Y61640504D02*
X80708096Y62640504D01*
X80708096Y62640504D02*
X80946191Y62640504D01*
X80946191Y62640504D02*
X81089048Y62592885D01*
X81089048Y62592885D02*
X81184286Y62497647D01*
X81184286Y62497647D02*
X81231905Y62402409D01*
X81231905Y62402409D02*
X81279524Y62211933D01*
X81279524Y62211933D02*
X81279524Y62069076D01*
X81279524Y62069076D02*
X81231905Y61878600D01*
X81231905Y61878600D02*
X81184286Y61783362D01*
X81184286Y61783362D02*
X81089048Y61688123D01*
X81089048Y61688123D02*
X80946191Y61640504D01*
X80946191Y61640504D02*
X80708096Y61640504D01*
%TO.C,C1*%
X53346010Y32406420D02*
X53298391Y32358800D01*
X53298391Y32358800D02*
X53155534Y32311181D01*
X53155534Y32311181D02*
X53060296Y32311181D01*
X53060296Y32311181D02*
X52917439Y32358800D01*
X52917439Y32358800D02*
X52822201Y32454039D01*
X52822201Y32454039D02*
X52774582Y32549277D01*
X52774582Y32549277D02*
X52726963Y32739753D01*
X52726963Y32739753D02*
X52726963Y32882610D01*
X52726963Y32882610D02*
X52774582Y33073086D01*
X52774582Y33073086D02*
X52822201Y33168324D01*
X52822201Y33168324D02*
X52917439Y33263562D01*
X52917439Y33263562D02*
X53060296Y33311181D01*
X53060296Y33311181D02*
X53155534Y33311181D01*
X53155534Y33311181D02*
X53298391Y33263562D01*
X53298391Y33263562D02*
X53346010Y33215943D01*
X54298391Y32311181D02*
X53726963Y32311181D01*
X54012677Y32311181D02*
X54012677Y33311181D01*
X54012677Y33311181D02*
X53917439Y33168324D01*
X53917439Y33168324D02*
X53822201Y33073086D01*
X53822201Y33073086D02*
X53726963Y33025467D01*
%TO.C,Motor1_OUT*%
X19800952Y3355181D02*
X19800952Y4355181D01*
X19800952Y4355181D02*
X20134285Y3640896D01*
X20134285Y3640896D02*
X20467618Y4355181D01*
X20467618Y4355181D02*
X20467618Y3355181D01*
X21086666Y3355181D02*
X20991428Y3402800D01*
X20991428Y3402800D02*
X20943809Y3450420D01*
X20943809Y3450420D02*
X20896190Y3545658D01*
X20896190Y3545658D02*
X20896190Y3831372D01*
X20896190Y3831372D02*
X20943809Y3926610D01*
X20943809Y3926610D02*
X20991428Y3974229D01*
X20991428Y3974229D02*
X21086666Y4021848D01*
X21086666Y4021848D02*
X21229523Y4021848D01*
X21229523Y4021848D02*
X21324761Y3974229D01*
X21324761Y3974229D02*
X21372380Y3926610D01*
X21372380Y3926610D02*
X21419999Y3831372D01*
X21419999Y3831372D02*
X21419999Y3545658D01*
X21419999Y3545658D02*
X21372380Y3450420D01*
X21372380Y3450420D02*
X21324761Y3402800D01*
X21324761Y3402800D02*
X21229523Y3355181D01*
X21229523Y3355181D02*
X21086666Y3355181D01*
X21705714Y4021848D02*
X22086666Y4021848D01*
X21848571Y4355181D02*
X21848571Y3498039D01*
X21848571Y3498039D02*
X21896190Y3402800D01*
X21896190Y3402800D02*
X21991428Y3355181D01*
X21991428Y3355181D02*
X22086666Y3355181D01*
X22562857Y3355181D02*
X22467619Y3402800D01*
X22467619Y3402800D02*
X22420000Y3450420D01*
X22420000Y3450420D02*
X22372381Y3545658D01*
X22372381Y3545658D02*
X22372381Y3831372D01*
X22372381Y3831372D02*
X22420000Y3926610D01*
X22420000Y3926610D02*
X22467619Y3974229D01*
X22467619Y3974229D02*
X22562857Y4021848D01*
X22562857Y4021848D02*
X22705714Y4021848D01*
X22705714Y4021848D02*
X22800952Y3974229D01*
X22800952Y3974229D02*
X22848571Y3926610D01*
X22848571Y3926610D02*
X22896190Y3831372D01*
X22896190Y3831372D02*
X22896190Y3545658D01*
X22896190Y3545658D02*
X22848571Y3450420D01*
X22848571Y3450420D02*
X22800952Y3402800D01*
X22800952Y3402800D02*
X22705714Y3355181D01*
X22705714Y3355181D02*
X22562857Y3355181D01*
X23324762Y3355181D02*
X23324762Y4021848D01*
X23324762Y3831372D02*
X23372381Y3926610D01*
X23372381Y3926610D02*
X23420000Y3974229D01*
X23420000Y3974229D02*
X23515238Y4021848D01*
X23515238Y4021848D02*
X23610476Y4021848D01*
X24467619Y3355181D02*
X23896191Y3355181D01*
X24181905Y3355181D02*
X24181905Y4355181D01*
X24181905Y4355181D02*
X24086667Y4212324D01*
X24086667Y4212324D02*
X23991429Y4117086D01*
X23991429Y4117086D02*
X23896191Y4069467D01*
X24658096Y3259943D02*
X25420000Y3259943D01*
X25848572Y4355181D02*
X26039048Y4355181D01*
X26039048Y4355181D02*
X26134286Y4307562D01*
X26134286Y4307562D02*
X26229524Y4212324D01*
X26229524Y4212324D02*
X26277143Y4021848D01*
X26277143Y4021848D02*
X26277143Y3688515D01*
X26277143Y3688515D02*
X26229524Y3498039D01*
X26229524Y3498039D02*
X26134286Y3402800D01*
X26134286Y3402800D02*
X26039048Y3355181D01*
X26039048Y3355181D02*
X25848572Y3355181D01*
X25848572Y3355181D02*
X25753334Y3402800D01*
X25753334Y3402800D02*
X25658096Y3498039D01*
X25658096Y3498039D02*
X25610477Y3688515D01*
X25610477Y3688515D02*
X25610477Y4021848D01*
X25610477Y4021848D02*
X25658096Y4212324D01*
X25658096Y4212324D02*
X25753334Y4307562D01*
X25753334Y4307562D02*
X25848572Y4355181D01*
X26705715Y4355181D02*
X26705715Y3545658D01*
X26705715Y3545658D02*
X26753334Y3450420D01*
X26753334Y3450420D02*
X26800953Y3402800D01*
X26800953Y3402800D02*
X26896191Y3355181D01*
X26896191Y3355181D02*
X27086667Y3355181D01*
X27086667Y3355181D02*
X27181905Y3402800D01*
X27181905Y3402800D02*
X27229524Y3450420D01*
X27229524Y3450420D02*
X27277143Y3545658D01*
X27277143Y3545658D02*
X27277143Y4355181D01*
X27610477Y4355181D02*
X28181905Y4355181D01*
X27896191Y3355181D02*
X27896191Y4355181D01*
%TO.C,Motor1_MD*%
X73708095Y10840504D02*
X73708095Y11840504D01*
X73708095Y11840504D02*
X74041428Y11126219D01*
X74041428Y11126219D02*
X74374761Y11840504D01*
X74374761Y11840504D02*
X74374761Y10840504D01*
X74993809Y10840504D02*
X74898571Y10888123D01*
X74898571Y10888123D02*
X74850952Y10935743D01*
X74850952Y10935743D02*
X74803333Y11030981D01*
X74803333Y11030981D02*
X74803333Y11316695D01*
X74803333Y11316695D02*
X74850952Y11411933D01*
X74850952Y11411933D02*
X74898571Y11459552D01*
X74898571Y11459552D02*
X74993809Y11507171D01*
X74993809Y11507171D02*
X75136666Y11507171D01*
X75136666Y11507171D02*
X75231904Y11459552D01*
X75231904Y11459552D02*
X75279523Y11411933D01*
X75279523Y11411933D02*
X75327142Y11316695D01*
X75327142Y11316695D02*
X75327142Y11030981D01*
X75327142Y11030981D02*
X75279523Y10935743D01*
X75279523Y10935743D02*
X75231904Y10888123D01*
X75231904Y10888123D02*
X75136666Y10840504D01*
X75136666Y10840504D02*
X74993809Y10840504D01*
X75612857Y11507171D02*
X75993809Y11507171D01*
X75755714Y11840504D02*
X75755714Y10983362D01*
X75755714Y10983362D02*
X75803333Y10888123D01*
X75803333Y10888123D02*
X75898571Y10840504D01*
X75898571Y10840504D02*
X75993809Y10840504D01*
X76470000Y10840504D02*
X76374762Y10888123D01*
X76374762Y10888123D02*
X76327143Y10935743D01*
X76327143Y10935743D02*
X76279524Y11030981D01*
X76279524Y11030981D02*
X76279524Y11316695D01*
X76279524Y11316695D02*
X76327143Y11411933D01*
X76327143Y11411933D02*
X76374762Y11459552D01*
X76374762Y11459552D02*
X76470000Y11507171D01*
X76470000Y11507171D02*
X76612857Y11507171D01*
X76612857Y11507171D02*
X76708095Y11459552D01*
X76708095Y11459552D02*
X76755714Y11411933D01*
X76755714Y11411933D02*
X76803333Y11316695D01*
X76803333Y11316695D02*
X76803333Y11030981D01*
X76803333Y11030981D02*
X76755714Y10935743D01*
X76755714Y10935743D02*
X76708095Y10888123D01*
X76708095Y10888123D02*
X76612857Y10840504D01*
X76612857Y10840504D02*
X76470000Y10840504D01*
X77231905Y10840504D02*
X77231905Y11507171D01*
X77231905Y11316695D02*
X77279524Y11411933D01*
X77279524Y11411933D02*
X77327143Y11459552D01*
X77327143Y11459552D02*
X77422381Y11507171D01*
X77422381Y11507171D02*
X77517619Y11507171D01*
X78374762Y10840504D02*
X77803334Y10840504D01*
X78089048Y10840504D02*
X78089048Y11840504D01*
X78089048Y11840504D02*
X77993810Y11697647D01*
X77993810Y11697647D02*
X77898572Y11602409D01*
X77898572Y11602409D02*
X77803334Y11554790D01*
X78565239Y10745266D02*
X79327143Y10745266D01*
X79565239Y10840504D02*
X79565239Y11840504D01*
X79565239Y11840504D02*
X79898572Y11126219D01*
X79898572Y11126219D02*
X80231905Y11840504D01*
X80231905Y11840504D02*
X80231905Y10840504D01*
X80708096Y10840504D02*
X80708096Y11840504D01*
X80708096Y11840504D02*
X80946191Y11840504D01*
X80946191Y11840504D02*
X81089048Y11792885D01*
X81089048Y11792885D02*
X81184286Y11697647D01*
X81184286Y11697647D02*
X81231905Y11602409D01*
X81231905Y11602409D02*
X81279524Y11411933D01*
X81279524Y11411933D02*
X81279524Y11269076D01*
X81279524Y11269076D02*
X81231905Y11078600D01*
X81231905Y11078600D02*
X81184286Y10983362D01*
X81184286Y10983362D02*
X81089048Y10888123D01*
X81089048Y10888123D02*
X80946191Y10840504D01*
X80946191Y10840504D02*
X80708096Y10840504D01*
D13*
%TO.C,I2C_IN*%
X94100000Y10960000D02*
X94100000Y9360000D01*
X88290000Y5300000D02*
X88290000Y5020000D01*
X95910000Y7460000D02*
X90900000Y7460000D01*
X90900000Y7460000D02*
X90900000Y6960000D01*
X95910000Y11760000D02*
X95910000Y15410000D01*
X87300000Y6010000D02*
X87300000Y6810000D01*
X94100000Y9360000D02*
X92300000Y9360000D01*
X95910000Y12860000D02*
X90900000Y12860000D01*
X90900000Y5860000D02*
X90900000Y3800000D01*
X92300000Y10960000D02*
X94100000Y10960000D01*
X98210000Y3800000D02*
X98210000Y16520000D01*
X87700000Y6410000D02*
X87300000Y6010000D01*
X94310000Y14460000D02*
X90900000Y14460000D01*
X95910000Y4910000D02*
X95910000Y8560000D01*
X90900000Y6960000D02*
X94310000Y6960000D01*
X85390000Y3800000D02*
X98210000Y3800000D01*
X94310000Y5860000D02*
X90900000Y5860000D01*
X95910000Y15410000D02*
X98210000Y15410000D01*
X92300000Y9360000D02*
X92300000Y10960000D01*
X90900000Y14460000D02*
X90900000Y16520000D01*
X94310000Y13360000D02*
X94310000Y14460000D01*
X85390000Y5020000D02*
X85390000Y3800000D01*
X88290000Y5020000D02*
X85390000Y5020000D01*
X88290000Y15300000D02*
X88290000Y15020000D01*
X98210000Y16520000D02*
X85390000Y16520000D01*
X87300000Y6810000D02*
X87700000Y6410000D01*
X85390000Y15300000D02*
X88290000Y15300000D01*
X98210000Y4910000D02*
X95910000Y4910000D01*
X85390000Y16520000D02*
X85390000Y15300000D01*
X94310000Y6960000D02*
X94310000Y5860000D01*
X90900000Y12860000D02*
X90900000Y13360000D01*
X90900000Y13360000D02*
X94310000Y13360000D01*
%TO.C,I2C_OUT*%
X85390000Y82540000D02*
X98210000Y82540000D01*
X98210000Y82540000D02*
X98210000Y95260000D01*
X95910000Y83650000D02*
X95910000Y87300000D01*
X98210000Y83650000D02*
X95910000Y83650000D01*
X85390000Y83760000D02*
X85390000Y82540000D01*
X88290000Y83760000D02*
X85390000Y83760000D01*
X88290000Y84040000D02*
X88290000Y83760000D01*
X90900000Y84600000D02*
X90900000Y82540000D01*
X94310000Y84600000D02*
X90900000Y84600000D01*
X87300000Y84750000D02*
X87300000Y85550000D01*
X87700000Y85150000D02*
X87300000Y84750000D01*
X87300000Y85550000D02*
X87700000Y85150000D01*
X90900000Y85700000D02*
X94310000Y85700000D01*
X94310000Y85700000D02*
X94310000Y84600000D01*
X90900000Y86200000D02*
X90900000Y85700000D01*
X95910000Y86200000D02*
X90900000Y86200000D01*
X92300000Y88100000D02*
X92300000Y89700000D01*
X94100000Y88100000D02*
X92300000Y88100000D01*
X92300000Y89700000D02*
X94100000Y89700000D01*
X94100000Y89700000D02*
X94100000Y88100000D01*
X95910000Y90500000D02*
X95910000Y94150000D01*
X90900000Y91600000D02*
X90900000Y92100000D01*
X95910000Y91600000D02*
X90900000Y91600000D01*
X90900000Y92100000D02*
X94310000Y92100000D01*
X94310000Y92100000D02*
X94310000Y93200000D01*
X90900000Y93200000D02*
X90900000Y95260000D01*
X94310000Y93200000D02*
X90900000Y93200000D01*
X85390000Y94040000D02*
X88290000Y94040000D01*
X88290000Y94040000D02*
X88290000Y93760000D01*
X95910000Y94150000D02*
X98210000Y94150000D01*
X85390000Y95260000D02*
X85390000Y94040000D01*
X98210000Y95260000D02*
X85390000Y95260000D01*
%TO.C,Motor2_OUT*%
X2100000Y33350000D02*
X2100000Y30200000D01*
X2100000Y30200000D02*
X4950000Y27600000D01*
X4950000Y35900000D02*
X2100000Y33350000D01*
X4950000Y27600000D02*
X17800000Y27600000D01*
X17800000Y35900000D02*
X4950000Y35900000D01*
X17800000Y27600000D02*
X17800000Y35900000D01*
%TO.C,Motor2_MD*%
X8860000Y39175323D02*
X72480000Y39175323D01*
X8860000Y39175323D02*
X8860000Y41775323D01*
X72480000Y39175323D02*
X72480000Y44375323D01*
X8860000Y41775323D02*
X11460000Y41775323D01*
X11460000Y41775323D02*
X11460000Y44375323D01*
X8860000Y43045323D02*
X8860000Y44375323D01*
X8860000Y44375323D02*
X10190000Y44375323D01*
X11460000Y44375323D02*
X72480000Y44375323D01*
%TO.C,Motor4_OUT*%
X2100000Y84150000D02*
X2100000Y81000000D01*
X2100000Y81000000D02*
X4950000Y78400000D01*
X4950000Y86700000D02*
X2100000Y84150000D01*
X4950000Y78400000D02*
X17800000Y78400000D01*
X17800000Y86700000D02*
X4950000Y86700000D01*
X17800000Y78400000D02*
X17800000Y86700000D01*
%TO.C,Power_IN*%
X54840000Y3345323D02*
X54840000Y6495323D01*
X54840000Y6495323D02*
X51990000Y9095323D01*
X51990000Y795323D02*
X54840000Y3345323D01*
X51990000Y9095323D02*
X39140000Y9095323D01*
X39140000Y795323D02*
X51990000Y795323D01*
X39140000Y9095323D02*
X39140000Y795323D01*
%TO.C,Motor3_OUT*%
X2100000Y58750000D02*
X2100000Y55600000D01*
X2100000Y55600000D02*
X4950000Y53000000D01*
X4950000Y61300000D02*
X2100000Y58750000D01*
X4950000Y53000000D02*
X17800000Y53000000D01*
X17800000Y61300000D02*
X4950000Y61300000D01*
X17800000Y53000000D02*
X17800000Y61300000D01*
%TO.C,Motor4_MD*%
X8830000Y89975323D02*
X72450000Y89975323D01*
X8830000Y89975323D02*
X8830000Y92575323D01*
X72450000Y89975323D02*
X72450000Y95175323D01*
X8830000Y92575323D02*
X11430000Y92575323D01*
X11430000Y92575323D02*
X11430000Y95175323D01*
X8830000Y93845323D02*
X8830000Y95175323D01*
X8830000Y95175323D02*
X10160000Y95175323D01*
X11430000Y95175323D02*
X72450000Y95175323D01*
%TO.C,G\u002A\u002A\u002A*%
G36*
X91173117Y74154023D02*
G01*
X91168297Y74149203D01*
X91163478Y74154023D01*
X91168297Y74158842D01*
X91173117Y74154023D01*
G37*
G36*
X91394825Y74886622D02*
G01*
X91390005Y74881802D01*
X91385185Y74886622D01*
X91390005Y74891442D01*
X91394825Y74886622D01*
G37*
G36*
X91786830Y77943940D02*
G01*
X91785507Y77938210D01*
X91780404Y77937514D01*
X91772469Y77941041D01*
X91773977Y77943940D01*
X91785417Y77945094D01*
X91786830Y77943940D01*
G37*
G36*
X90705221Y74202521D02*
G01*
X90710423Y74187761D01*
X90706713Y74172092D01*
X90701571Y74168482D01*
X90678922Y74173815D01*
X90664204Y74186525D01*
X90662225Y74193612D01*
X90670598Y74204111D01*
X90686324Y74207040D01*
X90705221Y74202521D01*
G37*
G36*
X90738432Y74062686D02*
G01*
X90739341Y74053576D01*
X90734835Y74041221D01*
X90718258Y74040273D01*
X90715242Y74040809D01*
X90696178Y74049760D01*
X90692001Y74062969D01*
X90704095Y74074910D01*
X90706473Y74075907D01*
X90727628Y74077242D01*
X90738432Y74062686D01*
G37*
G36*
X90666373Y74090538D02*
G01*
X90675283Y74074300D01*
X90675192Y74066258D01*
X90664724Y74060491D01*
X90646380Y74060473D01*
X90629615Y74065146D01*
X90623667Y74072031D01*
X90630225Y74083536D01*
X90638610Y74091768D01*
X90653237Y74099149D01*
X90666373Y74090538D01*
G37*
G36*
X90805638Y74179421D02*
G01*
X90805699Y74178862D01*
X90802562Y74165754D01*
X90800171Y74156426D01*
X90791998Y74144777D01*
X90773312Y74144927D01*
X90769961Y74145678D01*
X90745030Y74153124D01*
X90729701Y74159495D01*
X90720078Y74166484D01*
X90728202Y74171437D01*
X90729701Y74171938D01*
X90751177Y74177075D01*
X90775642Y74180459D01*
X90796121Y74181453D01*
X90805638Y74179421D01*
G37*
G36*
X95865165Y58593510D02*
G01*
X95867612Y57366888D01*
X94739720Y57366888D01*
X93852889Y57366888D01*
X93611829Y57366888D01*
X93614276Y58593510D01*
X93616184Y59550227D01*
X93852889Y59550227D01*
X93852889Y58593510D01*
X93852889Y57636793D01*
X94744540Y57636793D01*
X95636191Y57636793D01*
X95636191Y58593510D01*
X95636191Y59550227D01*
X94744540Y59550227D01*
X93852889Y59550227D01*
X93616184Y59550227D01*
X93616722Y59820133D01*
X94739720Y59820133D01*
X95862719Y59820133D01*
X95865165Y58593510D01*
G37*
G36*
X91009246Y62779449D02*
G01*
X91009246Y61550417D01*
X90647766Y61550417D01*
X90488715Y61550417D01*
X90286286Y61550417D01*
X90286286Y62779449D01*
X90286286Y63719298D01*
X90488715Y63719298D01*
X90488715Y62779449D01*
X90488715Y61839601D01*
X90647766Y61839601D01*
X90806817Y61839601D01*
X90806817Y62779449D01*
X90806817Y63719298D01*
X90647766Y63719298D01*
X90488715Y63719298D01*
X90286286Y63719298D01*
X90286286Y64008482D01*
X90647766Y64008482D01*
X91009246Y64008482D01*
X91009246Y62779449D01*
G37*
G36*
X92153933Y63553125D02*
G01*
X92546741Y63550607D01*
X92549220Y62907172D01*
X92551698Y62263738D01*
X92595007Y62263738D01*
X92638316Y62263738D01*
X92638316Y62119146D01*
X92638316Y61974554D01*
X92199720Y61974554D01*
X91973193Y61974554D01*
X91761125Y61974554D01*
X91761125Y62765098D01*
X91761125Y63256603D01*
X91973193Y63256603D01*
X91973193Y62760171D01*
X91973193Y62263738D01*
X92156343Y62263738D01*
X92339493Y62263738D01*
X92339493Y62760171D01*
X92339493Y63256603D01*
X92156343Y63256603D01*
X91973193Y63256603D01*
X91761125Y63256603D01*
X91761125Y63555643D01*
X92153933Y63553125D01*
G37*
G36*
X90603519Y74060279D02*
G01*
X90609957Y74049386D01*
X90629779Y74038381D01*
X90665510Y74025966D01*
X90676684Y74022646D01*
X90710540Y74012098D01*
X90735640Y74002919D01*
X90747595Y73996755D01*
X90748020Y73995895D01*
X90744636Y73983264D01*
X90739341Y73966053D01*
X90733508Y73951829D01*
X90730662Y73952015D01*
X90721510Y73959316D01*
X90698767Y73967952D01*
X90674275Y73974417D01*
X90630938Y73985704D01*
X90604250Y73997668D01*
X90591642Y74012536D01*
X90590545Y74032536D01*
X90593354Y74044615D01*
X90599470Y74061340D01*
X90603164Y74062926D01*
X90603519Y74060279D01*
G37*
G36*
X93966153Y63109907D02*
G01*
X94079417Y63107191D01*
X94081898Y62487856D01*
X94084378Y61868520D01*
X95019336Y61868520D01*
X95954294Y61868520D01*
X95954294Y61733567D01*
X95954294Y61598615D01*
X95019265Y61598615D01*
X94084237Y61598615D01*
X94084237Y60967229D01*
X94084237Y60335844D01*
X93968563Y60335844D01*
X93852889Y60335844D01*
X93852889Y60967229D01*
X93852889Y61598615D01*
X93592624Y61598615D01*
X93332358Y61598615D01*
X93332358Y61733567D01*
X93332358Y61868520D01*
X93592624Y61868520D01*
X93852889Y61868520D01*
X93852889Y62490571D01*
X93852889Y63112623D01*
X93966153Y63109907D01*
G37*
G36*
X90573181Y73969228D02*
G01*
X90574540Y73967228D01*
X90586310Y73958492D01*
X90591888Y73959465D01*
X90606260Y73960134D01*
X90631769Y73955301D01*
X90661778Y73946928D01*
X90689647Y73936977D01*
X90708739Y73927409D01*
X90712685Y73923772D01*
X90719235Y73906374D01*
X90712140Y73890825D01*
X90689428Y73874261D01*
X90672185Y73865001D01*
X90644411Y73851608D01*
X90623559Y73842797D01*
X90616269Y73840740D01*
X90606632Y73849018D01*
X90594208Y73869942D01*
X90581594Y73897645D01*
X90571389Y73926264D01*
X90566191Y73949931D01*
X90565978Y73954261D01*
X90567737Y73970745D01*
X90573181Y73969228D01*
G37*
G36*
X90640536Y74158758D02*
G01*
X90658575Y74150812D01*
X90688078Y74140328D01*
X90715242Y74131812D01*
X90747955Y74121019D01*
X90766138Y74111117D01*
X90774155Y74099166D01*
X90775772Y74091010D01*
X90776897Y74074567D01*
X90772154Y74075719D01*
X90763535Y74086236D01*
X90743491Y74101691D01*
X90727103Y74106549D01*
X90701948Y74111770D01*
X90680314Y74119900D01*
X90656370Y74127044D01*
X90634675Y74121001D01*
X90633116Y74120182D01*
X90617606Y74113300D01*
X90614546Y74119237D01*
X90617306Y74131240D01*
X90622098Y74151689D01*
X90623536Y74161334D01*
X90630390Y74163218D01*
X90640536Y74158758D01*
G37*
G36*
X90761316Y74309664D02*
G01*
X90779321Y74289189D01*
X90785828Y74280276D01*
X90803131Y74253053D01*
X90814236Y74229572D01*
X90816457Y74219854D01*
X90813704Y74209071D01*
X90802234Y74204712D01*
X90777227Y74205217D01*
X90772383Y74205586D01*
X90742683Y74210714D01*
X90725216Y74219449D01*
X90723154Y74222525D01*
X90710221Y74233149D01*
X90688412Y74235514D01*
X90666074Y74230026D01*
X90652645Y74219089D01*
X90646418Y74211568D01*
X90645760Y74219563D01*
X90648480Y74235958D01*
X90654589Y74263821D01*
X90662361Y74279696D01*
X90676483Y74290639D01*
X90689345Y74297462D01*
X90722148Y74312764D01*
X90744198Y74317177D01*
X90761316Y74309664D01*
G37*
G36*
X96195280Y71816451D02*
G01*
X96195280Y71594744D01*
X96069967Y71594744D01*
X95944654Y71594744D01*
X95944654Y70794668D01*
X95944654Y69994592D01*
X96069967Y69994592D01*
X96195280Y69994592D01*
X96195280Y69777704D01*
X96195280Y69560816D01*
X95163857Y69560816D01*
X94460176Y69560816D01*
X94132434Y69560816D01*
X94132434Y70799487D01*
X94132434Y71594744D01*
X94460176Y71594744D01*
X94460176Y70794668D01*
X94460176Y69994592D01*
X95038544Y69994592D01*
X95616912Y69994592D01*
X95616912Y70794668D01*
X95616912Y71594744D01*
X95038544Y71594744D01*
X94460176Y71594744D01*
X94132434Y71594744D01*
X94132434Y72038159D01*
X95163857Y72038159D01*
X96195280Y72038159D01*
X96195280Y71816451D01*
G37*
G36*
X90035660Y62766597D02*
G01*
X90035624Y62586243D01*
X90035520Y62411077D01*
X90035351Y62242071D01*
X90035120Y62080199D01*
X90034831Y61926433D01*
X90034488Y61781745D01*
X90034095Y61647108D01*
X90033655Y61523495D01*
X90033172Y61411878D01*
X90032648Y61313230D01*
X90032089Y61228523D01*
X90031498Y61158730D01*
X90030878Y61104824D01*
X90030232Y61067777D01*
X90029565Y61048562D01*
X90029233Y61045952D01*
X90017598Y61043440D01*
X89990724Y61041389D01*
X89952648Y61040012D01*
X89908740Y61039525D01*
X89794673Y61039525D01*
X89794673Y61810411D01*
X89794673Y62581296D01*
X89662130Y62583978D01*
X89529588Y62586660D01*
X89529588Y62750531D01*
X89529588Y62914402D01*
X89662130Y62917084D01*
X89794673Y62919766D01*
X89794673Y63700291D01*
X89794673Y64480816D01*
X89915166Y64480816D01*
X90035660Y64480816D01*
X90035660Y62766597D01*
G37*
G36*
X93565065Y63161613D02*
G01*
X93577714Y63139953D01*
X93593117Y63109433D01*
X93609188Y63074620D01*
X93623841Y63040081D01*
X93634990Y63010382D01*
X93640549Y62990090D01*
X93640821Y62986914D01*
X93633129Y62977923D01*
X93627820Y62977059D01*
X93614665Y62972820D01*
X93587646Y62961161D01*
X93549945Y62943670D01*
X93504742Y62921932D01*
X93455220Y62897534D01*
X93404560Y62872062D01*
X93355945Y62847104D01*
X93312555Y62824246D01*
X93277573Y62805075D01*
X93254180Y62791177D01*
X93251511Y62789402D01*
X93223393Y62773536D01*
X93206517Y62771837D01*
X93204598Y62773220D01*
X93196080Y62786374D01*
X93182845Y62811625D01*
X93167334Y62843694D01*
X93151989Y62877303D01*
X93139253Y62907173D01*
X93131566Y62928026D01*
X93130374Y62933681D01*
X93138527Y62942046D01*
X93161038Y62957639D01*
X93195101Y62978907D01*
X93237910Y63004299D01*
X93286660Y63032262D01*
X93338545Y63061244D01*
X93390758Y63089693D01*
X93440495Y63116056D01*
X93484949Y63138781D01*
X93521315Y63156316D01*
X93546786Y63167109D01*
X93557256Y63169848D01*
X93565065Y63161613D01*
G37*
G36*
X93656517Y62718124D02*
G01*
X93668457Y62695727D01*
X93683764Y62663037D01*
X93694875Y62637438D01*
X93710976Y62599300D01*
X93724199Y62568073D01*
X93732807Y62547853D01*
X93735106Y62542553D01*
X93728079Y62536377D01*
X93706965Y62524366D01*
X93675325Y62508440D01*
X93648350Y62495776D01*
X93605219Y62475181D01*
X93551781Y62448347D01*
X93494482Y62418576D01*
X93439769Y62389169D01*
X93433684Y62385822D01*
X93382057Y62357335D01*
X93344956Y62336979D01*
X93319992Y62323633D01*
X93304777Y62316179D01*
X93296920Y62313497D01*
X93294035Y62314467D01*
X93293731Y62317969D01*
X93293800Y62320261D01*
X93289848Y62333013D01*
X93279319Y62358337D01*
X93264207Y62391536D01*
X93258299Y62403948D01*
X93239702Y62445457D01*
X93230783Y62473241D01*
X93230801Y62489794D01*
X93232036Y62492346D01*
X93244155Y62503823D01*
X93268477Y62521755D01*
X93300526Y62542920D01*
X93313324Y62550851D01*
X93343976Y62568783D01*
X93383758Y62591001D01*
X93429471Y62615836D01*
X93477915Y62641620D01*
X93525892Y62666683D01*
X93570202Y62689356D01*
X93607648Y62707971D01*
X93635029Y62720858D01*
X93649147Y62726349D01*
X93649862Y62726432D01*
X93656517Y62718124D01*
G37*
G36*
X89953157Y60203011D02*
G01*
X89969077Y60184775D01*
X89988083Y60160461D01*
X90006415Y60135082D01*
X90020313Y60113647D01*
X90026015Y60101167D01*
X90026020Y60100988D01*
X90030979Y60090757D01*
X90043719Y60070006D01*
X90054939Y60052975D01*
X90071102Y60027998D01*
X90081598Y60009808D01*
X90083857Y60004153D01*
X90076544Y59995488D01*
X90058773Y59982508D01*
X90057102Y59981452D01*
X90028971Y59962713D01*
X89989183Y59934657D01*
X89941239Y59899882D01*
X89888639Y59860988D01*
X89834881Y59820572D01*
X89783465Y59781233D01*
X89737891Y59745569D01*
X89718931Y59730367D01*
X89679528Y59698438D01*
X89644257Y59754466D01*
X89620827Y59791477D01*
X89596637Y59829367D01*
X89581336Y59853114D01*
X89565765Y59878137D01*
X89555736Y59896214D01*
X89553686Y59901576D01*
X89560842Y59911342D01*
X89580470Y59930589D01*
X89609813Y59956975D01*
X89646112Y59988161D01*
X89686609Y60021808D01*
X89728547Y60055576D01*
X89769168Y60087124D01*
X89795668Y60106872D01*
X89814932Y60121044D01*
X89843560Y60142260D01*
X89875478Y60166018D01*
X89876609Y60166862D01*
X89905790Y60187751D01*
X89929520Y60203120D01*
X89943223Y60210034D01*
X89944085Y60210160D01*
X89953157Y60203011D01*
G37*
G36*
X94937843Y64313076D02*
G01*
X94943093Y64308235D01*
X94946312Y64300852D01*
X94953281Y64281302D01*
X94963666Y64250374D01*
X94976062Y64212469D01*
X94989066Y64171986D01*
X95001273Y64133324D01*
X95011279Y64100884D01*
X95017677Y64079065D01*
X95019265Y64072329D01*
X95011683Y64063734D01*
X95007216Y64061814D01*
X94806479Y63991651D01*
X94600823Y63909895D01*
X94397844Y63819622D01*
X94336768Y63790445D01*
X94281509Y63763765D01*
X94232019Y63740206D01*
X94190942Y63720997D01*
X94160924Y63707373D01*
X94144612Y63700564D01*
X94142600Y63700019D01*
X94138721Y63700545D01*
X94134915Y63704022D01*
X94129930Y63713300D01*
X94122514Y63731228D01*
X94111413Y63760654D01*
X94095375Y63804429D01*
X94088942Y63822080D01*
X94073655Y63864373D01*
X94065777Y63893373D01*
X94067112Y63913679D01*
X94079466Y63929889D01*
X94104642Y63946600D01*
X94144446Y63968412D01*
X94146893Y63969741D01*
X94223267Y64010733D01*
X94294118Y64047484D01*
X94362615Y64081425D01*
X94431925Y64113983D01*
X94505219Y64146589D01*
X94585664Y64180672D01*
X94676428Y64217662D01*
X94780681Y64258987D01*
X94836115Y64280654D01*
X94880252Y64297736D01*
X94909721Y64308431D01*
X94927818Y64313342D01*
X94937843Y64313076D01*
G37*
G36*
X94479970Y61171823D02*
G01*
X94519895Y61160352D01*
X94569927Y61144094D01*
X94627477Y61123860D01*
X94689957Y61100465D01*
X94710802Y61092352D01*
X94911004Y61005581D01*
X95097276Y60907721D01*
X95272492Y60797135D01*
X95419303Y60688401D01*
X95451749Y60661472D01*
X95490479Y60627498D01*
X95533201Y60588693D01*
X95577621Y60547271D01*
X95621445Y60505447D01*
X95662379Y60465436D01*
X95698130Y60429451D01*
X95726404Y60399708D01*
X95744908Y60378420D01*
X95751349Y60367821D01*
X95745241Y60356928D01*
X95729810Y60336264D01*
X95710381Y60312660D01*
X95681770Y60279547D01*
X95651668Y60245210D01*
X95635006Y60226477D01*
X95600084Y60187576D01*
X95494821Y60285937D01*
X95356553Y60407343D01*
X95214811Y60515676D01*
X95065580Y60613593D01*
X94904844Y60703752D01*
X94749360Y60779394D01*
X94701184Y60800528D01*
X94647491Y60822643D01*
X94591776Y60844456D01*
X94537538Y60864684D01*
X94488275Y60882045D01*
X94447482Y60895257D01*
X94418659Y60903036D01*
X94407997Y60904573D01*
X94394566Y60908308D01*
X94392600Y60911802D01*
X94394152Y60927607D01*
X94398496Y60956857D01*
X94404850Y60995243D01*
X94412430Y61038454D01*
X94420454Y61082181D01*
X94428139Y61122113D01*
X94434702Y61153942D01*
X94439360Y61173356D01*
X94440798Y61177149D01*
X94452742Y61177693D01*
X94479970Y61171823D01*
G37*
G36*
X92621719Y66459929D02*
G01*
X92640218Y66442829D01*
X92656618Y66425579D01*
X92709437Y66367027D01*
X92750071Y66321427D01*
X92779495Y66287644D01*
X92798686Y66264540D01*
X92808618Y66250979D01*
X92810562Y66246276D01*
X92803657Y66238190D01*
X92784695Y66218242D01*
X92755332Y66188117D01*
X92717227Y66149500D01*
X92672039Y66104077D01*
X92621425Y66053531D01*
X92595696Y66027950D01*
X92539172Y65971561D01*
X92483853Y65915873D01*
X92432126Y65863326D01*
X92386375Y65816358D01*
X92348986Y65777408D01*
X92322344Y65748914D01*
X92317531Y65743586D01*
X92288081Y65711040D01*
X92268430Y65691129D01*
X92255765Y65681907D01*
X92247274Y65681424D01*
X92240146Y65687735D01*
X92238982Y65689196D01*
X92224119Y65707114D01*
X92202833Y65731559D01*
X92193080Y65742468D01*
X92168168Y65770057D01*
X92138463Y65802939D01*
X92120195Y65823151D01*
X92098877Y65848002D01*
X92084061Y65867702D01*
X92079227Y65877107D01*
X92085204Y65887947D01*
X92101057Y65908963D01*
X92123670Y65936092D01*
X92129834Y65943148D01*
X92162631Y65980522D01*
X92199901Y66023252D01*
X92233459Y66061953D01*
X92286579Y66122908D01*
X92340590Y66183852D01*
X92393880Y66243059D01*
X92444840Y66298806D01*
X92491859Y66349369D01*
X92533328Y66393022D01*
X92567636Y66428041D01*
X92593174Y66452702D01*
X92608331Y66465281D01*
X92611218Y66466546D01*
X92621719Y66459929D01*
G37*
G36*
X94802051Y65057771D02*
G01*
X94806124Y65047808D01*
X94814814Y65023169D01*
X94826855Y64987536D01*
X94840981Y64944592D01*
X94841332Y64943510D01*
X94855696Y64899433D01*
X94868124Y64861568D01*
X94877278Y64833971D01*
X94881806Y64820741D01*
X94877230Y64809235D01*
X94860769Y64799129D01*
X94830730Y64789087D01*
X94809181Y64783112D01*
X94764453Y64770136D01*
X94705324Y64749725D01*
X94634638Y64723065D01*
X94555239Y64691338D01*
X94469972Y64655730D01*
X94381680Y64617423D01*
X94293209Y64577602D01*
X94207401Y64537452D01*
X94139225Y64504218D01*
X94094041Y64482087D01*
X94054568Y64463450D01*
X94024206Y64449857D01*
X94006353Y64442863D01*
X94003571Y64442258D01*
X93996135Y64450632D01*
X93984109Y64472861D01*
X93969282Y64504606D01*
X93953439Y64541529D01*
X93938368Y64579292D01*
X93925856Y64613554D01*
X93917689Y64639978D01*
X93915656Y64654224D01*
X93915953Y64654985D01*
X93929246Y64666425D01*
X93957913Y64684350D01*
X93999624Y64707619D01*
X94052048Y64735084D01*
X94112856Y64765602D01*
X94179717Y64798028D01*
X94250301Y64831217D01*
X94322278Y64864024D01*
X94393317Y64895305D01*
X94461089Y64923914D01*
X94474635Y64929454D01*
X94535584Y64954226D01*
X94595529Y64978588D01*
X94650290Y65000843D01*
X94695685Y65019291D01*
X94727535Y65032233D01*
X94728280Y65032536D01*
X94761677Y65045550D01*
X94787430Y65054540D01*
X94801055Y65057972D01*
X94802051Y65057771D01*
G37*
G36*
X95593481Y63265688D02*
G01*
X95604348Y63254412D01*
X95623444Y63232534D01*
X95647923Y63203532D01*
X95674937Y63170883D01*
X95701640Y63138066D01*
X95725184Y63108558D01*
X95742722Y63085837D01*
X95751407Y63073381D01*
X95751865Y63072221D01*
X95745415Y63064119D01*
X95728185Y63046019D01*
X95703356Y63021216D01*
X95691618Y63009778D01*
X95654067Y62974474D01*
X95611907Y62936490D01*
X95569198Y62899324D01*
X95530002Y62866475D01*
X95498378Y62841442D01*
X95485294Y62832008D01*
X95467664Y62819806D01*
X95439806Y62800187D01*
X95407151Y62776980D01*
X95400502Y62772231D01*
X95366176Y62748873D01*
X95319582Y62718801D01*
X95265240Y62684780D01*
X95207668Y62649575D01*
X95151387Y62615951D01*
X95100914Y62586675D01*
X95062643Y62565502D01*
X94964473Y62514367D01*
X94874540Y62469981D01*
X94784951Y62428540D01*
X94715622Y62398126D01*
X94685358Y62385795D01*
X94646006Y62370734D01*
X94601579Y62354362D01*
X94556094Y62338100D01*
X94513565Y62323366D01*
X94478008Y62311581D01*
X94453439Y62304163D01*
X94444632Y62302320D01*
X94438273Y62311115D01*
X94429479Y62334908D01*
X94419544Y62369785D01*
X94412065Y62401100D01*
X94399664Y62457432D01*
X94391163Y62497763D01*
X94386325Y62524920D01*
X94384911Y62541733D01*
X94386684Y62551029D01*
X94391407Y62555637D01*
X94398842Y62558386D01*
X94398851Y62558389D01*
X94414126Y62563839D01*
X94443502Y62574821D01*
X94483116Y62589872D01*
X94529104Y62607532D01*
X94542111Y62612557D01*
X94743853Y62699499D01*
X94939309Y62802038D01*
X95130087Y62921159D01*
X95317797Y63057843D01*
X95456040Y63171191D01*
X95502727Y63210844D01*
X95537257Y63238916D01*
X95561700Y63256833D01*
X95578131Y63266020D01*
X95588623Y63267902D01*
X95593481Y63265688D01*
G37*
G36*
X91930083Y57936799D02*
G01*
X91942570Y57918888D01*
X91948740Y57904772D01*
X91969285Y57849611D01*
X91993993Y57776538D01*
X92022593Y57686404D01*
X92054817Y57580060D01*
X92090394Y57458357D01*
X92093135Y57448823D01*
X92112263Y57382335D01*
X92130755Y57318237D01*
X92147573Y57260117D01*
X92161678Y57211559D01*
X92172032Y57176149D01*
X92175489Y57164459D01*
X92186575Y57126061D01*
X92200135Y57077383D01*
X92213844Y57026818D01*
X92218776Y57008217D01*
X92229767Y56967048D01*
X92239401Y56932069D01*
X92246350Y56908043D01*
X92248724Y56900748D01*
X92248237Y56885207D01*
X92244398Y56880898D01*
X92226811Y56873152D01*
X92196025Y56862357D01*
X92157336Y56850082D01*
X92116041Y56837892D01*
X92077437Y56827354D01*
X92046818Y56820037D01*
X92030097Y56817494D01*
X92019129Y56818463D01*
X92010759Y56823547D01*
X92003480Y56835921D01*
X91995782Y56858763D01*
X91986156Y56895250D01*
X91978615Y56925882D01*
X91949807Y57040759D01*
X91918144Y57161459D01*
X91895676Y57243985D01*
X91885664Y57280133D01*
X91240206Y57280133D01*
X90594749Y57280133D01*
X90594749Y57092163D01*
X90594749Y56904193D01*
X90479075Y56904193D01*
X90363402Y56904193D01*
X90363402Y57092064D01*
X90363402Y57279934D01*
X89932035Y57282443D01*
X89500669Y57284952D01*
X89500669Y57429544D01*
X89500669Y57574136D01*
X89931791Y57576645D01*
X90362913Y57579154D01*
X90365567Y57730877D01*
X90368221Y57882599D01*
X90479075Y57882599D01*
X90589929Y57882599D01*
X90592584Y57730778D01*
X90595238Y57578956D01*
X91196486Y57578956D01*
X91797733Y57578956D01*
X91770107Y57668121D01*
X91754253Y57717871D01*
X91736651Y57770910D01*
X91720492Y57817675D01*
X91716718Y57828182D01*
X91703310Y57867370D01*
X91698823Y57892435D01*
X91705065Y57907168D01*
X91723846Y57915364D01*
X91756972Y57920817D01*
X91761125Y57921355D01*
X91799477Y57927262D01*
X91838476Y57934681D01*
X91844919Y57936095D01*
X91885711Y57944059D01*
X91912614Y57944741D01*
X91930083Y57936799D01*
G37*
G36*
X94852667Y68928466D02*
G01*
X94875785Y68913476D01*
X94906528Y68891768D01*
X94941437Y68865977D01*
X94977051Y68838740D01*
X95009910Y68812691D01*
X95036555Y68790466D01*
X95053525Y68774701D01*
X95057823Y68768662D01*
X95052958Y68756838D01*
X95039718Y68732379D01*
X95020137Y68698879D01*
X94996729Y68660698D01*
X94914103Y68522244D01*
X94829450Y68368025D01*
X94744310Y68201223D01*
X94660226Y68025019D01*
X94578740Y67842593D01*
X94501395Y67657126D01*
X94463358Y67560626D01*
X94451724Y67529684D01*
X94436875Y67488996D01*
X94420019Y67442017D01*
X94402366Y67392202D01*
X94385128Y67343006D01*
X94369514Y67297884D01*
X94356734Y67260291D01*
X94347999Y67233682D01*
X94344518Y67221511D01*
X94344502Y67221291D01*
X94353907Y67220843D01*
X94381180Y67220359D01*
X94424911Y67219850D01*
X94483691Y67219324D01*
X94556109Y67218790D01*
X94640755Y67218257D01*
X94736219Y67217735D01*
X94841090Y67217232D01*
X94953959Y67216758D01*
X95073415Y67216322D01*
X95151808Y67216070D01*
X95959113Y67213605D01*
X95961783Y67082929D01*
X95962294Y67034543D01*
X95961828Y66993236D01*
X95960496Y66962754D01*
X95958407Y66946841D01*
X95957767Y66945566D01*
X95947505Y66944772D01*
X95919066Y66944004D01*
X95873554Y66943269D01*
X95812071Y66942571D01*
X95735719Y66941917D01*
X95645601Y66941312D01*
X95542820Y66940761D01*
X95428478Y66940270D01*
X95303678Y66939844D01*
X95169522Y66939489D01*
X95027113Y66939210D01*
X94877553Y66939012D01*
X94721946Y66938902D01*
X94612801Y66938880D01*
X93274521Y66938880D01*
X93274521Y67078653D01*
X93274521Y67218425D01*
X93681789Y67218477D01*
X94089056Y67218529D01*
X94121029Y67322101D01*
X94222255Y67625436D01*
X94338687Y67930135D01*
X94467816Y68229955D01*
X94583299Y68471556D01*
X94620950Y68545777D01*
X94658910Y68618938D01*
X94696069Y68689047D01*
X94731320Y68754110D01*
X94763554Y68812135D01*
X94791662Y68861130D01*
X94814537Y68899102D01*
X94831068Y68924059D01*
X94840148Y68934008D01*
X94840635Y68934101D01*
X94852667Y68928466D01*
G37*
G36*
X91980423Y64345651D02*
G01*
X92114003Y64345589D01*
X92229680Y64345464D01*
X92328827Y64345246D01*
X92412821Y64344900D01*
X92483035Y64344393D01*
X92540846Y64343693D01*
X92587626Y64342765D01*
X92624753Y64341578D01*
X92653600Y64340098D01*
X92675543Y64338292D01*
X92691957Y64336127D01*
X92704215Y64333569D01*
X92713695Y64330587D01*
X92720252Y64327849D01*
X92765088Y64299451D01*
X92808090Y64258230D01*
X92843369Y64210209D01*
X92853428Y64191632D01*
X92859577Y64178039D01*
X92864438Y64163889D01*
X92868190Y64146755D01*
X92871014Y64124210D01*
X92873093Y64093826D01*
X92874607Y64053177D01*
X92875738Y63999837D01*
X92876667Y63931378D01*
X92877307Y63871889D01*
X92880130Y63595523D01*
X92829109Y63586236D01*
X92789325Y63578972D01*
X92743820Y63570629D01*
X92719672Y63566188D01*
X92690030Y63560322D01*
X92667739Y63556604D01*
X92651716Y63557245D01*
X92640881Y63564455D01*
X92634151Y63580444D01*
X92630443Y63607421D01*
X92628676Y63647597D01*
X92627769Y63703183D01*
X92627015Y63755446D01*
X92625351Y63831550D01*
X92622848Y63890810D01*
X92618962Y63935655D01*
X92613145Y63968518D01*
X92604853Y63991831D01*
X92593539Y64008024D01*
X92578658Y64019529D01*
X92566290Y64025884D01*
X92554571Y64028618D01*
X92531655Y64030936D01*
X92496482Y64032860D01*
X92447991Y64034412D01*
X92385120Y64035615D01*
X92306811Y64036491D01*
X92212001Y64037063D01*
X92099629Y64037352D01*
X92020937Y64037400D01*
X91500859Y64037400D01*
X91500859Y62769810D01*
X91500859Y61502220D01*
X92204540Y61502220D01*
X92908221Y61502220D01*
X92908221Y61349595D01*
X92907835Y61297194D01*
X92906767Y61251725D01*
X92905157Y61216616D01*
X92903144Y61195296D01*
X92901795Y61190544D01*
X92891395Y61189565D01*
X92863141Y61188632D01*
X92818457Y61187755D01*
X92758768Y61186946D01*
X92685497Y61186217D01*
X92600070Y61185577D01*
X92503911Y61185039D01*
X92398444Y61184614D01*
X92285095Y61184313D01*
X92165286Y61184147D01*
X92087260Y61184117D01*
X91279151Y61184117D01*
X91279151Y62764990D01*
X91279151Y64345863D01*
X91980423Y64345651D01*
G37*
G36*
X94071188Y65905267D02*
G01*
X94118563Y65899050D01*
X94177805Y65889485D01*
X94245493Y65877234D01*
X94318209Y65862958D01*
X94392533Y65847317D01*
X94465045Y65830973D01*
X94532327Y65814586D01*
X94567559Y65805335D01*
X94756455Y65746996D01*
X94929343Y65678681D01*
X95086940Y65600003D01*
X95229963Y65510577D01*
X95359131Y65410014D01*
X95439418Y65335071D01*
X95555658Y65207028D01*
X95657884Y65069966D01*
X95746900Y64922396D01*
X95823506Y64762828D01*
X95888504Y64589774D01*
X95942696Y64401744D01*
X95943411Y64398880D01*
X95956509Y64345204D01*
X95967062Y64298694D01*
X95976342Y64253030D01*
X95985621Y64201889D01*
X95996174Y64138952D01*
X95997979Y64127900D01*
X95997814Y64101700D01*
X95990628Y64088452D01*
X95975562Y64080729D01*
X95948195Y64069922D01*
X95913261Y64057559D01*
X95875492Y64045171D01*
X95839622Y64034287D01*
X95810384Y64026435D01*
X95792511Y64023145D01*
X95789546Y64023482D01*
X95785935Y64027977D01*
X95781826Y64038617D01*
X95776687Y64057702D01*
X95769988Y64087529D01*
X95761197Y64130396D01*
X95749784Y64188601D01*
X95741774Y64230190D01*
X95727886Y64295213D01*
X95710317Y64366382D01*
X95690553Y64438476D01*
X95670082Y64506279D01*
X95650390Y64564573D01*
X95636001Y64601309D01*
X95628444Y64619273D01*
X95616068Y64649169D01*
X95601325Y64685074D01*
X95598703Y64691486D01*
X95560857Y64773446D01*
X95513257Y64859916D01*
X95459107Y64946025D01*
X95401607Y65026903D01*
X95343959Y65097682D01*
X95303755Y65140048D01*
X95189556Y65238615D01*
X95059459Y65329037D01*
X94915459Y65410351D01*
X94759550Y65481592D01*
X94593726Y65541796D01*
X94419980Y65589998D01*
X94334863Y65608489D01*
X94277221Y65619246D01*
X94215173Y65629711D01*
X94152990Y65639274D01*
X94094941Y65647324D01*
X94045296Y65653252D01*
X94008325Y65656447D01*
X93996621Y65656831D01*
X93991724Y65662450D01*
X93989365Y65680735D01*
X93989454Y65713829D01*
X93991898Y65763875D01*
X93991983Y65765275D01*
X93995519Y65820216D01*
X93998940Y65858798D01*
X94003203Y65883912D01*
X94009266Y65898447D01*
X94018087Y65905296D01*
X94030623Y65907346D01*
X94039099Y65907477D01*
X94071188Y65905267D01*
G37*
G36*
X93573345Y70804307D02*
G01*
X93573345Y69300550D01*
X93409474Y69300550D01*
X93245603Y69300550D01*
X93245603Y69676489D01*
X93245509Y69759490D01*
X93245240Y69836140D01*
X93244819Y69904373D01*
X93244265Y69962122D01*
X93243600Y70007321D01*
X93242844Y70037904D01*
X93242018Y70051802D01*
X93241798Y70052429D01*
X93232052Y70050013D01*
X93205330Y70043056D01*
X93163283Y70031995D01*
X93107560Y70017268D01*
X93039811Y69999312D01*
X92961687Y69978565D01*
X92874836Y69955462D01*
X92780909Y69930442D01*
X92696153Y69907837D01*
X92597480Y69881522D01*
X92504472Y69856752D01*
X92418778Y69833962D01*
X92342047Y69813589D01*
X92275931Y69796072D01*
X92222078Y69781847D01*
X92182139Y69771351D01*
X92157763Y69765022D01*
X92151523Y69763494D01*
X92150508Y69763245D01*
X92149308Y69754105D01*
X92148264Y69728688D01*
X92147439Y69689992D01*
X92146897Y69641019D01*
X92146703Y69584914D01*
X92146703Y69406584D01*
X91978013Y69406584D01*
X91809322Y69406584D01*
X91809322Y70033150D01*
X91809322Y70659715D01*
X91481402Y70659715D01*
X91153483Y70659715D01*
X91156070Y70883833D01*
X91158658Y71107950D01*
X91483990Y71110489D01*
X91809322Y71113027D01*
X91809322Y71491218D01*
X92140036Y71491218D01*
X92140136Y71432613D01*
X92140434Y71360902D01*
X92140920Y71277627D01*
X92141587Y71184331D01*
X92142429Y71082555D01*
X92143437Y70973844D01*
X92144340Y70884567D01*
X92151523Y70200002D01*
X92698563Y70340360D01*
X93245603Y70480718D01*
X93245603Y70852975D01*
X93245603Y71225232D01*
X92852794Y71343816D01*
X92761829Y71371517D01*
X92670291Y71399835D01*
X92581241Y71427792D01*
X92497738Y71454411D01*
X92422842Y71478715D01*
X92359613Y71499726D01*
X92311111Y71516468D01*
X92302402Y71519597D01*
X92250957Y71537984D01*
X92206102Y71553474D01*
X92170832Y71565076D01*
X92148138Y71571802D01*
X92140988Y71572962D01*
X92140454Y71562935D01*
X92140139Y71535172D01*
X92140036Y71491218D01*
X91809322Y71491218D01*
X91809322Y71696086D01*
X91809322Y72279146D01*
X91978013Y72279146D01*
X92146703Y72279146D01*
X92146751Y72141783D01*
X92146799Y72004421D01*
X92682536Y71821271D01*
X92780000Y71787977D01*
X92872209Y71756529D01*
X92957514Y71727485D01*
X93034268Y71701403D01*
X93100823Y71678842D01*
X93155533Y71660361D01*
X93196749Y71646517D01*
X93222824Y71637871D01*
X93231938Y71635005D01*
X93235619Y71636551D01*
X93238593Y71644203D01*
X93240931Y71659699D01*
X93242705Y71684780D01*
X93243985Y71721186D01*
X93244843Y71770657D01*
X93245348Y71834932D01*
X93245573Y71915753D01*
X93245603Y71969976D01*
X93245603Y72308064D01*
X93409474Y72308064D01*
X93573345Y72308064D01*
X93573345Y70804307D01*
G37*
G36*
X94473399Y74565460D02*
G01*
X94596219Y74557645D01*
X94706228Y74543817D01*
X94806332Y74523464D01*
X94899438Y74496075D01*
X94988451Y74461138D01*
X95018575Y74447318D01*
X95120034Y74391996D01*
X95205545Y74329289D01*
X95277785Y74256794D01*
X95339430Y74172104D01*
X95356305Y74143876D01*
X95384792Y74090873D01*
X95407905Y74039560D01*
X95426157Y73987118D01*
X95440064Y73930732D01*
X95450141Y73867586D01*
X95456902Y73794862D01*
X95460862Y73709745D01*
X95462536Y73609416D01*
X95462681Y73561809D01*
X95462681Y73371677D01*
X95282698Y73331530D01*
X95226644Y73319180D01*
X95177447Y73308635D01*
X95138037Y73300499D01*
X95111344Y73295374D01*
X95100298Y73293866D01*
X95100181Y73293916D01*
X95098991Y73303896D01*
X95097309Y73329901D01*
X95095306Y73368685D01*
X95093156Y73417005D01*
X95091633Y73455331D01*
X95087320Y73552071D01*
X95082204Y73631871D01*
X95075985Y73697061D01*
X95068363Y73749972D01*
X95059037Y73792935D01*
X95047708Y73828283D01*
X95041742Y73842624D01*
X95009716Y73895839D01*
X94963670Y73948120D01*
X94908491Y73994762D01*
X94849066Y74031061D01*
X94842946Y74034003D01*
X94765312Y74064033D01*
X94672647Y74089239D01*
X94568747Y74108954D01*
X94457406Y74122514D01*
X94342419Y74129254D01*
X94296052Y74129891D01*
X94133744Y74120387D01*
X93970202Y74091872D01*
X93805927Y74044536D01*
X93641422Y73978567D01*
X93477187Y73894157D01*
X93313724Y73791495D01*
X93216684Y73721562D01*
X93173721Y73690601D01*
X93132027Y73663213D01*
X93096167Y73642244D01*
X93070705Y73630538D01*
X93070596Y73630503D01*
X93025722Y73615936D01*
X92834429Y73679440D01*
X92740072Y73710134D01*
X92638649Y73741994D01*
X92532400Y73774400D01*
X92423564Y73806729D01*
X92314380Y73838360D01*
X92207089Y73868672D01*
X92103929Y73897042D01*
X92007140Y73922851D01*
X91918963Y73945475D01*
X91841636Y73964294D01*
X91777398Y73978686D01*
X91728490Y73988029D01*
X91715337Y73990002D01*
X91664730Y73996780D01*
X91664730Y73528362D01*
X91664730Y73059943D01*
X93949284Y73059943D01*
X96233838Y73059943D01*
X96233838Y72843055D01*
X96233838Y72626167D01*
X93780593Y72626167D01*
X91327349Y72626167D01*
X91327349Y73546091D01*
X91327349Y74466015D01*
X91370638Y74501487D01*
X91397073Y74521703D01*
X91416499Y74531156D01*
X91435884Y74532365D01*
X91450164Y74530224D01*
X91491609Y74520968D01*
X91549084Y74505833D01*
X91620495Y74485512D01*
X91703749Y74460700D01*
X91796751Y74432090D01*
X91897408Y74400375D01*
X92003625Y74366251D01*
X92113310Y74330409D01*
X92224368Y74293546D01*
X92334705Y74256353D01*
X92442228Y74219526D01*
X92544843Y74183758D01*
X92640455Y74149742D01*
X92726972Y74118173D01*
X92802300Y74089744D01*
X92864344Y74065150D01*
X92902191Y74049064D01*
X92932744Y74036022D01*
X92956379Y74026924D01*
X92967166Y74023890D01*
X92977896Y74028879D01*
X93001517Y74042561D01*
X93034829Y74063003D01*
X93074634Y74088275D01*
X93086443Y74095912D01*
X93219805Y74181201D01*
X93340183Y74255250D01*
X93449534Y74319004D01*
X93549813Y74373410D01*
X93642977Y74419414D01*
X93730981Y74457960D01*
X93815781Y74489994D01*
X93899334Y74516463D01*
X93983595Y74538312D01*
X94016760Y74545718D01*
X94053590Y74553094D01*
X94088262Y74558628D01*
X94124537Y74562582D01*
X94166173Y74565216D01*
X94216931Y74566791D01*
X94280570Y74567567D01*
X94334863Y74567775D01*
X94473399Y74565460D01*
G37*
G36*
X91946684Y68614035D02*
G01*
X92064768Y68611328D01*
X92067300Y68266717D01*
X92069831Y67922106D01*
X92357176Y67922106D01*
X92449055Y67921946D01*
X92523954Y67921177D01*
X92584174Y67919367D01*
X92632013Y67916080D01*
X92669770Y67910884D01*
X92699745Y67903346D01*
X92724236Y67893032D01*
X92745543Y67879508D01*
X92765966Y67862341D01*
X92787802Y67841098D01*
X92788018Y67840881D01*
X92817287Y67807768D01*
X92844264Y67771058D01*
X92860396Y67743776D01*
X92866641Y67730761D01*
X92871699Y67718278D01*
X92875714Y67704198D01*
X92878833Y67686394D01*
X92881199Y67662739D01*
X92882958Y67631104D01*
X92884255Y67589361D01*
X92885235Y67535383D01*
X92886043Y67467042D01*
X92886823Y67382210D01*
X92887082Y67352231D01*
X92890042Y67008884D01*
X92814786Y66998277D01*
X92767050Y66992012D01*
X92716010Y66986031D01*
X92675339Y66981880D01*
X92611146Y66976091D01*
X92607155Y67258719D01*
X92605818Y67346159D01*
X92604257Y67416441D01*
X92602052Y67471685D01*
X92598778Y67514013D01*
X92594016Y67545543D01*
X92587341Y67568397D01*
X92578333Y67584694D01*
X92566570Y67596556D01*
X92551628Y67606101D01*
X92536468Y67613804D01*
X92522005Y67620105D01*
X92506024Y67624859D01*
X92485692Y67628280D01*
X92458175Y67630581D01*
X92420640Y67631978D01*
X92370253Y67632684D01*
X92304180Y67632914D01*
X92283468Y67632922D01*
X92069660Y67632922D01*
X92067214Y66377381D01*
X92064768Y65121840D01*
X91946684Y65119134D01*
X91828601Y65116427D01*
X91828601Y66374675D01*
X91828601Y67632922D01*
X91674369Y67632922D01*
X91520138Y67632922D01*
X91520138Y66558121D01*
X91520138Y65483320D01*
X90961049Y65483320D01*
X90883933Y65483320D01*
X90450157Y65483320D01*
X90247728Y65483320D01*
X90247728Y66076148D01*
X90247728Y66668975D01*
X90450157Y66668975D01*
X90450157Y66220740D01*
X90450157Y65772505D01*
X90602782Y65772505D01*
X90655183Y65772891D01*
X90700652Y65773959D01*
X90735760Y65775569D01*
X90757081Y65777582D01*
X90761833Y65778931D01*
X90763147Y65789597D01*
X90764371Y65817598D01*
X90765477Y65860991D01*
X90766436Y65917833D01*
X90767222Y65986180D01*
X90767806Y66064089D01*
X90768160Y66149617D01*
X90768259Y66227166D01*
X90768259Y66668975D01*
X90961049Y66668975D01*
X90961049Y66220740D01*
X90961049Y65772505D01*
X91139379Y65772505D01*
X91317709Y65772505D01*
X91317709Y66220740D01*
X91317709Y66668975D01*
X91139379Y66668975D01*
X90961049Y66668975D01*
X90768259Y66668975D01*
X90609208Y66668975D01*
X90450157Y66668975D01*
X90247728Y66668975D01*
X90112834Y66668975D01*
X89977940Y66668975D01*
X89975471Y65909867D01*
X89973003Y65150759D01*
X89862149Y65150759D01*
X89751295Y65150759D01*
X89748827Y65909867D01*
X89746359Y66668975D01*
X89621104Y66668975D01*
X89495849Y66668975D01*
X89495849Y66818387D01*
X89495849Y66967799D01*
X89621107Y66967799D01*
X89746364Y66967799D01*
X89748830Y67765465D01*
X89751295Y68563131D01*
X89862149Y68563131D01*
X89973003Y68563131D01*
X89975469Y67765465D01*
X89977934Y66967799D01*
X90112831Y66967799D01*
X90247728Y66967799D01*
X90247728Y67604004D01*
X90247728Y67941385D01*
X90450157Y67941385D01*
X90450157Y67454592D01*
X90450157Y66967799D01*
X90602782Y66967799D01*
X90655183Y66968185D01*
X90700652Y66969253D01*
X90735760Y66970863D01*
X90757081Y66972876D01*
X90761833Y66974225D01*
X90763095Y66984849D01*
X90764275Y67012891D01*
X90765348Y67056490D01*
X90766290Y67113785D01*
X90767076Y67182916D01*
X90767682Y67262020D01*
X90768083Y67349239D01*
X90768255Y67442710D01*
X90768259Y67461018D01*
X90768259Y67941385D01*
X90961049Y67941385D01*
X90961049Y67454592D01*
X90961049Y66967799D01*
X91139379Y66967799D01*
X91317709Y66967799D01*
X91317709Y67454592D01*
X91317709Y67941385D01*
X91139379Y67941385D01*
X90961049Y67941385D01*
X90768259Y67941385D01*
X90609208Y67941385D01*
X90450157Y67941385D01*
X90247728Y67941385D01*
X90247728Y68240209D01*
X90883933Y68240209D01*
X91520138Y68240209D01*
X91520138Y68081157D01*
X91520138Y67922106D01*
X91674369Y67922106D01*
X91828601Y67922106D01*
X91828601Y68269424D01*
X91828601Y68616741D01*
X91946684Y68614035D01*
G37*
G36*
X92017523Y60487734D02*
G01*
X92069846Y60486601D01*
X92129950Y60484575D01*
X92194974Y60481792D01*
X92262056Y60478386D01*
X92328334Y60474494D01*
X92390949Y60470252D01*
X92447038Y60465796D01*
X92493741Y60461261D01*
X92528196Y60456783D01*
X92532282Y60456098D01*
X92601361Y60442147D01*
X92655343Y60426457D01*
X92698411Y60407320D01*
X92734747Y60383023D01*
X92755577Y60364763D01*
X92797988Y60316896D01*
X92824684Y60266902D01*
X92837940Y60209357D01*
X92840439Y60162334D01*
X92835417Y60098070D01*
X92818958Y60041356D01*
X92789311Y59989223D01*
X92744725Y59938705D01*
X92683450Y59886835D01*
X92673369Y59879244D01*
X92588541Y59817951D01*
X92510144Y59765580D01*
X92430906Y59717487D01*
X92346533Y59670627D01*
X92281278Y59635655D01*
X92327254Y59605687D01*
X92362722Y59581567D01*
X92408400Y59549069D01*
X92459396Y59511796D01*
X92510818Y59473353D01*
X92557774Y59437345D01*
X92585669Y59415275D01*
X92617650Y59388858D01*
X92655465Y59356628D01*
X92696567Y59320869D01*
X92738412Y59283870D01*
X92778452Y59247916D01*
X92814143Y59215295D01*
X92842937Y59188293D01*
X92862290Y59169197D01*
X92869654Y59160294D01*
X92869664Y59160193D01*
X92864074Y59150749D01*
X92849182Y59129943D01*
X92827797Y59101407D01*
X92802733Y59068778D01*
X92776801Y59035687D01*
X92752813Y59005770D01*
X92733581Y58982660D01*
X92724223Y58972239D01*
X92712831Y58973840D01*
X92690596Y58989226D01*
X92658996Y59017353D01*
X92655083Y59021111D01*
X92595428Y59075911D01*
X92525203Y59135705D01*
X92447644Y59198100D01*
X92365987Y59260706D01*
X92283469Y59321129D01*
X92203326Y59376980D01*
X92128794Y59425866D01*
X92063110Y59465396D01*
X92028894Y59483831D01*
X91983380Y59506897D01*
X91911863Y59482890D01*
X91862496Y59467419D01*
X91799907Y59449431D01*
X91729731Y59430404D01*
X91657607Y59411812D01*
X91589173Y59395130D01*
X91530065Y59381835D01*
X91510498Y59377836D01*
X91483111Y59372590D01*
X91453932Y59367322D01*
X91420096Y59361565D01*
X91378741Y59354856D01*
X91327001Y59346731D01*
X91262012Y59336726D01*
X91180912Y59324375D01*
X91177937Y59323923D01*
X91014971Y59301596D01*
X90869474Y59285740D01*
X90812818Y59280180D01*
X90750557Y59273979D01*
X90692750Y59268141D01*
X90670222Y59265833D01*
X90621793Y59261463D01*
X90573118Y59258106D01*
X90532364Y59256292D01*
X90520810Y59256118D01*
X90482224Y59254981D01*
X90445235Y59252191D01*
X90428468Y59250037D01*
X90392320Y59244062D01*
X90392320Y58806727D01*
X90392320Y58369393D01*
X90657405Y58369393D01*
X90922491Y58369393D01*
X90922491Y58745332D01*
X90922491Y59121271D01*
X91315299Y59121131D01*
X91495983Y59120014D01*
X91659331Y59116811D01*
X91805093Y59111542D01*
X91933019Y59104225D01*
X92042859Y59094878D01*
X92134364Y59083522D01*
X92207284Y59070174D01*
X92261369Y59054854D01*
X92277022Y59048477D01*
X92326769Y59018599D01*
X92375957Y58976804D01*
X92418553Y58928958D01*
X92447878Y58882294D01*
X92454886Y58866568D01*
X92460264Y58850517D01*
X92464272Y58831315D01*
X92467170Y58806136D01*
X92469216Y58772155D01*
X92470670Y58726546D01*
X92471791Y58666484D01*
X92472524Y58613719D01*
X92475423Y58390531D01*
X92435076Y58383715D01*
X92401807Y58378921D01*
X92362474Y58374470D01*
X92321827Y58370736D01*
X92284612Y58368093D01*
X92255581Y58366914D01*
X92239480Y58367572D01*
X92237863Y58368201D01*
X92236355Y58378862D01*
X92235069Y58405409D01*
X92234102Y58444446D01*
X92233550Y58492581D01*
X92233459Y58523188D01*
X92233231Y58581553D01*
X92232269Y58624374D01*
X92230156Y58655386D01*
X92226471Y58678320D01*
X92220798Y58696909D01*
X92212718Y58714888D01*
X92211770Y58716781D01*
X92189900Y58750119D01*
X92159964Y58774019D01*
X92143779Y58782751D01*
X92119890Y58793836D01*
X92095421Y58803182D01*
X92068468Y58810969D01*
X92037130Y58817376D01*
X91999503Y58822584D01*
X91953686Y58826773D01*
X91897776Y58830124D01*
X91829871Y58832818D01*
X91748067Y58835034D01*
X91650463Y58836952D01*
X91556286Y58838445D01*
X91144199Y58844537D01*
X91144199Y58606965D01*
X91144199Y58369393D01*
X91251127Y58369393D01*
X91359631Y58366797D01*
X91478270Y58359379D01*
X91603113Y58347693D01*
X91730234Y58332292D01*
X91855702Y58313731D01*
X91975590Y58292562D01*
X92085969Y58269340D01*
X92182910Y58244619D01*
X92223819Y58232285D01*
X92275836Y58214404D01*
X92335444Y58191994D01*
X92398014Y58166985D01*
X92458914Y58141309D01*
X92513515Y58116895D01*
X92557187Y58095673D01*
X92575660Y58085603D01*
X92607551Y58067312D01*
X92644906Y58046336D01*
X92662415Y58036663D01*
X92691971Y58019619D01*
X92716185Y58004193D01*
X92725831Y57997024D01*
X92740866Y57986242D01*
X92747217Y57983814D01*
X92758359Y57978681D01*
X92779515Y57965533D01*
X92805875Y57947747D01*
X92832626Y57928700D01*
X92854958Y57911770D01*
X92868060Y57900333D01*
X92869664Y57897863D01*
X92864687Y57886202D01*
X92854561Y57870147D01*
X92837995Y57844642D01*
X92827683Y57827035D01*
X92806509Y57790336D01*
X92784704Y57755910D01*
X92764917Y57727594D01*
X92749800Y57709225D01*
X92742892Y57704269D01*
X92730935Y57708882D01*
X92706635Y57721265D01*
X92674161Y57739232D01*
X92654554Y57750570D01*
X92521586Y57822411D01*
X92381680Y57885355D01*
X92272016Y57927231D01*
X92250496Y57934720D01*
X92227783Y57942091D01*
X92200748Y57950249D01*
X92166258Y57960096D01*
X92121181Y57972535D01*
X92062385Y57988470D01*
X92021390Y57999502D01*
X91963750Y58013849D01*
X91903198Y58026504D01*
X91838301Y58037558D01*
X91767627Y58047101D01*
X91689743Y58055224D01*
X91603217Y58062017D01*
X91506616Y58067570D01*
X91398508Y58071974D01*
X91277460Y58075320D01*
X91142040Y58077697D01*
X90990816Y58079196D01*
X90822354Y58079909D01*
X90746571Y58079995D01*
X90141694Y58080209D01*
X90141694Y58658577D01*
X90141694Y59236945D01*
X89809132Y59236945D01*
X89476571Y59236945D01*
X89476571Y59386357D01*
X89476571Y59535768D01*
X89809030Y59535768D01*
X90141489Y59535768D01*
X90144001Y59952675D01*
X90146514Y60369582D01*
X90267007Y60369582D01*
X90387500Y60369582D01*
X90390014Y59957495D01*
X90392527Y59545408D01*
X90465613Y59545408D01*
X90550845Y59547424D01*
X90651436Y59553195D01*
X90763925Y59562306D01*
X90884851Y59574339D01*
X91010751Y59588878D01*
X91138163Y59605508D01*
X91263625Y59623812D01*
X91383675Y59643373D01*
X91494851Y59663777D01*
X91558273Y59676767D01*
X91586756Y59682964D01*
X91605864Y59688271D01*
X91614336Y59693858D01*
X91610916Y59700897D01*
X91594346Y59710557D01*
X91563366Y59724009D01*
X91516719Y59742425D01*
X91467121Y59761577D01*
X91421641Y59779206D01*
X91381349Y59794964D01*
X91350392Y59807220D01*
X91332921Y59814342D01*
X91332168Y59814668D01*
X91312231Y59822771D01*
X91277211Y59836336D01*
X91230136Y59854215D01*
X91174033Y59875263D01*
X91111930Y59898331D01*
X91090213Y59906347D01*
X91020872Y59930712D01*
X90941525Y59956688D01*
X90860938Y59981496D01*
X90787878Y60002354D01*
X90785128Y60003096D01*
X90749836Y60013238D01*
X90730042Y60022660D01*
X90722577Y60035455D01*
X90724271Y60055714D01*
X90728971Y60075579D01*
X90739870Y60118259D01*
X90751905Y60164051D01*
X90764014Y60209072D01*
X90775131Y60249437D01*
X90784192Y60281260D01*
X90790132Y60300658D01*
X90791763Y60304725D01*
X90803846Y60305042D01*
X90831472Y60299620D01*
X90872035Y60289232D01*
X90922932Y60274650D01*
X90981559Y60256644D01*
X91045311Y60235988D01*
X91111585Y60213453D01*
X91170762Y60192376D01*
X91255509Y60159751D01*
X91353000Y60119244D01*
X91459295Y60072628D01*
X91570454Y60021680D01*
X91682534Y59968174D01*
X91791595Y59913885D01*
X91809886Y59904533D01*
X91988780Y59812693D01*
X92079791Y59853059D01*
X92148706Y59885408D01*
X92221466Y59922648D01*
X92292869Y59961900D01*
X92357711Y60000287D01*
X92410790Y60034929D01*
X92418725Y60040568D01*
X92462879Y60077791D01*
X92489193Y60112406D01*
X92497497Y60143738D01*
X92487624Y60171113D01*
X92459405Y60193856D01*
X92457269Y60194984D01*
X92436681Y60201446D01*
X92400232Y60208659D01*
X92351304Y60216250D01*
X92293282Y60223847D01*
X92229551Y60231078D01*
X92163494Y60237569D01*
X92098495Y60242947D01*
X92037939Y60246841D01*
X91985210Y60248877D01*
X91965967Y60249089D01*
X91933942Y60250472D01*
X91910301Y60254067D01*
X91901207Y60258227D01*
X91900268Y60271235D01*
X91902346Y60298310D01*
X91906699Y60334608D01*
X91912587Y60375288D01*
X91919266Y60415506D01*
X91925997Y60450419D01*
X91932037Y60475186D01*
X91935847Y60484411D01*
X91947662Y60486775D01*
X91975841Y60487837D01*
X92017523Y60487734D01*
G37*
G36*
X91257299Y75939830D02*
G01*
X91294149Y75919749D01*
X91321572Y75884357D01*
X91327945Y75871506D01*
X91341304Y75837757D01*
X91344923Y75813032D01*
X91339493Y75790142D01*
X91336451Y75783093D01*
X91332204Y75770615D01*
X91323050Y75741382D01*
X91309495Y75697101D01*
X91292045Y75639482D01*
X91271205Y75570234D01*
X91247482Y75491066D01*
X91221382Y75403687D01*
X91193411Y75309806D01*
X91164073Y75211131D01*
X91149212Y75161051D01*
X91133877Y75109373D01*
X91103327Y75006238D01*
X91081253Y74931588D01*
X91072929Y74903438D01*
X91043190Y74802680D01*
X91030935Y74761077D01*
X91014615Y74705674D01*
X90987710Y74614128D01*
X90962981Y74529752D01*
X90940935Y74454254D01*
X90922076Y74389343D01*
X90906912Y74336729D01*
X90895948Y74298121D01*
X90889689Y74275226D01*
X90888397Y74269696D01*
X90884949Y74255204D01*
X90876650Y74225183D01*
X90864339Y74182522D01*
X90848856Y74130113D01*
X90831042Y74070845D01*
X90821158Y74038349D01*
X90808254Y73995840D01*
X90790418Y73936710D01*
X90768208Y73862819D01*
X90742179Y73776028D01*
X90712888Y73678197D01*
X90680892Y73571187D01*
X90646748Y73456858D01*
X90611010Y73337071D01*
X90599089Y73297072D01*
X90574237Y73213685D01*
X90536985Y73088561D01*
X90521301Y73035844D01*
X90485745Y72916633D01*
X90451603Y72802805D01*
X90449906Y72797181D01*
X90419289Y72695707D01*
X90389974Y72599170D01*
X90389219Y72596684D01*
X90361807Y72507083D01*
X90337469Y72428250D01*
X90316619Y72361529D01*
X90299673Y72308269D01*
X90287046Y72269813D01*
X90284026Y72261280D01*
X90279152Y72247509D01*
X90276604Y72242195D01*
X90268560Y72231185D01*
X90267007Y72220753D01*
X90258391Y72200299D01*
X90235379Y72185395D01*
X90223288Y72182225D01*
X90202222Y72176703D01*
X90163172Y72174884D01*
X90122482Y72180600D01*
X90087699Y72192864D01*
X90046732Y72219602D01*
X90023855Y72251847D01*
X90018415Y72290591D01*
X90019068Y72297068D01*
X90022179Y72309550D01*
X90030409Y72339362D01*
X90043437Y72385410D01*
X90048227Y72402153D01*
X90098389Y72402153D01*
X90104236Y72388942D01*
X90120223Y72380402D01*
X90129032Y72377509D01*
X90159333Y72370933D01*
X90175600Y72374977D01*
X90180252Y72389388D01*
X90187028Y72405767D01*
X90194711Y72414098D01*
X90212773Y72420307D01*
X90227057Y72412456D01*
X90231715Y72395654D01*
X90228247Y72384802D01*
X90219501Y72362176D01*
X90223288Y72351844D01*
X90234341Y72353187D01*
X90248723Y72365745D01*
X90261915Y72387796D01*
X90262196Y72388456D01*
X90268287Y72420144D01*
X90257196Y72443595D01*
X90229953Y72457447D01*
X90207251Y72456945D01*
X90183813Y72441542D01*
X90180794Y72438717D01*
X90156622Y72418915D01*
X90142210Y72415552D01*
X90137075Y72428732D01*
X90138741Y72447837D01*
X90139086Y72472231D01*
X90132300Y72482002D01*
X90121815Y72475482D01*
X90113948Y72459886D01*
X90101891Y72424359D01*
X90098389Y72402153D01*
X90048227Y72402153D01*
X90060943Y72446600D01*
X90078772Y72508525D01*
X90261620Y72508525D01*
X90264223Y72494296D01*
X90268630Y72490211D01*
X90284026Y72486302D01*
X90288236Y72487599D01*
X90295757Y72501175D01*
X90294167Y72506171D01*
X90290706Y72517047D01*
X90282264Y72523312D01*
X90268831Y72521106D01*
X90261620Y72508525D01*
X90078772Y72508525D01*
X90082605Y72521836D01*
X90108101Y72610024D01*
X90118737Y72646704D01*
X90172680Y72646704D01*
X90174213Y72632712D01*
X90187522Y72620713D01*
X90208202Y72608590D01*
X90245791Y72587464D01*
X90255898Y72616455D01*
X90266180Y72638703D01*
X90278182Y72644292D01*
X90294511Y72636885D01*
X90302553Y72626700D01*
X90297544Y72609974D01*
X90296140Y72607288D01*
X90289099Y72587158D01*
X90294167Y72579582D01*
X90309482Y72586899D01*
X90311230Y72588310D01*
X90331463Y72614036D01*
X90335786Y72640854D01*
X90324889Y72663980D01*
X90299461Y72678631D01*
X90298153Y72678973D01*
X90273900Y72677570D01*
X90246372Y72660243D01*
X90221451Y72641546D01*
X90207678Y72637654D01*
X90203673Y72648718D01*
X90205796Y72664725D01*
X90206367Y72686983D01*
X90198888Y72693620D01*
X90187479Y72683965D01*
X90180013Y72668917D01*
X90172680Y72646704D01*
X90118737Y72646704D01*
X90137111Y72710070D01*
X90169313Y72820879D01*
X90203610Y72938690D01*
X90246355Y72938690D01*
X90254126Y72922512D01*
X90276178Y72896572D01*
X90311892Y72861709D01*
X90320024Y72854278D01*
X90355914Y72823437D01*
X90379293Y72806580D01*
X90389974Y72802862D01*
X90387766Y72811441D01*
X90372482Y72831472D01*
X90343933Y72862111D01*
X90325781Y72880031D01*
X90296625Y72907636D01*
X90272675Y72929299D01*
X90257238Y72942082D01*
X90253485Y72944269D01*
X90246355Y72938690D01*
X90203610Y72938690D01*
X90204386Y72941357D01*
X90241067Y73067172D01*
X90305619Y73067172D01*
X90309171Y73058275D01*
X90317329Y73062847D01*
X90325970Y73077169D01*
X90329664Y73088861D01*
X90337047Y73109110D01*
X90346033Y73117775D01*
X90346221Y73117780D01*
X90358331Y73111679D01*
X90379171Y73095885D01*
X90398256Y73079222D01*
X90429396Y73052983D01*
X90449906Y73041318D01*
X90459251Y73044496D01*
X90459796Y73048444D01*
X90452550Y73057414D01*
X90433325Y73074262D01*
X90405889Y73095745D01*
X90398187Y73101461D01*
X90368658Y73122676D01*
X90345340Y73138557D01*
X90332329Y73146341D01*
X90331164Y73146698D01*
X90325930Y73138539D01*
X90318500Y73118902D01*
X90311205Y73095049D01*
X90306378Y73074242D01*
X90305619Y73067172D01*
X90241067Y73067172D01*
X90242010Y73070408D01*
X90281861Y73206938D01*
X90323620Y73349853D01*
X90366966Y73498058D01*
X90411576Y73650458D01*
X90457130Y73805960D01*
X90494173Y73932315D01*
X90516197Y73932315D01*
X90552583Y73857609D01*
X90570101Y73823923D01*
X90585594Y73798197D01*
X90596564Y73784434D01*
X90599089Y73783174D01*
X90612207Y73787606D01*
X90636800Y73798956D01*
X90667045Y73814502D01*
X90724882Y73845560D01*
X90784704Y74043169D01*
X90802436Y74102262D01*
X90818121Y74155517D01*
X90830927Y74200033D01*
X90840024Y74232909D01*
X90844582Y74251244D01*
X90844950Y74253654D01*
X90839973Y74267771D01*
X90826560Y74291964D01*
X90809227Y74318607D01*
X90789478Y74345225D01*
X90773096Y74364036D01*
X90763999Y74370796D01*
X90747888Y74367242D01*
X90721929Y74357909D01*
X90691374Y74345147D01*
X90661477Y74331305D01*
X90637492Y74318732D01*
X90624672Y74309780D01*
X90623786Y74308085D01*
X90621142Y74296193D01*
X90613841Y74268802D01*
X90602716Y74228894D01*
X90588600Y74179453D01*
X90572327Y74123460D01*
X90569932Y74115296D01*
X90516197Y73932315D01*
X90494173Y73932315D01*
X90503306Y73963468D01*
X90549784Y74121887D01*
X90596242Y74280123D01*
X90642359Y74437082D01*
X90687813Y74591669D01*
X90732284Y74742790D01*
X90775450Y74889349D01*
X90816990Y75030252D01*
X90840112Y75108599D01*
X90893857Y75108599D01*
X90894609Y75099638D01*
X90905177Y75095453D01*
X90928914Y75087961D01*
X90956229Y75080046D01*
X90989763Y75070630D01*
X91017562Y75062769D01*
X91030935Y75058937D01*
X91045157Y75060527D01*
X91047804Y75069363D01*
X91038948Y75082802D01*
X91018685Y75090537D01*
X90995314Y75097705D01*
X90984364Y75105876D01*
X90988061Y75112352D01*
X90999038Y75114355D01*
X91020032Y75116458D01*
X91028525Y75117969D01*
X91046537Y75120961D01*
X91052624Y75121584D01*
X91065469Y75129446D01*
X91067083Y75135310D01*
X91058340Y75144212D01*
X91034709Y75155593D01*
X91000092Y75167603D01*
X90997197Y75168467D01*
X90954043Y75179487D01*
X90926842Y75182441D01*
X90917752Y75179643D01*
X90915937Y75168337D01*
X90927972Y75157801D01*
X90948707Y75152069D01*
X90953250Y75151855D01*
X90970699Y75146671D01*
X90975508Y75142068D01*
X90971506Y75135447D01*
X90952068Y75132478D01*
X90948339Y75132429D01*
X90926002Y75128646D01*
X90905982Y75119568D01*
X90893857Y75108599D01*
X90840112Y75108599D01*
X90856582Y75164405D01*
X90882739Y75252922D01*
X90940276Y75252922D01*
X90942254Y75238019D01*
X90949431Y75236197D01*
X90967275Y75235126D01*
X90994967Y75228907D01*
X91025884Y75219608D01*
X91053402Y75209297D01*
X91070899Y75200041D01*
X91073387Y75197503D01*
X91081253Y75195100D01*
X91087309Y75205364D01*
X91092180Y75229158D01*
X91084336Y75240528D01*
X91074950Y75240826D01*
X91058672Y75242401D01*
X91030863Y75248982D01*
X91003882Y75257120D01*
X90974040Y75266611D01*
X90969564Y75267893D01*
X90952823Y75272689D01*
X90945324Y75274036D01*
X90942506Y75264350D01*
X90940276Y75252922D01*
X90882739Y75252922D01*
X90893906Y75290713D01*
X90903781Y75324080D01*
X90961888Y75324080D01*
X90963986Y75316854D01*
X90969564Y75315579D01*
X90978629Y75323582D01*
X90982973Y75334292D01*
X90986407Y75344066D01*
X90993086Y75348085D01*
X91007506Y75346377D01*
X91034161Y75338970D01*
X91048331Y75334698D01*
X91080462Y75326025D01*
X91105265Y75321275D01*
X91116858Y75321373D01*
X91124650Y75330629D01*
X91116673Y75340083D01*
X91091708Y75350575D01*
X91061455Y75359535D01*
X91027898Y75369234D01*
X91009334Y75377132D01*
X91001974Y75385793D01*
X91002032Y75397779D01*
X91002354Y75399546D01*
X91003444Y75417152D01*
X90998421Y75419732D01*
X90989691Y75409558D01*
X90979658Y75388898D01*
X90974161Y75372918D01*
X90965170Y75341398D01*
X90961888Y75324080D01*
X90903781Y75324080D01*
X90928641Y75408082D01*
X90938675Y75441923D01*
X91124920Y75441923D01*
X91132423Y75424283D01*
X91149212Y75414875D01*
X91164347Y75417331D01*
X91172743Y75430060D01*
X91168334Y75436844D01*
X91163394Y75444444D01*
X91154472Y75450192D01*
X91134789Y75458968D01*
X91126476Y75455647D01*
X91124920Y75441923D01*
X90938675Y75441923D01*
X90960465Y75515416D01*
X90977264Y75571944D01*
X91033906Y75571944D01*
X91042889Y75568409D01*
X91045771Y75568704D01*
X91064571Y75567651D01*
X91091629Y75562363D01*
X91120858Y75554558D01*
X91146168Y75545956D01*
X91161473Y75538276D01*
X91163478Y75535464D01*
X91168334Y75527425D01*
X91178158Y75531514D01*
X91185751Y75544516D01*
X91190526Y75566151D01*
X91188574Y75574349D01*
X91180347Y75574324D01*
X91180156Y75574330D01*
X91162520Y75574887D01*
X91136196Y75579911D01*
X91107610Y75587621D01*
X91082997Y75596247D01*
X91068591Y75604014D01*
X91067083Y75606527D01*
X91062350Y75613893D01*
X91051732Y75608998D01*
X91040604Y75595235D01*
X91037053Y75587578D01*
X91033906Y75571944D01*
X90977264Y75571944D01*
X90989056Y75611622D01*
X91008450Y75676674D01*
X91068124Y75676674D01*
X91078279Y75655907D01*
X91103766Y75640398D01*
X91130908Y75631411D01*
X91161722Y75623390D01*
X91180156Y75621251D01*
X91192282Y75625295D01*
X91203335Y75634980D01*
X91217017Y75658949D01*
X91217262Y75684839D01*
X91204906Y75705663D01*
X91194109Y75712050D01*
X91177177Y75714111D01*
X91173691Y75704630D01*
X91184015Y75686226D01*
X91189603Y75679639D01*
X91199061Y75662684D01*
X91192287Y75652846D01*
X91171335Y75651135D01*
X91143480Y75656951D01*
X91109685Y75669727D01*
X91091150Y75682972D01*
X91089394Y75695312D01*
X91095208Y75700667D01*
X91114430Y75705385D01*
X91121636Y75704054D01*
X91132869Y75706930D01*
X91134559Y75713554D01*
X91127919Y75730507D01*
X91112043Y75736495D01*
X91093001Y75732274D01*
X91076862Y75718603D01*
X91070949Y75705609D01*
X91068124Y75676674D01*
X91008450Y75676674D01*
X91014094Y75695604D01*
X91035258Y75766269D01*
X91052225Y75822521D01*
X91064676Y75863266D01*
X91072289Y75887409D01*
X91074620Y75893947D01*
X91094751Y75913614D01*
X91127923Y75930561D01*
X91167902Y75942333D01*
X91208021Y75946477D01*
X91257299Y75939830D01*
G37*
G36*
X93149693Y56501116D02*
G01*
X93288894Y56500961D01*
X93416422Y56500722D01*
X93530784Y56500401D01*
X93630490Y56499997D01*
X93714046Y56499510D01*
X93779962Y56498942D01*
X93785413Y56498882D01*
X93893129Y56497629D01*
X93983441Y56496452D01*
X94058222Y56495260D01*
X94119346Y56493961D01*
X94168688Y56492466D01*
X94208120Y56490683D01*
X94239516Y56488521D01*
X94264751Y56485890D01*
X94285698Y56482698D01*
X94304232Y56478856D01*
X94322224Y56474272D01*
X94328391Y56472574D01*
X94436623Y56436968D01*
X94532823Y56392860D01*
X94621684Y56337474D01*
X94707899Y56268035D01*
X94763819Y56214971D01*
X94843052Y56128804D01*
X94906659Y56043066D01*
X94957540Y55952860D01*
X94998599Y55853289D01*
X95021876Y55779543D01*
X95043364Y55704079D01*
X95044933Y53621954D01*
X95045099Y53379825D01*
X95045215Y53156251D01*
X95045277Y52950507D01*
X95045281Y52761871D01*
X95045223Y52589618D01*
X95045099Y52433024D01*
X95044905Y52291365D01*
X95044638Y52163918D01*
X95044293Y52049957D01*
X95043867Y51948761D01*
X95043355Y51859603D01*
X95042754Y51781762D01*
X95042060Y51714511D01*
X95041268Y51657129D01*
X95040375Y51608890D01*
X95039377Y51569070D01*
X95038271Y51536947D01*
X95037051Y51511795D01*
X95035714Y51492892D01*
X95034257Y51479512D01*
X95033283Y51473633D01*
X94997756Y51343876D01*
X94945059Y51221538D01*
X94876348Y51108041D01*
X94792776Y51004809D01*
X94695497Y50913266D01*
X94585666Y50834835D01*
X94464436Y50770938D01*
X94462976Y50770292D01*
X94425412Y50755404D01*
X94423322Y50754576D01*
X94374791Y50737891D01*
X94327288Y50723622D01*
X94323204Y50722519D01*
X94243288Y50701195D01*
X93680389Y50701195D01*
X92336099Y50701195D01*
X92262377Y50701195D01*
X91491220Y50701195D01*
X90430878Y50701195D01*
X90281466Y50701195D01*
X90201550Y50722519D01*
X90093397Y50756896D01*
X89996952Y50800151D01*
X89907697Y50854930D01*
X89821115Y50923881D01*
X89760935Y50980740D01*
X89680733Y51068100D01*
X89616518Y51155035D01*
X89565644Y51246062D01*
X89525462Y51345698D01*
X89502714Y51421355D01*
X89481390Y51501271D01*
X89481390Y52335085D01*
X89649726Y52335085D01*
X89852332Y52335085D01*
X90054939Y52335085D01*
X90054939Y51616945D01*
X90054939Y50898804D01*
X90242908Y50898804D01*
X90430878Y50898804D01*
X90430878Y51616945D01*
X90430878Y52335085D01*
X90642946Y52335085D01*
X90855015Y52335085D01*
X90855015Y52527875D01*
X91491220Y52527875D01*
X91491220Y51809734D01*
X91491220Y51091594D01*
X91674369Y51091594D01*
X91857519Y51091594D01*
X91857519Y51809734D01*
X91857519Y52527875D01*
X91674369Y52527875D01*
X91491220Y52527875D01*
X90855015Y52527875D01*
X90855015Y52561613D01*
X90855015Y52788140D01*
X90642946Y52788140D01*
X90430878Y52788140D01*
X90430878Y53308785D01*
X90722400Y53308785D01*
X90722769Y53305882D01*
X90734565Y53296802D01*
X90760154Y53287239D01*
X90788194Y53280393D01*
X90819789Y53272987D01*
X90864313Y53260966D01*
X90916415Y53245845D01*
X90970747Y53229142D01*
X90984241Y53224835D01*
X91160112Y53161924D01*
X91343192Y53084504D01*
X91530269Y52994289D01*
X91718132Y52892990D01*
X91903570Y52782320D01*
X92083371Y52663992D01*
X92218999Y52566461D01*
X92258561Y52537114D01*
X92293098Y52512007D01*
X92319445Y52493403D01*
X92334431Y52483570D01*
X92336099Y52482720D01*
X92343366Y52489480D01*
X92358614Y52509906D01*
X92380003Y52541070D01*
X92405695Y52580047D01*
X92433851Y52623910D01*
X92448469Y52647185D01*
X93169695Y52647185D01*
X93171620Y52637661D01*
X93178911Y52612317D01*
X93190804Y52573607D01*
X93206531Y52523989D01*
X93225326Y52465918D01*
X93243654Y52410196D01*
X93367346Y52021405D01*
X93479428Y51637176D01*
X93578901Y51261012D01*
X93620163Y51091594D01*
X93637561Y51019874D01*
X93651703Y50965737D01*
X93662999Y50927839D01*
X93671861Y50904835D01*
X93678701Y50895382D01*
X93680389Y50894985D01*
X93699609Y50898200D01*
X93732186Y50905542D01*
X93774892Y50916116D01*
X93824499Y50929028D01*
X93877779Y50943384D01*
X93931505Y50958288D01*
X93982447Y50972846D01*
X94027378Y50986164D01*
X94063070Y50997347D01*
X94086295Y51005501D01*
X94093876Y51009571D01*
X94091504Y51021511D01*
X94084868Y51049218D01*
X94074688Y51089836D01*
X94061683Y51140506D01*
X94046575Y51198373D01*
X94040359Y51221929D01*
X93988985Y51411995D01*
X93936713Y51597582D01*
X93884216Y51776522D01*
X93832168Y51946646D01*
X93781240Y52105787D01*
X93732108Y52251776D01*
X93685442Y52382446D01*
X93655871Y52460398D01*
X93635024Y52513055D01*
X93613100Y52567119D01*
X93591533Y52619189D01*
X93571759Y52665867D01*
X93555212Y52703750D01*
X93543327Y52729438D01*
X93538611Y52738252D01*
X93529277Y52736872D01*
X93504730Y52731546D01*
X93468428Y52723128D01*
X93423830Y52712473D01*
X93374394Y52700434D01*
X93323580Y52687864D01*
X93274845Y52675618D01*
X93231649Y52664549D01*
X93197450Y52655511D01*
X93175707Y52649358D01*
X93169695Y52647185D01*
X92448469Y52647185D01*
X92462631Y52669734D01*
X92490197Y52714593D01*
X92514710Y52755560D01*
X92534332Y52789709D01*
X92547223Y52814115D01*
X92551561Y52825580D01*
X92544466Y52835473D01*
X92525006Y52854926D01*
X92495919Y52881518D01*
X92459943Y52912826D01*
X92419815Y52946428D01*
X92378272Y52979901D01*
X92368411Y52987634D01*
X92287689Y53046979D01*
X92191621Y53111418D01*
X92082922Y53179298D01*
X91964307Y53248970D01*
X91838491Y53318782D01*
X91729570Y53376148D01*
X91626409Y53429165D01*
X91626365Y53800284D01*
X91896077Y53800284D01*
X92129834Y53800185D01*
X92203461Y53799717D01*
X92278327Y53798464D01*
X92349768Y53796559D01*
X92413118Y53794138D01*
X92463713Y53791333D01*
X92479265Y53790139D01*
X92670165Y53764173D01*
X92856738Y53719796D01*
X93038092Y53657567D01*
X93213338Y53578046D01*
X93381585Y53481792D01*
X93541942Y53369365D01*
X93693520Y53241324D01*
X93835429Y53098227D01*
X93966777Y52940635D01*
X94074446Y52788069D01*
X94114810Y52722533D01*
X94159818Y52643390D01*
X94207222Y52555037D01*
X94254772Y52461872D01*
X94300221Y52368291D01*
X94341320Y52278693D01*
X94373636Y52202877D01*
X94425412Y52075488D01*
X94566569Y52149860D01*
X94615665Y52175923D01*
X94660206Y52199931D01*
X94696743Y52219998D01*
X94721830Y52234238D01*
X94730263Y52239408D01*
X94752800Y52254585D01*
X94713156Y52370209D01*
X94641008Y52559278D01*
X94555486Y52746111D01*
X94458100Y52928497D01*
X94350363Y53104227D01*
X94233786Y53271093D01*
X94109880Y53426883D01*
X93980159Y53569390D01*
X93846132Y53696403D01*
X93753797Y53772415D01*
X93655088Y53843136D01*
X93544740Y53912560D01*
X93428374Y53977602D01*
X93311608Y54035180D01*
X93200062Y54082212D01*
X93167120Y54094274D01*
X93093456Y54120147D01*
X93205678Y54176357D01*
X93302374Y54228807D01*
X93404127Y54291118D01*
X93503472Y54358489D01*
X93587804Y54421996D01*
X93749272Y54559750D01*
X93908219Y54712168D01*
X94062226Y54876300D01*
X94208872Y55049199D01*
X94345739Y55227915D01*
X94470408Y55409500D01*
X94580458Y55591006D01*
X94643694Y55708899D01*
X94664824Y55751568D01*
X94687425Y55798893D01*
X94709933Y55847390D01*
X94730781Y55893574D01*
X94748403Y55933959D01*
X94761233Y55965060D01*
X94767707Y55983393D01*
X94768178Y55985957D01*
X94760623Y55994537D01*
X94739197Y56011976D01*
X94706177Y56036600D01*
X94663841Y56066733D01*
X94614465Y56100701D01*
X94587899Y56118566D01*
X94407159Y56239203D01*
X94393452Y56207808D01*
X94364957Y56145161D01*
X94329709Y56071725D01*
X94290164Y55992291D01*
X94248779Y55911651D01*
X94208009Y55834595D01*
X94170311Y55765913D01*
X94140140Y55713719D01*
X94043142Y55556797D01*
X93949923Y55416155D01*
X93858779Y55289591D01*
X93768007Y55174900D01*
X93675904Y55069881D01*
X93580766Y54972330D01*
X93529070Y54923401D01*
X93369120Y54782431D01*
X93213668Y54658712D01*
X93061126Y54551201D01*
X92909910Y54458855D01*
X92758435Y54380632D01*
X92605114Y54315488D01*
X92604578Y54315284D01*
X92575233Y54304292D01*
X92549243Y54295435D01*
X92524237Y54288568D01*
X92497841Y54283548D01*
X92467685Y54280230D01*
X92431395Y54278469D01*
X92386598Y54278121D01*
X92330924Y54279041D01*
X92261998Y54281085D01*
X92177449Y54284108D01*
X92125015Y54286077D01*
X91896077Y54294715D01*
X91896077Y54047500D01*
X91896077Y53800284D01*
X91626365Y53800284D01*
X91626291Y54419620D01*
X91626326Y54556025D01*
X91626461Y54686872D01*
X91626688Y54810889D01*
X91627000Y54926802D01*
X91627392Y55033338D01*
X91627855Y55129225D01*
X91628384Y55213188D01*
X91628971Y55283955D01*
X91629610Y55340252D01*
X91630293Y55380807D01*
X91631014Y55404346D01*
X91631597Y55410076D01*
X91642153Y55407173D01*
X91667711Y55399165D01*
X91705004Y55387104D01*
X91750766Y55372040D01*
X91778599Y55362777D01*
X91920312Y55311309D01*
X92070100Y55249362D01*
X92221970Y55179638D01*
X92369927Y55104840D01*
X92458480Y55056301D01*
X92492208Y55037814D01*
X92519107Y55024249D01*
X92535223Y55017544D01*
X92537973Y55017335D01*
X92541483Y55027649D01*
X92548447Y55053250D01*
X92558023Y55090628D01*
X92569368Y55136276D01*
X92581639Y55186686D01*
X92593994Y55238350D01*
X92605589Y55287760D01*
X92615583Y55331408D01*
X92623132Y55365786D01*
X92627393Y55387385D01*
X92628025Y55392213D01*
X92619685Y55404023D01*
X92594121Y55424158D01*
X92551456Y55452531D01*
X92491813Y55489056D01*
X92481675Y55495076D01*
X92312309Y55592852D01*
X92146816Y55683577D01*
X91987160Y55766279D01*
X91835307Y55839989D01*
X91693223Y55903738D01*
X91562873Y55956556D01*
X91498872Y55979907D01*
X91405310Y56012542D01*
X91361509Y55969568D01*
X91317709Y55926593D01*
X91317709Y54748312D01*
X91317709Y53570031D01*
X91250299Y53597828D01*
X91211434Y53612996D01*
X91162950Y53630599D01*
X91107698Y53649738D01*
X91048532Y53669512D01*
X90988303Y53689024D01*
X90929864Y53707373D01*
X90876067Y53723662D01*
X90829765Y53736990D01*
X90793809Y53746458D01*
X90771052Y53751168D01*
X90764348Y53751021D01*
X90761814Y53739938D01*
X90758086Y53712983D01*
X90753476Y53673506D01*
X90748297Y53624857D01*
X90742863Y53570384D01*
X90737485Y53513435D01*
X90732477Y53457361D01*
X90728152Y53405510D01*
X90724822Y53361231D01*
X90722800Y53327873D01*
X90722400Y53308785D01*
X90430878Y53308785D01*
X90430878Y53540019D01*
X90430878Y54291897D01*
X90633307Y54291897D01*
X90835736Y54291897D01*
X90835736Y54518425D01*
X90835736Y54744952D01*
X90633307Y54744952D01*
X90430878Y54744952D01*
X90430878Y55467912D01*
X90430878Y56190873D01*
X90242908Y56190873D01*
X90054939Y56190873D01*
X90054939Y55467912D01*
X90054939Y54744952D01*
X89852510Y54744952D01*
X89650081Y54744952D01*
X89650081Y54518425D01*
X89650081Y54291897D01*
X89852510Y54291897D01*
X90054939Y54291897D01*
X90054939Y53540214D01*
X90054939Y52788531D01*
X89854920Y52785926D01*
X89654901Y52783320D01*
X89652313Y52559203D01*
X89649726Y52335085D01*
X89481390Y52335085D01*
X89481390Y53597856D01*
X89481390Y55694440D01*
X89502714Y55774356D01*
X89537091Y55882509D01*
X89580346Y55978954D01*
X89635125Y56068209D01*
X89704076Y56154791D01*
X89760935Y56214971D01*
X89847125Y56294223D01*
X89932889Y56357843D01*
X90023118Y56408728D01*
X90122701Y56449778D01*
X90196363Y56473015D01*
X90271827Y56494491D01*
X91794863Y56499323D01*
X91973744Y56499846D01*
X92152888Y56500282D01*
X92330800Y56500633D01*
X92505991Y56500899D01*
X92676967Y56501080D01*
X92842237Y56501176D01*
X93000310Y56501188D01*
X93149693Y56501116D01*
G37*
G36*
X91566664Y77930143D02*
G01*
X91568335Y77923728D01*
X91572322Y77915166D01*
X91587314Y77915697D01*
X91598528Y77918601D01*
X91624294Y77922497D01*
X91659040Y77923467D01*
X91696212Y77921860D01*
X91729257Y77918024D01*
X91751624Y77912310D01*
X91755312Y77910251D01*
X91770992Y77905041D01*
X91797489Y77901598D01*
X91807884Y77901079D01*
X91839646Y77897009D01*
X91866662Y77888350D01*
X91871826Y77885483D01*
X91894995Y77874959D01*
X91911822Y77872394D01*
X91932470Y77868210D01*
X91955935Y77856199D01*
X91975096Y77840905D01*
X91982832Y77827099D01*
X91991197Y77814532D01*
X92011640Y77802483D01*
X92037190Y77794414D01*
X92051665Y77792922D01*
X92070421Y77784710D01*
X92076317Y77774092D01*
X92087791Y77754911D01*
X92104333Y77740132D01*
X92121216Y77724728D01*
X92127424Y77711414D01*
X92135450Y77697852D01*
X92146703Y77691708D01*
X92162338Y77680823D01*
X92165982Y77671376D01*
X92172146Y77654417D01*
X92185494Y77636220D01*
X92195108Y77624444D01*
X92203267Y77609830D01*
X92211219Y77588817D01*
X92220210Y77557843D01*
X92231488Y77513343D01*
X92238208Y77485598D01*
X92245998Y77445004D01*
X92246412Y77419541D01*
X92243775Y77412979D01*
X92240163Y77395273D01*
X92243502Y77387741D01*
X92251746Y77364729D01*
X92249883Y77343652D01*
X92243246Y77335138D01*
X92235682Y77321799D01*
X92233911Y77308061D01*
X92228479Y77259296D01*
X92210320Y77208961D01*
X92180649Y77156717D01*
X92157698Y77120587D01*
X92129331Y77075088D01*
X92100009Y77027407D01*
X92084869Y77002486D01*
X92056662Y76955935D01*
X92022975Y76900540D01*
X91988421Y76843881D01*
X91962808Y76802006D01*
X91937941Y76760319D01*
X91917280Y76723583D01*
X91902743Y76695362D01*
X91896245Y76679222D01*
X91896077Y76677866D01*
X91891507Y76661749D01*
X91879656Y76635509D01*
X91866655Y76611206D01*
X91851475Y76582044D01*
X91841895Y76558467D01*
X91839966Y76547376D01*
X91836842Y76533142D01*
X91826002Y76508090D01*
X91810911Y76479661D01*
X91795427Y76450411D01*
X91785780Y76427582D01*
X91784034Y76416403D01*
X91782526Y76403851D01*
X91772403Y76383464D01*
X91770279Y76380138D01*
X91757248Y76353460D01*
X91751557Y76328136D01*
X91751549Y76327458D01*
X91745880Y76300468D01*
X91736468Y76281653D01*
X91726982Y76263246D01*
X91726335Y76252309D01*
X91725746Y76239065D01*
X91717552Y76218065D01*
X91717254Y76217486D01*
X91707032Y76190600D01*
X91703288Y76168139D01*
X91699566Y76148166D01*
X91693648Y76139753D01*
X91686352Y76126590D01*
X91683702Y76107856D01*
X91678457Y76081115D01*
X91669905Y76064110D01*
X91661254Y76044646D01*
X91661632Y76032708D01*
X91660470Y76015567D01*
X91650598Y75994308D01*
X91640477Y75972898D01*
X91639172Y75956931D01*
X91637795Y75940149D01*
X91629706Y75923955D01*
X91621073Y75905106D01*
X91621625Y75893506D01*
X91621363Y75878999D01*
X91612544Y75860124D01*
X91601172Y75837262D01*
X91597254Y75820264D01*
X91593718Y75797226D01*
X91587568Y75774807D01*
X91584450Y75763440D01*
X91571454Y75725817D01*
X91565476Y75710797D01*
X91558566Y75686461D01*
X91557597Y75670294D01*
X91554164Y75650374D01*
X91544730Y75630967D01*
X91535900Y75612442D01*
X91536184Y75601569D01*
X91537631Y75588900D01*
X91532840Y75573420D01*
X91515997Y75531853D01*
X91502813Y75491140D01*
X91496039Y75460171D01*
X91489411Y75429592D01*
X91477499Y75391893D01*
X91463587Y75357224D01*
X91461009Y75351857D01*
X91454151Y75328442D01*
X91452662Y75312732D01*
X91446920Y75286531D01*
X91439275Y75272037D01*
X91430582Y75252775D01*
X91430695Y75241202D01*
X91429256Y75224871D01*
X91419251Y75203871D01*
X91409147Y75182403D01*
X91407889Y75166325D01*
X91406483Y75149263D01*
X91399289Y75135775D01*
X91388481Y75112009D01*
X91385492Y75093303D01*
X91379980Y75066519D01*
X91371798Y75050329D01*
X91363106Y75031067D01*
X91363219Y75019494D01*
X91361859Y75002981D01*
X91352616Y74983448D01*
X91343000Y74962168D01*
X91342266Y74946740D01*
X91341626Y74929631D01*
X91333128Y74906339D01*
X91332577Y74905267D01*
X91322167Y74880574D01*
X91317769Y74860762D01*
X91317768Y74860683D01*
X91312230Y74842948D01*
X91307289Y74837942D01*
X91301027Y74824632D01*
X91301995Y74810865D01*
X91299905Y74786812D01*
X91289597Y74767096D01*
X91278288Y74745107D01*
X91276478Y74727112D01*
X91274626Y74707483D01*
X91264253Y74684876D01*
X91254458Y74665562D01*
X91253546Y74653602D01*
X91253781Y74653334D01*
X91253672Y74641767D01*
X91245556Y74625221D01*
X91236730Y74603630D01*
X91236942Y74588229D01*
X91236196Y74569897D01*
X91226823Y74548940D01*
X91216098Y74527836D01*
X91213263Y74512866D01*
X91210702Y74496760D01*
X91201323Y74473732D01*
X91200497Y74472125D01*
X91191342Y74448876D01*
X91189573Y74431620D01*
X91189805Y74430848D01*
X91188153Y74414438D01*
X91178843Y74395040D01*
X91167219Y74368997D01*
X91163478Y74347720D01*
X91159972Y74327176D01*
X91153838Y74317894D01*
X91146837Y74304835D01*
X91144199Y74284155D01*
X91140893Y74261908D01*
X91133719Y74249898D01*
X91127027Y74236408D01*
X91127834Y74225854D01*
X91126186Y74204709D01*
X91118476Y74188367D01*
X91109902Y74169937D01*
X91110296Y74159108D01*
X91109946Y74145234D01*
X91101695Y74122968D01*
X91099257Y74118158D01*
X91088725Y74094284D01*
X91084612Y74076543D01*
X91084772Y74074731D01*
X91082229Y74058665D01*
X91072906Y74035508D01*
X91071877Y74033480D01*
X91062901Y74011534D01*
X91061170Y73996975D01*
X91061560Y73996108D01*
X91060248Y73983208D01*
X91052621Y73969883D01*
X91042514Y73947085D01*
X91038471Y73920834D01*
X91035313Y73897536D01*
X91028115Y73883873D01*
X91027868Y73883711D01*
X91021689Y73870587D01*
X91023046Y73863080D01*
X91022119Y73844971D01*
X91014064Y73828172D01*
X91002617Y73802114D01*
X90999607Y73782686D01*
X90995348Y73759227D01*
X90988005Y73746238D01*
X90978043Y73727584D01*
X90975243Y73712982D01*
X90969110Y73672733D01*
X90956835Y73630316D01*
X90949522Y73612722D01*
X90944168Y73592467D01*
X90946062Y73581328D01*
X90945363Y73567151D01*
X90935086Y73546211D01*
X90932740Y73542772D01*
X90918963Y73516568D01*
X90912868Y73491406D01*
X90912851Y73490390D01*
X90909135Y73469411D01*
X90902431Y73459498D01*
X90896315Y73446247D01*
X90897404Y73431569D01*
X90896104Y73406866D01*
X90888852Y73391653D01*
X90877390Y73367446D01*
X90874600Y73351198D01*
X90869091Y73326723D01*
X90858529Y73305109D01*
X90849192Y73286271D01*
X90848923Y73274890D01*
X90848744Y73263366D01*
X90840189Y73246000D01*
X90831318Y73226156D01*
X90831591Y73213082D01*
X90832070Y73198242D01*
X90824915Y73175431D01*
X90823536Y73172386D01*
X90807207Y73134294D01*
X90794299Y73097898D01*
X90786888Y73069398D01*
X90785892Y73059943D01*
X90782623Y73039078D01*
X90778585Y73026205D01*
X90761306Y72979356D01*
X90751295Y72946623D01*
X90747580Y72924693D01*
X90747529Y72920243D01*
X90742810Y72897444D01*
X90734098Y72879614D01*
X90723067Y72853627D01*
X90720062Y72834323D01*
X90716306Y72813602D01*
X90709765Y72804091D01*
X90703689Y72790996D01*
X90705138Y72782954D01*
X90704197Y72765691D01*
X90694763Y72741392D01*
X90691336Y72735181D01*
X90678541Y72708194D01*
X90672062Y72684149D01*
X90671865Y72680778D01*
X90666359Y72656386D01*
X90656847Y72637934D01*
X90647778Y72618765D01*
X90648037Y72606449D01*
X90647775Y72591749D01*
X90641799Y72581407D01*
X90633104Y72560821D01*
X90631389Y72539681D01*
X90628019Y72515658D01*
X90618907Y72500903D01*
X90606695Y72481632D01*
X90604388Y72469029D01*
X90600152Y72439672D01*
X90588912Y72400694D01*
X90572873Y72359414D01*
X90568496Y72349853D01*
X90560247Y72327025D01*
X90559128Y72311395D01*
X90559626Y72310305D01*
X90558830Y72296519D01*
X90551369Y72282976D01*
X90539981Y72259183D01*
X90537219Y72243451D01*
X90533356Y72216939D01*
X90528276Y72200074D01*
X90520422Y72176974D01*
X90511112Y72145690D01*
X90508058Y72134554D01*
X90499137Y72104481D01*
X90490439Y72080292D01*
X90487775Y72074438D01*
X90481141Y72052129D01*
X90479075Y72030795D01*
X90474280Y72003301D01*
X90465770Y71984877D01*
X90456619Y71962985D01*
X90448486Y71927828D01*
X90442527Y71885420D01*
X90440142Y71851475D01*
X90434467Y71829795D01*
X90425072Y71811479D01*
X90415623Y71787817D01*
X90409992Y71756241D01*
X90409476Y71747537D01*
X90407066Y71719317D01*
X90402446Y71698989D01*
X90400538Y71695247D01*
X90396093Y71681087D01*
X90391573Y71653355D01*
X90387880Y71617732D01*
X90387544Y71613311D01*
X90383932Y71567221D01*
X90379768Y71518880D01*
X90376458Y71483890D01*
X90371581Y71396750D01*
X90375148Y71319126D01*
X90385591Y71260261D01*
X90391776Y71229942D01*
X90393268Y71206378D01*
X90391454Y71198124D01*
X90388849Y71179871D01*
X90391558Y71171126D01*
X90397277Y71154246D01*
X90404740Y71125041D01*
X90411576Y71093491D01*
X90419758Y71058919D01*
X90428737Y71030780D01*
X90435815Y71016375D01*
X90446939Y70996116D01*
X90453866Y70975408D01*
X90461363Y70956236D01*
X90469619Y70948899D01*
X90476377Y70940553D01*
X90479075Y70921281D01*
X90485144Y70892975D01*
X90497175Y70870652D01*
X90507781Y70850705D01*
X90518967Y70819944D01*
X90528957Y70784895D01*
X90535981Y70752084D01*
X90538263Y70728037D01*
X90537463Y70722372D01*
X90535521Y70704478D01*
X90535806Y70698273D01*
X90537369Y70665291D01*
X90536959Y70627333D01*
X90534922Y70590053D01*
X90531604Y70559101D01*
X90527349Y70540130D01*
X90525988Y70537674D01*
X90520360Y70521914D01*
X90522024Y70515818D01*
X90521425Y70501788D01*
X90511728Y70481105D01*
X90510873Y70479776D01*
X90499567Y70456556D01*
X90496408Y70437374D01*
X90496427Y70437259D01*
X90492689Y70421854D01*
X90480316Y70394943D01*
X90461788Y70360583D01*
X90439584Y70322836D01*
X90416182Y70285761D01*
X90394061Y70253417D01*
X90375702Y70229864D01*
X90363582Y70219161D01*
X90363157Y70219029D01*
X90346302Y70207709D01*
X90334049Y70191389D01*
X90320587Y70174143D01*
X90308756Y70168102D01*
X90297399Y70160352D01*
X90295925Y70153643D01*
X90290611Y70140817D01*
X90286079Y70139184D01*
X90275275Y70131367D01*
X90265253Y70115085D01*
X90252013Y70097252D01*
X90238733Y70090987D01*
X90224327Y70083175D01*
X90208782Y70063925D01*
X90206169Y70059373D01*
X90184603Y70030174D01*
X90166804Y70018032D01*
X90153186Y70008742D01*
X90131072Y69999081D01*
X90116810Y69986824D01*
X90102150Y69964664D01*
X90100390Y69961131D01*
X90081933Y69935387D01*
X90056667Y69915479D01*
X90030374Y69904828D01*
X90008838Y69906855D01*
X90008732Y69906914D01*
X89993491Y69926012D01*
X89982494Y69963797D01*
X89975759Y70020145D01*
X89973307Y70094934D01*
X89973551Y70131342D01*
X89974455Y70178556D01*
X89975475Y70217950D01*
X89976501Y70245988D01*
X89977420Y70259132D01*
X89977612Y70259677D01*
X89978333Y70268838D01*
X89979196Y70294409D01*
X89980136Y70333523D01*
X89981085Y70383312D01*
X89981976Y70440908D01*
X89982165Y70454876D01*
X89982564Y70516281D01*
X89982111Y70569071D01*
X89980884Y70610663D01*
X89978966Y70638475D01*
X89976435Y70649924D01*
X89976078Y70650076D01*
X89964076Y70655106D01*
X89941502Y70668198D01*
X89917325Y70683814D01*
X89886688Y70701868D01*
X89858587Y70714111D01*
X89842734Y70717552D01*
X89815136Y70723200D01*
X89798009Y70731724D01*
X89774006Y70740440D01*
X89737373Y70744783D01*
X89694211Y70744933D01*
X89650622Y70741074D01*
X89612707Y70733386D01*
X89592387Y70725602D01*
X89566464Y70714046D01*
X89545392Y70708119D01*
X89542519Y70707912D01*
X89524404Y70702157D01*
X89501682Y70688089D01*
X89498999Y70685990D01*
X89473423Y70668352D01*
X89440670Y70649412D01*
X89426918Y70642413D01*
X89394873Y70624215D01*
X89377563Y70605477D01*
X89371024Y70580963D01*
X89370536Y70567921D01*
X89366373Y70547479D01*
X89359672Y70538465D01*
X89354287Y70525734D01*
X89352046Y70495649D01*
X89352902Y70447435D01*
X89353379Y70436815D01*
X89354802Y70395963D01*
X89354937Y70362746D01*
X89353823Y70341581D01*
X89352506Y70336434D01*
X89350735Y70325510D01*
X89349107Y70298435D01*
X89347730Y70258335D01*
X89346711Y70208340D01*
X89346167Y70153051D01*
X89345283Y70080595D01*
X89343408Y70026367D01*
X89340476Y69989339D01*
X89336420Y69968480D01*
X89333806Y69963645D01*
X89325235Y69945967D01*
X89322339Y69925188D01*
X89320241Y69906847D01*
X89311947Y69899894D01*
X89294452Y69904256D01*
X89264755Y69919863D01*
X89258222Y69923661D01*
X89231214Y69941856D01*
X89219680Y69956678D01*
X89219455Y69967039D01*
X89218136Y69982034D01*
X89211349Y69984952D01*
X89200561Y69993295D01*
X89192308Y70013416D01*
X89192189Y70013951D01*
X89181842Y70037981D01*
X89167324Y70052848D01*
X89152373Y70066682D01*
X89148829Y70076866D01*
X89143645Y70089477D01*
X89139430Y70090987D01*
X89129977Y70099190D01*
X89117630Y70119763D01*
X89105168Y70146651D01*
X89095372Y70173800D01*
X89091021Y70195153D01*
X89090992Y70196492D01*
X89087745Y70212451D01*
X89083061Y70216300D01*
X89072625Y70224930D01*
X89059577Y70247841D01*
X89045782Y70280560D01*
X89033106Y70318616D01*
X89023413Y70357537D01*
X89022758Y70360892D01*
X89014728Y70394192D01*
X89005442Y70419761D01*
X88997473Y70431493D01*
X88988692Y70446444D01*
X88989893Y70457650D01*
X88990664Y70476206D01*
X88986887Y70506288D01*
X88980532Y70536461D01*
X88972550Y70572243D01*
X88967161Y70603777D01*
X88965644Y70621157D01*
X88965770Y70646451D01*
X88965764Y70678933D01*
X88965740Y70686768D01*
X88967611Y70716632D01*
X88972467Y70740189D01*
X88974319Y70744604D01*
X88980784Y70763499D01*
X88987285Y70792947D01*
X88989927Y70809127D01*
X88997150Y70835173D01*
X89011530Y70869827D01*
X89030886Y70909278D01*
X89053039Y70949717D01*
X89075810Y70987335D01*
X89097019Y71018323D01*
X89114486Y71038872D01*
X89125054Y71045294D01*
X89138416Y71052886D01*
X89153471Y71071379D01*
X89154776Y71073525D01*
X89170552Y71094507D01*
X89185963Y71106726D01*
X89186649Y71106984D01*
X89218410Y71123076D01*
X89246013Y71145423D01*
X89251501Y71151808D01*
X89266332Y71164613D01*
X89291720Y71180925D01*
X89308953Y71190366D01*
X89343546Y71212907D01*
X89372307Y71244083D01*
X89389283Y71269305D01*
X89408670Y71297455D01*
X89426264Y71317619D01*
X89438013Y71325337D01*
X89446725Y71333462D01*
X89463157Y71355495D01*
X89485555Y71388550D01*
X89512165Y71429745D01*
X89541233Y71476196D01*
X89571006Y71525018D01*
X89599731Y71573328D01*
X89625654Y71618242D01*
X89647021Y71656876D01*
X89662080Y71686346D01*
X89669075Y71703768D01*
X89669360Y71705819D01*
X89674021Y71721767D01*
X89686233Y71748289D01*
X89703098Y71779198D01*
X89720125Y71810235D01*
X89732252Y71836127D01*
X89736836Y71851185D01*
X89741182Y71869005D01*
X89751804Y71893449D01*
X89753382Y71896456D01*
X89765129Y71922764D01*
X89771412Y71945194D01*
X89771563Y71946584D01*
X89777224Y71973433D01*
X89789864Y72012390D01*
X89807448Y72057438D01*
X89816019Y72083354D01*
X89819474Y72100816D01*
X89825030Y72126309D01*
X89836460Y72161749D01*
X89851300Y72199700D01*
X89855088Y72208341D01*
X89859907Y72228752D01*
X89857857Y72239735D01*
X89858379Y72254114D01*
X89868473Y72274847D01*
X89869805Y72276802D01*
X89881399Y72298060D01*
X89881759Y72299899D01*
X89991137Y72299899D01*
X89995468Y72270689D01*
X90000619Y72256677D01*
X90028244Y72213557D01*
X90067895Y72181566D01*
X90115455Y72161444D01*
X90166804Y72153927D01*
X90217826Y72159754D01*
X90264403Y72179661D01*
X90293838Y72204162D01*
X90297897Y72211460D01*
X90304378Y72227438D01*
X90313465Y72252697D01*
X90325341Y72287839D01*
X90340188Y72333464D01*
X90358192Y72390174D01*
X90379534Y72458569D01*
X90404398Y72539252D01*
X90432967Y72632822D01*
X90465425Y72739881D01*
X90501955Y72861030D01*
X90542740Y72996871D01*
X90587964Y73148003D01*
X90637809Y73315029D01*
X90692459Y73498549D01*
X90752097Y73699164D01*
X90816907Y73917476D01*
X90840181Y73995936D01*
X90893778Y74176837D01*
X90945840Y74352926D01*
X90996101Y74523294D01*
X91044298Y74687027D01*
X91090164Y74843217D01*
X91133437Y74990950D01*
X91173849Y75129316D01*
X91211138Y75257404D01*
X91245038Y75374302D01*
X91275285Y75479100D01*
X91301613Y75570886D01*
X91323757Y75648750D01*
X91341454Y75711779D01*
X91354439Y75759063D01*
X91362445Y75789691D01*
X91365210Y75802739D01*
X91360475Y75839103D01*
X91347335Y75878128D01*
X91344218Y75884675D01*
X91313454Y75926549D01*
X91272432Y75953913D01*
X91223851Y75966535D01*
X91170406Y75964180D01*
X91114797Y75946615D01*
X91059720Y75913607D01*
X91054667Y75909702D01*
X91050231Y75900670D01*
X91041692Y75877185D01*
X91028962Y75838956D01*
X91011953Y75785690D01*
X90990576Y75717095D01*
X90964743Y75632879D01*
X90934367Y75532749D01*
X90899360Y75416412D01*
X90859634Y75283578D01*
X90815101Y75133952D01*
X90765672Y74967243D01*
X90711260Y74783159D01*
X90651776Y74581407D01*
X90587134Y74361696D01*
X90521500Y74138232D01*
X90468807Y73958636D01*
X90417497Y73783629D01*
X90367839Y73614140D01*
X90320105Y73451098D01*
X90274566Y73295431D01*
X90231492Y73148068D01*
X90191154Y73009939D01*
X90153823Y72881971D01*
X90119770Y72765095D01*
X90089265Y72660237D01*
X90062580Y72568329D01*
X90039984Y72490297D01*
X90021750Y72427071D01*
X90008147Y72379579D01*
X89999447Y72348751D01*
X89995944Y72335632D01*
X89991137Y72299899D01*
X89881759Y72299899D01*
X89884498Y72313902D01*
X89884288Y72314640D01*
X89885685Y72330224D01*
X89894420Y72353323D01*
X89896013Y72356504D01*
X89905029Y72378038D01*
X89906798Y72391542D01*
X89906204Y72392536D01*
X89906745Y72403659D01*
X89915024Y72420054D01*
X89923850Y72441645D01*
X89923637Y72457045D01*
X89924387Y72475370D01*
X89933786Y72496381D01*
X89943377Y72516436D01*
X89943927Y72530027D01*
X89944586Y72543981D01*
X89953166Y72560818D01*
X89964906Y72587489D01*
X89968183Y72608464D01*
X89971388Y72629915D01*
X89977823Y72640626D01*
X89984953Y72653749D01*
X89987462Y72673091D01*
X89992333Y72700164D01*
X90000849Y72717905D01*
X90009542Y72737168D01*
X90009429Y72748741D01*
X90010868Y72765071D01*
X90020873Y72786071D01*
X90030994Y72807481D01*
X90032300Y72823448D01*
X90033677Y72840230D01*
X90041765Y72856424D01*
X90050450Y72875181D01*
X90050000Y72886625D01*
X90050784Y72900317D01*
X90060205Y72922321D01*
X90064215Y72929223D01*
X90076305Y72954059D01*
X90075344Y72967542D01*
X90074429Y72968237D01*
X90070928Y72980339D01*
X90078207Y72994206D01*
X90087047Y73014220D01*
X90087027Y73027028D01*
X90088998Y73043062D01*
X90100674Y73063812D01*
X90101281Y73064594D01*
X90113455Y73087124D01*
X90115833Y73107126D01*
X90115796Y73107271D01*
X90117422Y73127924D01*
X90127673Y73150835D01*
X90137584Y73170026D01*
X90138784Y73181705D01*
X90138564Y73181959D01*
X90138527Y73193536D01*
X90146289Y73213724D01*
X90146898Y73214918D01*
X90157197Y73242521D01*
X90160973Y73266144D01*
X90164777Y73286968D01*
X90171452Y73296629D01*
X90178194Y73310138D01*
X90177412Y73320389D01*
X90179267Y73340066D01*
X90189993Y73363732D01*
X90190482Y73364487D01*
X90201213Y73384802D01*
X90203701Y73398229D01*
X90203408Y73398850D01*
X90204298Y73411644D01*
X90212600Y73433092D01*
X90214293Y73436469D01*
X90223522Y73460153D01*
X90225358Y73477954D01*
X90224989Y73479193D01*
X90226421Y73496179D01*
X90233624Y73509651D01*
X90244208Y73533098D01*
X90247421Y73553397D01*
X90251185Y73574967D01*
X90258207Y73585813D01*
X90264920Y73599311D01*
X90264124Y73609735D01*
X90265830Y73629241D01*
X90276005Y73654073D01*
X90277955Y73657424D01*
X90288584Y73679635D01*
X90291134Y73695488D01*
X90290486Y73697151D01*
X90290993Y73711235D01*
X90299914Y73729971D01*
X90311505Y73756007D01*
X90315204Y73777175D01*
X90318654Y73797680D01*
X90324696Y73806911D01*
X90331954Y73820206D01*
X90333305Y73833988D01*
X90336324Y73854374D01*
X90345038Y73884640D01*
X90353652Y73908216D01*
X90365940Y73941578D01*
X90375061Y73971249D01*
X90378147Y73985332D01*
X90385462Y74024682D01*
X90395645Y74061303D01*
X90406685Y74088530D01*
X90411557Y74096135D01*
X90419253Y74113880D01*
X90418653Y74122370D01*
X90419701Y74138863D01*
X90428237Y74162073D01*
X90429034Y74163662D01*
X90440160Y74189788D01*
X90446096Y74211859D01*
X90452041Y74244463D01*
X90461384Y74278299D01*
X90471801Y74305783D01*
X90478288Y74316945D01*
X90484575Y74336401D01*
X90483001Y74345665D01*
X90483604Y74364437D01*
X90493245Y74386281D01*
X90503012Y74405248D01*
X90504041Y74416623D01*
X90503910Y74416765D01*
X90504515Y74427871D01*
X90513512Y74445626D01*
X90522876Y74467332D01*
X90523154Y74483413D01*
X90523226Y74502001D01*
X90530725Y74523602D01*
X90549066Y74564658D01*
X90561888Y74603854D01*
X90567046Y74634436D01*
X90567023Y74637928D01*
X90570146Y74657321D01*
X90575617Y74665006D01*
X90582668Y74678070D01*
X90585109Y74697077D01*
X90590783Y74725432D01*
X90600552Y74745328D01*
X90610051Y74763006D01*
X90610576Y74772794D01*
X90611042Y74783970D01*
X90619218Y74804408D01*
X90621238Y74808319D01*
X90633101Y74836306D01*
X90639402Y74862041D01*
X90639448Y74862524D01*
X90645909Y74909529D01*
X90656598Y74943593D01*
X90666289Y74961231D01*
X90675736Y74983600D01*
X90675825Y75001060D01*
X90676173Y75021411D01*
X90681256Y75030915D01*
X90688268Y75046987D01*
X90686943Y75054311D01*
X90687676Y75067986D01*
X90696955Y75089662D01*
X90699787Y75094550D01*
X90710900Y75117849D01*
X90714210Y75135667D01*
X90713724Y75137728D01*
X90714896Y75154461D01*
X90723104Y75172618D01*
X90732931Y75195662D01*
X90741411Y75227930D01*
X90744016Y75242939D01*
X90750716Y75275221D01*
X90759916Y75302033D01*
X90764340Y75310150D01*
X90775142Y75335360D01*
X90777899Y75354136D01*
X90783067Y75381275D01*
X90790938Y75397779D01*
X90801773Y75418779D01*
X90805001Y75431252D01*
X90809405Y75462300D01*
X90817401Y75496169D01*
X90826927Y75525334D01*
X90835239Y75541508D01*
X90842165Y75558138D01*
X90840554Y75566206D01*
X90840623Y75581045D01*
X90849364Y75600028D01*
X90860923Y75625248D01*
X90864718Y75645391D01*
X90870020Y75668457D01*
X90882813Y75694609D01*
X90883933Y75696338D01*
X90898012Y75729200D01*
X90903148Y75764079D01*
X90907034Y75795140D01*
X90916517Y75821531D01*
X90918638Y75824926D01*
X90928548Y75847804D01*
X90929183Y75865619D01*
X90928943Y75883289D01*
X90933035Y75889686D01*
X90939749Y75902479D01*
X90941770Y75918953D01*
X90947110Y75945084D01*
X90957289Y75966507D01*
X90966937Y75987917D01*
X90967656Y76003619D01*
X90968980Y76020676D01*
X90978480Y76039842D01*
X90989364Y76062220D01*
X90991620Y76079426D01*
X90993844Y76099748D01*
X91002605Y76122804D01*
X91018776Y76159635D01*
X91031370Y76198747D01*
X91037813Y76231751D01*
X91038164Y76238673D01*
X91042233Y76257839D01*
X91047804Y76265066D01*
X91054805Y76278125D01*
X91057443Y76298804D01*
X91060602Y76320945D01*
X91067475Y76332785D01*
X91073200Y76345786D01*
X91071677Y76357351D01*
X91072492Y76378659D01*
X91080925Y76397243D01*
X91092550Y76421647D01*
X91096001Y76440153D01*
X91100229Y76459936D01*
X91106422Y76467978D01*
X91112403Y76481172D01*
X91111206Y76496874D01*
X91110395Y76516386D01*
X91115245Y76525310D01*
X91122377Y76538439D01*
X91124920Y76558032D01*
X91127305Y76580223D01*
X91132149Y76592001D01*
X91138956Y76606675D01*
X91141569Y76620117D01*
X91144360Y76643407D01*
X91148417Y76673904D01*
X91149210Y76679563D01*
X91153553Y76714863D01*
X91156825Y76749173D01*
X91157023Y76751878D01*
X91161208Y76779089D01*
X91168154Y76799243D01*
X91168660Y76800075D01*
X91172934Y76816640D01*
X91175985Y76848360D01*
X91177855Y76891152D01*
X91178586Y76940934D01*
X91178220Y76993625D01*
X91176798Y77045140D01*
X91174363Y77091399D01*
X91170957Y77128318D01*
X91166621Y77151816D01*
X91165010Y77155898D01*
X91149327Y77193600D01*
X91135748Y77241776D01*
X91124883Y77295766D01*
X91121488Y77320588D01*
X91429780Y77320588D01*
X91430466Y77274455D01*
X91434385Y77234365D01*
X91440864Y77204139D01*
X91449231Y77187597D01*
X91453513Y77185635D01*
X91460404Y77177339D01*
X91466988Y77157311D01*
X91467138Y77156637D01*
X91477485Y77132607D01*
X91492003Y77117740D01*
X91506929Y77104473D01*
X91510498Y77095002D01*
X91517939Y77082368D01*
X91536731Y77065352D01*
X91547375Y77057759D01*
X91569931Y77043908D01*
X91587568Y77038394D01*
X91608544Y77040151D01*
X91634792Y77046466D01*
X91669099Y77053032D01*
X91700290Y77055178D01*
X91712709Y77054100D01*
X91730722Y77052749D01*
X91743958Y77060185D01*
X91758081Y77080268D01*
X91762654Y77088138D01*
X91777996Y77111499D01*
X91791184Y77125719D01*
X91795534Y77127724D01*
X91808434Y77134443D01*
X91825693Y77150641D01*
X91826799Y77151897D01*
X91843763Y77168463D01*
X91856496Y77175958D01*
X91857049Y77175996D01*
X91867934Y77184014D01*
X91882462Y77204142D01*
X91897364Y77230496D01*
X91909370Y77257188D01*
X91915211Y77278332D01*
X91915356Y77280979D01*
X91920646Y77302075D01*
X91933878Y77329008D01*
X91939455Y77337796D01*
X91953441Y77359547D01*
X91960740Y77377270D01*
X91961768Y77396788D01*
X91956943Y77423928D01*
X91948127Y77458969D01*
X91939475Y77497074D01*
X91933265Y77533530D01*
X91931258Y77553696D01*
X91926713Y77580415D01*
X91912332Y77599778D01*
X91896740Y77611533D01*
X91873232Y77632903D01*
X91857809Y77656966D01*
X91856360Y77661296D01*
X91841189Y77691573D01*
X91817546Y77708330D01*
X91792453Y77709375D01*
X91775830Y77708816D01*
X91770764Y77713818D01*
X91762411Y77717367D01*
X91739371Y77713597D01*
X91724977Y77709574D01*
X91693432Y77702027D01*
X91666208Y77698995D01*
X91657562Y77699530D01*
X91635933Y77697431D01*
X91625053Y77690359D01*
X91609993Y77678944D01*
X91603212Y77677248D01*
X91590038Y77669908D01*
X91580212Y77657969D01*
X91565920Y77642820D01*
X91555569Y77638690D01*
X91543899Y77630905D01*
X91528426Y77611113D01*
X91520332Y77597723D01*
X91499767Y77562982D01*
X91476269Y77526639D01*
X91469866Y77517375D01*
X91454604Y77492157D01*
X91443798Y77464063D01*
X91436616Y77429017D01*
X91432230Y77382944D01*
X91429809Y77321768D01*
X91429780Y77320588D01*
X91121488Y77320588D01*
X91117341Y77350910D01*
X91113731Y77402551D01*
X91114665Y77446027D01*
X91120750Y77476679D01*
X91122525Y77480641D01*
X91128365Y77501024D01*
X91127531Y77511276D01*
X91129168Y77527685D01*
X91138473Y77547085D01*
X91149946Y77570941D01*
X91153838Y77589385D01*
X91158720Y77609251D01*
X91171218Y77636566D01*
X91188112Y77666073D01*
X91206182Y77692516D01*
X91222209Y77710638D01*
X91231172Y77715616D01*
X91244775Y77723555D01*
X91260249Y77743030D01*
X91263909Y77749342D01*
X91279975Y77772519D01*
X91296741Y77787205D01*
X91299849Y77788553D01*
X91319026Y77801441D01*
X91327698Y77812854D01*
X91341529Y77827873D01*
X91351786Y77831480D01*
X91364395Y77836793D01*
X91365906Y77841119D01*
X91373980Y77848951D01*
X91385185Y77850759D01*
X91400858Y77854189D01*
X91404464Y77858936D01*
X91412877Y77868289D01*
X91434026Y77879303D01*
X91461777Y77889690D01*
X91489997Y77897162D01*
X91512553Y77899428D01*
X91512908Y77899405D01*
X91532565Y77901091D01*
X91539186Y77912532D01*
X91539417Y77917509D01*
X91545275Y77933778D01*
X91553876Y77937514D01*
X91566664Y77930143D01*
G37*
%TO.C,C2*%
X49865000Y59822646D02*
X49865000Y58822646D01*
X50365000Y59322646D02*
X49365000Y59322646D01*
X52070000Y54343000D02*
X41910000Y54343000D01*
X52070000Y54303000D02*
X41910000Y54303000D01*
X52070000Y54263000D02*
X41910000Y54263000D01*
X52069000Y54223000D02*
X41911000Y54223000D01*
X52068000Y54183000D02*
X41912000Y54183000D01*
X52067000Y54143000D02*
X41913000Y54143000D01*
X52065000Y54103000D02*
X41915000Y54103000D01*
X52063000Y54063000D02*
X41917000Y54063000D01*
X52060000Y54023000D02*
X41920000Y54023000D01*
X52058000Y53983000D02*
X41922000Y53983000D01*
X52055000Y53943000D02*
X41925000Y53943000D01*
X52052000Y53903000D02*
X41928000Y53903000D01*
X52048000Y53863000D02*
X41932000Y53863000D01*
X52044000Y53823000D02*
X41936000Y53823000D01*
X52040000Y53783000D02*
X41940000Y53783000D01*
X52035000Y53743000D02*
X41945000Y53743000D01*
X52030000Y53703000D02*
X41950000Y53703000D01*
X52025000Y53663000D02*
X41955000Y53663000D01*
X52020000Y53622000D02*
X41960000Y53622000D01*
X52014000Y53582000D02*
X41966000Y53582000D01*
X52008000Y53542000D02*
X41972000Y53542000D01*
X52001000Y53502000D02*
X41979000Y53502000D01*
X51994000Y53462000D02*
X41986000Y53462000D01*
X51987000Y53422000D02*
X41993000Y53422000D01*
X51980000Y53382000D02*
X42000000Y53382000D01*
X51972000Y53342000D02*
X42008000Y53342000D01*
X51964000Y53302000D02*
X42016000Y53302000D01*
X51955000Y53262000D02*
X42025000Y53262000D01*
X51946000Y53222000D02*
X42034000Y53222000D01*
X51937000Y53182000D02*
X42043000Y53182000D01*
X51928000Y53142000D02*
X42052000Y53142000D01*
X51918000Y53102000D02*
X42062000Y53102000D01*
X51908000Y53062000D02*
X48231000Y53062000D01*
X45749000Y53062000D02*
X42072000Y53062000D01*
X51897000Y53022000D02*
X48231000Y53022000D01*
X45749000Y53022000D02*
X42083000Y53022000D01*
X51887000Y52982000D02*
X48231000Y52982000D01*
X45749000Y52982000D02*
X42093000Y52982000D01*
X51875000Y52942000D02*
X48231000Y52942000D01*
X45749000Y52942000D02*
X42105000Y52942000D01*
X51864000Y52902000D02*
X48231000Y52902000D01*
X45749000Y52902000D02*
X42116000Y52902000D01*
X51852000Y52862000D02*
X48231000Y52862000D01*
X45749000Y52862000D02*
X42128000Y52862000D01*
X51840000Y52822000D02*
X48231000Y52822000D01*
X45749000Y52822000D02*
X42140000Y52822000D01*
X51827000Y52782000D02*
X48231000Y52782000D01*
X45749000Y52782000D02*
X42153000Y52782000D01*
X51814000Y52742000D02*
X48231000Y52742000D01*
X45749000Y52742000D02*
X42166000Y52742000D01*
X51801000Y52702000D02*
X48231000Y52702000D01*
X45749000Y52702000D02*
X42179000Y52702000D01*
X51787000Y52662000D02*
X48231000Y52662000D01*
X45749000Y52662000D02*
X42193000Y52662000D01*
X51773000Y52622000D02*
X48231000Y52622000D01*
X45749000Y52622000D02*
X42207000Y52622000D01*
X51758000Y52582000D02*
X48231000Y52582000D01*
X45749000Y52582000D02*
X42222000Y52582000D01*
X51744000Y52542000D02*
X48231000Y52542000D01*
X45749000Y52542000D02*
X42236000Y52542000D01*
X51728000Y52502000D02*
X48231000Y52502000D01*
X45749000Y52502000D02*
X42252000Y52502000D01*
X51713000Y52462000D02*
X48231000Y52462000D01*
X45749000Y52462000D02*
X42267000Y52462000D01*
X51697000Y52422000D02*
X48231000Y52422000D01*
X45749000Y52422000D02*
X42283000Y52422000D01*
X51680000Y52382000D02*
X48231000Y52382000D01*
X45749000Y52382000D02*
X42300000Y52382000D01*
X51664000Y52342000D02*
X48231000Y52342000D01*
X45749000Y52342000D02*
X42316000Y52342000D01*
X51647000Y52302000D02*
X48231000Y52302000D01*
X45749000Y52302000D02*
X42333000Y52302000D01*
X51629000Y52262000D02*
X48231000Y52262000D01*
X45749000Y52262000D02*
X42351000Y52262000D01*
X51611000Y52222000D02*
X48231000Y52222000D01*
X45749000Y52222000D02*
X42369000Y52222000D01*
X51593000Y52182000D02*
X48231000Y52182000D01*
X45749000Y52182000D02*
X42387000Y52182000D01*
X51574000Y52142000D02*
X48231000Y52142000D01*
X45749000Y52142000D02*
X42406000Y52142000D01*
X51554000Y52102000D02*
X48231000Y52102000D01*
X45749000Y52102000D02*
X42426000Y52102000D01*
X51535000Y52062000D02*
X48231000Y52062000D01*
X45749000Y52062000D02*
X42445000Y52062000D01*
X51515000Y52022000D02*
X48231000Y52022000D01*
X45749000Y52022000D02*
X42465000Y52022000D01*
X51494000Y51982000D02*
X48231000Y51982000D01*
X45749000Y51982000D02*
X42486000Y51982000D01*
X51473000Y51942000D02*
X48231000Y51942000D01*
X45749000Y51942000D02*
X42507000Y51942000D01*
X51452000Y51902000D02*
X48231000Y51902000D01*
X45749000Y51902000D02*
X42528000Y51902000D01*
X51430000Y51862000D02*
X48231000Y51862000D01*
X45749000Y51862000D02*
X42550000Y51862000D01*
X51407000Y51822000D02*
X48231000Y51822000D01*
X45749000Y51822000D02*
X42573000Y51822000D01*
X51385000Y51782000D02*
X48231000Y51782000D01*
X45749000Y51782000D02*
X42595000Y51782000D01*
X51361000Y51742000D02*
X48231000Y51742000D01*
X45749000Y51742000D02*
X42619000Y51742000D01*
X51337000Y51702000D02*
X48231000Y51702000D01*
X45749000Y51702000D02*
X42643000Y51702000D01*
X51313000Y51662000D02*
X48231000Y51662000D01*
X45749000Y51662000D02*
X42667000Y51662000D01*
X51288000Y51622000D02*
X48231000Y51622000D01*
X45749000Y51622000D02*
X42692000Y51622000D01*
X51263000Y51582000D02*
X48231000Y51582000D01*
X45749000Y51582000D02*
X42717000Y51582000D01*
X51237000Y51542000D02*
X48231000Y51542000D01*
X45749000Y51542000D02*
X42743000Y51542000D01*
X51211000Y51502000D02*
X48231000Y51502000D01*
X45749000Y51502000D02*
X42769000Y51502000D01*
X51184000Y51462000D02*
X48231000Y51462000D01*
X45749000Y51462000D02*
X42796000Y51462000D01*
X51156000Y51422000D02*
X48231000Y51422000D01*
X45749000Y51422000D02*
X42824000Y51422000D01*
X51128000Y51382000D02*
X48231000Y51382000D01*
X45749000Y51382000D02*
X42852000Y51382000D01*
X51100000Y51342000D02*
X48231000Y51342000D01*
X45749000Y51342000D02*
X42880000Y51342000D01*
X51070000Y51302000D02*
X48231000Y51302000D01*
X45749000Y51302000D02*
X42910000Y51302000D01*
X51040000Y51262000D02*
X48231000Y51262000D01*
X45749000Y51262000D02*
X42940000Y51262000D01*
X51010000Y51222000D02*
X48231000Y51222000D01*
X45749000Y51222000D02*
X42970000Y51222000D01*
X50979000Y51182000D02*
X48231000Y51182000D01*
X45749000Y51182000D02*
X43001000Y51182000D01*
X50947000Y51142000D02*
X48231000Y51142000D01*
X45749000Y51142000D02*
X43033000Y51142000D01*
X50915000Y51102000D02*
X48231000Y51102000D01*
X45749000Y51102000D02*
X43065000Y51102000D01*
X50882000Y51062000D02*
X48231000Y51062000D01*
X45749000Y51062000D02*
X43098000Y51062000D01*
X50848000Y51022000D02*
X48231000Y51022000D01*
X45749000Y51022000D02*
X43132000Y51022000D01*
X50814000Y50982000D02*
X48231000Y50982000D01*
X45749000Y50982000D02*
X43166000Y50982000D01*
X50779000Y50942000D02*
X48231000Y50942000D01*
X45749000Y50942000D02*
X43201000Y50942000D01*
X50743000Y50902000D02*
X48231000Y50902000D01*
X45749000Y50902000D02*
X43237000Y50902000D01*
X50706000Y50862000D02*
X48231000Y50862000D01*
X45749000Y50862000D02*
X43274000Y50862000D01*
X50669000Y50822000D02*
X48231000Y50822000D01*
X45749000Y50822000D02*
X43311000Y50822000D01*
X50630000Y50782000D02*
X48231000Y50782000D01*
X45749000Y50782000D02*
X43350000Y50782000D01*
X50591000Y50742000D02*
X48231000Y50742000D01*
X45749000Y50742000D02*
X43389000Y50742000D01*
X50551000Y50702000D02*
X48231000Y50702000D01*
X45749000Y50702000D02*
X43429000Y50702000D01*
X50510000Y50662000D02*
X48231000Y50662000D01*
X45749000Y50662000D02*
X43470000Y50662000D01*
X50468000Y50622000D02*
X48231000Y50622000D01*
X45749000Y50622000D02*
X43512000Y50622000D01*
X50426000Y50582000D02*
X43554000Y50582000D01*
X50382000Y50542000D02*
X43598000Y50542000D01*
X50337000Y50502000D02*
X43643000Y50502000D01*
X50291000Y50462000D02*
X43689000Y50462000D01*
X50244000Y50422000D02*
X43736000Y50422000D01*
X50196000Y50382000D02*
X43784000Y50382000D01*
X50146000Y50342000D02*
X43834000Y50342000D01*
X50096000Y50302000D02*
X43884000Y50302000D01*
X50044000Y50262000D02*
X43936000Y50262000D01*
X49990000Y50222000D02*
X43990000Y50222000D01*
X49935000Y50182000D02*
X44045000Y50182000D01*
X49879000Y50142000D02*
X44101000Y50142000D01*
X49820000Y50102000D02*
X44160000Y50102000D01*
X49760000Y50062000D02*
X44220000Y50062000D01*
X49699000Y50022000D02*
X44281000Y50022000D01*
X49635000Y49982000D02*
X44345000Y49982000D01*
X49569000Y49942000D02*
X44411000Y49942000D01*
X49500000Y49902000D02*
X44480000Y49902000D01*
X49429000Y49862000D02*
X44551000Y49862000D01*
X49355000Y49822000D02*
X44625000Y49822000D01*
X49279000Y49782000D02*
X44701000Y49782000D01*
X49199000Y49742000D02*
X44781000Y49742000D01*
X49115000Y49702000D02*
X44865000Y49702000D01*
X49027000Y49662000D02*
X44953000Y49662000D01*
X48934000Y49622000D02*
X45046000Y49622000D01*
X48836000Y49582000D02*
X45144000Y49582000D01*
X48732000Y49542000D02*
X45248000Y49542000D01*
X48620000Y49502000D02*
X45360000Y49502000D01*
X48500000Y49462000D02*
X45480000Y49462000D01*
X48368000Y49422000D02*
X45612000Y49422000D01*
X48220000Y49382000D02*
X45760000Y49382000D01*
X48052000Y49342000D02*
X45928000Y49342000D01*
X47852000Y49302000D02*
X46128000Y49302000D01*
X47589000Y49262000D02*
X46391000Y49262000D01*
X52110000Y54343000D02*
G75*
G03*
X52110000Y54343000I-5120000J0D01*
G01*
%TO.C,C3*%
X49865000Y85222646D02*
X49865000Y84222646D01*
X50365000Y84722646D02*
X49365000Y84722646D01*
X52070000Y79743000D02*
X41910000Y79743000D01*
X52070000Y79703000D02*
X41910000Y79703000D01*
X52070000Y79663000D02*
X41910000Y79663000D01*
X52069000Y79623000D02*
X41911000Y79623000D01*
X52068000Y79583000D02*
X41912000Y79583000D01*
X52067000Y79543000D02*
X41913000Y79543000D01*
X52065000Y79503000D02*
X41915000Y79503000D01*
X52063000Y79463000D02*
X41917000Y79463000D01*
X52060000Y79423000D02*
X41920000Y79423000D01*
X52058000Y79383000D02*
X41922000Y79383000D01*
X52055000Y79343000D02*
X41925000Y79343000D01*
X52052000Y79303000D02*
X41928000Y79303000D01*
X52048000Y79263000D02*
X41932000Y79263000D01*
X52044000Y79223000D02*
X41936000Y79223000D01*
X52040000Y79183000D02*
X41940000Y79183000D01*
X52035000Y79143000D02*
X41945000Y79143000D01*
X52030000Y79103000D02*
X41950000Y79103000D01*
X52025000Y79063000D02*
X41955000Y79063000D01*
X52020000Y79022000D02*
X41960000Y79022000D01*
X52014000Y78982000D02*
X41966000Y78982000D01*
X52008000Y78942000D02*
X41972000Y78942000D01*
X52001000Y78902000D02*
X41979000Y78902000D01*
X51994000Y78862000D02*
X41986000Y78862000D01*
X51987000Y78822000D02*
X41993000Y78822000D01*
X51980000Y78782000D02*
X42000000Y78782000D01*
X51972000Y78742000D02*
X42008000Y78742000D01*
X51964000Y78702000D02*
X42016000Y78702000D01*
X51955000Y78662000D02*
X42025000Y78662000D01*
X51946000Y78622000D02*
X42034000Y78622000D01*
X51937000Y78582000D02*
X42043000Y78582000D01*
X51928000Y78542000D02*
X42052000Y78542000D01*
X51918000Y78502000D02*
X42062000Y78502000D01*
X51908000Y78462000D02*
X48231000Y78462000D01*
X45749000Y78462000D02*
X42072000Y78462000D01*
X51897000Y78422000D02*
X48231000Y78422000D01*
X45749000Y78422000D02*
X42083000Y78422000D01*
X51887000Y78382000D02*
X48231000Y78382000D01*
X45749000Y78382000D02*
X42093000Y78382000D01*
X51875000Y78342000D02*
X48231000Y78342000D01*
X45749000Y78342000D02*
X42105000Y78342000D01*
X51864000Y78302000D02*
X48231000Y78302000D01*
X45749000Y78302000D02*
X42116000Y78302000D01*
X51852000Y78262000D02*
X48231000Y78262000D01*
X45749000Y78262000D02*
X42128000Y78262000D01*
X51840000Y78222000D02*
X48231000Y78222000D01*
X45749000Y78222000D02*
X42140000Y78222000D01*
X51827000Y78182000D02*
X48231000Y78182000D01*
X45749000Y78182000D02*
X42153000Y78182000D01*
X51814000Y78142000D02*
X48231000Y78142000D01*
X45749000Y78142000D02*
X42166000Y78142000D01*
X51801000Y78102000D02*
X48231000Y78102000D01*
X45749000Y78102000D02*
X42179000Y78102000D01*
X51787000Y78062000D02*
X48231000Y78062000D01*
X45749000Y78062000D02*
X42193000Y78062000D01*
X51773000Y78022000D02*
X48231000Y78022000D01*
X45749000Y78022000D02*
X42207000Y78022000D01*
X51758000Y77982000D02*
X48231000Y77982000D01*
X45749000Y77982000D02*
X42222000Y77982000D01*
X51744000Y77942000D02*
X48231000Y77942000D01*
X45749000Y77942000D02*
X42236000Y77942000D01*
X51728000Y77902000D02*
X48231000Y77902000D01*
X45749000Y77902000D02*
X42252000Y77902000D01*
X51713000Y77862000D02*
X48231000Y77862000D01*
X45749000Y77862000D02*
X42267000Y77862000D01*
X51697000Y77822000D02*
X48231000Y77822000D01*
X45749000Y77822000D02*
X42283000Y77822000D01*
X51680000Y77782000D02*
X48231000Y77782000D01*
X45749000Y77782000D02*
X42300000Y77782000D01*
X51664000Y77742000D02*
X48231000Y77742000D01*
X45749000Y77742000D02*
X42316000Y77742000D01*
X51647000Y77702000D02*
X48231000Y77702000D01*
X45749000Y77702000D02*
X42333000Y77702000D01*
X51629000Y77662000D02*
X48231000Y77662000D01*
X45749000Y77662000D02*
X42351000Y77662000D01*
X51611000Y77622000D02*
X48231000Y77622000D01*
X45749000Y77622000D02*
X42369000Y77622000D01*
X51593000Y77582000D02*
X48231000Y77582000D01*
X45749000Y77582000D02*
X42387000Y77582000D01*
X51574000Y77542000D02*
X48231000Y77542000D01*
X45749000Y77542000D02*
X42406000Y77542000D01*
X51554000Y77502000D02*
X48231000Y77502000D01*
X45749000Y77502000D02*
X42426000Y77502000D01*
X51535000Y77462000D02*
X48231000Y77462000D01*
X45749000Y77462000D02*
X42445000Y77462000D01*
X51515000Y77422000D02*
X48231000Y77422000D01*
X45749000Y77422000D02*
X42465000Y77422000D01*
X51494000Y77382000D02*
X48231000Y77382000D01*
X45749000Y77382000D02*
X42486000Y77382000D01*
X51473000Y77342000D02*
X48231000Y77342000D01*
X45749000Y77342000D02*
X42507000Y77342000D01*
X51452000Y77302000D02*
X48231000Y77302000D01*
X45749000Y77302000D02*
X42528000Y77302000D01*
X51430000Y77262000D02*
X48231000Y77262000D01*
X45749000Y77262000D02*
X42550000Y77262000D01*
X51407000Y77222000D02*
X48231000Y77222000D01*
X45749000Y77222000D02*
X42573000Y77222000D01*
X51385000Y77182000D02*
X48231000Y77182000D01*
X45749000Y77182000D02*
X42595000Y77182000D01*
X51361000Y77142000D02*
X48231000Y77142000D01*
X45749000Y77142000D02*
X42619000Y77142000D01*
X51337000Y77102000D02*
X48231000Y77102000D01*
X45749000Y77102000D02*
X42643000Y77102000D01*
X51313000Y77062000D02*
X48231000Y77062000D01*
X45749000Y77062000D02*
X42667000Y77062000D01*
X51288000Y77022000D02*
X48231000Y77022000D01*
X45749000Y77022000D02*
X42692000Y77022000D01*
X51263000Y76982000D02*
X48231000Y76982000D01*
X45749000Y76982000D02*
X42717000Y76982000D01*
X51237000Y76942000D02*
X48231000Y76942000D01*
X45749000Y76942000D02*
X42743000Y76942000D01*
X51211000Y76902000D02*
X48231000Y76902000D01*
X45749000Y76902000D02*
X42769000Y76902000D01*
X51184000Y76862000D02*
X48231000Y76862000D01*
X45749000Y76862000D02*
X42796000Y76862000D01*
X51156000Y76822000D02*
X48231000Y76822000D01*
X45749000Y76822000D02*
X42824000Y76822000D01*
X51128000Y76782000D02*
X48231000Y76782000D01*
X45749000Y76782000D02*
X42852000Y76782000D01*
X51100000Y76742000D02*
X48231000Y76742000D01*
X45749000Y76742000D02*
X42880000Y76742000D01*
X51070000Y76702000D02*
X48231000Y76702000D01*
X45749000Y76702000D02*
X42910000Y76702000D01*
X51040000Y76662000D02*
X48231000Y76662000D01*
X45749000Y76662000D02*
X42940000Y76662000D01*
X51010000Y76622000D02*
X48231000Y76622000D01*
X45749000Y76622000D02*
X42970000Y76622000D01*
X50979000Y76582000D02*
X48231000Y76582000D01*
X45749000Y76582000D02*
X43001000Y76582000D01*
X50947000Y76542000D02*
X48231000Y76542000D01*
X45749000Y76542000D02*
X43033000Y76542000D01*
X50915000Y76502000D02*
X48231000Y76502000D01*
X45749000Y76502000D02*
X43065000Y76502000D01*
X50882000Y76462000D02*
X48231000Y76462000D01*
X45749000Y76462000D02*
X43098000Y76462000D01*
X50848000Y76422000D02*
X48231000Y76422000D01*
X45749000Y76422000D02*
X43132000Y76422000D01*
X50814000Y76382000D02*
X48231000Y76382000D01*
X45749000Y76382000D02*
X43166000Y76382000D01*
X50779000Y76342000D02*
X48231000Y76342000D01*
X45749000Y76342000D02*
X43201000Y76342000D01*
X50743000Y76302000D02*
X48231000Y76302000D01*
X45749000Y76302000D02*
X43237000Y76302000D01*
X50706000Y76262000D02*
X48231000Y76262000D01*
X45749000Y76262000D02*
X43274000Y76262000D01*
X50669000Y76222000D02*
X48231000Y76222000D01*
X45749000Y76222000D02*
X43311000Y76222000D01*
X50630000Y76182000D02*
X48231000Y76182000D01*
X45749000Y76182000D02*
X43350000Y76182000D01*
X50591000Y76142000D02*
X48231000Y76142000D01*
X45749000Y76142000D02*
X43389000Y76142000D01*
X50551000Y76102000D02*
X48231000Y76102000D01*
X45749000Y76102000D02*
X43429000Y76102000D01*
X50510000Y76062000D02*
X48231000Y76062000D01*
X45749000Y76062000D02*
X43470000Y76062000D01*
X50468000Y76022000D02*
X48231000Y76022000D01*
X45749000Y76022000D02*
X43512000Y76022000D01*
X50426000Y75982000D02*
X43554000Y75982000D01*
X50382000Y75942000D02*
X43598000Y75942000D01*
X50337000Y75902000D02*
X43643000Y75902000D01*
X50291000Y75862000D02*
X43689000Y75862000D01*
X50244000Y75822000D02*
X43736000Y75822000D01*
X50196000Y75782000D02*
X43784000Y75782000D01*
X50146000Y75742000D02*
X43834000Y75742000D01*
X50096000Y75702000D02*
X43884000Y75702000D01*
X50044000Y75662000D02*
X43936000Y75662000D01*
X49990000Y75622000D02*
X43990000Y75622000D01*
X49935000Y75582000D02*
X44045000Y75582000D01*
X49879000Y75542000D02*
X44101000Y75542000D01*
X49820000Y75502000D02*
X44160000Y75502000D01*
X49760000Y75462000D02*
X44220000Y75462000D01*
X49699000Y75422000D02*
X44281000Y75422000D01*
X49635000Y75382000D02*
X44345000Y75382000D01*
X49569000Y75342000D02*
X44411000Y75342000D01*
X49500000Y75302000D02*
X44480000Y75302000D01*
X49429000Y75262000D02*
X44551000Y75262000D01*
X49355000Y75222000D02*
X44625000Y75222000D01*
X49279000Y75182000D02*
X44701000Y75182000D01*
X49199000Y75142000D02*
X44781000Y75142000D01*
X49115000Y75102000D02*
X44865000Y75102000D01*
X49027000Y75062000D02*
X44953000Y75062000D01*
X48934000Y75022000D02*
X45046000Y75022000D01*
X48836000Y74982000D02*
X45144000Y74982000D01*
X48732000Y74942000D02*
X45248000Y74942000D01*
X48620000Y74902000D02*
X45360000Y74902000D01*
X48500000Y74862000D02*
X45480000Y74862000D01*
X48368000Y74822000D02*
X45612000Y74822000D01*
X48220000Y74782000D02*
X45760000Y74782000D01*
X48052000Y74742000D02*
X45928000Y74742000D01*
X47852000Y74702000D02*
X46128000Y74702000D01*
X47589000Y74662000D02*
X46391000Y74662000D01*
X52110000Y79743000D02*
G75*
G03*
X52110000Y79743000I-5120000J0D01*
G01*
%TO.C,Motor3_MD*%
X8830000Y64575323D02*
X72450000Y64575323D01*
X8830000Y64575323D02*
X8830000Y67175323D01*
X72450000Y64575323D02*
X72450000Y69775323D01*
X8830000Y67175323D02*
X11430000Y67175323D01*
X11430000Y67175323D02*
X11430000Y69775323D01*
X8830000Y68445323D02*
X8830000Y69775323D01*
X8830000Y69775323D02*
X10160000Y69775323D01*
X11430000Y69775323D02*
X72450000Y69775323D01*
%TO.C,C1*%
X49865000Y34422646D02*
X49865000Y33422646D01*
X50365000Y33922646D02*
X49365000Y33922646D01*
X52070000Y28943000D02*
X41910000Y28943000D01*
X52070000Y28903000D02*
X41910000Y28903000D01*
X52070000Y28863000D02*
X41910000Y28863000D01*
X52069000Y28823000D02*
X41911000Y28823000D01*
X52068000Y28783000D02*
X41912000Y28783000D01*
X52067000Y28743000D02*
X41913000Y28743000D01*
X52065000Y28703000D02*
X41915000Y28703000D01*
X52063000Y28663000D02*
X41917000Y28663000D01*
X52060000Y28623000D02*
X41920000Y28623000D01*
X52058000Y28583000D02*
X41922000Y28583000D01*
X52055000Y28543000D02*
X41925000Y28543000D01*
X52052000Y28503000D02*
X41928000Y28503000D01*
X52048000Y28463000D02*
X41932000Y28463000D01*
X52044000Y28423000D02*
X41936000Y28423000D01*
X52040000Y28383000D02*
X41940000Y28383000D01*
X52035000Y28343000D02*
X41945000Y28343000D01*
X52030000Y28303000D02*
X41950000Y28303000D01*
X52025000Y28263000D02*
X41955000Y28263000D01*
X52020000Y28222000D02*
X41960000Y28222000D01*
X52014000Y28182000D02*
X41966000Y28182000D01*
X52008000Y28142000D02*
X41972000Y28142000D01*
X52001000Y28102000D02*
X41979000Y28102000D01*
X51994000Y28062000D02*
X41986000Y28062000D01*
X51987000Y28022000D02*
X41993000Y28022000D01*
X51980000Y27982000D02*
X42000000Y27982000D01*
X51972000Y27942000D02*
X42008000Y27942000D01*
X51964000Y27902000D02*
X42016000Y27902000D01*
X51955000Y27862000D02*
X42025000Y27862000D01*
X51946000Y27822000D02*
X42034000Y27822000D01*
X51937000Y27782000D02*
X42043000Y27782000D01*
X51928000Y27742000D02*
X42052000Y27742000D01*
X51918000Y27702000D02*
X42062000Y27702000D01*
X51908000Y27662000D02*
X48231000Y27662000D01*
X45749000Y27662000D02*
X42072000Y27662000D01*
X51897000Y27622000D02*
X48231000Y27622000D01*
X45749000Y27622000D02*
X42083000Y27622000D01*
X51887000Y27582000D02*
X48231000Y27582000D01*
X45749000Y27582000D02*
X42093000Y27582000D01*
X51875000Y27542000D02*
X48231000Y27542000D01*
X45749000Y27542000D02*
X42105000Y27542000D01*
X51864000Y27502000D02*
X48231000Y27502000D01*
X45749000Y27502000D02*
X42116000Y27502000D01*
X51852000Y27462000D02*
X48231000Y27462000D01*
X45749000Y27462000D02*
X42128000Y27462000D01*
X51840000Y27422000D02*
X48231000Y27422000D01*
X45749000Y27422000D02*
X42140000Y27422000D01*
X51827000Y27382000D02*
X48231000Y27382000D01*
X45749000Y27382000D02*
X42153000Y27382000D01*
X51814000Y27342000D02*
X48231000Y27342000D01*
X45749000Y27342000D02*
X42166000Y27342000D01*
X51801000Y27302000D02*
X48231000Y27302000D01*
X45749000Y27302000D02*
X42179000Y27302000D01*
X51787000Y27262000D02*
X48231000Y27262000D01*
X45749000Y27262000D02*
X42193000Y27262000D01*
X51773000Y27222000D02*
X48231000Y27222000D01*
X45749000Y27222000D02*
X42207000Y27222000D01*
X51758000Y27182000D02*
X48231000Y27182000D01*
X45749000Y27182000D02*
X42222000Y27182000D01*
X51744000Y27142000D02*
X48231000Y27142000D01*
X45749000Y27142000D02*
X42236000Y27142000D01*
X51728000Y27102000D02*
X48231000Y27102000D01*
X45749000Y27102000D02*
X42252000Y27102000D01*
X51713000Y27062000D02*
X48231000Y27062000D01*
X45749000Y27062000D02*
X42267000Y27062000D01*
X51697000Y27022000D02*
X48231000Y27022000D01*
X45749000Y27022000D02*
X42283000Y27022000D01*
X51680000Y26982000D02*
X48231000Y26982000D01*
X45749000Y26982000D02*
X42300000Y26982000D01*
X51664000Y26942000D02*
X48231000Y26942000D01*
X45749000Y26942000D02*
X42316000Y26942000D01*
X51647000Y26902000D02*
X48231000Y26902000D01*
X45749000Y26902000D02*
X42333000Y26902000D01*
X51629000Y26862000D02*
X48231000Y26862000D01*
X45749000Y26862000D02*
X42351000Y26862000D01*
X51611000Y26822000D02*
X48231000Y26822000D01*
X45749000Y26822000D02*
X42369000Y26822000D01*
X51593000Y26782000D02*
X48231000Y26782000D01*
X45749000Y26782000D02*
X42387000Y26782000D01*
X51574000Y26742000D02*
X48231000Y26742000D01*
X45749000Y26742000D02*
X42406000Y26742000D01*
X51554000Y26702000D02*
X48231000Y26702000D01*
X45749000Y26702000D02*
X42426000Y26702000D01*
X51535000Y26662000D02*
X48231000Y26662000D01*
X45749000Y26662000D02*
X42445000Y26662000D01*
X51515000Y26622000D02*
X48231000Y26622000D01*
X45749000Y26622000D02*
X42465000Y26622000D01*
X51494000Y26582000D02*
X48231000Y26582000D01*
X45749000Y26582000D02*
X42486000Y26582000D01*
X51473000Y26542000D02*
X48231000Y26542000D01*
X45749000Y26542000D02*
X42507000Y26542000D01*
X51452000Y26502000D02*
X48231000Y26502000D01*
X45749000Y26502000D02*
X42528000Y26502000D01*
X51430000Y26462000D02*
X48231000Y26462000D01*
X45749000Y26462000D02*
X42550000Y26462000D01*
X51407000Y26422000D02*
X48231000Y26422000D01*
X45749000Y26422000D02*
X42573000Y26422000D01*
X51385000Y26382000D02*
X48231000Y26382000D01*
X45749000Y26382000D02*
X42595000Y26382000D01*
X51361000Y26342000D02*
X48231000Y26342000D01*
X45749000Y26342000D02*
X42619000Y26342000D01*
X51337000Y26302000D02*
X48231000Y26302000D01*
X45749000Y26302000D02*
X42643000Y26302000D01*
X51313000Y26262000D02*
X48231000Y26262000D01*
X45749000Y26262000D02*
X42667000Y26262000D01*
X51288000Y26222000D02*
X48231000Y26222000D01*
X45749000Y26222000D02*
X42692000Y26222000D01*
X51263000Y26182000D02*
X48231000Y26182000D01*
X45749000Y26182000D02*
X42717000Y26182000D01*
X51237000Y26142000D02*
X48231000Y26142000D01*
X45749000Y26142000D02*
X42743000Y26142000D01*
X51211000Y26102000D02*
X48231000Y26102000D01*
X45749000Y26102000D02*
X42769000Y26102000D01*
X51184000Y26062000D02*
X48231000Y26062000D01*
X45749000Y26062000D02*
X42796000Y26062000D01*
X51156000Y26022000D02*
X48231000Y26022000D01*
X45749000Y26022000D02*
X42824000Y26022000D01*
X51128000Y25982000D02*
X48231000Y25982000D01*
X45749000Y25982000D02*
X42852000Y25982000D01*
X51100000Y25942000D02*
X48231000Y25942000D01*
X45749000Y25942000D02*
X42880000Y25942000D01*
X51070000Y25902000D02*
X48231000Y25902000D01*
X45749000Y25902000D02*
X42910000Y25902000D01*
X51040000Y25862000D02*
X48231000Y25862000D01*
X45749000Y25862000D02*
X42940000Y25862000D01*
X51010000Y25822000D02*
X48231000Y25822000D01*
X45749000Y25822000D02*
X42970000Y25822000D01*
X50979000Y25782000D02*
X48231000Y25782000D01*
X45749000Y25782000D02*
X43001000Y25782000D01*
X50947000Y25742000D02*
X48231000Y25742000D01*
X45749000Y25742000D02*
X43033000Y25742000D01*
X50915000Y25702000D02*
X48231000Y25702000D01*
X45749000Y25702000D02*
X43065000Y25702000D01*
X50882000Y25662000D02*
X48231000Y25662000D01*
X45749000Y25662000D02*
X43098000Y25662000D01*
X50848000Y25622000D02*
X48231000Y25622000D01*
X45749000Y25622000D02*
X43132000Y25622000D01*
X50814000Y25582000D02*
X48231000Y25582000D01*
X45749000Y25582000D02*
X43166000Y25582000D01*
X50779000Y25542000D02*
X48231000Y25542000D01*
X45749000Y25542000D02*
X43201000Y25542000D01*
X50743000Y25502000D02*
X48231000Y25502000D01*
X45749000Y25502000D02*
X43237000Y25502000D01*
X50706000Y25462000D02*
X48231000Y25462000D01*
X45749000Y25462000D02*
X43274000Y25462000D01*
X50669000Y25422000D02*
X48231000Y25422000D01*
X45749000Y25422000D02*
X43311000Y25422000D01*
X50630000Y25382000D02*
X48231000Y25382000D01*
X45749000Y25382000D02*
X43350000Y25382000D01*
X50591000Y25342000D02*
X48231000Y25342000D01*
X45749000Y25342000D02*
X43389000Y25342000D01*
X50551000Y25302000D02*
X48231000Y25302000D01*
X45749000Y25302000D02*
X43429000Y25302000D01*
X50510000Y25262000D02*
X48231000Y25262000D01*
X45749000Y25262000D02*
X43470000Y25262000D01*
X50468000Y25222000D02*
X48231000Y25222000D01*
X45749000Y25222000D02*
X43512000Y25222000D01*
X50426000Y25182000D02*
X43554000Y25182000D01*
X50382000Y25142000D02*
X43598000Y25142000D01*
X50337000Y25102000D02*
X43643000Y25102000D01*
X50291000Y25062000D02*
X43689000Y25062000D01*
X50244000Y25022000D02*
X43736000Y25022000D01*
X50196000Y24982000D02*
X43784000Y24982000D01*
X50146000Y24942000D02*
X43834000Y24942000D01*
X50096000Y24902000D02*
X43884000Y24902000D01*
X50044000Y24862000D02*
X43936000Y24862000D01*
X49990000Y24822000D02*
X43990000Y24822000D01*
X49935000Y24782000D02*
X44045000Y24782000D01*
X49879000Y24742000D02*
X44101000Y24742000D01*
X49820000Y24702000D02*
X44160000Y24702000D01*
X49760000Y24662000D02*
X44220000Y24662000D01*
X49699000Y24622000D02*
X44281000Y24622000D01*
X49635000Y24582000D02*
X44345000Y24582000D01*
X49569000Y24542000D02*
X44411000Y24542000D01*
X49500000Y24502000D02*
X44480000Y24502000D01*
X49429000Y24462000D02*
X44551000Y24462000D01*
X49355000Y24422000D02*
X44625000Y24422000D01*
X49279000Y24382000D02*
X44701000Y24382000D01*
X49199000Y24342000D02*
X44781000Y24342000D01*
X49115000Y24302000D02*
X44865000Y24302000D01*
X49027000Y24262000D02*
X44953000Y24262000D01*
X48934000Y24222000D02*
X45046000Y24222000D01*
X48836000Y24182000D02*
X45144000Y24182000D01*
X48732000Y24142000D02*
X45248000Y24142000D01*
X48620000Y24102000D02*
X45360000Y24102000D01*
X48500000Y24062000D02*
X45480000Y24062000D01*
X48368000Y24022000D02*
X45612000Y24022000D01*
X48220000Y23982000D02*
X45760000Y23982000D01*
X48052000Y23942000D02*
X45928000Y23942000D01*
X47852000Y23902000D02*
X46128000Y23902000D01*
X47589000Y23862000D02*
X46391000Y23862000D01*
X52110000Y28943000D02*
G75*
G03*
X52110000Y28943000I-5120000J0D01*
G01*
%TO.C,Motor1_OUT*%
X2100000Y7950000D02*
X2100000Y4800000D01*
X2100000Y4800000D02*
X4950000Y2200000D01*
X4950000Y10500000D02*
X2100000Y7950000D01*
X4950000Y2200000D02*
X17800000Y2200000D01*
X17800000Y10500000D02*
X4950000Y10500000D01*
X17800000Y2200000D02*
X17800000Y10500000D01*
%TO.C,Motor1_MD*%
X8830000Y13775323D02*
X72450000Y13775323D01*
X8830000Y13775323D02*
X8830000Y16375323D01*
X72450000Y13775323D02*
X72450000Y18975323D01*
X8830000Y16375323D02*
X11430000Y16375323D01*
X11430000Y16375323D02*
X11430000Y18975323D01*
X8830000Y17645323D02*
X8830000Y18975323D01*
X8830000Y18975323D02*
X10160000Y18975323D01*
X11430000Y18975323D02*
X72450000Y18975323D01*
%TD*%
D14*
X99060000Y0D02*
X0Y0D01*
X0Y99060000D01*
X99060000Y99060000D01*
X99060000Y0D01*
M02*
