%TF.GenerationSoftware,KiCad,Pcbnew,7.0.5*%
%TF.CreationDate,2024-03-06T22:34:11+09:00*%
%TF.ProjectId,blackMD_mother,626c6163-6b4d-4445-9f6d-6f746865722e,rev?*%
%TF.SameCoordinates,Original*%
%TF.FileFunction,Copper,L1,Top*%
%TF.FilePolarity,Positive*%
%FSLAX46Y46*%
G04 Gerber Fmt 4.6, Leading zero omitted, Abs format (unit mm)*
G04 Created by KiCad (PCBNEW 7.0.5) date 2024-03-06 22:34:11*
%MOMM*%
%LPD*%
G01*
G04 APERTURE LIST*
G04 Aperture macros list*
%AMRoundRect*
0 Rectangle with rounded corners*
0 $1 Rounding radius*
0 $2 $3 $4 $5 $6 $7 $8 $9 X,Y pos of 4 corners*
0 Add a 4 corners polygon primitive as box body*
4,1,4,$2,$3,$4,$5,$6,$7,$8,$9,$2,$3,0*
0 Add four circle primitives for the rounded corners*
1,1,$1+$1,$2,$3*
1,1,$1+$1,$4,$5*
1,1,$1+$1,$6,$7*
1,1,$1+$1,$8,$9*
0 Add four rect primitives between the rounded corners*
20,1,$1+$1,$2,$3,$4,$5,0*
20,1,$1+$1,$4,$5,$6,$7,0*
20,1,$1+$1,$6,$7,$8,$9,0*
20,1,$1+$1,$8,$9,$2,$3,0*%
G04 Aperture macros list end*
%TA.AperFunction,ComponentPad*%
%ADD10RoundRect,0.250000X0.725000X-0.600000X0.725000X0.600000X-0.725000X0.600000X-0.725000X-0.600000X0*%
%TD*%
%TA.AperFunction,ComponentPad*%
%ADD11O,1.950000X1.700000*%
%TD*%
%TA.AperFunction,ComponentPad*%
%ADD12RoundRect,1.500000X-1.500000X-1.500000X1.500000X-1.500000X1.500000X1.500000X-1.500000X1.500000X0*%
%TD*%
%TA.AperFunction,ComponentPad*%
%ADD13C,6.000000*%
%TD*%
%TA.AperFunction,ComponentPad*%
%ADD14R,1.700000X1.700000*%
%TD*%
%TA.AperFunction,ComponentPad*%
%ADD15O,1.700000X1.700000*%
%TD*%
%TA.AperFunction,ComponentPad*%
%ADD16RoundRect,1.500000X1.500000X1.500000X-1.500000X1.500000X-1.500000X-1.500000X1.500000X-1.500000X0*%
%TD*%
%TA.AperFunction,ComponentPad*%
%ADD17R,2.000000X2.000000*%
%TD*%
%TA.AperFunction,ComponentPad*%
%ADD18C,2.000000*%
%TD*%
%TA.AperFunction,ViaPad*%
%ADD19C,0.800000*%
%TD*%
%TA.AperFunction,Conductor*%
%ADD20C,1.270000*%
%TD*%
%TA.AperFunction,Profile*%
%ADD21C,0.100000*%
%TD*%
G04 APERTURE END LIST*
D10*
%TO.P,I2C_IN,1,Pin_1*%
%TO.N,+5V*%
X186771323Y-147260000D03*
D11*
%TO.P,I2C_IN,2,Pin_2*%
%TO.N,SCL*%
X186771323Y-144760000D03*
%TO.P,I2C_IN,3,Pin_3*%
%TO.N,SDA*%
X186771323Y-142260000D03*
%TO.P,I2C_IN,4,Pin_4*%
%TO.N,GND*%
X186771323Y-139760000D03*
%TD*%
D10*
%TO.P,I2C_OUT,1,Pin_1*%
%TO.N,+5V*%
X186771323Y-68580000D03*
D11*
%TO.P,I2C_OUT,2,Pin_2*%
%TO.N,SCL*%
X186771323Y-66080000D03*
%TO.P,I2C_OUT,3,Pin_3*%
%TO.N,SDA*%
X186771323Y-63580000D03*
%TO.P,I2C_OUT,4,Pin_4*%
%TO.N,GND*%
X186771323Y-61080000D03*
%TD*%
D12*
%TO.P,Motor2_OUT,1,Pin_1*%
%TO.N,Motor_3A*%
X100621323Y-121920000D03*
D13*
%TO.P,Motor2_OUT,2,Pin_2*%
%TO.N,Motor_3B*%
X107821323Y-121920000D03*
%TD*%
D14*
%TO.P,Motor2_MD,1,Pin_1*%
%TO.N,Motor_3A*%
X102981323Y-110624677D03*
D15*
%TO.P,Motor2_MD,2,Pin_2*%
X102981323Y-113164677D03*
%TO.P,Motor2_MD,3,Pin_3*%
X105521323Y-110624677D03*
%TO.P,Motor2_MD,4,Pin_4*%
X105521323Y-113164677D03*
%TO.P,Motor2_MD,5,Pin_5*%
X108061323Y-110624677D03*
%TO.P,Motor2_MD,6,Pin_6*%
X108061323Y-113164677D03*
%TO.P,Motor2_MD,7,Pin_7*%
X110601323Y-110624677D03*
%TO.P,Motor2_MD,8,Pin_8*%
X110601323Y-113164677D03*
%TO.P,Motor2_MD,9,Pin_9*%
X113141323Y-110624677D03*
%TO.P,Motor2_MD,10,Pin_10*%
X113141323Y-113164677D03*
%TO.P,Motor2_MD,11,Pin_11*%
%TO.N,Motor_3B*%
X115681323Y-110624677D03*
%TO.P,Motor2_MD,12,Pin_12*%
X115681323Y-113164677D03*
%TO.P,Motor2_MD,13,Pin_13*%
X118221323Y-110624677D03*
%TO.P,Motor2_MD,14,Pin_14*%
X118221323Y-113164677D03*
%TO.P,Motor2_MD,15,Pin_15*%
X120761323Y-110624677D03*
%TO.P,Motor2_MD,16,Pin_16*%
X120761323Y-113164677D03*
%TO.P,Motor2_MD,17,Pin_17*%
X123301323Y-110624677D03*
%TO.P,Motor2_MD,18,Pin_18*%
X123301323Y-113164677D03*
%TO.P,Motor2_MD,19,Pin_19*%
X125841323Y-110624677D03*
%TO.P,Motor2_MD,20,Pin_20*%
X125841323Y-113164677D03*
%TO.P,Motor2_MD,21,Pin_21*%
%TO.N,+12V*%
X128381323Y-110624677D03*
%TO.P,Motor2_MD,22,Pin_22*%
X128381323Y-113164677D03*
%TO.P,Motor2_MD,23,Pin_23*%
X130921323Y-110624677D03*
%TO.P,Motor2_MD,24,Pin_24*%
X130921323Y-113164677D03*
%TO.P,Motor2_MD,25,Pin_25*%
X133461323Y-110624677D03*
%TO.P,Motor2_MD,26,Pin_26*%
X133461323Y-113164677D03*
%TO.P,Motor2_MD,27,Pin_27*%
X136001323Y-110624677D03*
%TO.P,Motor2_MD,28,Pin_28*%
X136001323Y-113164677D03*
%TO.P,Motor2_MD,29,Pin_29*%
X138541323Y-110624677D03*
%TO.P,Motor2_MD,30,Pin_30*%
X138541323Y-113164677D03*
%TO.P,Motor2_MD,31,Pin_31*%
%TO.N,GNDPWR*%
X141081323Y-110624677D03*
%TO.P,Motor2_MD,32,Pin_32*%
X141081323Y-113164677D03*
%TO.P,Motor2_MD,33,Pin_33*%
X143621323Y-110624677D03*
%TO.P,Motor2_MD,34,Pin_34*%
X143621323Y-113164677D03*
%TO.P,Motor2_MD,35,Pin_35*%
X146161323Y-110624677D03*
%TO.P,Motor2_MD,36,Pin_36*%
X146161323Y-113164677D03*
%TO.P,Motor2_MD,37,Pin_37*%
X148701323Y-110624677D03*
%TO.P,Motor2_MD,38,Pin_38*%
X148701323Y-113164677D03*
%TO.P,Motor2_MD,39,Pin_39*%
X151241323Y-110624677D03*
%TO.P,Motor2_MD,40,Pin_40*%
X151241323Y-113164677D03*
%TO.P,Motor2_MD,41,Pin_41*%
X153781323Y-110624677D03*
%TO.P,Motor2_MD,42,Pin_42*%
X153781323Y-113164677D03*
%TO.P,Motor2_MD,43,Pin_43*%
%TO.N,+5V*%
X156321323Y-110624677D03*
%TO.P,Motor2_MD,44,Pin_44*%
X156321323Y-113164677D03*
%TO.P,Motor2_MD,45,Pin_45*%
%TO.N,SCL*%
X158861323Y-110624677D03*
%TO.P,Motor2_MD,46,Pin_46*%
X158861323Y-113164677D03*
%TO.P,Motor2_MD,47,Pin_47*%
%TO.N,SDA*%
X161401323Y-110624677D03*
%TO.P,Motor2_MD,48,Pin_48*%
X161401323Y-113164677D03*
%TO.P,Motor2_MD,49,Pin_49*%
%TO.N,GND*%
X163941323Y-110624677D03*
%TO.P,Motor2_MD,50,Pin_50*%
X163941323Y-113164677D03*
%TD*%
D12*
%TO.P,Motor4_OUT,1,Pin_1*%
%TO.N,Motor_1A*%
X100621323Y-71120000D03*
D13*
%TO.P,Motor4_OUT,2,Pin_2*%
%TO.N,Motor_1B*%
X107821323Y-71120000D03*
%TD*%
D16*
%TO.P,Power_IN,1,Pin_1*%
%TO.N,GNDPWR*%
X143381323Y-148724677D03*
D13*
%TO.P,Power_IN,2,Pin_2*%
%TO.N,+12V*%
X136181323Y-148724677D03*
%TD*%
D12*
%TO.P,Motor3_OUT,1,Pin_1*%
%TO.N,Motor_2A*%
X100621323Y-96520000D03*
D13*
%TO.P,Motor3_OUT,2,Pin_2*%
%TO.N,Motor_2B*%
X107821323Y-96520000D03*
%TD*%
D14*
%TO.P,Motor4_MD,1,Pin_1*%
%TO.N,Motor_1A*%
X102951323Y-59824677D03*
D15*
%TO.P,Motor4_MD,2,Pin_2*%
X102951323Y-62364677D03*
%TO.P,Motor4_MD,3,Pin_3*%
X105491323Y-59824677D03*
%TO.P,Motor4_MD,4,Pin_4*%
X105491323Y-62364677D03*
%TO.P,Motor4_MD,5,Pin_5*%
X108031323Y-59824677D03*
%TO.P,Motor4_MD,6,Pin_6*%
X108031323Y-62364677D03*
%TO.P,Motor4_MD,7,Pin_7*%
X110571323Y-59824677D03*
%TO.P,Motor4_MD,8,Pin_8*%
X110571323Y-62364677D03*
%TO.P,Motor4_MD,9,Pin_9*%
X113111323Y-59824677D03*
%TO.P,Motor4_MD,10,Pin_10*%
X113111323Y-62364677D03*
%TO.P,Motor4_MD,11,Pin_11*%
%TO.N,Motor_1B*%
X115651323Y-59824677D03*
%TO.P,Motor4_MD,12,Pin_12*%
X115651323Y-62364677D03*
%TO.P,Motor4_MD,13,Pin_13*%
X118191323Y-59824677D03*
%TO.P,Motor4_MD,14,Pin_14*%
X118191323Y-62364677D03*
%TO.P,Motor4_MD,15,Pin_15*%
X120731323Y-59824677D03*
%TO.P,Motor4_MD,16,Pin_16*%
X120731323Y-62364677D03*
%TO.P,Motor4_MD,17,Pin_17*%
X123271323Y-59824677D03*
%TO.P,Motor4_MD,18,Pin_18*%
X123271323Y-62364677D03*
%TO.P,Motor4_MD,19,Pin_19*%
X125811323Y-59824677D03*
%TO.P,Motor4_MD,20,Pin_20*%
X125811323Y-62364677D03*
%TO.P,Motor4_MD,21,Pin_21*%
%TO.N,+12V*%
X128351323Y-59824677D03*
%TO.P,Motor4_MD,22,Pin_22*%
X128351323Y-62364677D03*
%TO.P,Motor4_MD,23,Pin_23*%
X130891323Y-59824677D03*
%TO.P,Motor4_MD,24,Pin_24*%
X130891323Y-62364677D03*
%TO.P,Motor4_MD,25,Pin_25*%
X133431323Y-59824677D03*
%TO.P,Motor4_MD,26,Pin_26*%
X133431323Y-62364677D03*
%TO.P,Motor4_MD,27,Pin_27*%
X135971323Y-59824677D03*
%TO.P,Motor4_MD,28,Pin_28*%
X135971323Y-62364677D03*
%TO.P,Motor4_MD,29,Pin_29*%
X138511323Y-59824677D03*
%TO.P,Motor4_MD,30,Pin_30*%
X138511323Y-62364677D03*
%TO.P,Motor4_MD,31,Pin_31*%
%TO.N,GNDPWR*%
X141051323Y-59824677D03*
%TO.P,Motor4_MD,32,Pin_32*%
X141051323Y-62364677D03*
%TO.P,Motor4_MD,33,Pin_33*%
X143591323Y-59824677D03*
%TO.P,Motor4_MD,34,Pin_34*%
X143591323Y-62364677D03*
%TO.P,Motor4_MD,35,Pin_35*%
X146131323Y-59824677D03*
%TO.P,Motor4_MD,36,Pin_36*%
X146131323Y-62364677D03*
%TO.P,Motor4_MD,37,Pin_37*%
X148671323Y-59824677D03*
%TO.P,Motor4_MD,38,Pin_38*%
X148671323Y-62364677D03*
%TO.P,Motor4_MD,39,Pin_39*%
X151211323Y-59824677D03*
%TO.P,Motor4_MD,40,Pin_40*%
X151211323Y-62364677D03*
%TO.P,Motor4_MD,41,Pin_41*%
X153751323Y-59824677D03*
%TO.P,Motor4_MD,42,Pin_42*%
X153751323Y-62364677D03*
%TO.P,Motor4_MD,43,Pin_43*%
%TO.N,+5V*%
X156291323Y-59824677D03*
%TO.P,Motor4_MD,44,Pin_44*%
X156291323Y-62364677D03*
%TO.P,Motor4_MD,45,Pin_45*%
%TO.N,SCL*%
X158831323Y-59824677D03*
%TO.P,Motor4_MD,46,Pin_46*%
X158831323Y-62364677D03*
%TO.P,Motor4_MD,47,Pin_47*%
%TO.N,SDA*%
X161371323Y-59824677D03*
%TO.P,Motor4_MD,48,Pin_48*%
X161371323Y-62364677D03*
%TO.P,Motor4_MD,49,Pin_49*%
%TO.N,GND*%
X163911323Y-59824677D03*
%TO.P,Motor4_MD,50,Pin_50*%
X163911323Y-62364677D03*
%TD*%
D17*
%TO.P,C2,1*%
%TO.N,+12V*%
X139781323Y-96827000D03*
D18*
%TO.P,C2,2*%
%TO.N,GNDPWR*%
X139781323Y-101827000D03*
%TD*%
D17*
%TO.P,C3,1*%
%TO.N,+12V*%
X139781323Y-71427000D03*
D18*
%TO.P,C3,2*%
%TO.N,GNDPWR*%
X139781323Y-76427000D03*
%TD*%
D14*
%TO.P,Motor3_MD,1,Pin_1*%
%TO.N,Motor_2A*%
X102951323Y-85224677D03*
D15*
%TO.P,Motor3_MD,2,Pin_2*%
X102951323Y-87764677D03*
%TO.P,Motor3_MD,3,Pin_3*%
X105491323Y-85224677D03*
%TO.P,Motor3_MD,4,Pin_4*%
X105491323Y-87764677D03*
%TO.P,Motor3_MD,5,Pin_5*%
X108031323Y-85224677D03*
%TO.P,Motor3_MD,6,Pin_6*%
X108031323Y-87764677D03*
%TO.P,Motor3_MD,7,Pin_7*%
X110571323Y-85224677D03*
%TO.P,Motor3_MD,8,Pin_8*%
X110571323Y-87764677D03*
%TO.P,Motor3_MD,9,Pin_9*%
X113111323Y-85224677D03*
%TO.P,Motor3_MD,10,Pin_10*%
X113111323Y-87764677D03*
%TO.P,Motor3_MD,11,Pin_11*%
%TO.N,Motor_2B*%
X115651323Y-85224677D03*
%TO.P,Motor3_MD,12,Pin_12*%
X115651323Y-87764677D03*
%TO.P,Motor3_MD,13,Pin_13*%
X118191323Y-85224677D03*
%TO.P,Motor3_MD,14,Pin_14*%
X118191323Y-87764677D03*
%TO.P,Motor3_MD,15,Pin_15*%
X120731323Y-85224677D03*
%TO.P,Motor3_MD,16,Pin_16*%
X120731323Y-87764677D03*
%TO.P,Motor3_MD,17,Pin_17*%
X123271323Y-85224677D03*
%TO.P,Motor3_MD,18,Pin_18*%
X123271323Y-87764677D03*
%TO.P,Motor3_MD,19,Pin_19*%
X125811323Y-85224677D03*
%TO.P,Motor3_MD,20,Pin_20*%
X125811323Y-87764677D03*
%TO.P,Motor3_MD,21,Pin_21*%
%TO.N,+12V*%
X128351323Y-85224677D03*
%TO.P,Motor3_MD,22,Pin_22*%
X128351323Y-87764677D03*
%TO.P,Motor3_MD,23,Pin_23*%
X130891323Y-85224677D03*
%TO.P,Motor3_MD,24,Pin_24*%
X130891323Y-87764677D03*
%TO.P,Motor3_MD,25,Pin_25*%
X133431323Y-85224677D03*
%TO.P,Motor3_MD,26,Pin_26*%
X133431323Y-87764677D03*
%TO.P,Motor3_MD,27,Pin_27*%
X135971323Y-85224677D03*
%TO.P,Motor3_MD,28,Pin_28*%
X135971323Y-87764677D03*
%TO.P,Motor3_MD,29,Pin_29*%
X138511323Y-85224677D03*
%TO.P,Motor3_MD,30,Pin_30*%
X138511323Y-87764677D03*
%TO.P,Motor3_MD,31,Pin_31*%
%TO.N,GNDPWR*%
X141051323Y-85224677D03*
%TO.P,Motor3_MD,32,Pin_32*%
X141051323Y-87764677D03*
%TO.P,Motor3_MD,33,Pin_33*%
X143591323Y-85224677D03*
%TO.P,Motor3_MD,34,Pin_34*%
X143591323Y-87764677D03*
%TO.P,Motor3_MD,35,Pin_35*%
X146131323Y-85224677D03*
%TO.P,Motor3_MD,36,Pin_36*%
X146131323Y-87764677D03*
%TO.P,Motor3_MD,37,Pin_37*%
X148671323Y-85224677D03*
%TO.P,Motor3_MD,38,Pin_38*%
X148671323Y-87764677D03*
%TO.P,Motor3_MD,39,Pin_39*%
X151211323Y-85224677D03*
%TO.P,Motor3_MD,40,Pin_40*%
X151211323Y-87764677D03*
%TO.P,Motor3_MD,41,Pin_41*%
X153751323Y-85224677D03*
%TO.P,Motor3_MD,42,Pin_42*%
X153751323Y-87764677D03*
%TO.P,Motor3_MD,43,Pin_43*%
%TO.N,+5V*%
X156291323Y-85224677D03*
%TO.P,Motor3_MD,44,Pin_44*%
X156291323Y-87764677D03*
%TO.P,Motor3_MD,45,Pin_45*%
%TO.N,SCL*%
X158831323Y-85224677D03*
%TO.P,Motor3_MD,46,Pin_46*%
X158831323Y-87764677D03*
%TO.P,Motor3_MD,47,Pin_47*%
%TO.N,SDA*%
X161371323Y-85224677D03*
%TO.P,Motor3_MD,48,Pin_48*%
X161371323Y-87764677D03*
%TO.P,Motor3_MD,49,Pin_49*%
%TO.N,GND*%
X163911323Y-85224677D03*
%TO.P,Motor3_MD,50,Pin_50*%
X163911323Y-87764677D03*
%TD*%
D17*
%TO.P,C1,1*%
%TO.N,+12V*%
X139781323Y-122227000D03*
D18*
%TO.P,C1,2*%
%TO.N,GNDPWR*%
X139781323Y-127227000D03*
%TD*%
D12*
%TO.P,Motor1_OUT,1,Pin_1*%
%TO.N,Motor_4A*%
X100621323Y-147320000D03*
D13*
%TO.P,Motor1_OUT,2,Pin_2*%
%TO.N,Motor_4B*%
X107821323Y-147320000D03*
%TD*%
D14*
%TO.P,Motor1_MD,1,Pin_1*%
%TO.N,Motor_4A*%
X102951323Y-136024677D03*
D15*
%TO.P,Motor1_MD,2,Pin_2*%
X102951323Y-138564677D03*
%TO.P,Motor1_MD,3,Pin_3*%
X105491323Y-136024677D03*
%TO.P,Motor1_MD,4,Pin_4*%
X105491323Y-138564677D03*
%TO.P,Motor1_MD,5,Pin_5*%
X108031323Y-136024677D03*
%TO.P,Motor1_MD,6,Pin_6*%
X108031323Y-138564677D03*
%TO.P,Motor1_MD,7,Pin_7*%
X110571323Y-136024677D03*
%TO.P,Motor1_MD,8,Pin_8*%
X110571323Y-138564677D03*
%TO.P,Motor1_MD,9,Pin_9*%
X113111323Y-136024677D03*
%TO.P,Motor1_MD,10,Pin_10*%
X113111323Y-138564677D03*
%TO.P,Motor1_MD,11,Pin_11*%
%TO.N,Motor_4B*%
X115651323Y-136024677D03*
%TO.P,Motor1_MD,12,Pin_12*%
X115651323Y-138564677D03*
%TO.P,Motor1_MD,13,Pin_13*%
X118191323Y-136024677D03*
%TO.P,Motor1_MD,14,Pin_14*%
X118191323Y-138564677D03*
%TO.P,Motor1_MD,15,Pin_15*%
X120731323Y-136024677D03*
%TO.P,Motor1_MD,16,Pin_16*%
X120731323Y-138564677D03*
%TO.P,Motor1_MD,17,Pin_17*%
X123271323Y-136024677D03*
%TO.P,Motor1_MD,18,Pin_18*%
X123271323Y-138564677D03*
%TO.P,Motor1_MD,19,Pin_19*%
X125811323Y-136024677D03*
%TO.P,Motor1_MD,20,Pin_20*%
X125811323Y-138564677D03*
%TO.P,Motor1_MD,21,Pin_21*%
%TO.N,+12V*%
X128351323Y-136024677D03*
%TO.P,Motor1_MD,22,Pin_22*%
X128351323Y-138564677D03*
%TO.P,Motor1_MD,23,Pin_23*%
X130891323Y-136024677D03*
%TO.P,Motor1_MD,24,Pin_24*%
X130891323Y-138564677D03*
%TO.P,Motor1_MD,25,Pin_25*%
X133431323Y-136024677D03*
%TO.P,Motor1_MD,26,Pin_26*%
X133431323Y-138564677D03*
%TO.P,Motor1_MD,27,Pin_27*%
X135971323Y-136024677D03*
%TO.P,Motor1_MD,28,Pin_28*%
X135971323Y-138564677D03*
%TO.P,Motor1_MD,29,Pin_29*%
X138511323Y-136024677D03*
%TO.P,Motor1_MD,30,Pin_30*%
X138511323Y-138564677D03*
%TO.P,Motor1_MD,31,Pin_31*%
%TO.N,GNDPWR*%
X141051323Y-136024677D03*
%TO.P,Motor1_MD,32,Pin_32*%
X141051323Y-138564677D03*
%TO.P,Motor1_MD,33,Pin_33*%
X143591323Y-136024677D03*
%TO.P,Motor1_MD,34,Pin_34*%
X143591323Y-138564677D03*
%TO.P,Motor1_MD,35,Pin_35*%
X146131323Y-136024677D03*
%TO.P,Motor1_MD,36,Pin_36*%
X146131323Y-138564677D03*
%TO.P,Motor1_MD,37,Pin_37*%
X148671323Y-136024677D03*
%TO.P,Motor1_MD,38,Pin_38*%
X148671323Y-138564677D03*
%TO.P,Motor1_MD,39,Pin_39*%
X151211323Y-136024677D03*
%TO.P,Motor1_MD,40,Pin_40*%
X151211323Y-138564677D03*
%TO.P,Motor1_MD,41,Pin_41*%
X153751323Y-136024677D03*
%TO.P,Motor1_MD,42,Pin_42*%
X153751323Y-138564677D03*
%TO.P,Motor1_MD,43,Pin_43*%
%TO.N,+5V*%
X156291323Y-136024677D03*
%TO.P,Motor1_MD,44,Pin_44*%
X156291323Y-138564677D03*
%TO.P,Motor1_MD,45,Pin_45*%
%TO.N,SCL*%
X158831323Y-136024677D03*
%TO.P,Motor1_MD,46,Pin_46*%
X158831323Y-138564677D03*
%TO.P,Motor1_MD,47,Pin_47*%
%TO.N,SDA*%
X161371323Y-136024677D03*
%TO.P,Motor1_MD,48,Pin_48*%
X161371323Y-138564677D03*
%TO.P,Motor1_MD,49,Pin_49*%
%TO.N,GND*%
X163911323Y-136024677D03*
%TO.P,Motor1_MD,50,Pin_50*%
X163911323Y-138564677D03*
%TD*%
D19*
%TO.N,SCL*%
X167640000Y-68580000D03*
X158750000Y-78740000D03*
X158750000Y-81280000D03*
X158750000Y-80010000D03*
X166370000Y-69850000D03*
X168910000Y-67310000D03*
%TD*%
D20*
%TO.N,SDA*%
X165046646Y-142240000D02*
X161371323Y-138564677D01*
X166390000Y-142260000D02*
X166370000Y-142240000D01*
X186771323Y-142260000D02*
X166390000Y-142260000D01*
%TO.N,SCL*%
X162580000Y-144760000D02*
X186771323Y-144760000D01*
X162560000Y-144780000D02*
X162580000Y-144760000D01*
X158831323Y-138564677D02*
X158831323Y-141051323D01*
X158831323Y-141051323D02*
X162560000Y-144780000D01*
%TO.N,+5V*%
X156291323Y-143591323D02*
X156291323Y-138564677D01*
X160020000Y-147320000D02*
X156291323Y-143591323D01*
X160080000Y-147260000D02*
X160020000Y-147320000D01*
X186771323Y-147260000D02*
X160080000Y-147260000D01*
%TO.N,SDA*%
X166370000Y-142240000D02*
X165046646Y-142240000D01*
X167701323Y-63520000D02*
X161371323Y-69850000D01*
X186711323Y-63520000D02*
X167701323Y-63520000D01*
X186771323Y-63580000D02*
X186711323Y-63520000D01*
%TO.N,SCL*%
X186711323Y-66020000D02*
X170200000Y-66020000D01*
X186771323Y-66080000D02*
X186711323Y-66020000D01*
X170200000Y-66020000D02*
X168910000Y-67310000D01*
%TO.N,+5V*%
X156291323Y-136024677D02*
X156291323Y-59824677D01*
X156291323Y-138564677D02*
X156291323Y-136024677D01*
%TO.N,SDA*%
X161371323Y-138564677D02*
X161371323Y-69850000D01*
X161371323Y-69850000D02*
X161371323Y-59824677D01*
%TO.N,SCL*%
X167640000Y-68580000D02*
X166370000Y-69850000D01*
X158831323Y-59824677D02*
X158831323Y-81361323D01*
X168910000Y-67310000D02*
X167640000Y-68580000D01*
X158831323Y-81361323D02*
X158831323Y-138564677D01*
%TD*%
%TA.AperFunction,Conductor*%
%TO.N,Motor_1A*%
G36*
X113818862Y-54630185D02*
G01*
X113864617Y-54682989D01*
X113875823Y-54734500D01*
X113875823Y-59346674D01*
X113877985Y-59379664D01*
X113877989Y-59379705D01*
X113886531Y-59444591D01*
X113886533Y-59444605D01*
X113892990Y-59477066D01*
X113943856Y-59666907D01*
X113947609Y-59688191D01*
X113958605Y-59813867D01*
X113958605Y-59835483D01*
X113947609Y-59961158D01*
X113943856Y-59982442D01*
X113892989Y-60172287D01*
X113886529Y-60204762D01*
X113886529Y-60204765D01*
X113877987Y-60269662D01*
X113875823Y-60302683D01*
X113875823Y-60302691D01*
X113875823Y-60302692D01*
X113875823Y-61886674D01*
X113877985Y-61919664D01*
X113877989Y-61919705D01*
X113886531Y-61984591D01*
X113886533Y-61984605D01*
X113892990Y-62017066D01*
X113943856Y-62206907D01*
X113947609Y-62228191D01*
X113958605Y-62353867D01*
X113958605Y-62375483D01*
X113947609Y-62501158D01*
X113943856Y-62522442D01*
X113892989Y-62712287D01*
X113886529Y-62744762D01*
X113886529Y-62744765D01*
X113877987Y-62809662D01*
X113875823Y-62842683D01*
X113875822Y-62842692D01*
X113875823Y-62842692D01*
X113875823Y-65410500D01*
X113856138Y-65477539D01*
X113803334Y-65523294D01*
X113751823Y-65534500D01*
X103075323Y-65534500D01*
X103075314Y-65534500D01*
X103075313Y-65534501D01*
X102967872Y-65546052D01*
X102967860Y-65546054D01*
X102916350Y-65557260D01*
X102813825Y-65591383D01*
X102813819Y-65591386D01*
X102692785Y-65669171D01*
X102692774Y-65669179D01*
X102639982Y-65714923D01*
X102545756Y-65823664D01*
X102545753Y-65823668D01*
X102485986Y-65954536D01*
X102466301Y-66021576D01*
X102466299Y-66021584D01*
X102445823Y-66164001D01*
X102445823Y-66164002D01*
X102445822Y-67720331D01*
X102445823Y-67720337D01*
X102461526Y-67845351D01*
X102476691Y-67904768D01*
X102476693Y-67904774D01*
X102476694Y-67904776D01*
X102522824Y-68022021D01*
X102609049Y-68137203D01*
X102609053Y-68137207D01*
X102609058Y-68137213D01*
X102658443Y-68186598D01*
X102658449Y-68186603D01*
X102658454Y-68186608D01*
X102773635Y-68272832D01*
X102886750Y-68334597D01*
X102936155Y-68384001D01*
X102951323Y-68443429D01*
X102951323Y-73796569D01*
X102931638Y-73863608D01*
X102886751Y-73905401D01*
X102773630Y-73967170D01*
X102773626Y-73967172D01*
X102671438Y-74040862D01*
X102671434Y-74040866D01*
X102626545Y-74082659D01*
X102626539Y-74082666D01*
X102545755Y-74179328D01*
X102485985Y-74310204D01*
X102467134Y-74374401D01*
X102466809Y-74375340D01*
X102466299Y-74377243D01*
X102445823Y-74519663D01*
X102445823Y-77346000D01*
X102426138Y-77413039D01*
X102373334Y-77458794D01*
X102321823Y-77470000D01*
X92915823Y-77470000D01*
X92848784Y-77450315D01*
X92803029Y-77397511D01*
X92791823Y-77346000D01*
X92791823Y-57611622D01*
X92791908Y-57608377D01*
X92798819Y-57476505D01*
X92809126Y-57292985D01*
X92809790Y-57286773D01*
X92833930Y-57134357D01*
X92861545Y-56971826D01*
X92862778Y-56966183D01*
X92903754Y-56813260D01*
X92948410Y-56658257D01*
X92950086Y-56653259D01*
X93007204Y-56504462D01*
X93007719Y-56503171D01*
X93068689Y-56355979D01*
X93070706Y-56351603D01*
X93143385Y-56208963D01*
X93144343Y-56207162D01*
X93220962Y-56068531D01*
X93223208Y-56064787D01*
X93310659Y-55930124D01*
X93311998Y-55928153D01*
X93403506Y-55799185D01*
X93405801Y-55796161D01*
X93506993Y-55671199D01*
X93508846Y-55669021D01*
X93614090Y-55551255D01*
X93616390Y-55548821D01*
X93730140Y-55435072D01*
X93732574Y-55432771D01*
X93850300Y-55327566D01*
X93852541Y-55325658D01*
X93977470Y-55224494D01*
X93980538Y-55222167D01*
X94109514Y-55130655D01*
X94111436Y-55129351D01*
X94246089Y-55041907D01*
X94249837Y-55039658D01*
X94388525Y-54963009D01*
X94390328Y-54962052D01*
X94532911Y-54889403D01*
X94537305Y-54887377D01*
X94684558Y-54826384D01*
X94685769Y-54825901D01*
X94834576Y-54768780D01*
X94839558Y-54767110D01*
X94994623Y-54722437D01*
X95147508Y-54681473D01*
X95153132Y-54680243D01*
X95315648Y-54652631D01*
X95468098Y-54628487D01*
X95474305Y-54627822D01*
X95654282Y-54617703D01*
X95790144Y-54610584D01*
X95793379Y-54610500D01*
X113751823Y-54610500D01*
X113818862Y-54630185D01*
G37*
%TD.AperFunction*%
%TD*%
%TA.AperFunction,Conductor*%
%TO.N,Motor_2A*%
G36*
X113818862Y-80029685D02*
G01*
X113864617Y-80082489D01*
X113875823Y-80134000D01*
X113875823Y-84746674D01*
X113877985Y-84779664D01*
X113877989Y-84779705D01*
X113886531Y-84844591D01*
X113886533Y-84844605D01*
X113892990Y-84877066D01*
X113943856Y-85066907D01*
X113947609Y-85088191D01*
X113958605Y-85213867D01*
X113958605Y-85235483D01*
X113947609Y-85361158D01*
X113943856Y-85382442D01*
X113892989Y-85572287D01*
X113886529Y-85604762D01*
X113886529Y-85604765D01*
X113877987Y-85669662D01*
X113875823Y-85702683D01*
X113875823Y-85702692D01*
X113875823Y-87286674D01*
X113877985Y-87319664D01*
X113877989Y-87319705D01*
X113886531Y-87384591D01*
X113886533Y-87384605D01*
X113892990Y-87417066D01*
X113943856Y-87606907D01*
X113947609Y-87628191D01*
X113958605Y-87753867D01*
X113958605Y-87775483D01*
X113947609Y-87901158D01*
X113943856Y-87922442D01*
X113892989Y-88112287D01*
X113886529Y-88144762D01*
X113886529Y-88144765D01*
X113877987Y-88209662D01*
X113875823Y-88242683D01*
X113875822Y-88242692D01*
X113875823Y-88242692D01*
X113875823Y-90810500D01*
X113856138Y-90877539D01*
X113803334Y-90923294D01*
X113751823Y-90934500D01*
X103075323Y-90934500D01*
X103075314Y-90934500D01*
X103075313Y-90934501D01*
X102967872Y-90946052D01*
X102967860Y-90946054D01*
X102916350Y-90957260D01*
X102813825Y-90991383D01*
X102813819Y-90991386D01*
X102692785Y-91069171D01*
X102692774Y-91069179D01*
X102639982Y-91114923D01*
X102545756Y-91223664D01*
X102545753Y-91223668D01*
X102485986Y-91354536D01*
X102466301Y-91421576D01*
X102466299Y-91421584D01*
X102445823Y-91564001D01*
X102445823Y-91564002D01*
X102445822Y-93120331D01*
X102445823Y-93120337D01*
X102461526Y-93245351D01*
X102476691Y-93304768D01*
X102476693Y-93304774D01*
X102476694Y-93304776D01*
X102522824Y-93422021D01*
X102609049Y-93537203D01*
X102609053Y-93537207D01*
X102609058Y-93537213D01*
X102658443Y-93586598D01*
X102658449Y-93586603D01*
X102658454Y-93586608D01*
X102773635Y-93672832D01*
X102886750Y-93734597D01*
X102936155Y-93784001D01*
X102951323Y-93843429D01*
X102951323Y-99196569D01*
X102931638Y-99263608D01*
X102886751Y-99305401D01*
X102773630Y-99367170D01*
X102773626Y-99367172D01*
X102671438Y-99440862D01*
X102671434Y-99440866D01*
X102626545Y-99482659D01*
X102626539Y-99482666D01*
X102545755Y-99579328D01*
X102485985Y-99710204D01*
X102467134Y-99774401D01*
X102466809Y-99775340D01*
X102466299Y-99777243D01*
X102445823Y-99919663D01*
X102445823Y-102746000D01*
X102426138Y-102813039D01*
X102373334Y-102858794D01*
X102321823Y-102870000D01*
X92915823Y-102870000D01*
X92848784Y-102850315D01*
X92803029Y-102797511D01*
X92791823Y-102746000D01*
X92791823Y-80134000D01*
X92811508Y-80066961D01*
X92864312Y-80021206D01*
X92915823Y-80010000D01*
X113751823Y-80010000D01*
X113818862Y-80029685D01*
G37*
%TD.AperFunction*%
%TD*%
%TA.AperFunction,Conductor*%
%TO.N,Motor_1B*%
G36*
X125754362Y-54630185D02*
G01*
X125800117Y-54682989D01*
X125811323Y-54734500D01*
X125811323Y-77346000D01*
X125791638Y-77413039D01*
X125738834Y-77458794D01*
X125687323Y-77470000D01*
X103075323Y-77470000D01*
X103008284Y-77450315D01*
X102962529Y-77397511D01*
X102951323Y-77346000D01*
X102951323Y-74519662D01*
X102971007Y-74452627D01*
X103015895Y-74410834D01*
X103056461Y-74388682D01*
X103205638Y-74307226D01*
X103434718Y-74135739D01*
X103637062Y-73933395D01*
X103808549Y-73704315D01*
X103945690Y-73453161D01*
X104045692Y-73185046D01*
X104106519Y-72905428D01*
X104121823Y-72691448D01*
X104121823Y-69548552D01*
X104106519Y-69334572D01*
X104045692Y-69054954D01*
X103945690Y-68786839D01*
X103808549Y-68535685D01*
X103808547Y-68535682D01*
X103637068Y-68306612D01*
X103637052Y-68306594D01*
X103434728Y-68104270D01*
X103434710Y-68104254D01*
X103205640Y-67932775D01*
X103205632Y-67932770D01*
X103015896Y-67829166D01*
X102966491Y-67779761D01*
X102951323Y-67720334D01*
X102951323Y-66164000D01*
X102971008Y-66096961D01*
X103023812Y-66051206D01*
X103075323Y-66040000D01*
X114381323Y-66040000D01*
X114381323Y-62859229D01*
X114385547Y-62827140D01*
X114446386Y-62600085D01*
X114466982Y-62364677D01*
X114446386Y-62129269D01*
X114385548Y-61902214D01*
X114381323Y-61870121D01*
X114381323Y-60319229D01*
X114385547Y-60287140D01*
X114446386Y-60060085D01*
X114466982Y-59824677D01*
X114446386Y-59589269D01*
X114385548Y-59362214D01*
X114381323Y-59330121D01*
X114381323Y-54734500D01*
X114401008Y-54667461D01*
X114453812Y-54621706D01*
X114505323Y-54610500D01*
X125687323Y-54610500D01*
X125754362Y-54630185D01*
G37*
%TD.AperFunction*%
%TD*%
%TA.AperFunction,Conductor*%
%TO.N,Motor_4B*%
G36*
X125754362Y-130829685D02*
G01*
X125800117Y-130882489D01*
X125811323Y-130934000D01*
X125811323Y-153545500D01*
X125791638Y-153612539D01*
X125738834Y-153658294D01*
X125687323Y-153669500D01*
X103075323Y-153669500D01*
X103008284Y-153649815D01*
X102962529Y-153597011D01*
X102951323Y-153545500D01*
X102951323Y-150719666D01*
X102971008Y-150652627D01*
X103015896Y-150610834D01*
X103147224Y-150539122D01*
X103205638Y-150507226D01*
X103434718Y-150335739D01*
X103637062Y-150133395D01*
X103808549Y-149904315D01*
X103945690Y-149653161D01*
X104045692Y-149385046D01*
X104106519Y-149105428D01*
X104121823Y-148891448D01*
X104121823Y-145748552D01*
X104106519Y-145534572D01*
X104045692Y-145254954D01*
X103945690Y-144986839D01*
X103808549Y-144735685D01*
X103808547Y-144735682D01*
X103637068Y-144506612D01*
X103637052Y-144506594D01*
X103434728Y-144304270D01*
X103434710Y-144304254D01*
X103205640Y-144132775D01*
X103205632Y-144132770D01*
X103015896Y-144029166D01*
X102966491Y-143979761D01*
X102951323Y-143920334D01*
X102951323Y-142364000D01*
X102971008Y-142296961D01*
X103023812Y-142251206D01*
X103075323Y-142240000D01*
X114381323Y-142240000D01*
X114381323Y-139059229D01*
X114385547Y-139027140D01*
X114446386Y-138800085D01*
X114466982Y-138564677D01*
X114446386Y-138329269D01*
X114385548Y-138102214D01*
X114381323Y-138070121D01*
X114381323Y-136519229D01*
X114385547Y-136487140D01*
X114446386Y-136260085D01*
X114466982Y-136024677D01*
X114446386Y-135789269D01*
X114385548Y-135562214D01*
X114381323Y-135530121D01*
X114381323Y-130934000D01*
X114401008Y-130866961D01*
X114453812Y-130821206D01*
X114505323Y-130810000D01*
X125687323Y-130810000D01*
X125754362Y-130829685D01*
G37*
%TD.AperFunction*%
%TD*%
%TA.AperFunction,Conductor*%
%TO.N,Motor_3B*%
G36*
X125754362Y-105429685D02*
G01*
X125800117Y-105482489D01*
X125811323Y-105534000D01*
X125811323Y-128146000D01*
X125791638Y-128213039D01*
X125738834Y-128258794D01*
X125687323Y-128270000D01*
X103075323Y-128270000D01*
X103008284Y-128250315D01*
X102962529Y-128197511D01*
X102951323Y-128146000D01*
X102951323Y-128145999D01*
X102951323Y-125319662D01*
X102971007Y-125252627D01*
X103015895Y-125210834D01*
X103056461Y-125188682D01*
X103205638Y-125107226D01*
X103434718Y-124935739D01*
X103637062Y-124733395D01*
X103808549Y-124504315D01*
X103945690Y-124253161D01*
X104045692Y-123985046D01*
X104106519Y-123705428D01*
X104121823Y-123491448D01*
X104121823Y-120348552D01*
X104106519Y-120134572D01*
X104045692Y-119854954D01*
X103945690Y-119586839D01*
X103808549Y-119335685D01*
X103808547Y-119335682D01*
X103637068Y-119106612D01*
X103637052Y-119106594D01*
X103434728Y-118904270D01*
X103434710Y-118904254D01*
X103205640Y-118732775D01*
X103205632Y-118732770D01*
X103015896Y-118629166D01*
X102966491Y-118579761D01*
X102951323Y-118520334D01*
X102951323Y-116964000D01*
X102971008Y-116896961D01*
X103023812Y-116851206D01*
X103075323Y-116840000D01*
X114381323Y-116840000D01*
X114381323Y-113728535D01*
X114392941Y-113676130D01*
X114415226Y-113628340D01*
X114476386Y-113400085D01*
X114496982Y-113164677D01*
X114476386Y-112929269D01*
X114415226Y-112701014D01*
X114392939Y-112653221D01*
X114381323Y-112600818D01*
X114381323Y-111188535D01*
X114392941Y-111136130D01*
X114415226Y-111088340D01*
X114476386Y-110860085D01*
X114496982Y-110624677D01*
X114476386Y-110389269D01*
X114415226Y-110161014D01*
X114392939Y-110113221D01*
X114381323Y-110060818D01*
X114381323Y-105534000D01*
X114401008Y-105466961D01*
X114453812Y-105421206D01*
X114505323Y-105410000D01*
X125687323Y-105410000D01*
X125754362Y-105429685D01*
G37*
%TD.AperFunction*%
%TD*%
%TA.AperFunction,Conductor*%
%TO.N,Motor_3A*%
G36*
X113818862Y-105429685D02*
G01*
X113864617Y-105482489D01*
X113875823Y-105534000D01*
X113875823Y-110060817D01*
X113887801Y-110170214D01*
X113899417Y-110222614D01*
X113934804Y-110326866D01*
X113936060Y-110329993D01*
X113935889Y-110330061D01*
X113935890Y-110330064D01*
X113935845Y-110330078D01*
X113935769Y-110330109D01*
X113941204Y-110345046D01*
X113973856Y-110466908D01*
X113977609Y-110488193D01*
X113988605Y-110613868D01*
X113988605Y-110635484D01*
X113977609Y-110761159D01*
X113973856Y-110782443D01*
X113941203Y-110904311D01*
X113935769Y-110919246D01*
X113935867Y-110919285D01*
X113935889Y-110919293D01*
X113935888Y-110919294D01*
X113936060Y-110919363D01*
X113934800Y-110922500D01*
X113899426Y-111026709D01*
X113899424Y-111026716D01*
X113887805Y-111079126D01*
X113875823Y-111188536D01*
X113875823Y-112600817D01*
X113887801Y-112710214D01*
X113899417Y-112762614D01*
X113934804Y-112866866D01*
X113936060Y-112869993D01*
X113935889Y-112870061D01*
X113935890Y-112870064D01*
X113935845Y-112870078D01*
X113935769Y-112870109D01*
X113941204Y-112885046D01*
X113973856Y-113006908D01*
X113977609Y-113028193D01*
X113988605Y-113153868D01*
X113988605Y-113175484D01*
X113977609Y-113301159D01*
X113973856Y-113322443D01*
X113941203Y-113444311D01*
X113935769Y-113459246D01*
X113935867Y-113459285D01*
X113935889Y-113459293D01*
X113935888Y-113459294D01*
X113936060Y-113459363D01*
X113934800Y-113462500D01*
X113899426Y-113566709D01*
X113899424Y-113566716D01*
X113887805Y-113619126D01*
X113875823Y-113728536D01*
X113875823Y-116210500D01*
X113856138Y-116277539D01*
X113803334Y-116323294D01*
X113751823Y-116334500D01*
X103075323Y-116334500D01*
X103075314Y-116334500D01*
X103075313Y-116334501D01*
X102967872Y-116346052D01*
X102967860Y-116346054D01*
X102916350Y-116357260D01*
X102813825Y-116391383D01*
X102813819Y-116391386D01*
X102692785Y-116469171D01*
X102692774Y-116469179D01*
X102639982Y-116514923D01*
X102545756Y-116623664D01*
X102545753Y-116623668D01*
X102485986Y-116754536D01*
X102466301Y-116821576D01*
X102466299Y-116821584D01*
X102445823Y-116964001D01*
X102445823Y-116964002D01*
X102445822Y-118520330D01*
X102445823Y-118520337D01*
X102461526Y-118645351D01*
X102476691Y-118704768D01*
X102476693Y-118704774D01*
X102476694Y-118704776D01*
X102522824Y-118822021D01*
X102609049Y-118937203D01*
X102609053Y-118937207D01*
X102609058Y-118937213D01*
X102658443Y-118986598D01*
X102658449Y-118986603D01*
X102658454Y-118986608D01*
X102773635Y-119072832D01*
X102886750Y-119134597D01*
X102936155Y-119184001D01*
X102951323Y-119243429D01*
X102951323Y-124596569D01*
X102931638Y-124663608D01*
X102886751Y-124705401D01*
X102773630Y-124767170D01*
X102773626Y-124767172D01*
X102671438Y-124840862D01*
X102671434Y-124840866D01*
X102626545Y-124882659D01*
X102626539Y-124882666D01*
X102545755Y-124979328D01*
X102485985Y-125110204D01*
X102467134Y-125174401D01*
X102466809Y-125175340D01*
X102466299Y-125177243D01*
X102445823Y-125319663D01*
X102445823Y-128146000D01*
X102426138Y-128213039D01*
X102373334Y-128258794D01*
X102321823Y-128270000D01*
X92915823Y-128270000D01*
X92848784Y-128250315D01*
X92803029Y-128197511D01*
X92791823Y-128146000D01*
X92791823Y-105534000D01*
X92811508Y-105466961D01*
X92864312Y-105421206D01*
X92915823Y-105410000D01*
X113751823Y-105410000D01*
X113818862Y-105429685D01*
G37*
%TD.AperFunction*%
%TD*%
%TA.AperFunction,Conductor*%
%TO.N,GNDPWR*%
G36*
X154964362Y-54630185D02*
G01*
X155010117Y-54682989D01*
X155021323Y-54734500D01*
X155021323Y-59330121D01*
X155017098Y-59362214D01*
X154956261Y-59589263D01*
X154956259Y-59589273D01*
X154935664Y-59824676D01*
X154935664Y-59824677D01*
X154956259Y-60060080D01*
X154956260Y-60060085D01*
X155017098Y-60287140D01*
X155021323Y-60319229D01*
X155021323Y-61870121D01*
X155017098Y-61902214D01*
X154956261Y-62129263D01*
X154956259Y-62129273D01*
X154935664Y-62364676D01*
X154935664Y-62364677D01*
X154956259Y-62600080D01*
X154956260Y-62600085D01*
X155017098Y-62827140D01*
X155021323Y-62859229D01*
X155021323Y-84730121D01*
X155017098Y-84762214D01*
X154956261Y-84989263D01*
X154956259Y-84989273D01*
X154935664Y-85224676D01*
X154935664Y-85224677D01*
X154956259Y-85460080D01*
X154956260Y-85460085D01*
X155017098Y-85687140D01*
X155021323Y-85719229D01*
X155021323Y-87270121D01*
X155017098Y-87302214D01*
X154956261Y-87529263D01*
X154956259Y-87529273D01*
X154935664Y-87764676D01*
X154935664Y-87764677D01*
X154956259Y-88000080D01*
X154956260Y-88000085D01*
X155017098Y-88227140D01*
X155021323Y-88259229D01*
X155021323Y-110242085D01*
X155017098Y-110274178D01*
X154986261Y-110389263D01*
X154986259Y-110389273D01*
X154965664Y-110624676D01*
X154965664Y-110624677D01*
X154986259Y-110860080D01*
X154986261Y-110860089D01*
X155017098Y-110975174D01*
X155021323Y-111007267D01*
X155021323Y-112782085D01*
X155017098Y-112814178D01*
X154986261Y-112929263D01*
X154986259Y-112929273D01*
X154965664Y-113164676D01*
X154965664Y-113164677D01*
X154986259Y-113400080D01*
X154986261Y-113400089D01*
X155017098Y-113515174D01*
X155021323Y-113547267D01*
X155021323Y-135530121D01*
X155017098Y-135562214D01*
X154956261Y-135789263D01*
X154956259Y-135789273D01*
X154935664Y-136024676D01*
X154935664Y-136024677D01*
X154956259Y-136260080D01*
X154956260Y-136260085D01*
X155017098Y-136487140D01*
X155021323Y-136519229D01*
X155021323Y-138070121D01*
X155017098Y-138102214D01*
X154956261Y-138329263D01*
X154956259Y-138329273D01*
X154935664Y-138564676D01*
X154935664Y-138564677D01*
X154956259Y-138800080D01*
X154956260Y-138800085D01*
X155017098Y-139027140D01*
X155021323Y-139059229D01*
X155021323Y-153545500D01*
X155001638Y-153612539D01*
X154948834Y-153658294D01*
X154897323Y-153669500D01*
X140540323Y-153669500D01*
X140473284Y-153649815D01*
X140427529Y-153597011D01*
X140416323Y-153545500D01*
X140416323Y-123851499D01*
X140436008Y-123784460D01*
X140488812Y-123738705D01*
X140540322Y-123727499D01*
X140829195Y-123727499D01*
X140888806Y-123721091D01*
X141023654Y-123670796D01*
X141138869Y-123584546D01*
X141225119Y-123469331D01*
X141275414Y-123334483D01*
X141281823Y-123274873D01*
X141281822Y-121179128D01*
X141275414Y-121119517D01*
X141225119Y-120984669D01*
X141225118Y-120984668D01*
X141225116Y-120984664D01*
X141138870Y-120869455D01*
X141138867Y-120869452D01*
X141023658Y-120783206D01*
X141023651Y-120783202D01*
X140888805Y-120732908D01*
X140888806Y-120732908D01*
X140829206Y-120726501D01*
X140829204Y-120726500D01*
X140829196Y-120726500D01*
X140829188Y-120726500D01*
X140540323Y-120726500D01*
X140473284Y-120706815D01*
X140427529Y-120654011D01*
X140416323Y-120602500D01*
X140416323Y-98451499D01*
X140436008Y-98384460D01*
X140488812Y-98338705D01*
X140540322Y-98327499D01*
X140829195Y-98327499D01*
X140888806Y-98321091D01*
X141023654Y-98270796D01*
X141138869Y-98184546D01*
X141225119Y-98069331D01*
X141275414Y-97934483D01*
X141281823Y-97874873D01*
X141281822Y-95779128D01*
X141275414Y-95719517D01*
X141225119Y-95584669D01*
X141225118Y-95584668D01*
X141225116Y-95584664D01*
X141138870Y-95469455D01*
X141138867Y-95469452D01*
X141023658Y-95383206D01*
X141023651Y-95383202D01*
X140888805Y-95332908D01*
X140888806Y-95332908D01*
X140829206Y-95326501D01*
X140829204Y-95326500D01*
X140829196Y-95326500D01*
X140829188Y-95326500D01*
X140540323Y-95326500D01*
X140473284Y-95306815D01*
X140427529Y-95254011D01*
X140416323Y-95202500D01*
X140416323Y-73051499D01*
X140436008Y-72984460D01*
X140488812Y-72938705D01*
X140540322Y-72927499D01*
X140829195Y-72927499D01*
X140888806Y-72921091D01*
X141023654Y-72870796D01*
X141138869Y-72784546D01*
X141225119Y-72669331D01*
X141275414Y-72534483D01*
X141281823Y-72474873D01*
X141281822Y-70379128D01*
X141275414Y-70319517D01*
X141225119Y-70184669D01*
X141225118Y-70184668D01*
X141225116Y-70184664D01*
X141138870Y-70069455D01*
X141138867Y-70069452D01*
X141023658Y-69983206D01*
X141023651Y-69983202D01*
X140888805Y-69932908D01*
X140888806Y-69932908D01*
X140829206Y-69926501D01*
X140829204Y-69926500D01*
X140829196Y-69926500D01*
X140829188Y-69926500D01*
X140540323Y-69926500D01*
X140473284Y-69906815D01*
X140427529Y-69854011D01*
X140416323Y-69802500D01*
X140416323Y-54734500D01*
X140436008Y-54667461D01*
X140488812Y-54621706D01*
X140540323Y-54610500D01*
X154897323Y-54610500D01*
X154964362Y-54630185D01*
G37*
%TD.AperFunction*%
%TD*%
%TA.AperFunction,Conductor*%
%TO.N,Motor_2B*%
G36*
X125754362Y-80029685D02*
G01*
X125800117Y-80082489D01*
X125811323Y-80134000D01*
X125811323Y-102746000D01*
X125791638Y-102813039D01*
X125738834Y-102858794D01*
X125687323Y-102870000D01*
X103075323Y-102870000D01*
X103008284Y-102850315D01*
X102962529Y-102797511D01*
X102951323Y-102746000D01*
X102951323Y-99919662D01*
X102971007Y-99852627D01*
X103015895Y-99810834D01*
X103056461Y-99788682D01*
X103205638Y-99707226D01*
X103434718Y-99535739D01*
X103637062Y-99333395D01*
X103808549Y-99104315D01*
X103945690Y-98853161D01*
X104045692Y-98585046D01*
X104106519Y-98305428D01*
X104121823Y-98091448D01*
X104121823Y-94948552D01*
X104106519Y-94734572D01*
X104045692Y-94454954D01*
X103945690Y-94186839D01*
X103808549Y-93935685D01*
X103808547Y-93935682D01*
X103637068Y-93706612D01*
X103637052Y-93706594D01*
X103434728Y-93504270D01*
X103434710Y-93504254D01*
X103205640Y-93332775D01*
X103205632Y-93332770D01*
X103015896Y-93229166D01*
X102966491Y-93179761D01*
X102951323Y-93120334D01*
X102951323Y-91564000D01*
X102971008Y-91496961D01*
X103023812Y-91451206D01*
X103075323Y-91440000D01*
X114381323Y-91440000D01*
X114381323Y-88259229D01*
X114385547Y-88227140D01*
X114446386Y-88000085D01*
X114466982Y-87764677D01*
X114446386Y-87529269D01*
X114385548Y-87302214D01*
X114381323Y-87270121D01*
X114381323Y-85719229D01*
X114385547Y-85687140D01*
X114446386Y-85460085D01*
X114466982Y-85224677D01*
X114446386Y-84989269D01*
X114385548Y-84762214D01*
X114381323Y-84730121D01*
X114381323Y-80134000D01*
X114401008Y-80066961D01*
X114453812Y-80021206D01*
X114505323Y-80010000D01*
X125687323Y-80010000D01*
X125754362Y-80029685D01*
G37*
%TD.AperFunction*%
%TD*%
%TA.AperFunction,Conductor*%
%TO.N,+12V*%
G36*
X139089362Y-54630185D02*
G01*
X139135117Y-54682989D01*
X139146323Y-54734500D01*
X139146323Y-74990621D01*
X139126638Y-75057660D01*
X139081341Y-75099675D01*
X138957823Y-75166519D01*
X138957817Y-75166523D01*
X138761580Y-75319261D01*
X138593156Y-75502217D01*
X138457149Y-75710393D01*
X138357259Y-75938118D01*
X138296215Y-76179175D01*
X138296213Y-76179187D01*
X138275680Y-76426994D01*
X138275680Y-76427005D01*
X138296213Y-76674812D01*
X138296215Y-76674824D01*
X138357259Y-76915881D01*
X138457149Y-77143606D01*
X138593156Y-77351782D01*
X138593159Y-77351785D01*
X138761579Y-77534738D01*
X138884087Y-77630090D01*
X138957811Y-77687472D01*
X138957815Y-77687475D01*
X138998348Y-77709410D01*
X139081342Y-77754324D01*
X139130931Y-77803541D01*
X139146323Y-77863377D01*
X139146323Y-100390621D01*
X139126638Y-100457660D01*
X139081341Y-100499675D01*
X138957823Y-100566519D01*
X138957817Y-100566523D01*
X138761580Y-100719261D01*
X138593156Y-100902217D01*
X138457149Y-101110393D01*
X138357259Y-101338118D01*
X138296215Y-101579175D01*
X138296213Y-101579187D01*
X138275680Y-101826994D01*
X138275680Y-101827005D01*
X138296213Y-102074812D01*
X138296215Y-102074824D01*
X138357259Y-102315881D01*
X138457149Y-102543606D01*
X138593156Y-102751782D01*
X138593159Y-102751785D01*
X138761579Y-102934738D01*
X138884087Y-103030090D01*
X138957811Y-103087472D01*
X138957815Y-103087475D01*
X138998348Y-103109410D01*
X139081342Y-103154324D01*
X139130931Y-103203541D01*
X139146323Y-103263377D01*
X139146323Y-125790621D01*
X139126638Y-125857660D01*
X139081341Y-125899675D01*
X138957823Y-125966519D01*
X138957817Y-125966523D01*
X138761580Y-126119261D01*
X138593156Y-126302217D01*
X138457149Y-126510393D01*
X138357259Y-126738118D01*
X138296215Y-126979175D01*
X138296213Y-126979187D01*
X138275680Y-127226994D01*
X138275680Y-127227005D01*
X138296213Y-127474812D01*
X138296215Y-127474824D01*
X138357259Y-127715881D01*
X138457149Y-127943606D01*
X138593156Y-128151782D01*
X138593159Y-128151785D01*
X138761579Y-128334738D01*
X138884087Y-128430090D01*
X138957811Y-128487472D01*
X138957815Y-128487475D01*
X138998348Y-128509410D01*
X139081342Y-128554324D01*
X139130931Y-128603541D01*
X139146323Y-128663377D01*
X139146323Y-153545500D01*
X139126638Y-153612539D01*
X139073834Y-153658294D01*
X139022323Y-153669500D01*
X127840323Y-153669500D01*
X127773284Y-153649815D01*
X127727529Y-153597011D01*
X127716323Y-153545500D01*
X127716323Y-126587472D01*
X127736007Y-126520437D01*
X127788811Y-126474682D01*
X127857969Y-126464738D01*
X127921525Y-126493763D01*
X127954444Y-126538978D01*
X127971189Y-126578382D01*
X127971191Y-126578386D01*
X127971193Y-126578390D01*
X127976736Y-126587472D01*
X128112302Y-126809605D01*
X128112309Y-126809615D01*
X128285576Y-127017819D01*
X128285582Y-127017824D01*
X128487321Y-127198582D01*
X128713233Y-127348044D01*
X128958499Y-127463020D01*
X128958506Y-127463022D01*
X128958508Y-127463023D01*
X129217880Y-127541057D01*
X129217887Y-127541058D01*
X129217892Y-127541060D01*
X129485884Y-127580500D01*
X129485889Y-127580500D01*
X129688952Y-127580500D01*
X129688954Y-127580500D01*
X129688959Y-127580499D01*
X129688971Y-127580499D01*
X129726514Y-127577750D01*
X129891479Y-127565677D01*
X130004081Y-127540593D01*
X130155869Y-127506782D01*
X130155871Y-127506781D01*
X130155876Y-127506780D01*
X130408881Y-127410014D01*
X130645100Y-127277441D01*
X130859500Y-127111888D01*
X131047509Y-126916881D01*
X131205122Y-126696579D01*
X131319207Y-126474682D01*
X131328972Y-126455690D01*
X131328974Y-126455684D01*
X131328979Y-126455675D01*
X131416441Y-126199305D01*
X131465642Y-125932933D01*
X131475535Y-125662235D01*
X131445909Y-125392982D01*
X131377395Y-125130912D01*
X131271453Y-124881610D01*
X131130341Y-124650390D01*
X131041070Y-124543119D01*
X130957069Y-124442180D01*
X130957063Y-124442175D01*
X130755325Y-124261418D01*
X130529415Y-124111957D01*
X130529413Y-124111956D01*
X130284147Y-123996980D01*
X130284142Y-123996978D01*
X130284137Y-123996976D01*
X130024765Y-123918942D01*
X130024751Y-123918939D01*
X129909114Y-123901921D01*
X129756762Y-123879500D01*
X129553692Y-123879500D01*
X129553674Y-123879500D01*
X129351167Y-123894323D01*
X129351154Y-123894325D01*
X129086776Y-123953217D01*
X129086769Y-123953220D01*
X128833762Y-124049987D01*
X128597549Y-124182557D01*
X128383145Y-124348112D01*
X128195145Y-124543109D01*
X128195139Y-124543116D01*
X128037525Y-124763419D01*
X128037522Y-124763424D01*
X127950601Y-124932486D01*
X127902441Y-124983107D01*
X127834560Y-124999654D01*
X127768507Y-124976875D01*
X127725256Y-124922001D01*
X127716323Y-124875788D01*
X127716323Y-100390621D01*
X127716323Y-75787472D01*
X127736007Y-75720437D01*
X127788811Y-75674682D01*
X127857969Y-75664738D01*
X127921525Y-75693763D01*
X127954444Y-75738978D01*
X127971189Y-75778382D01*
X127971191Y-75778386D01*
X127971193Y-75778390D01*
X127976736Y-75787472D01*
X128112302Y-76009605D01*
X128112309Y-76009615D01*
X128285576Y-76217819D01*
X128285582Y-76217824D01*
X128487321Y-76398582D01*
X128713233Y-76548044D01*
X128958499Y-76663020D01*
X128958506Y-76663022D01*
X128958508Y-76663023D01*
X129217880Y-76741057D01*
X129217887Y-76741058D01*
X129217892Y-76741060D01*
X129485884Y-76780500D01*
X129485889Y-76780500D01*
X129688952Y-76780500D01*
X129688954Y-76780500D01*
X129688959Y-76780499D01*
X129688971Y-76780499D01*
X129726514Y-76777750D01*
X129891479Y-76765677D01*
X130004081Y-76740593D01*
X130155869Y-76706782D01*
X130155871Y-76706781D01*
X130155876Y-76706780D01*
X130408881Y-76610014D01*
X130645100Y-76477441D01*
X130859500Y-76311888D01*
X131047509Y-76116881D01*
X131205122Y-75896579D01*
X131319207Y-75674682D01*
X131328972Y-75655690D01*
X131328974Y-75655684D01*
X131328979Y-75655675D01*
X131416441Y-75399305D01*
X131465642Y-75132933D01*
X131475535Y-74862235D01*
X131445909Y-74592982D01*
X131377395Y-74330912D01*
X131271453Y-74081610D01*
X131130341Y-73850390D01*
X131041070Y-73743119D01*
X130957069Y-73642180D01*
X130957063Y-73642175D01*
X130755325Y-73461418D01*
X130529415Y-73311957D01*
X130529413Y-73311956D01*
X130284147Y-73196980D01*
X130284142Y-73196978D01*
X130284137Y-73196976D01*
X130024765Y-73118942D01*
X130024751Y-73118939D01*
X129909114Y-73101921D01*
X129756762Y-73079500D01*
X129553692Y-73079500D01*
X129553674Y-73079500D01*
X129351167Y-73094323D01*
X129351154Y-73094325D01*
X129086776Y-73153217D01*
X129086769Y-73153220D01*
X128833762Y-73249987D01*
X128597549Y-73382557D01*
X128383145Y-73548112D01*
X128195145Y-73743109D01*
X128195139Y-73743116D01*
X128037525Y-73963419D01*
X128037522Y-73963424D01*
X127950601Y-74132486D01*
X127902441Y-74183107D01*
X127834560Y-74199654D01*
X127768507Y-74176875D01*
X127725256Y-74122001D01*
X127716323Y-74075788D01*
X127716323Y-54734500D01*
X127736008Y-54667461D01*
X127788812Y-54621706D01*
X127840323Y-54610500D01*
X139022323Y-54610500D01*
X139089362Y-54630185D01*
G37*
%TD.AperFunction*%
%TD*%
%TA.AperFunction,Conductor*%
%TO.N,GND*%
G36*
X188852943Y-54610584D02*
G01*
X188984651Y-54617488D01*
X189168356Y-54627806D01*
X189174539Y-54628468D01*
X189326875Y-54652596D01*
X189340599Y-54654928D01*
X189489523Y-54680232D01*
X189495118Y-54681454D01*
X189648047Y-54722432D01*
X189803037Y-54767086D01*
X189808080Y-54768776D01*
X189956750Y-54825846D01*
X189958232Y-54826438D01*
X190105329Y-54887369D01*
X190109744Y-54889404D01*
X190252302Y-54962042D01*
X190254143Y-54963020D01*
X190392788Y-55039647D01*
X190396553Y-55041906D01*
X190531142Y-55129310D01*
X190533189Y-55130700D01*
X190648527Y-55212538D01*
X190662060Y-55222140D01*
X190665200Y-55224522D01*
X190790065Y-55325636D01*
X190792343Y-55327574D01*
X190910021Y-55432739D01*
X190912536Y-55435115D01*
X191026191Y-55548772D01*
X191028581Y-55551299D01*
X191133725Y-55668956D01*
X191135679Y-55671253D01*
X191236791Y-55796118D01*
X191239173Y-55799259D01*
X191330593Y-55928103D01*
X191332026Y-55930213D01*
X191419397Y-56064754D01*
X191421664Y-56068532D01*
X191498291Y-56207178D01*
X191499269Y-56209022D01*
X191571906Y-56351580D01*
X191573945Y-56356003D01*
X191634864Y-56503073D01*
X191635465Y-56504581D01*
X191692526Y-56653232D01*
X191694221Y-56658289D01*
X191738876Y-56813288D01*
X191779840Y-56966171D01*
X191781077Y-56971835D01*
X191808706Y-57134440D01*
X191832832Y-57286769D01*
X191833498Y-57292991D01*
X191843598Y-57472627D01*
X191843510Y-57472631D01*
X191843625Y-57473098D01*
X191850738Y-57608818D01*
X191850823Y-57612064D01*
X191850823Y-150668376D01*
X191850738Y-150671622D01*
X191843834Y-150803346D01*
X191833519Y-150987014D01*
X191832853Y-150993240D01*
X191808720Y-151145613D01*
X191781101Y-151308166D01*
X191779864Y-151313831D01*
X191738907Y-151466686D01*
X191694239Y-151621728D01*
X191692544Y-151626785D01*
X191635486Y-151775425D01*
X191634885Y-151776932D01*
X191573969Y-151923998D01*
X191571930Y-151928421D01*
X191499282Y-152071001D01*
X191498304Y-152072843D01*
X191421686Y-152211475D01*
X191419419Y-152215254D01*
X191332043Y-152349799D01*
X191330611Y-152351909D01*
X191239184Y-152480763D01*
X191236802Y-152483904D01*
X191135710Y-152608745D01*
X191133756Y-152611041D01*
X191028587Y-152728726D01*
X191026198Y-152731253D01*
X190912565Y-152844887D01*
X190910037Y-152847277D01*
X190792370Y-152952433D01*
X190790074Y-152954386D01*
X190665225Y-153055487D01*
X190662084Y-153057870D01*
X190533222Y-153149302D01*
X190531112Y-153150735D01*
X190396571Y-153238108D01*
X190392793Y-153240375D01*
X190254167Y-153316991D01*
X190252324Y-153317970D01*
X190109746Y-153390618D01*
X190105323Y-153392657D01*
X189958260Y-153453574D01*
X189956752Y-153454176D01*
X189808097Y-153511240D01*
X189803040Y-153512935D01*
X189648051Y-153557588D01*
X189495146Y-153598560D01*
X189489481Y-153599797D01*
X189326912Y-153627419D01*
X189174577Y-153651548D01*
X189168346Y-153652215D01*
X188981077Y-153662720D01*
X188853368Y-153669415D01*
X188850122Y-153669500D01*
X164035323Y-153669500D01*
X163968284Y-153649815D01*
X163922529Y-153597011D01*
X163911323Y-153545500D01*
X163911323Y-148519500D01*
X163931008Y-148452461D01*
X163983812Y-148406706D01*
X164035323Y-148395500D01*
X185469093Y-148395500D01*
X185536132Y-148415185D01*
X185556774Y-148431819D01*
X185577667Y-148452712D01*
X185726989Y-148544814D01*
X185893526Y-148599999D01*
X185996314Y-148610500D01*
X187546331Y-148610499D01*
X187649120Y-148599999D01*
X187815657Y-148544814D01*
X187964979Y-148452712D01*
X188089035Y-148328656D01*
X188181137Y-148179334D01*
X188236322Y-148012797D01*
X188246823Y-147910009D01*
X188246822Y-146609992D01*
X188236322Y-146507203D01*
X188181137Y-146340666D01*
X188089035Y-146191344D01*
X187964979Y-146067288D01*
X187883981Y-146017328D01*
X187810202Y-145971821D01*
X187763478Y-145919873D01*
X187752255Y-145850910D01*
X187780099Y-145786828D01*
X187787618Y-145778601D01*
X187792356Y-145773863D01*
X187934818Y-145631401D01*
X188070358Y-145437830D01*
X188170226Y-145223663D01*
X188231386Y-144995408D01*
X188251982Y-144760000D01*
X188231386Y-144524592D01*
X188170226Y-144296337D01*
X188070358Y-144082171D01*
X187966932Y-143934462D01*
X187934817Y-143888597D01*
X187767728Y-143721508D01*
X187610726Y-143611574D01*
X187567102Y-143556997D01*
X187559909Y-143487498D01*
X187591431Y-143425144D01*
X187610720Y-143408429D01*
X187767724Y-143298495D01*
X187934818Y-143131401D01*
X188070358Y-142937830D01*
X188170226Y-142723663D01*
X188231386Y-142495408D01*
X188251982Y-142260000D01*
X188231386Y-142024592D01*
X188170226Y-141796337D01*
X188070358Y-141582171D01*
X187934818Y-141388599D01*
X187934817Y-141388597D01*
X187767725Y-141221505D01*
X187574153Y-141085965D01*
X187574151Y-141085964D01*
X187467068Y-141036030D01*
X187359986Y-140986097D01*
X187359982Y-140986096D01*
X187359978Y-140986094D01*
X187131736Y-140924938D01*
X187131726Y-140924936D01*
X186955290Y-140909500D01*
X186955289Y-140909500D01*
X186587357Y-140909500D01*
X186587356Y-140909500D01*
X186410919Y-140924936D01*
X186410909Y-140924938D01*
X186182667Y-140986094D01*
X186182658Y-140986098D01*
X185968496Y-141085963D01*
X185954936Y-141095458D01*
X185945485Y-141102075D01*
X185879281Y-141124402D01*
X185874364Y-141124500D01*
X166608611Y-141124500D01*
X166601243Y-141124061D01*
X166547269Y-141117607D01*
X166542895Y-141116925D01*
X166478428Y-141104500D01*
X166478427Y-141104500D01*
X166441338Y-141104500D01*
X166433971Y-141104061D01*
X166397146Y-141099658D01*
X166397145Y-141099658D01*
X166331651Y-141104342D01*
X166327230Y-141104500D01*
X165568347Y-141104500D01*
X165501308Y-141084815D01*
X165480666Y-141068181D01*
X163947642Y-139535156D01*
X163914157Y-139473833D01*
X163911323Y-139447475D01*
X163911323Y-125797763D01*
X169677110Y-125797763D01*
X169706736Y-126067013D01*
X169706738Y-126067024D01*
X169775249Y-126329082D01*
X169775251Y-126329088D01*
X169881193Y-126578390D01*
X169953321Y-126696575D01*
X170022302Y-126809605D01*
X170022309Y-126809615D01*
X170195576Y-127017819D01*
X170195582Y-127017824D01*
X170397321Y-127198582D01*
X170623233Y-127348044D01*
X170868499Y-127463020D01*
X170868506Y-127463022D01*
X170868508Y-127463023D01*
X171127880Y-127541057D01*
X171127887Y-127541058D01*
X171127892Y-127541060D01*
X171395884Y-127580500D01*
X171395889Y-127580500D01*
X171598952Y-127580500D01*
X171598954Y-127580500D01*
X171598959Y-127580499D01*
X171598971Y-127580499D01*
X171636514Y-127577750D01*
X171801479Y-127565677D01*
X171914081Y-127540593D01*
X172065869Y-127506782D01*
X172065871Y-127506781D01*
X172065876Y-127506780D01*
X172318881Y-127410014D01*
X172555100Y-127277441D01*
X172769500Y-127111888D01*
X172957509Y-126916881D01*
X173115122Y-126696579D01*
X173189110Y-126552669D01*
X173238972Y-126455690D01*
X173238974Y-126455684D01*
X173238979Y-126455675D01*
X173326441Y-126199305D01*
X173375642Y-125932933D01*
X173385535Y-125662235D01*
X173355909Y-125392982D01*
X173287395Y-125130912D01*
X173181453Y-124881610D01*
X173040341Y-124650390D01*
X172951070Y-124543119D01*
X172867069Y-124442180D01*
X172867063Y-124442175D01*
X172665325Y-124261418D01*
X172439415Y-124111957D01*
X172439413Y-124111956D01*
X172194147Y-123996980D01*
X172194142Y-123996978D01*
X172194137Y-123996976D01*
X171934765Y-123918942D01*
X171934751Y-123918939D01*
X171819114Y-123901921D01*
X171666762Y-123879500D01*
X171463692Y-123879500D01*
X171463674Y-123879500D01*
X171261167Y-123894323D01*
X171261154Y-123894325D01*
X170996776Y-123953217D01*
X170996769Y-123953220D01*
X170743762Y-124049987D01*
X170507549Y-124182557D01*
X170293145Y-124348112D01*
X170105145Y-124543109D01*
X170105139Y-124543116D01*
X169947525Y-124763419D01*
X169947522Y-124763424D01*
X169823673Y-125004309D01*
X169823666Y-125004327D01*
X169736207Y-125260685D01*
X169736204Y-125260699D01*
X169687004Y-125527068D01*
X169687003Y-125527075D01*
X169677110Y-125797763D01*
X163911323Y-125797763D01*
X163911323Y-74997763D01*
X169677110Y-74997763D01*
X169706736Y-75267013D01*
X169706738Y-75267024D01*
X169775249Y-75529082D01*
X169775251Y-75529088D01*
X169881193Y-75778390D01*
X169953321Y-75896575D01*
X170022302Y-76009605D01*
X170022309Y-76009615D01*
X170195576Y-76217819D01*
X170195582Y-76217824D01*
X170397321Y-76398582D01*
X170623233Y-76548044D01*
X170868499Y-76663020D01*
X170868506Y-76663022D01*
X170868508Y-76663023D01*
X171127880Y-76741057D01*
X171127887Y-76741058D01*
X171127892Y-76741060D01*
X171395884Y-76780500D01*
X171395889Y-76780500D01*
X171598952Y-76780500D01*
X171598954Y-76780500D01*
X171598959Y-76780499D01*
X171598971Y-76780499D01*
X171636514Y-76777750D01*
X171801479Y-76765677D01*
X171914081Y-76740593D01*
X172065869Y-76706782D01*
X172065871Y-76706781D01*
X172065876Y-76706780D01*
X172318881Y-76610014D01*
X172555100Y-76477441D01*
X172769500Y-76311888D01*
X172957509Y-76116881D01*
X173115122Y-75896579D01*
X173189110Y-75752669D01*
X173238972Y-75655690D01*
X173238974Y-75655684D01*
X173238979Y-75655675D01*
X173326441Y-75399305D01*
X173375642Y-75132933D01*
X173385535Y-74862235D01*
X173355909Y-74592982D01*
X173287395Y-74330912D01*
X173181453Y-74081610D01*
X173040341Y-73850390D01*
X172951070Y-73743119D01*
X172867069Y-73642180D01*
X172867063Y-73642175D01*
X172665325Y-73461418D01*
X172439415Y-73311957D01*
X172439413Y-73311956D01*
X172194147Y-73196980D01*
X172194142Y-73196978D01*
X172194137Y-73196976D01*
X171934765Y-73118942D01*
X171934751Y-73118939D01*
X171819114Y-73101921D01*
X171666762Y-73079500D01*
X171463692Y-73079500D01*
X171463674Y-73079500D01*
X171261167Y-73094323D01*
X171261154Y-73094325D01*
X170996776Y-73153217D01*
X170996769Y-73153220D01*
X170743762Y-73249987D01*
X170507549Y-73382557D01*
X170293145Y-73548112D01*
X170105145Y-73743109D01*
X170105139Y-73743116D01*
X169947525Y-73963419D01*
X169947522Y-73963424D01*
X169823673Y-74204309D01*
X169823666Y-74204327D01*
X169736207Y-74460685D01*
X169736204Y-74460699D01*
X169687004Y-74727068D01*
X169687003Y-74727075D01*
X169677110Y-74997763D01*
X163911323Y-74997763D01*
X163911323Y-68967201D01*
X163931008Y-68900162D01*
X163947642Y-68879520D01*
X165166495Y-67660668D01*
X168135343Y-64691819D01*
X168196667Y-64658334D01*
X168223025Y-64655500D01*
X169954204Y-64655500D01*
X170021243Y-64675185D01*
X170066998Y-64727989D01*
X170076942Y-64797147D01*
X170047917Y-64860703D01*
X169989139Y-64898477D01*
X169989137Y-64898478D01*
X169984131Y-64899947D01*
X169984128Y-64899948D01*
X169951813Y-64909436D01*
X169921117Y-64918449D01*
X169916828Y-64919544D01*
X169852689Y-64933496D01*
X169852680Y-64933499D01*
X169818593Y-64948095D01*
X169811652Y-64950590D01*
X169776063Y-64961040D01*
X169717688Y-64991133D01*
X169713685Y-64993020D01*
X169653335Y-65018863D01*
X169622620Y-65039651D01*
X169616278Y-65043414D01*
X169583310Y-65060412D01*
X169583303Y-65060417D01*
X169531702Y-65100994D01*
X169528130Y-65103603D01*
X169473748Y-65140411D01*
X169447515Y-65166643D01*
X169442001Y-65171536D01*
X169412850Y-65194462D01*
X169412851Y-65194462D01*
X169369852Y-65244084D01*
X169366836Y-65247323D01*
X168068832Y-66545328D01*
X165528836Y-69085323D01*
X165425360Y-69210646D01*
X165321431Y-69400977D01*
X165321428Y-69400985D01*
X165255404Y-69607527D01*
X165255402Y-69607537D01*
X165229658Y-69822852D01*
X165229658Y-69822856D01*
X165245127Y-70039154D01*
X165245128Y-70039156D01*
X165301255Y-70248622D01*
X165396008Y-70443679D01*
X165482315Y-70558972D01*
X165525961Y-70617278D01*
X165525962Y-70617279D01*
X165525963Y-70617280D01*
X165686425Y-70763150D01*
X165686427Y-70763151D01*
X165686428Y-70763152D01*
X165871588Y-70876013D01*
X165871593Y-70876015D01*
X166074774Y-70951798D01*
X166288626Y-70987759D01*
X166505419Y-70982598D01*
X166717317Y-70936502D01*
X166916663Y-70851137D01*
X167096250Y-70729589D01*
X168481168Y-69344672D01*
X168481168Y-69344671D01*
X168482569Y-69343271D01*
X168482586Y-69343251D01*
X169751168Y-68074672D01*
X169751168Y-68074671D01*
X169752569Y-68073271D01*
X169752586Y-68073251D01*
X170634020Y-67191819D01*
X170695344Y-67158334D01*
X170721702Y-67155500D01*
X185516217Y-67155500D01*
X185583256Y-67175185D01*
X185629011Y-67227989D01*
X185638955Y-67297147D01*
X185609930Y-67360703D01*
X185581316Y-67385037D01*
X185578869Y-67386546D01*
X185577665Y-67387289D01*
X185453612Y-67511342D01*
X185361510Y-67660663D01*
X185361508Y-67660666D01*
X185361509Y-67660666D01*
X185306324Y-67827203D01*
X185306324Y-67827204D01*
X185306323Y-67827204D01*
X185295823Y-67929983D01*
X185295823Y-69230001D01*
X185295824Y-69230018D01*
X185306323Y-69332796D01*
X185306324Y-69332799D01*
X185328919Y-69400985D01*
X185361509Y-69499334D01*
X185453611Y-69648656D01*
X185577667Y-69772712D01*
X185726989Y-69864814D01*
X185893526Y-69919999D01*
X185996314Y-69930500D01*
X187546331Y-69930499D01*
X187649120Y-69919999D01*
X187815657Y-69864814D01*
X187964979Y-69772712D01*
X188089035Y-69648656D01*
X188181137Y-69499334D01*
X188236322Y-69332797D01*
X188246823Y-69230009D01*
X188246822Y-67929992D01*
X188236322Y-67827203D01*
X188181137Y-67660666D01*
X188089035Y-67511344D01*
X187964979Y-67387288D01*
X187883981Y-67337328D01*
X187810202Y-67291821D01*
X187763478Y-67239873D01*
X187752255Y-67170910D01*
X187780099Y-67106828D01*
X187787618Y-67098601D01*
X187934818Y-66951401D01*
X188070358Y-66757830D01*
X188170226Y-66543663D01*
X188231386Y-66315408D01*
X188251982Y-66080000D01*
X188231386Y-65844592D01*
X188170226Y-65616337D01*
X188070358Y-65402171D01*
X187934818Y-65208599D01*
X187934817Y-65208597D01*
X187767725Y-65041505D01*
X187610726Y-64931574D01*
X187567101Y-64876997D01*
X187559907Y-64807499D01*
X187591430Y-64745144D01*
X187610714Y-64728433D01*
X187767724Y-64618495D01*
X187934818Y-64451401D01*
X188070358Y-64257830D01*
X188170226Y-64043663D01*
X188231386Y-63815408D01*
X188251982Y-63580000D01*
X188231386Y-63344592D01*
X188170226Y-63116337D01*
X188070358Y-62902171D01*
X187934818Y-62708599D01*
X187934817Y-62708597D01*
X187767725Y-62541505D01*
X187574153Y-62405965D01*
X187574151Y-62405964D01*
X187467068Y-62356030D01*
X187359986Y-62306097D01*
X187359982Y-62306096D01*
X187359978Y-62306094D01*
X187131736Y-62244938D01*
X187131726Y-62244936D01*
X186955290Y-62229500D01*
X186955289Y-62229500D01*
X186587357Y-62229500D01*
X186587356Y-62229500D01*
X186410919Y-62244936D01*
X186410909Y-62244938D01*
X186182667Y-62306094D01*
X186182658Y-62306098D01*
X186039440Y-62372882D01*
X185987035Y-62384500D01*
X167806485Y-62384500D01*
X167785920Y-62382783D01*
X167782699Y-62382241D01*
X167782697Y-62382241D01*
X167775199Y-62382419D01*
X167688538Y-62384482D01*
X167687063Y-62384500D01*
X167647232Y-62384500D01*
X167635953Y-62385576D01*
X167631548Y-62385838D01*
X167565902Y-62387402D01*
X167529661Y-62395285D01*
X167522378Y-62396420D01*
X167514002Y-62397220D01*
X167485457Y-62399946D01*
X167485448Y-62399948D01*
X167422442Y-62418447D01*
X167418156Y-62419541D01*
X167354009Y-62433497D01*
X167353996Y-62433501D01*
X167319917Y-62448094D01*
X167312975Y-62450590D01*
X167277386Y-62461040D01*
X167219011Y-62491133D01*
X167215007Y-62493020D01*
X167154660Y-62518863D01*
X167146364Y-62524477D01*
X167123944Y-62539651D01*
X167117599Y-62543415D01*
X167084635Y-62560410D01*
X167033018Y-62601001D01*
X167029444Y-62603611D01*
X166975082Y-62640403D01*
X166975073Y-62640410D01*
X166948841Y-62666641D01*
X166943324Y-62671537D01*
X166914176Y-62694459D01*
X166871169Y-62744091D01*
X166868153Y-62747330D01*
X164123003Y-65492478D01*
X164061680Y-65525963D01*
X163991988Y-65520979D01*
X163936055Y-65479107D01*
X163911638Y-65413643D01*
X163911323Y-65404824D01*
X163911323Y-54734500D01*
X163931008Y-54667461D01*
X163983812Y-54621706D01*
X164035323Y-54610500D01*
X188849700Y-54610500D01*
X188852943Y-54610584D01*
G37*
%TD.AperFunction*%
%TD*%
%TA.AperFunction,Conductor*%
%TO.N,Motor_4A*%
G36*
X113818862Y-130829685D02*
G01*
X113864617Y-130882489D01*
X113875823Y-130934000D01*
X113875823Y-135546674D01*
X113877985Y-135579664D01*
X113877989Y-135579705D01*
X113886531Y-135644591D01*
X113886533Y-135644605D01*
X113892990Y-135677066D01*
X113943856Y-135866907D01*
X113947609Y-135888191D01*
X113958605Y-136013868D01*
X113958605Y-136035484D01*
X113947609Y-136161158D01*
X113943856Y-136182442D01*
X113892989Y-136372287D01*
X113886529Y-136404762D01*
X113886529Y-136404765D01*
X113877987Y-136469662D01*
X113875823Y-136502683D01*
X113875823Y-136502692D01*
X113875823Y-138086674D01*
X113877985Y-138119664D01*
X113877989Y-138119705D01*
X113886531Y-138184591D01*
X113886533Y-138184605D01*
X113892990Y-138217066D01*
X113943856Y-138406907D01*
X113947609Y-138428191D01*
X113958605Y-138553868D01*
X113958605Y-138575484D01*
X113947609Y-138701158D01*
X113943856Y-138722442D01*
X113892989Y-138912287D01*
X113886529Y-138944762D01*
X113886529Y-138944765D01*
X113877987Y-139009662D01*
X113875823Y-139042683D01*
X113875822Y-139042692D01*
X113875823Y-139042692D01*
X113875823Y-141610500D01*
X113856138Y-141677539D01*
X113803334Y-141723294D01*
X113751823Y-141734500D01*
X103075323Y-141734500D01*
X103075314Y-141734500D01*
X103075313Y-141734501D01*
X102967872Y-141746052D01*
X102967860Y-141746054D01*
X102916350Y-141757260D01*
X102813825Y-141791383D01*
X102813819Y-141791386D01*
X102692785Y-141869171D01*
X102692774Y-141869179D01*
X102639982Y-141914923D01*
X102545756Y-142023664D01*
X102545753Y-142023668D01*
X102485986Y-142154536D01*
X102466301Y-142221576D01*
X102466299Y-142221584D01*
X102445823Y-142364001D01*
X102445823Y-142364002D01*
X102445822Y-143920330D01*
X102445823Y-143920337D01*
X102461526Y-144045351D01*
X102476691Y-144104768D01*
X102476693Y-144104774D01*
X102476694Y-144104776D01*
X102522824Y-144222021D01*
X102609049Y-144337203D01*
X102609053Y-144337207D01*
X102609058Y-144337213D01*
X102658443Y-144386598D01*
X102658449Y-144386603D01*
X102658454Y-144386608D01*
X102773635Y-144472832D01*
X102886750Y-144534597D01*
X102936155Y-144584001D01*
X102951323Y-144643429D01*
X102951323Y-149996568D01*
X102931638Y-150063607D01*
X102886751Y-150105400D01*
X102773633Y-150167168D01*
X102671444Y-150240857D01*
X102671442Y-150240859D01*
X102626547Y-150282659D01*
X102545754Y-150379331D01*
X102485986Y-150510202D01*
X102485985Y-150510207D01*
X102466300Y-150577246D01*
X102466299Y-150577250D01*
X102453134Y-150668820D01*
X102445823Y-150719667D01*
X102445823Y-153545500D01*
X102426138Y-153612539D01*
X102373334Y-153658294D01*
X102321823Y-153669500D01*
X95792945Y-153669500D01*
X95789702Y-153669415D01*
X95780737Y-153668945D01*
X95658102Y-153662518D01*
X95474295Y-153652197D01*
X95468068Y-153651531D01*
X95315781Y-153627412D01*
X95153149Y-153599781D01*
X95147485Y-153598543D01*
X94994639Y-153557590D01*
X94839590Y-153512923D01*
X94834533Y-153511227D01*
X94685883Y-153454166D01*
X94684376Y-153453565D01*
X94537297Y-153392644D01*
X94532907Y-153390619D01*
X94441083Y-153343834D01*
X94390324Y-153317971D01*
X94388494Y-153317000D01*
X94249829Y-153240363D01*
X94246059Y-153238101D01*
X94171824Y-153189893D01*
X94111530Y-153150737D01*
X94109422Y-153149306D01*
X93980550Y-153057867D01*
X93977408Y-153055485D01*
X93852564Y-152954388D01*
X93850268Y-152952434D01*
X93732589Y-152847270D01*
X93730070Y-152844889D01*
X93616418Y-152731239D01*
X93614048Y-152728731D01*
X93508863Y-152611031D01*
X93506930Y-152608758D01*
X93405818Y-152483896D01*
X93403461Y-152480789D01*
X93312030Y-152351930D01*
X93310597Y-152349821D01*
X93282424Y-152306439D01*
X93223192Y-152215231D01*
X93220948Y-152211489D01*
X93174894Y-152128162D01*
X93144320Y-152072842D01*
X93143341Y-152070999D01*
X93070684Y-151928403D01*
X93068666Y-151924026D01*
X93007686Y-151776808D01*
X93007166Y-151775502D01*
X92950074Y-151626774D01*
X92948385Y-151621734D01*
X92903718Y-151466694D01*
X92862753Y-151313811D01*
X92861525Y-151308186D01*
X92833910Y-151145663D01*
X92809768Y-150993238D01*
X92809107Y-150987059D01*
X92798587Y-150799512D01*
X92791907Y-150672063D01*
X92791823Y-150668820D01*
X92791823Y-130934000D01*
X92811508Y-130866961D01*
X92864312Y-130821206D01*
X92915823Y-130810000D01*
X113751823Y-130810000D01*
X113818862Y-130829685D01*
G37*
%TD.AperFunction*%
%TD*%
D21*
X191851300Y-57610000D02*
G75*
G03*
X188851323Y-54610000I-3000000J0D01*
G01*
X92791323Y-57610000D02*
X92791323Y-150670000D01*
X92791300Y-150670000D02*
G75*
G03*
X95791323Y-153670000I3000000J0D01*
G01*
X95791323Y-54610023D02*
G75*
G03*
X92791323Y-57610000I-23J-2999977D01*
G01*
X188851323Y-54610000D02*
X95791323Y-54610000D01*
X188851323Y-153670023D02*
G75*
G03*
X191851323Y-150670000I-23J3000023D01*
G01*
X95791323Y-153670000D02*
X188851323Y-153670000D01*
X191851323Y-150670000D02*
X191851323Y-57610000D01*
M02*
