M48
; DRILL file {KiCad 7.0.5} date Wed Mar  6 21:46:01 2024
; FORMAT={3:3/ absolute / metric / keep zeros}
; #@! TF.CreationDate,2024-03-06T21:46:01+09:00
; #@! TF.GenerationSoftware,Kicad,Pcbnew,7.0.5
; #@! TF.FileFunction,MixedPlating,1,2
FMAT,2
METRIC
; #@! TA.AperFunction,Plated,PTH,ViaDrill
T1C0.400
; #@! TA.AperFunction,Plated,PTH,ComponentDrill
T2C0.950
; #@! TA.AperFunction,Plated,PTH,ComponentDrill
T3C1.000
; #@! TA.AperFunction,Plated,PTH,ComponentDrill
T4C4.500
; #@! TA.AperFunction,NonPlated,NPTH,ComponentDrill
T5C2.000
; #@! TA.AperFunction,NonPlated,NPTH,ComponentDrill
T6C3.200
%
G90
G05
T1
X065959Y074930
X065959Y073660
X065959Y072390
X073579Y083820
X074849Y085090
X076119Y086360
T2
X088900Y092650
X088900Y090150
X088900Y087650
X088900Y085150
X088900Y013910
X088900Y011410
X088900Y008910
X088900Y006410
T3
X010160Y093845
X010160Y091305
X010160Y068445
X010160Y065905
X010160Y017645
X010160Y015105
X010190Y043045
X010190Y040505
X012700Y093845
X012700Y091305
X012700Y068445
X012700Y065905
X012700Y017645
X012700Y015105
X012730Y043045
X012730Y040505
X015240Y093845
X015240Y091305
X015240Y068445
X015240Y065905
X015240Y017645
X015240Y015105
X015270Y043045
X015270Y040505
X017780Y093845
X017780Y091305
X017780Y068445
X017780Y065905
X017780Y017645
X017780Y015105
X017810Y043045
X017810Y040505
X020320Y093845
X020320Y091305
X020320Y068445
X020320Y065905
X020320Y017645
X020320Y015105
X020350Y043045
X020350Y040505
X022860Y093845
X022860Y091305
X022860Y068445
X022860Y065905
X022860Y017645
X022860Y015105
X022890Y043045
X022890Y040505
X025400Y093845
X025400Y091305
X025400Y068445
X025400Y065905
X025400Y017645
X025400Y015105
X025430Y043045
X025430Y040505
X027940Y093845
X027940Y091305
X027940Y068445
X027940Y065905
X027940Y017645
X027940Y015105
X027970Y043045
X027970Y040505
X030480Y093845
X030480Y091305
X030480Y068445
X030480Y065905
X030480Y017645
X030480Y015105
X030510Y043045
X030510Y040505
X033020Y093845
X033020Y091305
X033020Y068445
X033020Y065905
X033020Y017645
X033020Y015105
X033050Y043045
X033050Y040505
X035560Y093845
X035560Y091305
X035560Y068445
X035560Y065905
X035560Y017645
X035560Y015105
X035590Y043045
X035590Y040505
X038100Y093845
X038100Y091305
X038100Y068445
X038100Y065905
X038100Y017645
X038100Y015105
X038130Y043045
X038130Y040505
X040640Y093845
X040640Y091305
X040640Y068445
X040640Y065905
X040640Y017645
X040640Y015105
X040670Y043045
X040670Y040505
X043180Y093845
X043180Y091305
X043180Y068445
X043180Y065905
X043180Y017645
X043180Y015105
X043210Y043045
X043210Y040505
X045720Y093845
X045720Y091305
X045720Y068445
X045720Y065905
X045720Y017645
X045720Y015105
X045750Y043045
X045750Y040505
X046990Y082243
X046990Y077243
X046990Y056843
X046990Y051843
X046990Y031443
X046990Y026443
X048260Y093845
X048260Y091305
X048260Y068445
X048260Y065905
X048260Y017645
X048260Y015105
X048290Y043045
X048290Y040505
X050800Y093845
X050800Y091305
X050800Y068445
X050800Y065905
X050800Y017645
X050800Y015105
X050830Y043045
X050830Y040505
X053340Y093845
X053340Y091305
X053340Y068445
X053340Y065905
X053340Y017645
X053340Y015105
X053370Y043045
X053370Y040505
X055880Y093845
X055880Y091305
X055880Y068445
X055880Y065905
X055880Y017645
X055880Y015105
X055910Y043045
X055910Y040505
X058420Y093845
X058420Y091305
X058420Y068445
X058420Y065905
X058420Y017645
X058420Y015105
X058450Y043045
X058450Y040505
X060960Y093845
X060960Y091305
X060960Y068445
X060960Y065905
X060960Y017645
X060960Y015105
X060990Y043045
X060990Y040505
X063500Y093845
X063500Y091305
X063500Y068445
X063500Y065905
X063500Y017645
X063500Y015105
X063530Y043045
X063530Y040505
X066040Y093845
X066040Y091305
X066040Y068445
X066040Y065905
X066040Y017645
X066040Y015105
X066070Y043045
X066070Y040505
X068580Y093845
X068580Y091305
X068580Y068445
X068580Y065905
X068580Y017645
X068580Y015105
X068610Y043045
X068610Y040505
X071120Y093845
X071120Y091305
X071120Y068445
X071120Y065905
X071120Y017645
X071120Y015105
X071150Y043045
X071150Y040505
T4
X006350Y082550
X006350Y057150
X006350Y031750
X006350Y006350
X013550Y082550
X013550Y057150
X013550Y031750
X013550Y006350
X043390Y004945
X050590Y004945
T6
X036830Y078740
X036830Y027940
X078740Y078740
X078740Y027940
T5
G00X095400Y088500
M15
G01X095400Y089300
M16
G05
G00X095400Y009760
M15
G01X095400Y010560
M16
G05
T0
M30
