M48
; DRILL file {KiCad 7.0.5} date Thu Mar  7 11:13:33 2024
; FORMAT={3:3/ absolute / metric / keep zeros}
; #@! TF.CreationDate,2024-03-07T11:13:33+09:00
; #@! TF.GenerationSoftware,Kicad,Pcbnew,7.0.5
; #@! TF.FileFunction,MixedPlating,1,2
FMAT,2
METRIC
; #@! TA.AperFunction,Plated,PTH,ViaDrill
T1C0.400
; #@! TA.AperFunction,Plated,PTH,ComponentDrill
T2C0.950
; #@! TA.AperFunction,Plated,PTH,ComponentDrill
T3C1.000
; #@! TA.AperFunction,Plated,PTH,ComponentDrill
T4C4.500
; #@! TA.AperFunction,NonPlated,NPTH,ComponentDrill
T5C2.000
; #@! TA.AperFunction,NonPlated,NPTH,ComponentDrill
T6C3.200
%
G90
G05
T1
X118273Y-138069
X119461Y-136799
X120731Y-135529
X125893Y-126639
X125893Y-127909
X125893Y-129179
T2
X102951Y-060659
X102951Y-063159
X102951Y-065659
X102951Y-068159
X102951Y-139399
X102951Y-141899
X102951Y-144399
X102951Y-146899
T3
X120701Y-094755
X120701Y-097295
X120731Y-069355
X120731Y-071895
X120731Y-120155
X120731Y-122695
X120731Y-145555
X120731Y-148095
X123241Y-094755
X123241Y-097295
X123271Y-069355
X123271Y-071895
X123271Y-120155
X123271Y-122695
X123271Y-145555
X123271Y-148095
X125781Y-094755
X125781Y-097295
X125811Y-069355
X125811Y-071895
X125811Y-120155
X125811Y-122695
X125811Y-145555
X125811Y-148095
X128321Y-094755
X128321Y-097295
X128351Y-069355
X128351Y-071895
X128351Y-120155
X128351Y-122695
X128351Y-145555
X128351Y-148095
X130861Y-094755
X130861Y-097295
X130891Y-069355
X130891Y-071895
X130891Y-120155
X130891Y-122695
X130891Y-145555
X130891Y-148095
X133401Y-094755
X133401Y-097295
X133431Y-069355
X133431Y-071895
X133431Y-120155
X133431Y-122695
X133431Y-145555
X133431Y-148095
X135941Y-094755
X135941Y-097295
X135971Y-069355
X135971Y-071895
X135971Y-120155
X135971Y-122695
X135971Y-145555
X135971Y-148095
X138481Y-094755
X138481Y-097295
X138511Y-069355
X138511Y-071895
X138511Y-120155
X138511Y-122695
X138511Y-145555
X138511Y-148095
X141021Y-094755
X141021Y-097295
X141051Y-069355
X141051Y-071895
X141051Y-120155
X141051Y-122695
X141051Y-145555
X141051Y-148095
X143561Y-094755
X143561Y-097295
X143591Y-069355
X143591Y-071895
X143591Y-120155
X143591Y-122695
X143591Y-145555
X143591Y-148095
X144861Y-080692
X144861Y-085692
X144861Y-106092
X144861Y-111092
X144861Y-131492
X144861Y-136492
X146101Y-094755
X146101Y-097295
X146131Y-069355
X146131Y-071895
X146131Y-120155
X146131Y-122695
X146131Y-145555
X146131Y-148095
X148641Y-094755
X148641Y-097295
X148671Y-069355
X148671Y-071895
X148671Y-120155
X148671Y-122695
X148671Y-145555
X148671Y-148095
X151181Y-094755
X151181Y-097295
X151211Y-069355
X151211Y-071895
X151211Y-120155
X151211Y-122695
X151211Y-145555
X151211Y-148095
X153721Y-094755
X153721Y-097295
X153751Y-069355
X153751Y-071895
X153751Y-120155
X153751Y-122695
X153751Y-145555
X153751Y-148095
X156261Y-094755
X156261Y-097295
X156291Y-069355
X156291Y-071895
X156291Y-120155
X156291Y-122695
X156291Y-145555
X156291Y-148095
X158801Y-094755
X158801Y-097295
X158831Y-069355
X158831Y-071895
X158831Y-120155
X158831Y-122695
X158831Y-145555
X158831Y-148095
X161341Y-094755
X161341Y-097295
X161371Y-069355
X161371Y-071895
X161371Y-120155
X161371Y-122695
X161371Y-145555
X161371Y-148095
X163881Y-094755
X163881Y-097295
X163911Y-069355
X163911Y-071895
X163911Y-120155
X163911Y-122695
X163911Y-145555
X163911Y-148095
X166421Y-094755
X166421Y-097295
X166451Y-069355
X166451Y-071895
X166451Y-120155
X166451Y-122695
X166451Y-145555
X166451Y-148095
X168961Y-094755
X168961Y-097295
X168991Y-069355
X168991Y-071895
X168991Y-120155
X168991Y-122695
X168991Y-145555
X168991Y-148095
X171501Y-094755
X171501Y-097295
X171531Y-069355
X171531Y-071895
X171531Y-120155
X171531Y-122695
X171531Y-145555
X171531Y-148095
X174041Y-094755
X174041Y-097295
X174071Y-069355
X174071Y-071895
X174071Y-120155
X174071Y-122695
X174071Y-145555
X174071Y-148095
X176581Y-094755
X176581Y-097295
X176611Y-069355
X176611Y-071895
X176611Y-120155
X176611Y-122695
X176611Y-145555
X176611Y-148095
X179121Y-094755
X179121Y-097295
X179151Y-069355
X179151Y-071895
X179151Y-120155
X179151Y-122695
X179151Y-145555
X179151Y-148095
X181661Y-094755
X181661Y-097295
X181691Y-069355
X181691Y-071895
X181691Y-120155
X181691Y-122695
X181691Y-145555
X181691Y-148095
T4
X141261Y-059195
X148461Y-059195
X176821Y-060599
X176821Y-085999
X176821Y-111399
X176821Y-136799
X184021Y-060599
X184021Y-085999
X184021Y-111399
X184021Y-136799
T6
X113111Y-082189
X113111Y-132989
X155021Y-082189
X155021Y-132989
T5
G00X096451Y-064009
M15
G01X096451Y-064809
M16
G05
G00X096451Y-142749
M15
G01X096451Y-143549
M16
G05
T0
M30
