%TF.GenerationSoftware,KiCad,Pcbnew,7.0.5*%
%TF.CreationDate,2024-03-07T11:13:36+09:00*%
%TF.ProjectId,blackMD_mother,626c6163-6b4d-4445-9f6d-6f746865722e,rev?*%
%TF.SameCoordinates,Original*%
%TF.FileFunction,Soldermask,Bot*%
%TF.FilePolarity,Negative*%
%FSLAX46Y46*%
G04 Gerber Fmt 4.6, Leading zero omitted, Abs format (unit mm)*
G04 Created by KiCad (PCBNEW 7.0.5) date 2024-03-07 11:13:36*
%MOMM*%
%LPD*%
G01*
G04 APERTURE LIST*
G04 Aperture macros list*
%AMRoundRect*
0 Rectangle with rounded corners*
0 $1 Rounding radius*
0 $2 $3 $4 $5 $6 $7 $8 $9 X,Y pos of 4 corners*
0 Add a 4 corners polygon primitive as box body*
4,1,4,$2,$3,$4,$5,$6,$7,$8,$9,$2,$3,0*
0 Add four circle primitives for the rounded corners*
1,1,$1+$1,$2,$3*
1,1,$1+$1,$4,$5*
1,1,$1+$1,$6,$7*
1,1,$1+$1,$8,$9*
0 Add four rect primitives between the rounded corners*
20,1,$1+$1,$2,$3,$4,$5,0*
20,1,$1+$1,$4,$5,$6,$7,0*
20,1,$1+$1,$6,$7,$8,$9,0*
20,1,$1+$1,$8,$9,$2,$3,0*%
G04 Aperture macros list end*
%ADD10C,3.200000*%
%ADD11O,2.000000X2.800000*%
%ADD12RoundRect,0.250000X-0.725000X0.600000X-0.725000X-0.600000X0.725000X-0.600000X0.725000X0.600000X0*%
%ADD13O,1.950000X1.700000*%
%ADD14RoundRect,1.500000X-1.500000X-1.500000X1.500000X-1.500000X1.500000X1.500000X-1.500000X1.500000X0*%
%ADD15C,6.000000*%
%ADD16R,1.700000X1.700000*%
%ADD17O,1.700000X1.700000*%
%ADD18C,2.000000*%
%ADD19R,2.000000X2.000000*%
%TA.AperFunction,Profile*%
%ADD20C,0.100000*%
%TD*%
G04 APERTURE END LIST*
D10*
%TO.C,REF\u002A\u002A*%
X155021323Y-82189354D03*
%TD*%
%TO.C,REF\u002A\u002A*%
X113111323Y-132989354D03*
%TD*%
%TO.C,REF\u002A\u002A*%
X155021323Y-132989354D03*
%TD*%
%TO.C,REF\u002A\u002A*%
X113111323Y-82189354D03*
%TD*%
D11*
%TO.C,I2C2*%
X96451323Y-143149354D03*
D12*
X102951323Y-139399354D03*
D13*
X102951323Y-141899354D03*
X102951323Y-144399354D03*
X102951323Y-146899354D03*
%TD*%
D14*
%TO.C,MotorOUT3*%
X176821323Y-85999354D03*
D15*
X184021323Y-85999354D03*
%TD*%
D16*
%TO.C,MD3*%
X181661323Y-97294677D03*
D17*
X181661323Y-94754677D03*
X179121323Y-97294677D03*
X179121323Y-94754677D03*
X176581323Y-97294677D03*
X176581323Y-94754677D03*
X174041323Y-97294677D03*
X174041323Y-94754677D03*
X171501323Y-97294677D03*
X171501323Y-94754677D03*
X168961323Y-97294677D03*
X168961323Y-94754677D03*
X166421323Y-97294677D03*
X166421323Y-94754677D03*
X163881323Y-97294677D03*
X163881323Y-94754677D03*
X161341323Y-97294677D03*
X161341323Y-94754677D03*
X158801323Y-97294677D03*
X158801323Y-94754677D03*
X156261323Y-97294677D03*
X156261323Y-94754677D03*
X153721323Y-97294677D03*
X153721323Y-94754677D03*
X151181323Y-97294677D03*
X151181323Y-94754677D03*
X148641323Y-97294677D03*
X148641323Y-94754677D03*
X146101323Y-97294677D03*
X146101323Y-94754677D03*
X143561323Y-97294677D03*
X143561323Y-94754677D03*
X141021323Y-97294677D03*
X141021323Y-94754677D03*
X138481323Y-97294677D03*
X138481323Y-94754677D03*
X135941323Y-97294677D03*
X135941323Y-94754677D03*
X133401323Y-97294677D03*
X133401323Y-94754677D03*
X130861323Y-97294677D03*
X130861323Y-94754677D03*
X128321323Y-97294677D03*
X128321323Y-94754677D03*
X125781323Y-97294677D03*
X125781323Y-94754677D03*
X123241323Y-97294677D03*
X123241323Y-94754677D03*
X120701323Y-97294677D03*
X120701323Y-94754677D03*
%TD*%
D15*
%TO.C,MotorOUT1*%
X184021323Y-136799354D03*
D14*
X176821323Y-136799354D03*
%TD*%
D15*
%TO.C,PowerIn1*%
X148461323Y-59194677D03*
D14*
X141261323Y-59194677D03*
%TD*%
D15*
%TO.C,MotorOUT2*%
X184021323Y-111399354D03*
D14*
X176821323Y-111399354D03*
%TD*%
D13*
%TO.C,I2C1*%
X102951323Y-68159354D03*
X102951323Y-65659354D03*
X102951323Y-63159354D03*
D12*
X102951323Y-60659354D03*
D11*
X96451323Y-64409354D03*
%TD*%
D16*
%TO.C,MD1*%
X181691323Y-148094677D03*
D17*
X181691323Y-145554677D03*
X179151323Y-148094677D03*
X179151323Y-145554677D03*
X176611323Y-148094677D03*
X176611323Y-145554677D03*
X174071323Y-148094677D03*
X174071323Y-145554677D03*
X171531323Y-148094677D03*
X171531323Y-145554677D03*
X168991323Y-148094677D03*
X168991323Y-145554677D03*
X166451323Y-148094677D03*
X166451323Y-145554677D03*
X163911323Y-148094677D03*
X163911323Y-145554677D03*
X161371323Y-148094677D03*
X161371323Y-145554677D03*
X158831323Y-148094677D03*
X158831323Y-145554677D03*
X156291323Y-148094677D03*
X156291323Y-145554677D03*
X153751323Y-148094677D03*
X153751323Y-145554677D03*
X151211323Y-148094677D03*
X151211323Y-145554677D03*
X148671323Y-148094677D03*
X148671323Y-145554677D03*
X146131323Y-148094677D03*
X146131323Y-145554677D03*
X143591323Y-148094677D03*
X143591323Y-145554677D03*
X141051323Y-148094677D03*
X141051323Y-145554677D03*
X138511323Y-148094677D03*
X138511323Y-145554677D03*
X135971323Y-148094677D03*
X135971323Y-145554677D03*
X133431323Y-148094677D03*
X133431323Y-145554677D03*
X130891323Y-148094677D03*
X130891323Y-145554677D03*
X128351323Y-148094677D03*
X128351323Y-145554677D03*
X125811323Y-148094677D03*
X125811323Y-145554677D03*
X123271323Y-148094677D03*
X123271323Y-145554677D03*
X120731323Y-148094677D03*
X120731323Y-145554677D03*
%TD*%
D18*
%TO.C,C2*%
X144861323Y-106092354D03*
D19*
X144861323Y-111092354D03*
%TD*%
D18*
%TO.C,C3*%
X144861323Y-131492354D03*
D19*
X144861323Y-136492354D03*
%TD*%
D16*
%TO.C,MD2*%
X181691323Y-122694677D03*
D17*
X181691323Y-120154677D03*
X179151323Y-122694677D03*
X179151323Y-120154677D03*
X176611323Y-122694677D03*
X176611323Y-120154677D03*
X174071323Y-122694677D03*
X174071323Y-120154677D03*
X171531323Y-122694677D03*
X171531323Y-120154677D03*
X168991323Y-122694677D03*
X168991323Y-120154677D03*
X166451323Y-122694677D03*
X166451323Y-120154677D03*
X163911323Y-122694677D03*
X163911323Y-120154677D03*
X161371323Y-122694677D03*
X161371323Y-120154677D03*
X158831323Y-122694677D03*
X158831323Y-120154677D03*
X156291323Y-122694677D03*
X156291323Y-120154677D03*
X153751323Y-122694677D03*
X153751323Y-120154677D03*
X151211323Y-122694677D03*
X151211323Y-120154677D03*
X148671323Y-122694677D03*
X148671323Y-120154677D03*
X146131323Y-122694677D03*
X146131323Y-120154677D03*
X143591323Y-122694677D03*
X143591323Y-120154677D03*
X141051323Y-122694677D03*
X141051323Y-120154677D03*
X138511323Y-122694677D03*
X138511323Y-120154677D03*
X135971323Y-122694677D03*
X135971323Y-120154677D03*
X133431323Y-122694677D03*
X133431323Y-120154677D03*
X130891323Y-122694677D03*
X130891323Y-120154677D03*
X128351323Y-122694677D03*
X128351323Y-120154677D03*
X125811323Y-122694677D03*
X125811323Y-120154677D03*
X123271323Y-122694677D03*
X123271323Y-120154677D03*
X120731323Y-122694677D03*
X120731323Y-120154677D03*
%TD*%
D19*
%TO.C,C1*%
X144861323Y-85692354D03*
D18*
X144861323Y-80692354D03*
%TD*%
D14*
%TO.C,MotorOUT4*%
X176821323Y-60599354D03*
D15*
X184021323Y-60599354D03*
%TD*%
D16*
%TO.C,MD4*%
X181691323Y-71894677D03*
D17*
X181691323Y-69354677D03*
X179151323Y-71894677D03*
X179151323Y-69354677D03*
X176611323Y-71894677D03*
X176611323Y-69354677D03*
X174071323Y-71894677D03*
X174071323Y-69354677D03*
X171531323Y-71894677D03*
X171531323Y-69354677D03*
X168991323Y-71894677D03*
X168991323Y-69354677D03*
X166451323Y-71894677D03*
X166451323Y-69354677D03*
X163911323Y-71894677D03*
X163911323Y-69354677D03*
X161371323Y-71894677D03*
X161371323Y-69354677D03*
X158831323Y-71894677D03*
X158831323Y-69354677D03*
X156291323Y-71894677D03*
X156291323Y-69354677D03*
X153751323Y-71894677D03*
X153751323Y-69354677D03*
X151211323Y-71894677D03*
X151211323Y-69354677D03*
X148671323Y-71894677D03*
X148671323Y-69354677D03*
X146131323Y-71894677D03*
X146131323Y-69354677D03*
X143591323Y-71894677D03*
X143591323Y-69354677D03*
X141051323Y-71894677D03*
X141051323Y-69354677D03*
X138511323Y-71894677D03*
X138511323Y-69354677D03*
X135971323Y-71894677D03*
X135971323Y-69354677D03*
X133431323Y-71894677D03*
X133431323Y-69354677D03*
X130891323Y-71894677D03*
X130891323Y-69354677D03*
X128351323Y-71894677D03*
X128351323Y-69354677D03*
X125811323Y-71894677D03*
X125811323Y-69354677D03*
X123271323Y-71894677D03*
X123271323Y-69354677D03*
X120731323Y-71894677D03*
X120731323Y-69354677D03*
%TD*%
D20*
X92791346Y-150309354D02*
G75*
G03*
X95791323Y-153309354I3000000J0D01*
G01*
X191851323Y-150309354D02*
X191851323Y-57249354D01*
X191851346Y-57249354D02*
G75*
G03*
X188851323Y-54249354I-3000000J0D01*
G01*
X188851323Y-153309331D02*
G75*
G03*
X191851323Y-150309354I23J2999977D01*
G01*
X95791323Y-153309354D02*
X188851323Y-153309354D01*
X95791323Y-54249331D02*
G75*
G03*
X92791323Y-57249354I23J-3000023D01*
G01*
X188851323Y-54249354D02*
X95791323Y-54249354D01*
X92791323Y-57249354D02*
X92791323Y-150309354D01*
M02*
