%TF.GenerationSoftware,KiCad,Pcbnew,7.0.5*%
%TF.CreationDate,2024-03-07T11:13:36+09:00*%
%TF.ProjectId,blackMD_mother,626c6163-6b4d-4445-9f6d-6f746865722e,rev?*%
%TF.SameCoordinates,Original*%
%TF.FileFunction,Copper,L2,Bot*%
%TF.FilePolarity,Positive*%
%FSLAX46Y46*%
G04 Gerber Fmt 4.6, Leading zero omitted, Abs format (unit mm)*
G04 Created by KiCad (PCBNEW 7.0.5) date 2024-03-07 11:13:36*
%MOMM*%
%LPD*%
G01*
G04 APERTURE LIST*
G04 Aperture macros list*
%AMRoundRect*
0 Rectangle with rounded corners*
0 $1 Rounding radius*
0 $2 $3 $4 $5 $6 $7 $8 $9 X,Y pos of 4 corners*
0 Add a 4 corners polygon primitive as box body*
4,1,4,$2,$3,$4,$5,$6,$7,$8,$9,$2,$3,0*
0 Add four circle primitives for the rounded corners*
1,1,$1+$1,$2,$3*
1,1,$1+$1,$4,$5*
1,1,$1+$1,$6,$7*
1,1,$1+$1,$8,$9*
0 Add four rect primitives between the rounded corners*
20,1,$1+$1,$2,$3,$4,$5,0*
20,1,$1+$1,$4,$5,$6,$7,0*
20,1,$1+$1,$6,$7,$8,$9,0*
20,1,$1+$1,$8,$9,$2,$3,0*%
G04 Aperture macros list end*
%TA.AperFunction,ComponentPad*%
%ADD10RoundRect,0.250000X-0.725000X0.600000X-0.725000X-0.600000X0.725000X-0.600000X0.725000X0.600000X0*%
%TD*%
%TA.AperFunction,ComponentPad*%
%ADD11O,1.950000X1.700000*%
%TD*%
%TA.AperFunction,ComponentPad*%
%ADD12RoundRect,1.500000X-1.500000X-1.500000X1.500000X-1.500000X1.500000X1.500000X-1.500000X1.500000X0*%
%TD*%
%TA.AperFunction,ComponentPad*%
%ADD13C,6.000000*%
%TD*%
%TA.AperFunction,ComponentPad*%
%ADD14R,1.700000X1.700000*%
%TD*%
%TA.AperFunction,ComponentPad*%
%ADD15O,1.700000X1.700000*%
%TD*%
%TA.AperFunction,ComponentPad*%
%ADD16C,2.000000*%
%TD*%
%TA.AperFunction,ComponentPad*%
%ADD17R,2.000000X2.000000*%
%TD*%
%TA.AperFunction,ViaPad*%
%ADD18C,0.800000*%
%TD*%
%TA.AperFunction,Conductor*%
%ADD19C,1.270000*%
%TD*%
%TA.AperFunction,Profile*%
%ADD20C,0.100000*%
%TD*%
G04 APERTURE END LIST*
D10*
%TO.P,I2C2,1,Pin_1*%
%TO.N,+5V*%
X102951323Y-139399354D03*
D11*
%TO.P,I2C2,2,Pin_2*%
%TO.N,SCL*%
X102951323Y-141899354D03*
%TO.P,I2C2,3,Pin_3*%
%TO.N,SDA*%
X102951323Y-144399354D03*
%TO.P,I2C2,4,Pin_4*%
%TO.N,GND*%
X102951323Y-146899354D03*
%TD*%
D12*
%TO.P,MotorOUT3,1,Pin_1*%
%TO.N,Motor_3B*%
X176821323Y-85999354D03*
D13*
%TO.P,MotorOUT3,2,Pin_2*%
%TO.N,Motor_3A*%
X184021323Y-85999354D03*
%TD*%
D14*
%TO.P,MD3,1,Pin_1*%
%TO.N,Motor_3A*%
X181661323Y-97294677D03*
D15*
%TO.P,MD3,2,Pin_2*%
X181661323Y-94754677D03*
%TO.P,MD3,3,Pin_3*%
X179121323Y-97294677D03*
%TO.P,MD3,4,Pin_4*%
X179121323Y-94754677D03*
%TO.P,MD3,5,Pin_5*%
X176581323Y-97294677D03*
%TO.P,MD3,6,Pin_6*%
X176581323Y-94754677D03*
%TO.P,MD3,7,Pin_7*%
X174041323Y-97294677D03*
%TO.P,MD3,8,Pin_8*%
X174041323Y-94754677D03*
%TO.P,MD3,9,Pin_9*%
X171501323Y-97294677D03*
%TO.P,MD3,10,Pin_10*%
X171501323Y-94754677D03*
%TO.P,MD3,11,Pin_11*%
%TO.N,Motor_3B*%
X168961323Y-97294677D03*
%TO.P,MD3,12,Pin_12*%
X168961323Y-94754677D03*
%TO.P,MD3,13,Pin_13*%
X166421323Y-97294677D03*
%TO.P,MD3,14,Pin_14*%
X166421323Y-94754677D03*
%TO.P,MD3,15,Pin_15*%
X163881323Y-97294677D03*
%TO.P,MD3,16,Pin_16*%
X163881323Y-94754677D03*
%TO.P,MD3,17,Pin_17*%
X161341323Y-97294677D03*
%TO.P,MD3,18,Pin_18*%
X161341323Y-94754677D03*
%TO.P,MD3,19,Pin_19*%
X158801323Y-97294677D03*
%TO.P,MD3,20,Pin_20*%
X158801323Y-94754677D03*
%TO.P,MD3,21,Pin_21*%
%TO.N,+12V*%
X156261323Y-97294677D03*
%TO.P,MD3,22,Pin_22*%
X156261323Y-94754677D03*
%TO.P,MD3,23,Pin_23*%
X153721323Y-97294677D03*
%TO.P,MD3,24,Pin_24*%
X153721323Y-94754677D03*
%TO.P,MD3,25,Pin_25*%
X151181323Y-97294677D03*
%TO.P,MD3,26,Pin_26*%
X151181323Y-94754677D03*
%TO.P,MD3,27,Pin_27*%
X148641323Y-97294677D03*
%TO.P,MD3,28,Pin_28*%
X148641323Y-94754677D03*
%TO.P,MD3,29,Pin_29*%
X146101323Y-97294677D03*
%TO.P,MD3,30,Pin_30*%
X146101323Y-94754677D03*
%TO.P,MD3,31,Pin_31*%
%TO.N,GNDPWR*%
X143561323Y-97294677D03*
%TO.P,MD3,32,Pin_32*%
X143561323Y-94754677D03*
%TO.P,MD3,33,Pin_33*%
X141021323Y-97294677D03*
%TO.P,MD3,34,Pin_34*%
X141021323Y-94754677D03*
%TO.P,MD3,35,Pin_35*%
X138481323Y-97294677D03*
%TO.P,MD3,36,Pin_36*%
X138481323Y-94754677D03*
%TO.P,MD3,37,Pin_37*%
X135941323Y-97294677D03*
%TO.P,MD3,38,Pin_38*%
X135941323Y-94754677D03*
%TO.P,MD3,39,Pin_39*%
X133401323Y-97294677D03*
%TO.P,MD3,40,Pin_40*%
X133401323Y-94754677D03*
%TO.P,MD3,41,Pin_41*%
X130861323Y-97294677D03*
%TO.P,MD3,42,Pin_42*%
X130861323Y-94754677D03*
%TO.P,MD3,43,Pin_43*%
%TO.N,+5V*%
X128321323Y-97294677D03*
%TO.P,MD3,44,Pin_44*%
X128321323Y-94754677D03*
%TO.P,MD3,45,Pin_45*%
%TO.N,SCL*%
X125781323Y-97294677D03*
%TO.P,MD3,46,Pin_46*%
X125781323Y-94754677D03*
%TO.P,MD3,47,Pin_47*%
%TO.N,SDA*%
X123241323Y-97294677D03*
%TO.P,MD3,48,Pin_48*%
X123241323Y-94754677D03*
%TO.P,MD3,49,Pin_49*%
%TO.N,GND*%
X120701323Y-97294677D03*
%TO.P,MD3,50,Pin_50*%
X120701323Y-94754677D03*
%TD*%
D13*
%TO.P,MotorOUT1,2,Pin_2*%
%TO.N,Motor_1A*%
X184021323Y-136799354D03*
D12*
%TO.P,MotorOUT1,1,Pin_1*%
%TO.N,Motor_1B*%
X176821323Y-136799354D03*
%TD*%
D13*
%TO.P,PowerIn1,2,Pin_2*%
%TO.N,+12V*%
X148461323Y-59194677D03*
D12*
%TO.P,PowerIn1,1,Pin_1*%
%TO.N,GNDPWR*%
X141261323Y-59194677D03*
%TD*%
D13*
%TO.P,MotorOUT2,2,Pin_2*%
%TO.N,Motor_2A*%
X184021323Y-111399354D03*
D12*
%TO.P,MotorOUT2,1,Pin_1*%
%TO.N,Motor_2B*%
X176821323Y-111399354D03*
%TD*%
D11*
%TO.P,I2C1,4,Pin_4*%
%TO.N,GND*%
X102951323Y-68159354D03*
%TO.P,I2C1,3,Pin_3*%
%TO.N,SDA*%
X102951323Y-65659354D03*
%TO.P,I2C1,2,Pin_2*%
%TO.N,SCL*%
X102951323Y-63159354D03*
D10*
%TO.P,I2C1,1,Pin_1*%
%TO.N,+5V*%
X102951323Y-60659354D03*
%TD*%
D14*
%TO.P,MD1,1,Pin_1*%
%TO.N,Motor_1A*%
X181691323Y-148094677D03*
D15*
%TO.P,MD1,2,Pin_2*%
X181691323Y-145554677D03*
%TO.P,MD1,3,Pin_3*%
X179151323Y-148094677D03*
%TO.P,MD1,4,Pin_4*%
X179151323Y-145554677D03*
%TO.P,MD1,5,Pin_5*%
X176611323Y-148094677D03*
%TO.P,MD1,6,Pin_6*%
X176611323Y-145554677D03*
%TO.P,MD1,7,Pin_7*%
X174071323Y-148094677D03*
%TO.P,MD1,8,Pin_8*%
X174071323Y-145554677D03*
%TO.P,MD1,9,Pin_9*%
X171531323Y-148094677D03*
%TO.P,MD1,10,Pin_10*%
X171531323Y-145554677D03*
%TO.P,MD1,11,Pin_11*%
%TO.N,Motor_1B*%
X168991323Y-148094677D03*
%TO.P,MD1,12,Pin_12*%
X168991323Y-145554677D03*
%TO.P,MD1,13,Pin_13*%
X166451323Y-148094677D03*
%TO.P,MD1,14,Pin_14*%
X166451323Y-145554677D03*
%TO.P,MD1,15,Pin_15*%
X163911323Y-148094677D03*
%TO.P,MD1,16,Pin_16*%
X163911323Y-145554677D03*
%TO.P,MD1,17,Pin_17*%
X161371323Y-148094677D03*
%TO.P,MD1,18,Pin_18*%
X161371323Y-145554677D03*
%TO.P,MD1,19,Pin_19*%
X158831323Y-148094677D03*
%TO.P,MD1,20,Pin_20*%
X158831323Y-145554677D03*
%TO.P,MD1,21,Pin_21*%
%TO.N,+12V*%
X156291323Y-148094677D03*
%TO.P,MD1,22,Pin_22*%
X156291323Y-145554677D03*
%TO.P,MD1,23,Pin_23*%
X153751323Y-148094677D03*
%TO.P,MD1,24,Pin_24*%
X153751323Y-145554677D03*
%TO.P,MD1,25,Pin_25*%
X151211323Y-148094677D03*
%TO.P,MD1,26,Pin_26*%
X151211323Y-145554677D03*
%TO.P,MD1,27,Pin_27*%
X148671323Y-148094677D03*
%TO.P,MD1,28,Pin_28*%
X148671323Y-145554677D03*
%TO.P,MD1,29,Pin_29*%
X146131323Y-148094677D03*
%TO.P,MD1,30,Pin_30*%
X146131323Y-145554677D03*
%TO.P,MD1,31,Pin_31*%
%TO.N,GNDPWR*%
X143591323Y-148094677D03*
%TO.P,MD1,32,Pin_32*%
X143591323Y-145554677D03*
%TO.P,MD1,33,Pin_33*%
X141051323Y-148094677D03*
%TO.P,MD1,34,Pin_34*%
X141051323Y-145554677D03*
%TO.P,MD1,35,Pin_35*%
X138511323Y-148094677D03*
%TO.P,MD1,36,Pin_36*%
X138511323Y-145554677D03*
%TO.P,MD1,37,Pin_37*%
X135971323Y-148094677D03*
%TO.P,MD1,38,Pin_38*%
X135971323Y-145554677D03*
%TO.P,MD1,39,Pin_39*%
X133431323Y-148094677D03*
%TO.P,MD1,40,Pin_40*%
X133431323Y-145554677D03*
%TO.P,MD1,41,Pin_41*%
X130891323Y-148094677D03*
%TO.P,MD1,42,Pin_42*%
X130891323Y-145554677D03*
%TO.P,MD1,43,Pin_43*%
%TO.N,+5V*%
X128351323Y-148094677D03*
%TO.P,MD1,44,Pin_44*%
X128351323Y-145554677D03*
%TO.P,MD1,45,Pin_45*%
%TO.N,SCL*%
X125811323Y-148094677D03*
%TO.P,MD1,46,Pin_46*%
X125811323Y-145554677D03*
%TO.P,MD1,47,Pin_47*%
%TO.N,SDA*%
X123271323Y-148094677D03*
%TO.P,MD1,48,Pin_48*%
X123271323Y-145554677D03*
%TO.P,MD1,49,Pin_49*%
%TO.N,GND*%
X120731323Y-148094677D03*
%TO.P,MD1,50,Pin_50*%
X120731323Y-145554677D03*
%TD*%
D16*
%TO.P,C2,2*%
%TO.N,GNDPWR*%
X144861323Y-106092354D03*
D17*
%TO.P,C2,1*%
%TO.N,+12V*%
X144861323Y-111092354D03*
%TD*%
D16*
%TO.P,C3,2*%
%TO.N,GNDPWR*%
X144861323Y-131492354D03*
D17*
%TO.P,C3,1*%
%TO.N,+12V*%
X144861323Y-136492354D03*
%TD*%
D14*
%TO.P,MD2,1,Pin_1*%
%TO.N,Motor_2A*%
X181691323Y-122694677D03*
D15*
%TO.P,MD2,2,Pin_2*%
X181691323Y-120154677D03*
%TO.P,MD2,3,Pin_3*%
X179151323Y-122694677D03*
%TO.P,MD2,4,Pin_4*%
X179151323Y-120154677D03*
%TO.P,MD2,5,Pin_5*%
X176611323Y-122694677D03*
%TO.P,MD2,6,Pin_6*%
X176611323Y-120154677D03*
%TO.P,MD2,7,Pin_7*%
X174071323Y-122694677D03*
%TO.P,MD2,8,Pin_8*%
X174071323Y-120154677D03*
%TO.P,MD2,9,Pin_9*%
X171531323Y-122694677D03*
%TO.P,MD2,10,Pin_10*%
X171531323Y-120154677D03*
%TO.P,MD2,11,Pin_11*%
%TO.N,Motor_2B*%
X168991323Y-122694677D03*
%TO.P,MD2,12,Pin_12*%
X168991323Y-120154677D03*
%TO.P,MD2,13,Pin_13*%
X166451323Y-122694677D03*
%TO.P,MD2,14,Pin_14*%
X166451323Y-120154677D03*
%TO.P,MD2,15,Pin_15*%
X163911323Y-122694677D03*
%TO.P,MD2,16,Pin_16*%
X163911323Y-120154677D03*
%TO.P,MD2,17,Pin_17*%
X161371323Y-122694677D03*
%TO.P,MD2,18,Pin_18*%
X161371323Y-120154677D03*
%TO.P,MD2,19,Pin_19*%
X158831323Y-122694677D03*
%TO.P,MD2,20,Pin_20*%
X158831323Y-120154677D03*
%TO.P,MD2,21,Pin_21*%
%TO.N,+12V*%
X156291323Y-122694677D03*
%TO.P,MD2,22,Pin_22*%
X156291323Y-120154677D03*
%TO.P,MD2,23,Pin_23*%
X153751323Y-122694677D03*
%TO.P,MD2,24,Pin_24*%
X153751323Y-120154677D03*
%TO.P,MD2,25,Pin_25*%
X151211323Y-122694677D03*
%TO.P,MD2,26,Pin_26*%
X151211323Y-120154677D03*
%TO.P,MD2,27,Pin_27*%
X148671323Y-122694677D03*
%TO.P,MD2,28,Pin_28*%
X148671323Y-120154677D03*
%TO.P,MD2,29,Pin_29*%
X146131323Y-122694677D03*
%TO.P,MD2,30,Pin_30*%
X146131323Y-120154677D03*
%TO.P,MD2,31,Pin_31*%
%TO.N,GNDPWR*%
X143591323Y-122694677D03*
%TO.P,MD2,32,Pin_32*%
X143591323Y-120154677D03*
%TO.P,MD2,33,Pin_33*%
X141051323Y-122694677D03*
%TO.P,MD2,34,Pin_34*%
X141051323Y-120154677D03*
%TO.P,MD2,35,Pin_35*%
X138511323Y-122694677D03*
%TO.P,MD2,36,Pin_36*%
X138511323Y-120154677D03*
%TO.P,MD2,37,Pin_37*%
X135971323Y-122694677D03*
%TO.P,MD2,38,Pin_38*%
X135971323Y-120154677D03*
%TO.P,MD2,39,Pin_39*%
X133431323Y-122694677D03*
%TO.P,MD2,40,Pin_40*%
X133431323Y-120154677D03*
%TO.P,MD2,41,Pin_41*%
X130891323Y-122694677D03*
%TO.P,MD2,42,Pin_42*%
X130891323Y-120154677D03*
%TO.P,MD2,43,Pin_43*%
%TO.N,+5V*%
X128351323Y-122694677D03*
%TO.P,MD2,44,Pin_44*%
X128351323Y-120154677D03*
%TO.P,MD2,45,Pin_45*%
%TO.N,SCL*%
X125811323Y-122694677D03*
%TO.P,MD2,46,Pin_46*%
X125811323Y-120154677D03*
%TO.P,MD2,47,Pin_47*%
%TO.N,SDA*%
X123271323Y-122694677D03*
%TO.P,MD2,48,Pin_48*%
X123271323Y-120154677D03*
%TO.P,MD2,49,Pin_49*%
%TO.N,GND*%
X120731323Y-122694677D03*
%TO.P,MD2,50,Pin_50*%
X120731323Y-120154677D03*
%TD*%
D17*
%TO.P,C1,1*%
%TO.N,+12V*%
X144861323Y-85692354D03*
D16*
%TO.P,C1,2*%
%TO.N,GNDPWR*%
X144861323Y-80692354D03*
%TD*%
D12*
%TO.P,MotorOUT4,1,Pin_1*%
%TO.N,Motor_4B*%
X176821323Y-60599354D03*
D13*
%TO.P,MotorOUT4,2,Pin_2*%
%TO.N,Motor_4A*%
X184021323Y-60599354D03*
%TD*%
D14*
%TO.P,MD4,1,Pin_1*%
%TO.N,Motor_4A*%
X181691323Y-71894677D03*
D15*
%TO.P,MD4,2,Pin_2*%
X181691323Y-69354677D03*
%TO.P,MD4,3,Pin_3*%
X179151323Y-71894677D03*
%TO.P,MD4,4,Pin_4*%
X179151323Y-69354677D03*
%TO.P,MD4,5,Pin_5*%
X176611323Y-71894677D03*
%TO.P,MD4,6,Pin_6*%
X176611323Y-69354677D03*
%TO.P,MD4,7,Pin_7*%
X174071323Y-71894677D03*
%TO.P,MD4,8,Pin_8*%
X174071323Y-69354677D03*
%TO.P,MD4,9,Pin_9*%
X171531323Y-71894677D03*
%TO.P,MD4,10,Pin_10*%
X171531323Y-69354677D03*
%TO.P,MD4,11,Pin_11*%
%TO.N,Motor_4B*%
X168991323Y-71894677D03*
%TO.P,MD4,12,Pin_12*%
X168991323Y-69354677D03*
%TO.P,MD4,13,Pin_13*%
X166451323Y-71894677D03*
%TO.P,MD4,14,Pin_14*%
X166451323Y-69354677D03*
%TO.P,MD4,15,Pin_15*%
X163911323Y-71894677D03*
%TO.P,MD4,16,Pin_16*%
X163911323Y-69354677D03*
%TO.P,MD4,17,Pin_17*%
X161371323Y-71894677D03*
%TO.P,MD4,18,Pin_18*%
X161371323Y-69354677D03*
%TO.P,MD4,19,Pin_19*%
X158831323Y-71894677D03*
%TO.P,MD4,20,Pin_20*%
X158831323Y-69354677D03*
%TO.P,MD4,21,Pin_21*%
%TO.N,+12V*%
X156291323Y-71894677D03*
%TO.P,MD4,22,Pin_22*%
X156291323Y-69354677D03*
%TO.P,MD4,23,Pin_23*%
X153751323Y-71894677D03*
%TO.P,MD4,24,Pin_24*%
X153751323Y-69354677D03*
%TO.P,MD4,25,Pin_25*%
X151211323Y-71894677D03*
%TO.P,MD4,26,Pin_26*%
X151211323Y-69354677D03*
%TO.P,MD4,27,Pin_27*%
X148671323Y-71894677D03*
%TO.P,MD4,28,Pin_28*%
X148671323Y-69354677D03*
%TO.P,MD4,29,Pin_29*%
X146131323Y-71894677D03*
%TO.P,MD4,30,Pin_30*%
X146131323Y-69354677D03*
%TO.P,MD4,31,Pin_31*%
%TO.N,GNDPWR*%
X143591323Y-71894677D03*
%TO.P,MD4,32,Pin_32*%
X143591323Y-69354677D03*
%TO.P,MD4,33,Pin_33*%
X141051323Y-71894677D03*
%TO.P,MD4,34,Pin_34*%
X141051323Y-69354677D03*
%TO.P,MD4,35,Pin_35*%
X138511323Y-71894677D03*
%TO.P,MD4,36,Pin_36*%
X138511323Y-69354677D03*
%TO.P,MD4,37,Pin_37*%
X135971323Y-71894677D03*
%TO.P,MD4,38,Pin_38*%
X135971323Y-69354677D03*
%TO.P,MD4,39,Pin_39*%
X133431323Y-71894677D03*
%TO.P,MD4,40,Pin_40*%
X133431323Y-69354677D03*
%TO.P,MD4,41,Pin_41*%
X130891323Y-71894677D03*
%TO.P,MD4,42,Pin_42*%
X130891323Y-69354677D03*
%TO.P,MD4,43,Pin_43*%
%TO.N,+5V*%
X128351323Y-71894677D03*
%TO.P,MD4,44,Pin_44*%
X128351323Y-69354677D03*
%TO.P,MD4,45,Pin_45*%
%TO.N,SCL*%
X125811323Y-71894677D03*
%TO.P,MD4,46,Pin_46*%
X125811323Y-69354677D03*
%TO.P,MD4,47,Pin_47*%
%TO.N,SDA*%
X123271323Y-71894677D03*
%TO.P,MD4,48,Pin_48*%
X123271323Y-69354677D03*
%TO.P,MD4,49,Pin_49*%
%TO.N,GND*%
X120731323Y-71894677D03*
%TO.P,MD4,50,Pin_50*%
X120731323Y-69354677D03*
%TD*%
D18*
%TO.N,SCL*%
X120731323Y-135529354D03*
X125892646Y-129179354D03*
X125892646Y-126639354D03*
X125892646Y-127909354D03*
X118272646Y-138069354D03*
X119461323Y-136799354D03*
%TD*%
D19*
%TO.N,SCL*%
X125892646Y-130449354D02*
X118272646Y-138069354D01*
%TO.N,+5V*%
X113472969Y-149779677D02*
X111922646Y-148229354D01*
X126666323Y-149779677D02*
X113472969Y-149779677D01*
X110652646Y-139339354D02*
X103011323Y-139339354D01*
X103011323Y-139339354D02*
X102951323Y-139399354D01*
X111922646Y-140609354D02*
X110652646Y-139339354D01*
X128351323Y-148094677D02*
X126666323Y-149779677D01*
X111922646Y-148229354D02*
X111922646Y-140609354D01*
%TO.N,SCL*%
X125892646Y-129179354D02*
X125892646Y-127909354D01*
X125892646Y-127909354D02*
X125892646Y-126639354D01*
X125892646Y-130449354D02*
X125892646Y-129179354D01*
%TD*%
%TA.AperFunction,Conductor*%
%TO.N,Motor_1A*%
G36*
X191793862Y-130469039D02*
G01*
X191839617Y-130521843D01*
X191850823Y-130573354D01*
X191850823Y-150307727D01*
X191850738Y-150310974D01*
X191843798Y-150443324D01*
X191833522Y-150626309D01*
X191832856Y-150632537D01*
X191808594Y-150785698D01*
X191781120Y-150947405D01*
X191779883Y-150953071D01*
X191738722Y-151106673D01*
X191694288Y-151260908D01*
X191692592Y-151265966D01*
X191635248Y-151415346D01*
X191634646Y-151416852D01*
X191574055Y-151563134D01*
X191572016Y-151567557D01*
X191499006Y-151710844D01*
X191498027Y-151712686D01*
X191421833Y-151850550D01*
X191419566Y-151854328D01*
X191331717Y-151989601D01*
X191330284Y-151991711D01*
X191239400Y-152119797D01*
X191237018Y-152122938D01*
X191135374Y-152248457D01*
X191133421Y-152250753D01*
X191028876Y-152367738D01*
X191026486Y-152370266D01*
X190912238Y-152484513D01*
X190909711Y-152486902D01*
X190792734Y-152591439D01*
X190790438Y-152593393D01*
X190664902Y-152695049D01*
X190661761Y-152697432D01*
X190533714Y-152788283D01*
X190531604Y-152789716D01*
X190396275Y-152877598D01*
X190392497Y-152879865D01*
X190254756Y-152955992D01*
X190252913Y-152956971D01*
X190109479Y-153030054D01*
X190105056Y-153032094D01*
X189958991Y-153092594D01*
X189957484Y-153093195D01*
X189807882Y-153150623D01*
X189802824Y-153152319D01*
X189648942Y-153196650D01*
X189494975Y-153237906D01*
X189489309Y-153239143D01*
X189328197Y-153266517D01*
X189174431Y-153290872D01*
X189168207Y-153291538D01*
X188990778Y-153301512D01*
X188874421Y-153307612D01*
X188852348Y-153308769D01*
X188849111Y-153308854D01*
X171655323Y-153308854D01*
X171588284Y-153289169D01*
X171542529Y-153236365D01*
X171531323Y-153184854D01*
X171531323Y-143273354D01*
X171551008Y-143206315D01*
X171603812Y-143160560D01*
X171655323Y-143149354D01*
X181691323Y-143149354D01*
X181691323Y-130573354D01*
X181711008Y-130506315D01*
X181763812Y-130460560D01*
X181815323Y-130449354D01*
X191726823Y-130449354D01*
X191793862Y-130469039D01*
G37*
%TD.AperFunction*%
%TD*%
%TA.AperFunction,Conductor*%
%TO.N,Motor_2A*%
G36*
X191793862Y-105069039D02*
G01*
X191839617Y-105121843D01*
X191850823Y-105173354D01*
X191850823Y-127785354D01*
X191831138Y-127852393D01*
X191778334Y-127898148D01*
X191726823Y-127909354D01*
X171655323Y-127909354D01*
X171588284Y-127889669D01*
X171542529Y-127836865D01*
X171531323Y-127785354D01*
X171531323Y-117873354D01*
X171551008Y-117806315D01*
X171603812Y-117760560D01*
X171655323Y-117749354D01*
X181691323Y-117749354D01*
X181691323Y-105173354D01*
X181711008Y-105106315D01*
X181763812Y-105060560D01*
X181815323Y-105049354D01*
X191726823Y-105049354D01*
X191793862Y-105069039D01*
G37*
%TD.AperFunction*%
%TD*%
%TA.AperFunction,Conductor*%
%TO.N,Motor_1B*%
G36*
X179094362Y-130469039D02*
G01*
X179140117Y-130521843D01*
X179151323Y-130573354D01*
X179151323Y-141755354D01*
X179131638Y-141822393D01*
X179078834Y-141868148D01*
X179027323Y-141879354D01*
X168991323Y-141879354D01*
X168991323Y-153184854D01*
X168971638Y-153251893D01*
X168918834Y-153297648D01*
X168867323Y-153308854D01*
X158955323Y-153308854D01*
X158888284Y-153289169D01*
X158842529Y-153236365D01*
X158831323Y-153184854D01*
X158831323Y-130573354D01*
X158851008Y-130506315D01*
X158903812Y-130460560D01*
X158955323Y-130449354D01*
X179027323Y-130449354D01*
X179094362Y-130469039D01*
G37*
%TD.AperFunction*%
%TD*%
%TA.AperFunction,Conductor*%
%TO.N,Motor_4B*%
G36*
X179094362Y-54269539D02*
G01*
X179140117Y-54322343D01*
X179151323Y-54373854D01*
X179151323Y-65555354D01*
X179131638Y-65622393D01*
X179078834Y-65668148D01*
X179027323Y-65679354D01*
X168991323Y-65679354D01*
X168991323Y-76985354D01*
X168971638Y-77052393D01*
X168918834Y-77098148D01*
X168867323Y-77109354D01*
X158955323Y-77109354D01*
X158888284Y-77089669D01*
X158842529Y-77036865D01*
X158831323Y-76985354D01*
X158831323Y-54373854D01*
X158851008Y-54306815D01*
X158903812Y-54261060D01*
X158955323Y-54249854D01*
X179027323Y-54249854D01*
X179094362Y-54269539D01*
G37*
%TD.AperFunction*%
%TD*%
%TA.AperFunction,Conductor*%
%TO.N,Motor_3B*%
G36*
X179094362Y-79669039D02*
G01*
X179140117Y-79721843D01*
X179151323Y-79773354D01*
X179151323Y-90955354D01*
X179131638Y-91022393D01*
X179078834Y-91068148D01*
X179027323Y-91079354D01*
X168991323Y-91079354D01*
X168991323Y-102385354D01*
X168971638Y-102452393D01*
X168918834Y-102498148D01*
X168867323Y-102509354D01*
X158955323Y-102509354D01*
X158888284Y-102489669D01*
X158842529Y-102436865D01*
X158831323Y-102385354D01*
X158831323Y-79773354D01*
X158851008Y-79706315D01*
X158903812Y-79660560D01*
X158955323Y-79649354D01*
X179027323Y-79649354D01*
X179094362Y-79669039D01*
G37*
%TD.AperFunction*%
%TD*%
%TA.AperFunction,Conductor*%
%TO.N,Motor_3A*%
G36*
X191793862Y-79669039D02*
G01*
X191839617Y-79721843D01*
X191850823Y-79773354D01*
X191850823Y-102385354D01*
X191831138Y-102452393D01*
X191778334Y-102498148D01*
X191726823Y-102509354D01*
X171655323Y-102509354D01*
X171588284Y-102489669D01*
X171542529Y-102436865D01*
X171531323Y-102385354D01*
X171531323Y-92473354D01*
X171551008Y-92406315D01*
X171603812Y-92360560D01*
X171655323Y-92349354D01*
X181691323Y-92349354D01*
X181691323Y-79773354D01*
X181711008Y-79706315D01*
X181763812Y-79660560D01*
X181815323Y-79649354D01*
X191726823Y-79649354D01*
X191793862Y-79669039D01*
G37*
%TD.AperFunction*%
%TD*%
%TA.AperFunction,Conductor*%
%TO.N,GNDPWR*%
G36*
X144169362Y-54269539D02*
G01*
X144215117Y-54322343D01*
X144226323Y-54373854D01*
X144226323Y-84067854D01*
X144206638Y-84134893D01*
X144153834Y-84180648D01*
X144102323Y-84191854D01*
X143813453Y-84191854D01*
X143813446Y-84191855D01*
X143753839Y-84198262D01*
X143618994Y-84248556D01*
X143618987Y-84248560D01*
X143503778Y-84334806D01*
X143503775Y-84334809D01*
X143417529Y-84450018D01*
X143417525Y-84450025D01*
X143367231Y-84584871D01*
X143360824Y-84644470D01*
X143360823Y-84644489D01*
X143360823Y-86740224D01*
X143360824Y-86740230D01*
X143367231Y-86799837D01*
X143417525Y-86934682D01*
X143417529Y-86934689D01*
X143503775Y-87049898D01*
X143503778Y-87049901D01*
X143618987Y-87136147D01*
X143618994Y-87136151D01*
X143663941Y-87152914D01*
X143753840Y-87186445D01*
X143813450Y-87192854D01*
X144102325Y-87192853D01*
X144169362Y-87212537D01*
X144215117Y-87265341D01*
X144226323Y-87316853D01*
X144226323Y-109467854D01*
X144206638Y-109534893D01*
X144153834Y-109580648D01*
X144102323Y-109591854D01*
X143813453Y-109591854D01*
X143813446Y-109591855D01*
X143753839Y-109598262D01*
X143618994Y-109648556D01*
X143618987Y-109648560D01*
X143503778Y-109734806D01*
X143503775Y-109734809D01*
X143417529Y-109850018D01*
X143417525Y-109850025D01*
X143367231Y-109984871D01*
X143360824Y-110044470D01*
X143360823Y-110044489D01*
X143360823Y-112140224D01*
X143360824Y-112140230D01*
X143367231Y-112199837D01*
X143417525Y-112334682D01*
X143417529Y-112334689D01*
X143503775Y-112449898D01*
X143503778Y-112449901D01*
X143618987Y-112536147D01*
X143618994Y-112536151D01*
X143663941Y-112552914D01*
X143753840Y-112586445D01*
X143813450Y-112592854D01*
X144102325Y-112592853D01*
X144169362Y-112612537D01*
X144215117Y-112665341D01*
X144226323Y-112716853D01*
X144226323Y-134867854D01*
X144206638Y-134934893D01*
X144153834Y-134980648D01*
X144102323Y-134991854D01*
X143813453Y-134991854D01*
X143813446Y-134991855D01*
X143753839Y-134998262D01*
X143618994Y-135048556D01*
X143618987Y-135048560D01*
X143503778Y-135134806D01*
X143503775Y-135134809D01*
X143417529Y-135250018D01*
X143417525Y-135250025D01*
X143367231Y-135384871D01*
X143360824Y-135444470D01*
X143360823Y-135444489D01*
X143360823Y-137540224D01*
X143360824Y-137540230D01*
X143367231Y-137599837D01*
X143417525Y-137734682D01*
X143417529Y-137734689D01*
X143503775Y-137849898D01*
X143503778Y-137849901D01*
X143618987Y-137936147D01*
X143618994Y-137936151D01*
X143663941Y-137952914D01*
X143753840Y-137986445D01*
X143813450Y-137992854D01*
X144102325Y-137992853D01*
X144169362Y-138012537D01*
X144215117Y-138065341D01*
X144226323Y-138116853D01*
X144226323Y-153184854D01*
X144206638Y-153251893D01*
X144153834Y-153297648D01*
X144102323Y-153308854D01*
X131015323Y-153308854D01*
X130948284Y-153289169D01*
X130902529Y-153236365D01*
X130891323Y-153184854D01*
X130891323Y-54373854D01*
X130911008Y-54306815D01*
X130963812Y-54261060D01*
X131015323Y-54249854D01*
X144102323Y-54249854D01*
X144169362Y-54269539D01*
G37*
%TD.AperFunction*%
%TD*%
%TA.AperFunction,Conductor*%
%TO.N,Motor_2B*%
G36*
X179094362Y-105069039D02*
G01*
X179140117Y-105121843D01*
X179151323Y-105173354D01*
X179151323Y-116355354D01*
X179131638Y-116422393D01*
X179078834Y-116468148D01*
X179027323Y-116479354D01*
X168991323Y-116479354D01*
X168991323Y-127785354D01*
X168971638Y-127852393D01*
X168918834Y-127898148D01*
X168867323Y-127909354D01*
X158955323Y-127909354D01*
X158888284Y-127889669D01*
X158842529Y-127836865D01*
X158831323Y-127785354D01*
X158831323Y-105173354D01*
X158851008Y-105106315D01*
X158903812Y-105060560D01*
X158955323Y-105049354D01*
X179027323Y-105049354D01*
X179094362Y-105069039D01*
G37*
%TD.AperFunction*%
%TD*%
%TA.AperFunction,Conductor*%
%TO.N,+12V*%
G36*
X156869362Y-54269539D02*
G01*
X156915117Y-54322343D01*
X156926323Y-54373854D01*
X156926323Y-81331877D01*
X156906638Y-81398916D01*
X156853834Y-81444671D01*
X156784676Y-81454615D01*
X156721120Y-81425590D01*
X156688200Y-81380374D01*
X156671453Y-81340964D01*
X156530341Y-81109744D01*
X156441070Y-81002473D01*
X156357069Y-80901534D01*
X156357063Y-80901529D01*
X156155325Y-80720772D01*
X155929415Y-80571311D01*
X155929413Y-80571310D01*
X155684147Y-80456334D01*
X155684142Y-80456332D01*
X155684137Y-80456330D01*
X155424765Y-80378296D01*
X155424751Y-80378293D01*
X155309114Y-80361275D01*
X155156762Y-80338854D01*
X154953692Y-80338854D01*
X154953674Y-80338854D01*
X154751167Y-80353677D01*
X154751154Y-80353679D01*
X154486776Y-80412571D01*
X154486769Y-80412574D01*
X154233762Y-80509341D01*
X153997549Y-80641911D01*
X153783145Y-80807466D01*
X153595145Y-81002463D01*
X153595139Y-81002470D01*
X153437525Y-81222773D01*
X153437522Y-81222778D01*
X153313673Y-81463663D01*
X153313666Y-81463681D01*
X153226207Y-81720039D01*
X153226204Y-81720053D01*
X153177004Y-81986422D01*
X153177003Y-81986429D01*
X153167110Y-82257117D01*
X153196736Y-82526367D01*
X153196738Y-82526378D01*
X153231321Y-82658659D01*
X153265251Y-82788442D01*
X153371193Y-83037744D01*
X153374746Y-83043565D01*
X153512302Y-83268959D01*
X153512309Y-83268969D01*
X153685576Y-83477173D01*
X153685582Y-83477178D01*
X153887321Y-83657936D01*
X154113233Y-83807398D01*
X154358499Y-83922374D01*
X154358506Y-83922376D01*
X154358508Y-83922377D01*
X154617880Y-84000411D01*
X154617887Y-84000412D01*
X154617892Y-84000414D01*
X154885884Y-84039854D01*
X154885889Y-84039854D01*
X155088952Y-84039854D01*
X155088954Y-84039854D01*
X155088959Y-84039853D01*
X155088971Y-84039853D01*
X155126514Y-84037104D01*
X155291479Y-84025031D01*
X155404081Y-83999947D01*
X155555869Y-83966136D01*
X155555871Y-83966135D01*
X155555876Y-83966134D01*
X155808881Y-83869368D01*
X156045100Y-83736795D01*
X156259500Y-83571242D01*
X156447509Y-83376235D01*
X156605122Y-83155933D01*
X156692044Y-82986867D01*
X156740204Y-82936246D01*
X156808086Y-82919699D01*
X156874138Y-82942478D01*
X156917390Y-82997352D01*
X156926323Y-83043565D01*
X156926323Y-132131877D01*
X156906638Y-132198916D01*
X156853834Y-132244671D01*
X156784676Y-132254615D01*
X156721120Y-132225590D01*
X156688200Y-132180374D01*
X156671453Y-132140964D01*
X156530341Y-131909744D01*
X156441070Y-131802473D01*
X156357069Y-131701534D01*
X156357063Y-131701529D01*
X156155325Y-131520772D01*
X155929415Y-131371311D01*
X155929413Y-131371310D01*
X155684147Y-131256334D01*
X155684142Y-131256332D01*
X155684137Y-131256330D01*
X155424765Y-131178296D01*
X155424751Y-131178293D01*
X155309114Y-131161275D01*
X155156762Y-131138854D01*
X154953692Y-131138854D01*
X154953674Y-131138854D01*
X154751167Y-131153677D01*
X154751154Y-131153679D01*
X154486776Y-131212571D01*
X154486769Y-131212574D01*
X154233762Y-131309341D01*
X153997549Y-131441911D01*
X153783145Y-131607466D01*
X153595145Y-131802463D01*
X153595139Y-131802470D01*
X153437525Y-132022773D01*
X153437522Y-132022778D01*
X153313673Y-132263663D01*
X153313666Y-132263681D01*
X153226207Y-132520039D01*
X153226204Y-132520053D01*
X153177004Y-132786422D01*
X153177003Y-132786429D01*
X153167110Y-133057117D01*
X153196736Y-133326367D01*
X153196738Y-133326378D01*
X153231321Y-133458659D01*
X153265251Y-133588442D01*
X153371193Y-133837744D01*
X153374746Y-133843565D01*
X153512302Y-134068959D01*
X153512309Y-134068969D01*
X153685576Y-134277173D01*
X153685582Y-134277178D01*
X153887321Y-134457936D01*
X154113233Y-134607398D01*
X154358499Y-134722374D01*
X154358506Y-134722376D01*
X154358508Y-134722377D01*
X154617880Y-134800411D01*
X154617887Y-134800412D01*
X154617892Y-134800414D01*
X154885884Y-134839854D01*
X154885889Y-134839854D01*
X155088952Y-134839854D01*
X155088954Y-134839854D01*
X155088959Y-134839853D01*
X155088971Y-134839853D01*
X155126514Y-134837104D01*
X155291479Y-134825031D01*
X155404081Y-134799947D01*
X155555869Y-134766136D01*
X155555871Y-134766135D01*
X155555876Y-134766134D01*
X155808881Y-134669368D01*
X156045100Y-134536795D01*
X156259500Y-134371242D01*
X156447509Y-134176235D01*
X156605122Y-133955933D01*
X156692044Y-133786867D01*
X156740204Y-133736246D01*
X156808086Y-133719699D01*
X156874138Y-133742478D01*
X156917390Y-133797352D01*
X156926323Y-133843565D01*
X156926323Y-153184854D01*
X156906638Y-153251893D01*
X156853834Y-153297648D01*
X156802323Y-153308854D01*
X145620323Y-153308854D01*
X145553284Y-153289169D01*
X145507529Y-153236365D01*
X145496323Y-153184854D01*
X145496323Y-132928731D01*
X145516008Y-132861692D01*
X145561303Y-132819678D01*
X145684832Y-132752828D01*
X145881067Y-132600092D01*
X146049487Y-132417139D01*
X146185496Y-132208961D01*
X146285386Y-131981235D01*
X146346431Y-131740175D01*
X146349633Y-131701534D01*
X146366966Y-131492359D01*
X146366966Y-131492348D01*
X146346432Y-131244541D01*
X146346430Y-131244529D01*
X146285386Y-131003472D01*
X146185496Y-130775747D01*
X146049489Y-130567571D01*
X146027880Y-130544098D01*
X145881067Y-130384616D01*
X145684832Y-130231880D01*
X145684831Y-130231879D01*
X145684828Y-130231877D01*
X145684822Y-130231873D01*
X145561305Y-130165029D01*
X145511715Y-130115810D01*
X145496323Y-130055975D01*
X145496323Y-107528731D01*
X145516008Y-107461692D01*
X145561303Y-107419678D01*
X145684832Y-107352828D01*
X145881067Y-107200092D01*
X146049487Y-107017139D01*
X146185496Y-106808961D01*
X146285386Y-106581235D01*
X146346431Y-106340175D01*
X146366966Y-106092354D01*
X146346431Y-105844533D01*
X146285386Y-105603473D01*
X146185496Y-105375747D01*
X146049489Y-105167571D01*
X146027880Y-105144098D01*
X145881067Y-104984616D01*
X145684832Y-104831880D01*
X145684831Y-104831879D01*
X145684828Y-104831877D01*
X145684822Y-104831873D01*
X145561305Y-104765029D01*
X145511715Y-104715810D01*
X145496323Y-104655975D01*
X145496323Y-82128731D01*
X145516008Y-82061692D01*
X145561303Y-82019678D01*
X145684832Y-81952828D01*
X145881067Y-81800092D01*
X146049487Y-81617139D01*
X146185496Y-81408961D01*
X146285386Y-81181235D01*
X146346431Y-80940175D01*
X146349633Y-80901534D01*
X146366966Y-80692359D01*
X146366966Y-80692348D01*
X146346432Y-80444541D01*
X146346430Y-80444529D01*
X146285386Y-80203472D01*
X146185496Y-79975747D01*
X146049489Y-79767571D01*
X146027880Y-79744098D01*
X145881067Y-79584616D01*
X145684832Y-79431880D01*
X145684831Y-79431879D01*
X145684828Y-79431877D01*
X145684822Y-79431873D01*
X145561305Y-79365029D01*
X145511715Y-79315810D01*
X145496323Y-79255975D01*
X145496323Y-54373854D01*
X145516008Y-54306815D01*
X145568812Y-54261060D01*
X145620323Y-54249854D01*
X156802323Y-54249854D01*
X156869362Y-54269539D01*
G37*
%TD.AperFunction*%
%TD*%
%TA.AperFunction,Conductor*%
%TO.N,GND*%
G36*
X120674362Y-54269539D02*
G01*
X120720117Y-54322343D01*
X120731323Y-54373854D01*
X120731323Y-133953475D01*
X120711638Y-134020514D01*
X120695004Y-134041156D01*
X117431482Y-137304677D01*
X117328006Y-137430000D01*
X117224077Y-137620331D01*
X117224074Y-137620339D01*
X117158050Y-137826881D01*
X117158048Y-137826891D01*
X117132304Y-138042206D01*
X117132304Y-138042210D01*
X117147773Y-138258508D01*
X117203900Y-138467973D01*
X117203901Y-138467976D01*
X117298654Y-138663033D01*
X117363260Y-138749337D01*
X117428607Y-138836632D01*
X117428608Y-138836633D01*
X117428609Y-138836634D01*
X117589071Y-138982504D01*
X117589073Y-138982505D01*
X117589074Y-138982506D01*
X117774234Y-139095367D01*
X117774239Y-139095369D01*
X117977420Y-139171152D01*
X118191272Y-139207113D01*
X118408065Y-139201952D01*
X118619963Y-139155856D01*
X118819309Y-139070491D01*
X118998896Y-138948943D01*
X120519642Y-137428196D01*
X120580965Y-137394712D01*
X120650657Y-137399696D01*
X120706590Y-137441568D01*
X120731007Y-137507032D01*
X120731323Y-137515878D01*
X120731323Y-148520177D01*
X120711638Y-148587216D01*
X120658834Y-148632971D01*
X120607323Y-148644177D01*
X113994670Y-148644177D01*
X113927631Y-148624492D01*
X113906989Y-148607858D01*
X113094464Y-147795333D01*
X113060979Y-147734010D01*
X113058145Y-147707652D01*
X113058145Y-144287350D01*
X113058145Y-140714504D01*
X113059864Y-140693942D01*
X113060405Y-140690728D01*
X113058968Y-140630394D01*
X113058164Y-140596568D01*
X113058146Y-140595093D01*
X113058146Y-140555271D01*
X113058146Y-140555263D01*
X113057069Y-140543989D01*
X113056806Y-140539577D01*
X113055734Y-140494539D01*
X113055244Y-140473935D01*
X113047362Y-140437701D01*
X113046224Y-140430409D01*
X113042699Y-140393491D01*
X113042698Y-140393490D01*
X113042698Y-140393482D01*
X113024192Y-140330458D01*
X113023106Y-140326200D01*
X113009148Y-140262037D01*
X112994546Y-140227939D01*
X112992054Y-140221008D01*
X112981603Y-140185412D01*
X112951509Y-140127039D01*
X112949629Y-140123049D01*
X112923783Y-140062691D01*
X112902989Y-140031968D01*
X112899233Y-140025639D01*
X112882234Y-139992664D01*
X112882233Y-139992662D01*
X112882230Y-139992658D01*
X112858569Y-139962572D01*
X112841641Y-139941046D01*
X112839036Y-139937479D01*
X112802237Y-139883107D01*
X112802235Y-139883104D01*
X112776002Y-139856871D01*
X112771111Y-139851359D01*
X112748184Y-139822205D01*
X112717808Y-139795884D01*
X112698553Y-139779199D01*
X112695313Y-139776182D01*
X111529924Y-138610792D01*
X111516600Y-138595041D01*
X111514703Y-138592377D01*
X111446535Y-138527380D01*
X111445529Y-138526397D01*
X111417318Y-138498186D01*
X111408579Y-138490970D01*
X111405273Y-138488036D01*
X111357762Y-138442735D01*
X111357758Y-138442731D01*
X111340087Y-138431374D01*
X111326561Y-138422681D01*
X111320604Y-138418331D01*
X111292000Y-138394715D01*
X111292000Y-138394714D01*
X111234366Y-138363243D01*
X111230565Y-138360988D01*
X111216773Y-138352125D01*
X111175329Y-138325490D01*
X111175323Y-138325488D01*
X111140895Y-138311704D01*
X111134222Y-138308560D01*
X111101675Y-138290789D01*
X111101673Y-138290788D01*
X111101669Y-138290786D01*
X111090166Y-138287108D01*
X111039122Y-138270790D01*
X111034958Y-138269294D01*
X110974008Y-138244894D01*
X110974009Y-138244894D01*
X110937585Y-138237873D01*
X110930435Y-138236048D01*
X110895112Y-138224756D01*
X110829915Y-138216961D01*
X110825542Y-138216279D01*
X110761074Y-138203854D01*
X110761073Y-138203854D01*
X110723984Y-138203854D01*
X110716617Y-138203415D01*
X110679792Y-138199012D01*
X110679791Y-138199012D01*
X110614297Y-138203696D01*
X110609876Y-138203854D01*
X104175625Y-138203854D01*
X104110529Y-138185393D01*
X103995663Y-138114543D01*
X103995658Y-138114541D01*
X103995657Y-138114540D01*
X103829120Y-138059355D01*
X103829118Y-138059354D01*
X103726333Y-138048854D01*
X102176321Y-138048854D01*
X102176304Y-138048855D01*
X102073526Y-138059354D01*
X102073523Y-138059355D01*
X101906991Y-138114539D01*
X101906986Y-138114541D01*
X101757665Y-138206643D01*
X101633612Y-138330696D01*
X101541510Y-138480017D01*
X101541508Y-138480022D01*
X101535489Y-138498186D01*
X101486324Y-138646557D01*
X101486324Y-138646558D01*
X101486323Y-138646558D01*
X101475823Y-138749337D01*
X101475823Y-140049355D01*
X101475824Y-140049372D01*
X101486323Y-140152150D01*
X101486324Y-140152153D01*
X101522737Y-140262039D01*
X101541509Y-140318688D01*
X101614916Y-140437701D01*
X101633612Y-140468011D01*
X101757667Y-140592066D01*
X101912443Y-140687532D01*
X101959168Y-140739480D01*
X101970391Y-140808442D01*
X101942547Y-140872525D01*
X101935029Y-140880752D01*
X101787824Y-141027957D01*
X101787824Y-141027958D01*
X101652290Y-141221519D01*
X101652288Y-141221523D01*
X101552421Y-141435689D01*
X101552417Y-141435698D01*
X101491261Y-141663940D01*
X101491259Y-141663950D01*
X101470664Y-141899353D01*
X101470664Y-141899354D01*
X101491259Y-142134757D01*
X101491261Y-142134767D01*
X101552417Y-142363009D01*
X101552419Y-142363013D01*
X101552420Y-142363017D01*
X101576814Y-142415330D01*
X101652287Y-142577182D01*
X101652288Y-142577184D01*
X101787828Y-142770756D01*
X101954920Y-142937848D01*
X102111918Y-143047779D01*
X102155543Y-143102356D01*
X102162737Y-143171854D01*
X102131214Y-143234209D01*
X102111918Y-143250929D01*
X101954920Y-143360859D01*
X101787829Y-143527951D01*
X101787824Y-143527958D01*
X101652290Y-143721519D01*
X101652288Y-143721523D01*
X101552421Y-143935689D01*
X101552417Y-143935698D01*
X101491261Y-144163940D01*
X101491259Y-144163950D01*
X101470664Y-144399353D01*
X101470664Y-144399354D01*
X101491259Y-144634757D01*
X101491261Y-144634767D01*
X101552417Y-144863009D01*
X101552419Y-144863013D01*
X101552420Y-144863017D01*
X101602353Y-144970100D01*
X101652287Y-145077182D01*
X101652288Y-145077184D01*
X101787828Y-145270756D01*
X101954920Y-145437848D01*
X102148492Y-145573388D01*
X102148494Y-145573389D01*
X102362660Y-145673257D01*
X102590915Y-145734417D01*
X102767355Y-145749853D01*
X102767356Y-145749854D01*
X102767357Y-145749854D01*
X103135290Y-145749854D01*
X103135290Y-145749853D01*
X103311731Y-145734417D01*
X103539986Y-145673257D01*
X103754152Y-145573389D01*
X103947724Y-145437849D01*
X104114818Y-145270755D01*
X104250358Y-145077184D01*
X104350226Y-144863017D01*
X104411386Y-144634762D01*
X104431982Y-144399354D01*
X104411386Y-144163946D01*
X104350226Y-143935691D01*
X104250358Y-143721525D01*
X104250357Y-143721523D01*
X104114817Y-143527951D01*
X103947726Y-143360860D01*
X103891510Y-143321498D01*
X103790724Y-143250927D01*
X103747101Y-143196353D01*
X103739907Y-143126854D01*
X103771429Y-143064499D01*
X103790721Y-143047782D01*
X103947724Y-142937849D01*
X104114818Y-142770755D01*
X104250358Y-142577184D01*
X104350226Y-142363017D01*
X104411386Y-142134762D01*
X104431982Y-141899354D01*
X104411386Y-141663946D01*
X104350226Y-141435691D01*
X104250358Y-141221525D01*
X104250357Y-141221523D01*
X104114817Y-141027951D01*
X103967618Y-140880752D01*
X103934133Y-140819429D01*
X103939117Y-140749737D01*
X103980989Y-140693804D01*
X103990203Y-140687532D01*
X103995657Y-140684168D01*
X104144979Y-140592066D01*
X104225872Y-140511173D01*
X104287195Y-140477688D01*
X104313553Y-140474854D01*
X110130945Y-140474854D01*
X110197984Y-140494539D01*
X110218625Y-140511172D01*
X110750827Y-141043375D01*
X110784311Y-141104696D01*
X110787145Y-141131054D01*
X110787145Y-148124192D01*
X110785430Y-148144744D01*
X110784888Y-148147966D01*
X110784887Y-148147979D01*
X110787128Y-148242138D01*
X110787146Y-148243613D01*
X110787146Y-148283445D01*
X110787652Y-148288748D01*
X110788221Y-148294715D01*
X110788484Y-148299128D01*
X110790048Y-148364774D01*
X110797931Y-148401016D01*
X110799068Y-148408305D01*
X110802592Y-148445219D01*
X110802593Y-148445221D01*
X110821091Y-148508223D01*
X110822185Y-148512510D01*
X110830445Y-148550477D01*
X110836144Y-148576671D01*
X110836145Y-148576673D01*
X110850742Y-148610762D01*
X110853238Y-148617706D01*
X110855231Y-148624492D01*
X110863689Y-148653296D01*
X110880146Y-148685217D01*
X110893774Y-148711652D01*
X110895661Y-148715657D01*
X110921506Y-148776012D01*
X110921509Y-148776017D01*
X110942296Y-148806730D01*
X110946061Y-148813076D01*
X110963058Y-148846044D01*
X111003638Y-148897646D01*
X111006249Y-148901221D01*
X111041798Y-148953744D01*
X111043057Y-148955604D01*
X111043060Y-148955607D01*
X111069276Y-148981823D01*
X111074175Y-148987342D01*
X111097109Y-149016504D01*
X111146737Y-149059507D01*
X111149962Y-149062509D01*
X112340978Y-150253526D01*
X112595689Y-150508237D01*
X112609013Y-150523988D01*
X112610912Y-150526654D01*
X112651585Y-150565436D01*
X112679069Y-150591642D01*
X112680085Y-150592633D01*
X112708296Y-150620844D01*
X112708306Y-150620853D01*
X112712292Y-150624144D01*
X112717038Y-150628062D01*
X112720342Y-150630995D01*
X112767858Y-150676301D01*
X112799051Y-150696347D01*
X112804997Y-150700687D01*
X112833617Y-150724318D01*
X112891253Y-150755789D01*
X112895054Y-150758045D01*
X112950286Y-150793540D01*
X112984730Y-150807329D01*
X112991384Y-150810465D01*
X113023946Y-150828245D01*
X113086505Y-150848242D01*
X113090643Y-150849730D01*
X113151607Y-150874137D01*
X113188039Y-150881159D01*
X113195168Y-150882978D01*
X113220307Y-150891014D01*
X113230503Y-150894274D01*
X113295692Y-150902068D01*
X113300067Y-150902750D01*
X113364536Y-150915176D01*
X113364537Y-150915176D01*
X113364542Y-150915177D01*
X113401632Y-150915177D01*
X113408999Y-150915616D01*
X113411646Y-150915932D01*
X113445824Y-150920019D01*
X113511317Y-150915334D01*
X113515739Y-150915177D01*
X120607323Y-150915177D01*
X120674362Y-150934862D01*
X120720117Y-150987666D01*
X120731323Y-151039177D01*
X120731323Y-153184854D01*
X120711638Y-153251893D01*
X120658834Y-153297648D01*
X120607323Y-153308854D01*
X95792950Y-153308854D01*
X95789702Y-153308769D01*
X95657457Y-153301834D01*
X95474360Y-153291550D01*
X95468132Y-153290884D01*
X95315068Y-153266637D01*
X95153262Y-153239144D01*
X95147597Y-153237907D01*
X94994042Y-153196758D01*
X94839758Y-153152310D01*
X94834705Y-153150615D01*
X94685388Y-153093295D01*
X94683881Y-153092695D01*
X94537524Y-153032070D01*
X94533101Y-153030031D01*
X94474106Y-152999970D01*
X94389853Y-152957040D01*
X94388022Y-152956067D01*
X94250116Y-152879850D01*
X94246338Y-152877583D01*
X94111115Y-152789766D01*
X94109005Y-152788333D01*
X93980854Y-152697403D01*
X93977714Y-152695021D01*
X93852250Y-152593422D01*
X93849954Y-152591468D01*
X93732917Y-152486875D01*
X93730389Y-152484486D01*
X93616200Y-152370296D01*
X93613810Y-152367769D01*
X93509216Y-152250727D01*
X93507262Y-152248431D01*
X93405658Y-152122961D01*
X93403276Y-152119820D01*
X93312343Y-151991661D01*
X93310911Y-151989551D01*
X93282477Y-151945767D01*
X93223097Y-151854330D01*
X93220845Y-151850576D01*
X93144596Y-151712613D01*
X93143643Y-151710816D01*
X93070652Y-151567563D01*
X93068613Y-151563141D01*
X93008008Y-151416826D01*
X93007438Y-151415401D01*
X92950062Y-151265937D01*
X92948384Y-151260930D01*
X92903948Y-151106687D01*
X92862778Y-150953044D01*
X92861553Y-150947437D01*
X92834063Y-150785645D01*
X92809805Y-150632494D01*
X92809145Y-150626325D01*
X92799062Y-150447008D01*
X92791907Y-150310532D01*
X92791823Y-150307295D01*
X92791823Y-143605505D01*
X95200823Y-143605505D01*
X95215945Y-143773540D01*
X95215946Y-143773546D01*
X95275826Y-143990514D01*
X95275831Y-143990527D01*
X95373490Y-144193320D01*
X95373494Y-144193328D01*
X95505796Y-144375426D01*
X95505797Y-144375428D01*
X95505800Y-144375431D01*
X95505801Y-144375432D01*
X95590970Y-144456862D01*
X95668499Y-144530987D01*
X95856356Y-144654990D01*
X96063327Y-144743454D01*
X96063330Y-144743455D01*
X96063335Y-144743457D01*
X96282786Y-144793545D01*
X96507653Y-144803644D01*
X96730710Y-144773429D01*
X96944787Y-144703871D01*
X97143004Y-144597206D01*
X97318989Y-144456862D01*
X97467088Y-144287350D01*
X97582538Y-144094118D01*
X97661630Y-143883378D01*
X97701823Y-143661901D01*
X97701823Y-142693199D01*
X97686700Y-142525166D01*
X97656387Y-142415330D01*
X97626819Y-142308193D01*
X97626814Y-142308180D01*
X97529155Y-142105387D01*
X97529151Y-142105379D01*
X97396849Y-141923281D01*
X97396848Y-141923279D01*
X97371824Y-141899354D01*
X97234148Y-141767722D01*
X97234146Y-141767720D01*
X97046289Y-141643717D01*
X96839318Y-141555253D01*
X96839305Y-141555249D01*
X96619865Y-141505164D01*
X96619861Y-141505163D01*
X96619860Y-141505163D01*
X96619859Y-141505162D01*
X96619854Y-141505162D01*
X96394997Y-141495064D01*
X96394996Y-141495064D01*
X96394993Y-141495064D01*
X96171936Y-141525279D01*
X96171933Y-141525279D01*
X96171932Y-141525280D01*
X95957857Y-141594837D01*
X95759644Y-141701500D01*
X95759641Y-141701502D01*
X95583659Y-141841843D01*
X95435559Y-142011357D01*
X95320110Y-142204586D01*
X95320109Y-142204588D01*
X95241015Y-142415330D01*
X95200823Y-142636804D01*
X95200823Y-143605505D01*
X92791823Y-143605505D01*
X92791823Y-133057117D01*
X111257110Y-133057117D01*
X111286736Y-133326367D01*
X111286738Y-133326378D01*
X111355249Y-133588436D01*
X111355251Y-133588442D01*
X111461193Y-133837744D01*
X111531823Y-133953475D01*
X111602302Y-134068959D01*
X111602309Y-134068969D01*
X111775576Y-134277173D01*
X111775582Y-134277178D01*
X111977321Y-134457936D01*
X112203233Y-134607398D01*
X112448499Y-134722374D01*
X112448506Y-134722376D01*
X112448508Y-134722377D01*
X112707880Y-134800411D01*
X112707887Y-134800412D01*
X112707892Y-134800414D01*
X112975884Y-134839854D01*
X112975889Y-134839854D01*
X113178952Y-134839854D01*
X113178954Y-134839854D01*
X113178959Y-134839853D01*
X113178971Y-134839853D01*
X113216514Y-134837104D01*
X113381479Y-134825031D01*
X113494081Y-134799947D01*
X113645869Y-134766136D01*
X113645871Y-134766135D01*
X113645876Y-134766134D01*
X113898881Y-134669368D01*
X114135100Y-134536795D01*
X114349500Y-134371242D01*
X114537509Y-134176235D01*
X114695122Y-133955933D01*
X114769110Y-133812023D01*
X114818972Y-133715044D01*
X114818974Y-133715038D01*
X114818979Y-133715029D01*
X114906441Y-133458659D01*
X114955642Y-133192287D01*
X114965535Y-132921589D01*
X114935909Y-132652336D01*
X114867395Y-132390266D01*
X114761453Y-132140964D01*
X114620341Y-131909744D01*
X114531070Y-131802473D01*
X114447069Y-131701534D01*
X114447063Y-131701529D01*
X114245325Y-131520772D01*
X114019415Y-131371311D01*
X114019413Y-131371310D01*
X113774147Y-131256334D01*
X113774142Y-131256332D01*
X113774137Y-131256330D01*
X113514765Y-131178296D01*
X113514751Y-131178293D01*
X113399114Y-131161275D01*
X113246762Y-131138854D01*
X113043692Y-131138854D01*
X113043674Y-131138854D01*
X112841167Y-131153677D01*
X112841154Y-131153679D01*
X112576776Y-131212571D01*
X112576769Y-131212574D01*
X112323762Y-131309341D01*
X112087549Y-131441911D01*
X111873145Y-131607466D01*
X111685145Y-131802463D01*
X111685139Y-131802470D01*
X111527525Y-132022773D01*
X111527522Y-132022778D01*
X111403673Y-132263663D01*
X111403666Y-132263681D01*
X111316207Y-132520039D01*
X111316204Y-132520053D01*
X111267004Y-132786422D01*
X111267003Y-132786429D01*
X111257110Y-133057117D01*
X92791823Y-133057117D01*
X92791823Y-82257117D01*
X111257110Y-82257117D01*
X111286736Y-82526367D01*
X111286738Y-82526378D01*
X111355249Y-82788436D01*
X111355251Y-82788442D01*
X111461193Y-83037744D01*
X111533321Y-83155929D01*
X111602302Y-83268959D01*
X111602309Y-83268969D01*
X111775576Y-83477173D01*
X111775582Y-83477178D01*
X111977321Y-83657936D01*
X112203233Y-83807398D01*
X112448499Y-83922374D01*
X112448506Y-83922376D01*
X112448508Y-83922377D01*
X112707880Y-84000411D01*
X112707887Y-84000412D01*
X112707892Y-84000414D01*
X112975884Y-84039854D01*
X112975889Y-84039854D01*
X113178952Y-84039854D01*
X113178954Y-84039854D01*
X113178959Y-84039853D01*
X113178971Y-84039853D01*
X113216514Y-84037104D01*
X113381479Y-84025031D01*
X113494081Y-83999947D01*
X113645869Y-83966136D01*
X113645871Y-83966135D01*
X113645876Y-83966134D01*
X113898881Y-83869368D01*
X114135100Y-83736795D01*
X114349500Y-83571242D01*
X114537509Y-83376235D01*
X114695122Y-83155933D01*
X114769110Y-83012023D01*
X114818972Y-82915044D01*
X114818974Y-82915038D01*
X114818979Y-82915029D01*
X114906441Y-82658659D01*
X114955642Y-82392287D01*
X114965535Y-82121589D01*
X114935909Y-81852336D01*
X114867395Y-81590266D01*
X114761453Y-81340964D01*
X114620341Y-81109744D01*
X114531070Y-81002473D01*
X114447069Y-80901534D01*
X114447063Y-80901529D01*
X114245325Y-80720772D01*
X114019415Y-80571311D01*
X114019413Y-80571310D01*
X113774147Y-80456334D01*
X113774142Y-80456332D01*
X113774137Y-80456330D01*
X113514765Y-80378296D01*
X113514751Y-80378293D01*
X113399114Y-80361275D01*
X113246762Y-80338854D01*
X113043692Y-80338854D01*
X113043674Y-80338854D01*
X112841167Y-80353677D01*
X112841154Y-80353679D01*
X112576776Y-80412571D01*
X112576769Y-80412574D01*
X112323762Y-80509341D01*
X112087549Y-80641911D01*
X111873145Y-80807466D01*
X111685145Y-81002463D01*
X111685139Y-81002470D01*
X111527525Y-81222773D01*
X111527522Y-81222778D01*
X111403673Y-81463663D01*
X111403666Y-81463681D01*
X111316207Y-81720039D01*
X111316204Y-81720053D01*
X111267004Y-81986422D01*
X111267003Y-81986429D01*
X111257110Y-82257117D01*
X92791823Y-82257117D01*
X92791823Y-64865505D01*
X95200823Y-64865505D01*
X95215945Y-65033540D01*
X95215946Y-65033546D01*
X95275826Y-65250514D01*
X95275831Y-65250527D01*
X95373490Y-65453320D01*
X95373494Y-65453328D01*
X95505796Y-65635426D01*
X95505797Y-65635428D01*
X95505800Y-65635431D01*
X95505801Y-65635432D01*
X95590970Y-65716862D01*
X95668499Y-65790987D01*
X95856356Y-65914990D01*
X96063327Y-66003454D01*
X96063330Y-66003455D01*
X96063335Y-66003457D01*
X96282786Y-66053545D01*
X96507653Y-66063644D01*
X96730710Y-66033429D01*
X96944787Y-65963871D01*
X97143004Y-65857206D01*
X97318989Y-65716862D01*
X97369233Y-65659354D01*
X101470664Y-65659354D01*
X101491259Y-65894757D01*
X101491261Y-65894767D01*
X101552417Y-66123009D01*
X101552419Y-66123013D01*
X101552420Y-66123017D01*
X101602353Y-66230099D01*
X101652287Y-66337182D01*
X101652288Y-66337184D01*
X101787828Y-66530756D01*
X101954920Y-66697848D01*
X102148492Y-66833388D01*
X102148494Y-66833389D01*
X102362660Y-66933257D01*
X102590915Y-66994417D01*
X102767355Y-67009853D01*
X102767356Y-67009854D01*
X102767357Y-67009854D01*
X103135290Y-67009854D01*
X103135290Y-67009853D01*
X103311731Y-66994417D01*
X103539986Y-66933257D01*
X103754152Y-66833389D01*
X103947724Y-66697849D01*
X104114818Y-66530755D01*
X104250358Y-66337184D01*
X104350226Y-66123017D01*
X104411386Y-65894762D01*
X104431982Y-65659354D01*
X104411386Y-65423946D01*
X104350226Y-65195691D01*
X104250358Y-64981525D01*
X104250357Y-64981523D01*
X104114817Y-64787951D01*
X103947726Y-64620860D01*
X103891510Y-64581498D01*
X103790724Y-64510927D01*
X103747101Y-64456353D01*
X103739907Y-64386854D01*
X103771429Y-64324499D01*
X103790721Y-64307782D01*
X103947724Y-64197849D01*
X104114818Y-64030755D01*
X104250358Y-63837184D01*
X104350226Y-63623017D01*
X104411386Y-63394762D01*
X104431982Y-63159354D01*
X104411386Y-62923946D01*
X104350226Y-62695691D01*
X104250358Y-62481525D01*
X104250357Y-62481523D01*
X104114817Y-62287951D01*
X103967618Y-62140752D01*
X103934133Y-62079429D01*
X103939117Y-62009737D01*
X103980989Y-61953804D01*
X103990203Y-61947532D01*
X103995657Y-61944168D01*
X104144979Y-61852066D01*
X104269035Y-61728010D01*
X104361137Y-61578688D01*
X104416322Y-61412151D01*
X104426823Y-61309363D01*
X104426822Y-60009346D01*
X104416322Y-59906557D01*
X104361137Y-59740020D01*
X104269035Y-59590698D01*
X104144979Y-59466642D01*
X103995657Y-59374540D01*
X103829120Y-59319355D01*
X103829118Y-59319354D01*
X103726333Y-59308854D01*
X102176321Y-59308854D01*
X102176304Y-59308855D01*
X102073526Y-59319354D01*
X102073523Y-59319355D01*
X101906991Y-59374539D01*
X101906986Y-59374541D01*
X101757665Y-59466643D01*
X101633612Y-59590696D01*
X101541510Y-59740017D01*
X101541508Y-59740020D01*
X101541509Y-59740020D01*
X101486324Y-59906557D01*
X101486324Y-59906558D01*
X101486323Y-59906558D01*
X101475823Y-60009337D01*
X101475823Y-61309355D01*
X101475824Y-61309372D01*
X101486323Y-61412150D01*
X101486324Y-61412153D01*
X101541508Y-61578685D01*
X101541510Y-61578690D01*
X101633612Y-61728011D01*
X101757667Y-61852066D01*
X101912443Y-61947532D01*
X101959168Y-61999480D01*
X101970391Y-62068442D01*
X101942547Y-62132525D01*
X101935029Y-62140752D01*
X101787824Y-62287957D01*
X101787824Y-62287958D01*
X101652290Y-62481519D01*
X101652288Y-62481523D01*
X101552421Y-62695689D01*
X101552417Y-62695698D01*
X101491261Y-62923940D01*
X101491259Y-62923950D01*
X101470664Y-63159353D01*
X101470664Y-63159354D01*
X101491259Y-63394757D01*
X101491261Y-63394767D01*
X101552417Y-63623009D01*
X101552419Y-63623013D01*
X101552420Y-63623017D01*
X101576814Y-63675330D01*
X101652287Y-63837182D01*
X101652288Y-63837184D01*
X101787828Y-64030756D01*
X101954920Y-64197848D01*
X102111918Y-64307779D01*
X102155543Y-64362356D01*
X102162737Y-64431854D01*
X102131214Y-64494209D01*
X102111918Y-64510929D01*
X101954920Y-64620859D01*
X101787829Y-64787951D01*
X101787824Y-64787958D01*
X101652290Y-64981519D01*
X101652288Y-64981523D01*
X101552421Y-65195689D01*
X101552417Y-65195698D01*
X101491261Y-65423940D01*
X101491259Y-65423950D01*
X101470664Y-65659353D01*
X101470664Y-65659354D01*
X97369233Y-65659354D01*
X97467088Y-65547350D01*
X97582538Y-65354118D01*
X97661630Y-65143378D01*
X97701823Y-64921901D01*
X97701823Y-63953199D01*
X97686700Y-63785166D01*
X97656387Y-63675330D01*
X97626819Y-63568193D01*
X97626814Y-63568180D01*
X97529155Y-63365387D01*
X97529151Y-63365379D01*
X97396849Y-63183281D01*
X97396848Y-63183279D01*
X97371824Y-63159354D01*
X97234148Y-63027722D01*
X97234146Y-63027720D01*
X97046289Y-62903717D01*
X96839318Y-62815253D01*
X96839305Y-62815249D01*
X96619865Y-62765164D01*
X96619861Y-62765163D01*
X96619860Y-62765163D01*
X96619859Y-62765162D01*
X96619854Y-62765162D01*
X96394997Y-62755064D01*
X96394996Y-62755064D01*
X96394993Y-62755064D01*
X96171936Y-62785279D01*
X96171933Y-62785279D01*
X96171932Y-62785280D01*
X95957857Y-62854837D01*
X95759644Y-62961500D01*
X95759641Y-62961502D01*
X95583659Y-63101843D01*
X95435559Y-63271357D01*
X95320110Y-63464586D01*
X95320109Y-63464588D01*
X95241015Y-63675330D01*
X95200823Y-63896804D01*
X95200823Y-64865505D01*
X92791823Y-64865505D01*
X92791823Y-57250973D01*
X92791908Y-57247729D01*
X92798787Y-57116424D01*
X92809129Y-56932266D01*
X92809792Y-56926071D01*
X92833812Y-56774399D01*
X92861570Y-56611031D01*
X92862788Y-56605455D01*
X92903562Y-56453276D01*
X92948457Y-56297442D01*
X92950137Y-56292432D01*
X93006935Y-56144463D01*
X93007463Y-56143136D01*
X93068777Y-55995111D01*
X93070794Y-55990734D01*
X93143124Y-55848776D01*
X93144000Y-55847126D01*
X93221107Y-55707610D01*
X93223361Y-55703852D01*
X93310340Y-55569914D01*
X93311661Y-55567968D01*
X93403687Y-55438268D01*
X93406044Y-55435161D01*
X93506670Y-55310897D01*
X93508525Y-55308717D01*
X93614369Y-55190277D01*
X93616706Y-55187807D01*
X93729788Y-55074724D01*
X93732277Y-55072371D01*
X93850716Y-54966527D01*
X93852922Y-54964651D01*
X93977114Y-54864082D01*
X93980230Y-54861718D01*
X94109955Y-54769672D01*
X94111947Y-54768319D01*
X94245824Y-54681378D01*
X94249514Y-54679164D01*
X94389158Y-54601985D01*
X94390906Y-54601057D01*
X94532657Y-54528832D01*
X94537025Y-54526818D01*
X94685234Y-54465427D01*
X94686541Y-54464905D01*
X94834368Y-54408160D01*
X94839358Y-54406488D01*
X94995489Y-54361505D01*
X95147335Y-54320818D01*
X95152966Y-54319589D01*
X95316966Y-54291723D01*
X95467964Y-54267808D01*
X95474162Y-54267146D01*
X95664391Y-54256474D01*
X95789108Y-54249938D01*
X95792350Y-54249854D01*
X120607323Y-54249854D01*
X120674362Y-54269539D01*
G37*
%TD.AperFunction*%
%TD*%
%TA.AperFunction,Conductor*%
%TO.N,Motor_4A*%
G36*
X188852944Y-54249938D02*
G01*
X188984216Y-54256815D01*
X189168433Y-54267160D01*
X189174607Y-54267821D01*
X189326323Y-54291848D01*
X189489619Y-54319592D01*
X189495251Y-54320823D01*
X189647449Y-54361601D01*
X189803243Y-54406484D01*
X189808228Y-54408156D01*
X189955408Y-54464651D01*
X189956193Y-54464952D01*
X189957678Y-54465544D01*
X190105551Y-54526793D01*
X190109942Y-54528818D01*
X190251849Y-54601121D01*
X190253667Y-54602086D01*
X190393050Y-54679120D01*
X190396827Y-54681386D01*
X190530747Y-54768352D01*
X190532828Y-54769766D01*
X190662361Y-54861674D01*
X190665502Y-54864056D01*
X190727551Y-54914302D01*
X190789752Y-54964670D01*
X190792048Y-54966624D01*
X190910349Y-55072344D01*
X190912866Y-55074724D01*
X191025966Y-55187823D01*
X191028355Y-55190351D01*
X191134088Y-55308665D01*
X191136014Y-55310929D01*
X191236620Y-55435167D01*
X191239003Y-55438308D01*
X191330931Y-55567868D01*
X191332363Y-55569978D01*
X191419298Y-55703845D01*
X191421565Y-55707624D01*
X191498601Y-55847010D01*
X191499580Y-55848854D01*
X191571863Y-55990718D01*
X191573892Y-55995119D01*
X191602393Y-56063925D01*
X191635137Y-56142978D01*
X191635738Y-56144485D01*
X191692519Y-56292404D01*
X191694214Y-56297461D01*
X191739109Y-56453292D01*
X191744040Y-56471693D01*
X191779865Y-56605402D01*
X191781103Y-56611066D01*
X191808859Y-56774430D01*
X191832871Y-56926049D01*
X191833537Y-56932279D01*
X191844079Y-57120227D01*
X191850738Y-57247304D01*
X191850823Y-57250549D01*
X191850823Y-76985354D01*
X191831138Y-77052393D01*
X191778334Y-77098148D01*
X191726823Y-77109354D01*
X171655323Y-77109354D01*
X171588284Y-77089669D01*
X171542529Y-77036865D01*
X171531323Y-76985354D01*
X171531323Y-67073354D01*
X171551008Y-67006315D01*
X171603812Y-66960560D01*
X171655323Y-66949354D01*
X181691323Y-66949354D01*
X181691323Y-54373854D01*
X181711008Y-54306815D01*
X181763812Y-54261060D01*
X181815323Y-54249854D01*
X188849703Y-54249854D01*
X188852944Y-54249938D01*
G37*
%TD.AperFunction*%
%TD*%
D20*
X92791346Y-150309354D02*
G75*
G03*
X95791323Y-153309354I3000000J0D01*
G01*
X191851323Y-150309354D02*
X191851323Y-57249354D01*
X191851346Y-57249354D02*
G75*
G03*
X188851323Y-54249354I-3000000J0D01*
G01*
X188851323Y-153309331D02*
G75*
G03*
X191851323Y-150309354I23J2999977D01*
G01*
X95791323Y-153309354D02*
X188851323Y-153309354D01*
X95791323Y-54249331D02*
G75*
G03*
X92791323Y-57249354I23J-3000023D01*
G01*
X188851323Y-54249354D02*
X95791323Y-54249354D01*
X92791323Y-57249354D02*
X92791323Y-150309354D01*
M02*
