%TF.GenerationSoftware,KiCad,Pcbnew,7.0.5*%
%TF.CreationDate,2024-03-06T21:45:59+09:00*%
%TF.ProjectId,blackMD_mother,626c6163-6b4d-4445-9f6d-6f746865722e,rev?*%
%TF.SameCoordinates,PX587e21bPY928d170*%
%TF.FileFunction,Soldermask,Top*%
%TF.FilePolarity,Negative*%
%FSLAX46Y46*%
G04 Gerber Fmt 4.6, Leading zero omitted, Abs format (unit mm)*
G04 Created by KiCad (PCBNEW 7.0.5) date 2024-03-06 21:45:59*
%MOMM*%
%LPD*%
G01*
G04 APERTURE LIST*
G04 Aperture macros list*
%AMRoundRect*
0 Rectangle with rounded corners*
0 $1 Rounding radius*
0 $2 $3 $4 $5 $6 $7 $8 $9 X,Y pos of 4 corners*
0 Add a 4 corners polygon primitive as box body*
4,1,4,$2,$3,$4,$5,$6,$7,$8,$9,$2,$3,0*
0 Add four circle primitives for the rounded corners*
1,1,$1+$1,$2,$3*
1,1,$1+$1,$4,$5*
1,1,$1+$1,$6,$7*
1,1,$1+$1,$8,$9*
0 Add four rect primitives between the rounded corners*
20,1,$1+$1,$2,$3,$4,$5,0*
20,1,$1+$1,$4,$5,$6,$7,0*
20,1,$1+$1,$6,$7,$8,$9,0*
20,1,$1+$1,$8,$9,$2,$3,0*%
G04 Aperture macros list end*
%ADD10O,2.000000X2.800000*%
%ADD11RoundRect,0.250000X0.725000X-0.600000X0.725000X0.600000X-0.725000X0.600000X-0.725000X-0.600000X0*%
%ADD12O,1.950000X1.700000*%
%ADD13C,3.200000*%
%ADD14RoundRect,1.500000X-1.500000X-1.500000X1.500000X-1.500000X1.500000X1.500000X-1.500000X1.500000X0*%
%ADD15C,6.000000*%
%ADD16R,1.700000X1.700000*%
%ADD17O,1.700000X1.700000*%
%ADD18RoundRect,1.500000X1.500000X1.500000X-1.500000X1.500000X-1.500000X-1.500000X1.500000X-1.500000X0*%
%ADD19R,2.000000X2.000000*%
%ADD20C,2.000000*%
%TA.AperFunction,Profile*%
%ADD21C,0.100000*%
%TD*%
G04 APERTURE END LIST*
D10*
%TO.C,I2C_IN*%
X95400000Y10160000D03*
D11*
X88900000Y6410000D03*
D12*
X88900000Y8910000D03*
X88900000Y11410000D03*
X88900000Y13910000D03*
%TD*%
D13*
%TO.C,REF\u002A\u002A*%
X36830000Y78740000D03*
%TD*%
%TO.C,REF\u002A\u002A*%
X78740000Y27940000D03*
%TD*%
%TO.C,REF\u002A\u002A*%
X36830000Y27940000D03*
%TD*%
%TO.C,REF\u002A\u002A*%
X78740000Y78740000D03*
%TD*%
D10*
%TO.C,I2C_OUT*%
X95400000Y88900000D03*
D11*
X88900000Y85150000D03*
D12*
X88900000Y87650000D03*
X88900000Y90150000D03*
X88900000Y92650000D03*
%TD*%
D14*
%TO.C,Motor2_OUT*%
X6350000Y31750000D03*
D15*
X13550000Y31750000D03*
%TD*%
D16*
%TO.C,Motor2_MD*%
X10190000Y43045323D03*
D17*
X10190000Y40505323D03*
X12730000Y43045323D03*
X12730000Y40505323D03*
X15270000Y43045323D03*
X15270000Y40505323D03*
X17810000Y43045323D03*
X17810000Y40505323D03*
X20350000Y43045323D03*
X20350000Y40505323D03*
X22890000Y43045323D03*
X22890000Y40505323D03*
X25430000Y43045323D03*
X25430000Y40505323D03*
X27970000Y43045323D03*
X27970000Y40505323D03*
X30510000Y43045323D03*
X30510000Y40505323D03*
X33050000Y43045323D03*
X33050000Y40505323D03*
X35590000Y43045323D03*
X35590000Y40505323D03*
X38130000Y43045323D03*
X38130000Y40505323D03*
X40670000Y43045323D03*
X40670000Y40505323D03*
X43210000Y43045323D03*
X43210000Y40505323D03*
X45750000Y43045323D03*
X45750000Y40505323D03*
X48290000Y43045323D03*
X48290000Y40505323D03*
X50830000Y43045323D03*
X50830000Y40505323D03*
X53370000Y43045323D03*
X53370000Y40505323D03*
X55910000Y43045323D03*
X55910000Y40505323D03*
X58450000Y43045323D03*
X58450000Y40505323D03*
X60990000Y43045323D03*
X60990000Y40505323D03*
X63530000Y43045323D03*
X63530000Y40505323D03*
X66070000Y43045323D03*
X66070000Y40505323D03*
X68610000Y43045323D03*
X68610000Y40505323D03*
X71150000Y43045323D03*
X71150000Y40505323D03*
%TD*%
D14*
%TO.C,Motor4_OUT*%
X6350000Y82550000D03*
D15*
X13550000Y82550000D03*
%TD*%
D18*
%TO.C,Power_IN*%
X50590000Y4945323D03*
D15*
X43390000Y4945323D03*
%TD*%
D14*
%TO.C,Motor3_OUT*%
X6350000Y57150000D03*
D15*
X13550000Y57150000D03*
%TD*%
D16*
%TO.C,Motor4_MD*%
X10160000Y93845323D03*
D17*
X10160000Y91305323D03*
X12700000Y93845323D03*
X12700000Y91305323D03*
X15240000Y93845323D03*
X15240000Y91305323D03*
X17780000Y93845323D03*
X17780000Y91305323D03*
X20320000Y93845323D03*
X20320000Y91305323D03*
X22860000Y93845323D03*
X22860000Y91305323D03*
X25400000Y93845323D03*
X25400000Y91305323D03*
X27940000Y93845323D03*
X27940000Y91305323D03*
X30480000Y93845323D03*
X30480000Y91305323D03*
X33020000Y93845323D03*
X33020000Y91305323D03*
X35560000Y93845323D03*
X35560000Y91305323D03*
X38100000Y93845323D03*
X38100000Y91305323D03*
X40640000Y93845323D03*
X40640000Y91305323D03*
X43180000Y93845323D03*
X43180000Y91305323D03*
X45720000Y93845323D03*
X45720000Y91305323D03*
X48260000Y93845323D03*
X48260000Y91305323D03*
X50800000Y93845323D03*
X50800000Y91305323D03*
X53340000Y93845323D03*
X53340000Y91305323D03*
X55880000Y93845323D03*
X55880000Y91305323D03*
X58420000Y93845323D03*
X58420000Y91305323D03*
X60960000Y93845323D03*
X60960000Y91305323D03*
X63500000Y93845323D03*
X63500000Y91305323D03*
X66040000Y93845323D03*
X66040000Y91305323D03*
X68580000Y93845323D03*
X68580000Y91305323D03*
X71120000Y93845323D03*
X71120000Y91305323D03*
%TD*%
D19*
%TO.C,C2*%
X46990000Y56843000D03*
D20*
X46990000Y51843000D03*
%TD*%
D19*
%TO.C,C3*%
X46990000Y82243000D03*
D20*
X46990000Y77243000D03*
%TD*%
D16*
%TO.C,Motor3_MD*%
X10160000Y68445323D03*
D17*
X10160000Y65905323D03*
X12700000Y68445323D03*
X12700000Y65905323D03*
X15240000Y68445323D03*
X15240000Y65905323D03*
X17780000Y68445323D03*
X17780000Y65905323D03*
X20320000Y68445323D03*
X20320000Y65905323D03*
X22860000Y68445323D03*
X22860000Y65905323D03*
X25400000Y68445323D03*
X25400000Y65905323D03*
X27940000Y68445323D03*
X27940000Y65905323D03*
X30480000Y68445323D03*
X30480000Y65905323D03*
X33020000Y68445323D03*
X33020000Y65905323D03*
X35560000Y68445323D03*
X35560000Y65905323D03*
X38100000Y68445323D03*
X38100000Y65905323D03*
X40640000Y68445323D03*
X40640000Y65905323D03*
X43180000Y68445323D03*
X43180000Y65905323D03*
X45720000Y68445323D03*
X45720000Y65905323D03*
X48260000Y68445323D03*
X48260000Y65905323D03*
X50800000Y68445323D03*
X50800000Y65905323D03*
X53340000Y68445323D03*
X53340000Y65905323D03*
X55880000Y68445323D03*
X55880000Y65905323D03*
X58420000Y68445323D03*
X58420000Y65905323D03*
X60960000Y68445323D03*
X60960000Y65905323D03*
X63500000Y68445323D03*
X63500000Y65905323D03*
X66040000Y68445323D03*
X66040000Y65905323D03*
X68580000Y68445323D03*
X68580000Y65905323D03*
X71120000Y68445323D03*
X71120000Y65905323D03*
%TD*%
D19*
%TO.C,C1*%
X46990000Y31443000D03*
D20*
X46990000Y26443000D03*
%TD*%
D14*
%TO.C,Motor1_OUT*%
X6350000Y6350000D03*
D15*
X13550000Y6350000D03*
%TD*%
D16*
%TO.C,Motor1_MD*%
X10160000Y17645323D03*
D17*
X10160000Y15105323D03*
X12700000Y17645323D03*
X12700000Y15105323D03*
X15240000Y17645323D03*
X15240000Y15105323D03*
X17780000Y17645323D03*
X17780000Y15105323D03*
X20320000Y17645323D03*
X20320000Y15105323D03*
X22860000Y17645323D03*
X22860000Y15105323D03*
X25400000Y17645323D03*
X25400000Y15105323D03*
X27940000Y17645323D03*
X27940000Y15105323D03*
X30480000Y17645323D03*
X30480000Y15105323D03*
X33020000Y17645323D03*
X33020000Y15105323D03*
X35560000Y17645323D03*
X35560000Y15105323D03*
X38100000Y17645323D03*
X38100000Y15105323D03*
X40640000Y17645323D03*
X40640000Y15105323D03*
X43180000Y17645323D03*
X43180000Y15105323D03*
X45720000Y17645323D03*
X45720000Y15105323D03*
X48260000Y17645323D03*
X48260000Y15105323D03*
X50800000Y17645323D03*
X50800000Y15105323D03*
X53340000Y17645323D03*
X53340000Y15105323D03*
X55880000Y17645323D03*
X55880000Y15105323D03*
X58420000Y17645323D03*
X58420000Y15105323D03*
X60960000Y17645323D03*
X60960000Y15105323D03*
X63500000Y17645323D03*
X63500000Y15105323D03*
X66040000Y17645323D03*
X66040000Y15105323D03*
X68580000Y17645323D03*
X68580000Y15105323D03*
X71120000Y17645323D03*
X71120000Y15105323D03*
%TD*%
D21*
X99060000Y0D02*
X0Y0D01*
X0Y99060000D01*
X99060000Y99060000D01*
X99060000Y0D01*
M02*
